<svg width="1440" height="2524" viewBox="0 0 1440 2524" fill="none" xmlns="http://www.w3.org/2000/svg">
<rect width="1440" height="2524" rx="8" fill="#DAE5F1"/>
<rect x="60" y="60" width="1320" height="90" rx="20" fill="white" fill-opacity="0.3"/>
<circle cx="25" cy="25" r="25" transform="matrix(-1 0 0 1 150 80)" fill="#BFE002"/>
<path d="M128 113L120 105L128 97" stroke="black" stroke-width="3" stroke-linecap="round" stroke-linejoin="round"/>
<g filter="url(#filter0_d_3021_925)">
<path d="M168.185 111V99.3636H172.332C173.238 99.3636 173.988 99.5284 174.582 99.858C175.177 100.187 175.622 100.638 175.918 101.21C176.213 101.778 176.361 102.419 176.361 103.131C176.361 103.847 176.211 104.491 175.912 105.062C175.616 105.631 175.17 106.081 174.571 106.415C173.976 106.744 173.228 106.909 172.327 106.909H169.474V105.42H172.168C172.74 105.42 173.204 105.322 173.56 105.125C173.916 104.924 174.177 104.652 174.344 104.307C174.51 103.962 174.594 103.57 174.594 103.131C174.594 102.691 174.51 102.301 174.344 101.96C174.177 101.619 173.914 101.352 173.554 101.159C173.198 100.966 172.728 100.869 172.145 100.869H169.94V111H168.185ZM178.419 111V99.3636H182.567C183.468 99.3636 184.216 99.5189 184.811 99.8295C185.41 100.14 185.857 100.57 186.152 101.119C186.447 101.665 186.595 102.295 186.595 103.011C186.595 103.723 186.446 104.35 186.146 104.892C185.851 105.43 185.404 105.848 184.805 106.148C184.211 106.447 183.463 106.597 182.561 106.597H179.419V105.085H182.402C182.97 105.085 183.432 105.004 183.788 104.841C184.148 104.678 184.411 104.441 184.578 104.131C184.745 103.82 184.828 103.447 184.828 103.011C184.828 102.572 184.743 102.191 184.572 101.869C184.406 101.547 184.143 101.301 183.783 101.131C183.427 100.956 182.959 100.869 182.379 100.869H180.175V111H178.419ZM184.163 105.75L187.038 111H185.038L182.22 105.75H184.163ZM188.732 111V99.3636H196.027V100.875H190.487V104.42H195.646V105.926H190.487V109.489H196.095V111H188.732ZM199.389 99.3636L202.628 108.841H202.759L205.997 99.3636H207.895L203.707 111H201.679L197.491 99.3636H199.389ZM211.331 99.3636V111H209.575V99.3636H211.331ZM223.996 105.182C223.996 106.424 223.768 107.492 223.314 108.386C222.859 109.277 222.236 109.962 221.445 110.443C220.657 110.92 219.761 111.159 218.757 111.159C217.75 111.159 216.85 110.92 216.058 110.443C215.27 109.962 214.649 109.275 214.195 108.381C213.74 107.487 213.513 106.42 213.513 105.182C213.513 103.939 213.74 102.873 214.195 101.983C214.649 101.089 215.27 100.403 216.058 99.9261C216.85 99.4451 217.75 99.2045 218.757 99.2045C219.761 99.2045 220.657 99.4451 221.445 99.9261C222.236 100.403 222.859 101.089 223.314 101.983C223.768 102.873 223.996 103.939 223.996 105.182ZM222.257 105.182C222.257 104.235 222.104 103.437 221.797 102.79C221.494 102.138 221.077 101.646 220.547 101.312C220.02 100.975 219.424 100.807 218.757 100.807C218.087 100.807 217.488 100.975 216.962 101.312C216.435 101.646 216.018 102.138 215.712 102.79C215.409 103.437 215.257 104.235 215.257 105.182C215.257 106.129 215.409 106.928 215.712 107.58C216.018 108.227 216.435 108.72 216.962 109.057C217.488 109.39 218.087 109.557 218.757 109.557C219.424 109.557 220.02 109.39 220.547 109.057C221.077 108.72 221.494 108.227 221.797 107.58C222.104 106.928 222.257 106.129 222.257 105.182ZM233.668 99.3636H235.429V107.017C235.429 107.831 235.238 108.553 234.855 109.182C234.473 109.807 233.935 110.299 233.241 110.659C232.548 111.015 231.736 111.193 230.804 111.193C229.876 111.193 229.065 111.015 228.372 110.659C227.679 110.299 227.141 109.807 226.759 109.182C226.376 108.553 226.185 107.831 226.185 107.017V99.3636H227.94V106.875C227.94 107.402 228.056 107.869 228.287 108.278C228.522 108.688 228.853 109.009 229.281 109.244C229.709 109.475 230.217 109.591 230.804 109.591C231.395 109.591 231.904 109.475 232.332 109.244C232.764 109.009 233.094 108.688 233.321 108.278C233.552 107.869 233.668 107.402 233.668 106.875V99.3636ZM244.328 102.42C244.268 101.883 244.018 101.466 243.578 101.17C243.139 100.871 242.586 100.722 241.919 100.722C241.442 100.722 241.029 100.797 240.68 100.949C240.332 101.097 240.061 101.301 239.868 101.562C239.679 101.82 239.584 102.114 239.584 102.443C239.584 102.72 239.648 102.958 239.777 103.159C239.91 103.36 240.082 103.528 240.294 103.665C240.51 103.797 240.741 103.909 240.987 104C241.233 104.087 241.47 104.159 241.697 104.216L242.834 104.511C243.205 104.602 243.586 104.725 243.976 104.881C244.366 105.036 244.728 105.241 245.061 105.494C245.394 105.748 245.663 106.062 245.868 106.438C246.076 106.812 246.18 107.261 246.18 107.784C246.18 108.443 246.01 109.028 245.669 109.54C245.332 110.051 244.841 110.455 244.197 110.75C243.557 111.045 242.783 111.193 241.874 111.193C241.002 111.193 240.249 111.055 239.612 110.778C238.976 110.502 238.478 110.11 238.118 109.602C237.758 109.091 237.559 108.485 237.521 107.784H239.283C239.317 108.205 239.453 108.555 239.692 108.835C239.934 109.112 240.243 109.318 240.618 109.455C240.997 109.587 241.411 109.653 241.862 109.653C242.358 109.653 242.8 109.576 243.186 109.42C243.576 109.261 243.883 109.042 244.107 108.761C244.33 108.477 244.442 108.146 244.442 107.767C244.442 107.422 244.343 107.14 244.146 106.92C243.953 106.701 243.69 106.519 243.357 106.375C243.027 106.231 242.654 106.104 242.237 105.994L240.862 105.619C239.93 105.366 239.192 104.992 238.646 104.5C238.105 104.008 237.834 103.356 237.834 102.545C237.834 101.875 238.016 101.29 238.379 100.79C238.743 100.29 239.235 99.9015 239.857 99.625C240.478 99.3447 241.179 99.2045 241.959 99.2045C242.747 99.2045 243.442 99.3428 244.044 99.6193C244.65 99.8958 245.127 100.277 245.476 100.761C245.824 101.242 246.006 101.795 246.021 102.42H244.328Z" fill="#252D36"/>
</g>
<path d="M670.132 118V94.16H674.292L683.22 106.288H681.236L689.972 94.16H694.132V118H689.748V99.12L691.444 99.536L682.388 111.6H681.876L673.044 99.536L674.484 99.12V118H670.132ZM706.855 118.384C705.148 118.384 703.591 117.989 702.183 117.2C700.796 116.411 699.687 115.333 698.855 113.968C698.044 112.603 697.639 111.045 697.639 109.296C697.639 107.547 698.044 105.989 698.855 104.624C699.687 103.259 700.796 102.181 702.183 101.392C703.569 100.603 705.127 100.208 706.855 100.208C708.561 100.208 710.108 100.603 711.495 101.392C712.881 102.181 713.98 103.259 714.791 104.624C715.623 105.968 716.039 107.525 716.039 109.296C716.039 111.045 715.623 112.603 714.791 113.968C713.959 115.333 712.849 116.411 711.463 117.2C710.076 117.989 708.54 118.384 706.855 118.384ZM706.855 114.544C707.793 114.544 708.615 114.32 709.319 113.872C710.044 113.424 710.609 112.805 711.015 112.016C711.441 111.205 711.655 110.299 711.655 109.296C711.655 108.272 711.441 107.376 711.015 106.608C710.609 105.819 710.044 105.2 709.319 104.752C708.615 104.283 707.793 104.048 706.855 104.048C705.895 104.048 705.052 104.283 704.327 104.752C703.601 105.2 703.025 105.819 702.599 106.608C702.193 107.376 701.991 108.272 701.991 109.296C701.991 110.299 702.193 111.205 702.599 112.016C703.025 112.805 703.601 113.424 704.327 113.872C705.052 114.32 705.895 114.544 706.855 114.544ZM727.314 118.384C725.628 118.384 724.124 117.989 722.802 117.2C721.479 116.389 720.434 115.291 719.666 113.904C718.898 112.517 718.514 110.981 718.514 109.296C718.514 107.589 718.898 106.053 719.666 104.688C720.434 103.323 721.479 102.235 722.802 101.424C724.146 100.613 725.639 100.208 727.282 100.208C728.604 100.208 729.778 100.475 730.802 101.008C731.847 101.52 732.668 102.245 733.266 103.184L732.626 104.048V93.776H736.818V118H732.85V114.64L733.298 115.472C732.7 116.411 731.868 117.136 730.802 117.648C729.735 118.139 728.572 118.384 727.314 118.384ZM727.762 114.544C728.722 114.544 729.564 114.32 730.29 113.872C731.015 113.424 731.58 112.805 731.986 112.016C732.412 111.227 732.626 110.32 732.626 109.296C732.626 108.293 732.412 107.397 731.986 106.608C731.58 105.797 731.015 105.168 730.29 104.72C729.564 104.272 728.722 104.048 727.762 104.048C726.823 104.048 725.98 104.283 725.234 104.752C724.487 105.2 723.9 105.819 723.474 106.608C723.068 107.376 722.866 108.272 722.866 109.296C722.866 110.32 723.068 111.227 723.474 112.016C723.9 112.805 724.487 113.424 725.234 113.872C725.98 114.32 726.823 114.544 727.762 114.544ZM746.926 118.384C745.582 118.384 744.408 118.085 743.406 117.488C742.424 116.891 741.667 116.059 741.134 114.992C740.622 113.925 740.366 112.677 740.366 111.248V100.592H744.558V110.896C744.558 111.621 744.696 112.261 744.974 112.816C745.272 113.349 745.688 113.776 746.222 114.096C746.776 114.395 747.395 114.544 748.078 114.544C748.76 114.544 749.368 114.395 749.902 114.096C750.435 113.776 750.851 113.339 751.15 112.784C751.448 112.229 751.598 111.568 751.598 110.8V100.592H755.79V118H751.822V114.576L752.174 115.184C751.768 116.251 751.096 117.051 750.158 117.584C749.24 118.117 748.163 118.384 746.926 118.384ZM759.686 118V93.776H763.878V118H759.686ZM776.005 118.384C774.213 118.384 772.645 117.979 771.301 117.168C769.957 116.357 768.912 115.259 768.165 113.872C767.418 112.485 767.045 110.949 767.045 109.264C767.045 107.515 767.418 105.968 768.165 104.624C768.933 103.259 769.968 102.181 771.269 101.392C772.592 100.603 774.064 100.208 775.685 100.208C777.05 100.208 778.245 100.432 779.269 100.88C780.314 101.328 781.2 101.947 781.925 102.736C782.65 103.525 783.205 104.432 783.589 105.456C783.973 106.459 784.165 107.547 784.165 108.72C784.165 109.019 784.144 109.328 784.101 109.648C784.08 109.968 784.026 110.245 783.941 110.48H770.501V107.28H781.573L779.589 108.784C779.781 107.803 779.728 106.928 779.429 106.16C779.152 105.392 778.682 104.784 778.021 104.336C777.381 103.888 776.602 103.664 775.685 103.664C774.81 103.664 774.032 103.888 773.349 104.336C772.666 104.763 772.144 105.403 771.781 106.256C771.44 107.088 771.312 108.101 771.397 109.296C771.312 110.363 771.45 111.312 771.813 112.144C772.197 112.955 772.752 113.584 773.477 114.032C774.224 114.48 775.077 114.704 776.037 114.704C776.997 114.704 777.808 114.501 778.469 114.096C779.152 113.691 779.685 113.147 780.069 112.464L783.461 114.128C783.12 114.96 782.586 115.696 781.861 116.336C781.136 116.976 780.272 117.477 779.269 117.84C778.288 118.203 777.2 118.384 776.005 118.384ZM792.55 118V114.704L799.014 107.952C800.294 106.608 801.275 105.541 801.958 104.752C802.662 103.941 803.153 103.248 803.43 102.672C803.707 102.096 803.846 101.509 803.846 100.912C803.846 99.9093 803.526 99.12 802.886 98.544C802.267 97.968 801.467 97.68 800.486 97.68C799.462 97.68 798.577 97.9787 797.83 98.576C797.083 99.152 796.539 100.005 796.198 101.136L792.39 99.952C792.646 98.6933 793.169 97.6053 793.958 96.688C794.747 95.7493 795.707 95.0347 796.838 94.544C797.99 94.032 799.206 93.776 800.486 93.776C802.022 93.776 803.366 94.0533 804.518 94.608C805.691 95.1627 806.598 95.9413 807.238 96.944C807.899 97.9467 808.23 99.12 808.23 100.464C808.23 101.317 808.07 102.16 807.75 102.992C807.43 103.824 806.95 104.677 806.31 105.552C805.67 106.405 804.838 107.365 803.814 108.432L798.214 114.32H808.55V118H792.55Z" fill="#252D36"/>
<g filter="url(#filter1_d_3021_925)">
<path d="M1242 99.3636V111H1240.38L1234.47 102.466H1234.36V111H1232.61V99.3636H1234.23L1240.15 107.909H1240.26V99.3636H1242ZM1244.56 111V99.3636H1251.86V100.875H1246.32V104.42H1251.47V105.926H1246.32V109.489H1251.92V111H1244.56ZM1255.42 99.3636L1258.21 103.915H1258.3L1261.08 99.3636H1263.12L1259.49 105.182L1263.14 111H1261.09L1258.3 106.511H1258.21L1255.41 111H1253.37L1257.08 105.182L1253.39 99.3636H1255.42ZM1264.28 100.875V99.3636H1273.29V100.875H1269.66V111H1267.91V100.875H1264.28Z" fill="#252D36"/>
</g>
<circle cx="1315" cy="105" r="25" fill="#BFE002"/>
<path d="M1312 113L1320 105L1312 97" stroke="black" stroke-width="3" stroke-linecap="round" stroke-linejoin="round"/>
<path d="M62.592 258.5V231.68H80.484V236H67.488V243.416H78.864V247.736H67.488V258.5H62.592ZM92.4439 258.932C90.5239 258.932 88.7719 258.488 87.1879 257.6C85.6279 256.712 84.3799 255.5 83.4439 253.964C82.5319 252.428 82.0759 250.676 82.0759 248.708C82.0759 246.74 82.5319 244.988 83.4439 243.452C84.3799 241.916 85.6279 240.704 87.1879 239.816C88.7479 238.928 90.4999 238.484 92.4439 238.484C94.3639 238.484 96.1039 238.928 97.6639 239.816C99.2239 240.704 100.46 241.916 101.372 243.452C102.308 244.964 102.776 246.716 102.776 248.708C102.776 250.676 102.308 252.428 101.372 253.964C100.436 255.5 99.1879 256.712 97.6279 257.6C96.0679 258.488 94.3399 258.932 92.4439 258.932ZM92.4439 254.612C93.4999 254.612 94.4239 254.36 95.2159 253.856C96.0319 253.352 96.6679 252.656 97.1239 251.768C97.6039 250.856 97.8439 249.836 97.8439 248.708C97.8439 247.556 97.6039 246.548 97.1239 245.684C96.6679 244.796 96.0319 244.1 95.2159 243.596C94.4239 243.068 93.4999 242.804 92.4439 242.804C91.3639 242.804 90.4159 243.068 89.5999 243.596C88.7839 244.1 88.1359 244.796 87.6559 245.684C87.1999 246.548 86.9719 247.556 86.9719 248.708C86.9719 249.836 87.1999 250.856 87.6559 251.768C88.1359 252.656 88.7839 253.352 89.5999 253.856C90.4159 254.36 91.3639 254.612 92.4439 254.612ZM113.336 258.932C111.824 258.932 110.504 258.596 109.376 257.924C108.272 257.252 107.42 256.316 106.82 255.116C106.244 253.916 105.956 252.512 105.956 250.904V238.916H110.672V250.508C110.672 251.324 110.828 252.044 111.14 252.668C111.476 253.268 111.944 253.748 112.544 254.108C113.168 254.444 113.864 254.612 114.632 254.612C115.4 254.612 116.084 254.444 116.684 254.108C117.284 253.748 117.752 253.256 118.088 252.632C118.424 252.008 118.592 251.264 118.592 250.4V238.916H123.308V258.5H118.844V254.648L119.24 255.332C118.784 256.532 118.028 257.432 116.972 258.032C115.94 258.632 114.728 258.932 113.336 258.932ZM127.692 258.5V238.916H132.12V242.768L131.76 242.084C132.216 240.908 132.96 240.02 133.992 239.42C135.048 238.796 136.272 238.484 137.664 238.484C139.104 238.484 140.376 238.796 141.48 239.42C142.608 240.044 143.484 240.92 144.108 242.048C144.732 243.152 145.044 244.436 145.044 245.9V258.5H140.328V247.016C140.328 246.152 140.16 245.408 139.824 244.784C139.488 244.16 139.02 243.68 138.42 243.344C137.844 242.984 137.16 242.804 136.368 242.804C135.6 242.804 134.916 242.984 134.316 243.344C133.716 243.68 133.248 244.16 132.912 244.784C132.576 245.408 132.408 246.152 132.408 247.016V258.5H127.692ZM158.14 258.932C156.244 258.932 154.552 258.488 153.064 257.6C151.576 256.688 150.4 255.452 149.536 253.892C148.672 252.332 148.24 250.604 148.24 248.708C148.24 246.788 148.672 245.06 149.536 243.524C150.4 241.988 151.576 240.764 153.064 239.852C154.576 238.94 156.256 238.484 158.104 238.484C159.592 238.484 160.912 238.784 162.064 239.384C163.24 239.96 164.164 240.776 164.836 241.832L164.116 242.804V231.248H168.832V258.5H164.368V254.72L164.872 255.656C164.2 256.712 163.264 257.528 162.064 258.104C160.864 258.656 159.556 258.932 158.14 258.932ZM158.644 254.612C159.724 254.612 160.672 254.36 161.488 253.856C162.304 253.352 162.94 252.656 163.396 251.768C163.876 250.88 164.116 249.86 164.116 248.708C164.116 247.58 163.876 246.572 163.396 245.684C162.94 244.772 162.304 244.064 161.488 243.56C160.672 243.056 159.724 242.804 158.644 242.804C157.588 242.804 156.64 243.068 155.8 243.596C154.96 244.1 154.3 244.796 153.82 245.684C153.364 246.548 153.136 247.556 153.136 248.708C153.136 249.86 153.364 250.88 153.82 251.768C154.3 252.656 154.96 253.352 155.8 253.856C156.64 254.36 157.588 254.612 158.644 254.612ZM179.159 258.932C177.791 258.932 176.603 258.704 175.595 258.248C174.587 257.792 173.807 257.144 173.255 256.304C172.703 255.44 172.427 254.444 172.427 253.316C172.427 252.236 172.667 251.276 173.147 250.436C173.627 249.572 174.371 248.852 175.379 248.276C176.387 247.7 177.659 247.292 179.195 247.052L185.603 246.008V249.608L180.095 250.544C179.159 250.712 178.463 251.012 178.007 251.444C177.551 251.876 177.323 252.44 177.323 253.136C177.323 253.808 177.575 254.348 178.079 254.756C178.607 255.14 179.255 255.332 180.023 255.332C181.007 255.332 181.871 255.128 182.615 254.72C183.383 254.288 183.971 253.7 184.379 252.956C184.811 252.212 185.027 251.396 185.027 250.508V245.468C185.027 244.628 184.691 243.932 184.019 243.38C183.371 242.804 182.507 242.516 181.427 242.516C180.419 242.516 179.519 242.792 178.727 243.344C177.959 243.872 177.395 244.58 177.035 245.468L173.183 243.596C173.567 242.564 174.167 241.676 174.983 240.932C175.823 240.164 176.807 239.564 177.935 239.132C179.063 238.7 180.287 238.484 181.607 238.484C183.215 238.484 184.631 238.784 185.855 239.384C187.079 239.96 188.027 240.776 188.699 241.832C189.395 242.864 189.743 244.076 189.743 245.468V258.5H185.279V255.152L186.287 255.08C185.783 255.92 185.183 256.628 184.487 257.204C183.791 257.756 182.999 258.188 182.111 258.5C181.223 258.788 180.239 258.932 179.159 258.932ZM202.679 258.716C200.471 258.716 198.755 258.116 197.531 256.916C196.331 255.692 195.731 253.976 195.731 251.768V243.128H192.347V238.916H192.707C193.667 238.916 194.411 238.664 194.939 238.16C195.467 237.656 195.731 236.924 195.731 235.964V234.452H200.447V238.916H204.947V243.128H200.447V251.516C200.447 252.164 200.555 252.716 200.771 253.172C201.011 253.628 201.371 253.976 201.851 254.216C202.355 254.456 202.991 254.576 203.759 254.576C203.927 254.576 204.119 254.564 204.335 254.54C204.575 254.516 204.803 254.492 205.019 254.468V258.5C204.683 258.548 204.299 258.596 203.867 258.644C203.435 258.692 203.039 258.716 202.679 258.716ZM208.622 258.5V238.916H213.338V258.5H208.622ZM208.622 236.72V231.68H213.338V236.72H208.622ZM227.268 258.932C225.348 258.932 223.596 258.488 222.012 257.6C220.452 256.712 219.204 255.5 218.268 253.964C217.356 252.428 216.9 250.676 216.9 248.708C216.9 246.74 217.356 244.988 218.268 243.452C219.204 241.916 220.452 240.704 222.012 239.816C223.572 238.928 225.324 238.484 227.268 238.484C229.188 238.484 230.928 238.928 232.488 239.816C234.048 240.704 235.284 241.916 236.196 243.452C237.132 244.964 237.6 246.716 237.6 248.708C237.6 250.676 237.132 252.428 236.196 253.964C235.26 255.5 234.012 256.712 232.452 257.6C230.892 258.488 229.164 258.932 227.268 258.932ZM227.268 254.612C228.324 254.612 229.248 254.36 230.04 253.856C230.856 253.352 231.492 252.656 231.948 251.768C232.428 250.856 232.668 249.836 232.668 248.708C232.668 247.556 232.428 246.548 231.948 245.684C231.492 244.796 230.856 244.1 230.04 243.596C229.248 243.068 228.324 242.804 227.268 242.804C226.188 242.804 225.24 243.068 224.424 243.596C223.608 244.1 222.96 244.796 222.48 245.684C222.024 246.548 221.796 247.556 221.796 248.708C221.796 249.836 222.024 250.856 222.48 251.768C222.96 252.656 223.608 253.352 224.424 253.856C225.24 254.36 226.188 254.612 227.268 254.612ZM241.176 258.5V238.916H245.604V242.768L245.244 242.084C245.7 240.908 246.444 240.02 247.476 239.42C248.532 238.796 249.756 238.484 251.148 238.484C252.588 238.484 253.86 238.796 254.964 239.42C256.092 240.044 256.968 240.92 257.592 242.048C258.216 243.152 258.528 244.436 258.528 245.9V258.5H253.812V247.016C253.812 246.152 253.644 245.408 253.308 244.784C252.972 244.16 252.504 243.68 251.904 243.344C251.328 242.984 250.644 242.804 249.852 242.804C249.084 242.804 248.4 242.984 247.8 243.344C247.2 243.68 246.732 244.16 246.396 244.784C246.06 245.408 245.892 246.152 245.892 247.016V258.5H241.176ZM268.456 258.932C267.088 258.932 265.9 258.704 264.892 258.248C263.884 257.792 263.104 257.144 262.552 256.304C262 255.44 261.724 254.444 261.724 253.316C261.724 252.236 261.964 251.276 262.444 250.436C262.924 249.572 263.668 248.852 264.676 248.276C265.684 247.7 266.956 247.292 268.492 247.052L274.9 246.008V249.608L269.392 250.544C268.456 250.712 267.76 251.012 267.304 251.444C266.848 251.876 266.62 252.44 266.62 253.136C266.62 253.808 266.872 254.348 267.376 254.756C267.904 255.14 268.552 255.332 269.32 255.332C270.304 255.332 271.168 255.128 271.912 254.72C272.68 254.288 273.268 253.7 273.676 252.956C274.108 252.212 274.324 251.396 274.324 250.508V245.468C274.324 244.628 273.988 243.932 273.316 243.38C272.668 242.804 271.804 242.516 270.724 242.516C269.716 242.516 268.816 242.792 268.024 243.344C267.256 243.872 266.692 244.58 266.332 245.468L262.48 243.596C262.864 242.564 263.464 241.676 264.28 240.932C265.12 240.164 266.104 239.564 267.232 239.132C268.36 238.7 269.584 238.484 270.904 238.484C272.512 238.484 273.928 238.784 275.152 239.384C276.376 239.96 277.324 240.776 277.996 241.832C278.692 242.864 279.04 244.076 279.04 245.468V258.5H274.576V255.152L275.584 255.08C275.08 255.92 274.48 256.628 273.784 257.204C273.088 257.756 272.296 258.188 271.408 258.5C270.52 258.788 269.536 258.932 268.456 258.932ZM283.399 258.5V231.248H288.115V258.5H283.399ZM304.016 258.5V236H297.068V231.68H315.788V236H308.948V258.5H304.016ZM325.424 258.932C323.504 258.932 321.752 258.488 320.168 257.6C318.608 256.712 317.36 255.5 316.424 253.964C315.512 252.428 315.056 250.676 315.056 248.708C315.056 246.74 315.512 244.988 316.424 243.452C317.36 241.916 318.608 240.704 320.168 239.816C321.728 238.928 323.48 238.484 325.424 238.484C327.344 238.484 329.084 238.928 330.644 239.816C332.204 240.704 333.44 241.916 334.352 243.452C335.288 244.964 335.756 246.716 335.756 248.708C335.756 250.676 335.288 252.428 334.352 253.964C333.416 255.5 332.168 256.712 330.608 257.6C329.048 258.488 327.32 258.932 325.424 258.932ZM325.424 254.612C326.48 254.612 327.404 254.36 328.196 253.856C329.012 253.352 329.648 252.656 330.104 251.768C330.584 250.856 330.824 249.836 330.824 248.708C330.824 247.556 330.584 246.548 330.104 245.684C329.648 244.796 329.012 244.1 328.196 243.596C327.404 243.068 326.48 242.804 325.424 242.804C324.344 242.804 323.396 243.068 322.58 243.596C321.764 244.1 321.116 244.796 320.636 245.684C320.18 246.548 319.952 247.556 319.952 248.708C319.952 249.836 320.18 250.856 320.636 251.768C321.116 252.656 321.764 253.352 322.58 253.856C323.396 254.36 324.344 254.612 325.424 254.612ZM348.909 258.932C346.989 258.932 345.237 258.488 343.653 257.6C342.093 256.712 340.845 255.5 339.909 253.964C338.997 252.428 338.541 250.676 338.541 248.708C338.541 246.74 338.997 244.988 339.909 243.452C340.845 241.916 342.093 240.704 343.653 239.816C345.213 238.928 346.965 238.484 348.909 238.484C350.829 238.484 352.569 238.928 354.129 239.816C355.689 240.704 356.925 241.916 357.837 243.452C358.773 244.964 359.241 246.716 359.241 248.708C359.241 250.676 358.773 252.428 357.837 253.964C356.901 255.5 355.653 256.712 354.093 257.6C352.533 258.488 350.805 258.932 348.909 258.932ZM348.909 254.612C349.965 254.612 350.889 254.36 351.681 253.856C352.497 253.352 353.133 252.656 353.589 251.768C354.069 250.856 354.309 249.836 354.309 248.708C354.309 247.556 354.069 246.548 353.589 245.684C353.133 244.796 352.497 244.1 351.681 243.596C350.889 243.068 349.965 242.804 348.909 242.804C347.829 242.804 346.881 243.068 346.065 243.596C345.249 244.1 344.601 244.796 344.121 245.684C343.665 246.548 343.437 247.556 343.437 248.708C343.437 249.836 343.665 250.856 344.121 251.768C344.601 252.656 345.249 253.352 346.065 253.856C346.881 254.36 347.829 254.612 348.909 254.612ZM362.817 258.5V231.248H367.533V258.5H362.817ZM379.339 258.932C377.251 258.932 375.427 258.44 373.867 257.456C372.331 256.448 371.275 255.092 370.699 253.388L374.227 251.696C374.731 252.8 375.427 253.664 376.315 254.288C377.227 254.912 378.235 255.224 379.339 255.224C380.203 255.224 380.887 255.032 381.391 254.648C381.895 254.264 382.147 253.76 382.147 253.136C382.147 252.752 382.039 252.44 381.823 252.2C381.631 251.936 381.355 251.72 380.995 251.552C380.659 251.36 380.287 251.204 379.879 251.084L376.675 250.184C375.019 249.704 373.759 248.972 372.895 247.988C372.055 247.004 371.635 245.84 371.635 244.496C371.635 243.296 371.935 242.252 372.535 241.364C373.159 240.452 374.011 239.744 375.091 239.24C376.195 238.736 377.455 238.484 378.871 238.484C380.719 238.484 382.351 238.928 383.767 239.816C385.183 240.704 386.191 241.952 386.791 243.56L383.191 245.252C382.855 244.364 382.291 243.656 381.499 243.128C380.707 242.6 379.819 242.336 378.835 242.336C378.043 242.336 377.419 242.516 376.963 242.876C376.507 243.236 376.279 243.704 376.279 244.28C376.279 244.64 376.375 244.952 376.567 245.216C376.759 245.48 377.023 245.696 377.359 245.864C377.719 246.032 378.127 246.188 378.583 246.332L381.715 247.268C383.323 247.748 384.559 248.468 385.423 249.428C386.311 250.388 386.755 251.564 386.755 252.956C386.755 254.132 386.443 255.176 385.819 256.088C385.195 256.976 384.331 257.672 383.227 258.176C382.123 258.68 380.827 258.932 379.339 258.932ZM394.772 247.772V235.1H390.848V231.68H402.62V235.1H398.732V247.772H394.772ZM403.844 247.772V231.68H407.696L413.744 239.384H411.944L417.74 231.68H421.628V247.772H417.704V235.892L419.324 236.216L413.024 243.992H412.448L406.436 236.216L407.804 235.892V247.772H403.844ZM437.191 258.5V243.128H433.735V238.916H437.191V238.268C437.191 236.78 437.491 235.52 438.091 234.488C438.715 233.432 439.579 232.628 440.683 232.076C441.787 231.524 443.095 231.248 444.607 231.248C444.895 231.248 445.207 231.272 445.543 231.32C445.903 231.344 446.203 231.38 446.443 231.428V235.496C446.203 235.448 445.975 235.424 445.759 235.424C445.567 235.4 445.387 235.388 445.219 235.388C444.163 235.388 443.347 235.628 442.771 236.108C442.195 236.564 441.907 237.284 441.907 238.268V238.916H446.263V243.128H441.907V258.5H437.191ZM458.561 258.932C456.641 258.932 454.889 258.488 453.305 257.6C451.745 256.712 450.497 255.5 449.561 253.964C448.649 252.428 448.193 250.676 448.193 248.708C448.193 246.74 448.649 244.988 449.561 243.452C450.497 241.916 451.745 240.704 453.305 239.816C454.865 238.928 456.617 238.484 458.561 238.484C460.481 238.484 462.221 238.928 463.781 239.816C465.341 240.704 466.577 241.916 467.489 243.452C468.425 244.964 468.893 246.716 468.893 248.708C468.893 250.676 468.425 252.428 467.489 253.964C466.553 255.5 465.305 256.712 463.745 257.6C462.185 258.488 460.457 258.932 458.561 258.932ZM458.561 254.612C459.617 254.612 460.541 254.36 461.333 253.856C462.149 253.352 462.785 252.656 463.241 251.768C463.721 250.856 463.961 249.836 463.961 248.708C463.961 247.556 463.721 246.548 463.241 245.684C462.785 244.796 462.149 244.1 461.333 243.596C460.541 243.068 459.617 242.804 458.561 242.804C457.481 242.804 456.533 243.068 455.717 243.596C454.901 244.1 454.253 244.796 453.773 245.684C453.317 246.548 453.089 247.556 453.089 248.708C453.089 249.836 453.317 250.856 453.773 251.768C454.253 252.656 454.901 253.352 455.717 253.856C456.533 254.36 457.481 254.612 458.561 254.612ZM472.469 258.5V238.916H476.897V243.272L476.537 242.624C476.993 241.16 477.701 240.14 478.661 239.564C479.645 238.988 480.821 238.7 482.189 238.7H483.341V242.876H481.649C480.305 242.876 479.225 243.296 478.409 244.136C477.593 244.952 477.185 246.104 477.185 247.592V258.5H472.469ZM492.729 258.5V231.68H510.549V236H497.625V242.876H509.829V247.196H497.625V254.18H510.549V258.5H492.729ZM522.851 258.932C520.955 258.932 519.263 258.488 517.775 257.6C516.287 256.688 515.111 255.452 514.247 253.892C513.383 252.332 512.951 250.604 512.951 248.708C512.951 246.788 513.383 245.06 514.247 243.524C515.111 241.988 516.287 240.764 517.775 239.852C519.287 238.94 520.967 238.484 522.815 238.484C524.303 238.484 525.623 238.784 526.775 239.384C527.951 239.96 528.875 240.776 529.547 241.832L528.827 242.804V231.248H533.543V258.5H529.079V254.72L529.583 255.656C528.911 256.712 527.975 257.528 526.775 258.104C525.575 258.656 524.267 258.932 522.851 258.932ZM523.355 254.612C524.435 254.612 525.383 254.36 526.199 253.856C527.015 253.352 527.651 252.656 528.107 251.768C528.587 250.88 528.827 249.86 528.827 248.708C528.827 247.58 528.587 246.572 528.107 245.684C527.651 244.772 527.015 244.064 526.199 243.56C525.383 243.056 524.435 242.804 523.355 242.804C522.299 242.804 521.351 243.068 520.511 243.596C519.671 244.1 519.011 244.796 518.531 245.684C518.075 246.548 517.847 247.556 517.847 248.708C517.847 249.86 518.075 250.88 518.531 251.768C519.011 252.656 519.671 253.352 520.511 253.856C521.351 254.36 522.299 254.612 523.355 254.612ZM544.914 258.932C543.402 258.932 542.082 258.596 540.954 257.924C539.85 257.252 538.998 256.316 538.398 255.116C537.822 253.916 537.534 252.512 537.534 250.904V238.916H542.25V250.508C542.25 251.324 542.406 252.044 542.718 252.668C543.054 253.268 543.522 253.748 544.122 254.108C544.746 254.444 545.442 254.612 546.21 254.612C546.978 254.612 547.662 254.444 548.262 254.108C548.862 253.748 549.33 253.256 549.666 252.632C550.002 252.008 550.17 251.264 550.17 250.4V238.916H554.886V258.5H550.422V254.648L550.818 255.332C550.362 256.532 549.606 257.432 548.55 258.032C547.518 258.632 546.306 258.932 544.914 258.932ZM568.702 258.932C566.758 258.932 565.006 258.488 563.446 257.6C561.91 256.688 560.698 255.464 559.81 253.928C558.922 252.368 558.478 250.616 558.478 248.672C558.478 246.728 558.922 244.988 559.81 243.452C560.698 241.916 561.91 240.704 563.446 239.816C565.006 238.928 566.758 238.484 568.702 238.484C570.094 238.484 571.39 238.736 572.59 239.24C573.79 239.72 574.822 240.392 575.686 241.256C576.574 242.096 577.21 243.104 577.594 244.28L573.454 246.08C573.094 245.096 572.482 244.304 571.618 243.704C570.778 243.104 569.806 242.804 568.702 242.804C567.67 242.804 566.746 243.056 565.93 243.56C565.138 244.064 564.514 244.76 564.058 245.648C563.602 246.536 563.374 247.556 563.374 248.708C563.374 249.86 563.602 250.88 564.058 251.768C564.514 252.656 565.138 253.352 565.93 253.856C566.746 254.36 567.67 254.612 568.702 254.612C569.83 254.612 570.814 254.312 571.654 253.712C572.494 253.112 573.094 252.308 573.454 251.3L577.594 253.172C577.21 254.276 576.586 255.272 575.722 256.16C574.858 257.024 573.826 257.708 572.626 258.212C571.426 258.692 570.118 258.932 568.702 258.932ZM587.042 258.932C585.674 258.932 584.486 258.704 583.478 258.248C582.47 257.792 581.69 257.144 581.138 256.304C580.586 255.44 580.31 254.444 580.31 253.316C580.31 252.236 580.55 251.276 581.03 250.436C581.51 249.572 582.254 248.852 583.262 248.276C584.27 247.7 585.542 247.292 587.078 247.052L593.486 246.008V249.608L587.978 250.544C587.042 250.712 586.346 251.012 585.89 251.444C585.434 251.876 585.206 252.44 585.206 253.136C585.206 253.808 585.458 254.348 585.962 254.756C586.49 255.14 587.138 255.332 587.906 255.332C588.89 255.332 589.754 255.128 590.498 254.72C591.266 254.288 591.854 253.7 592.262 252.956C592.694 252.212 592.91 251.396 592.91 250.508V245.468C592.91 244.628 592.574 243.932 591.902 243.38C591.254 242.804 590.39 242.516 589.31 242.516C588.302 242.516 587.402 242.792 586.61 243.344C585.842 243.872 585.278 244.58 584.918 245.468L581.066 243.596C581.45 242.564 582.05 241.676 582.866 240.932C583.706 240.164 584.69 239.564 585.818 239.132C586.946 238.7 588.17 238.484 589.49 238.484C591.098 238.484 592.514 238.784 593.738 239.384C594.962 239.96 595.91 240.776 596.582 241.832C597.278 242.864 597.626 244.076 597.626 245.468V258.5H593.162V255.152L594.17 255.08C593.666 255.92 593.066 256.628 592.37 257.204C591.674 257.756 590.882 258.188 589.994 258.5C589.106 258.788 588.122 258.932 587.042 258.932ZM610.562 258.716C608.354 258.716 606.638 258.116 605.414 256.916C604.214 255.692 603.614 253.976 603.614 251.768V243.128H600.23V238.916H600.59C601.55 238.916 602.294 238.664 602.822 238.16C603.35 237.656 603.614 236.924 603.614 235.964V234.452H608.33V238.916H612.83V243.128H608.33V251.516C608.33 252.164 608.438 252.716 608.654 253.172C608.894 253.628 609.254 253.976 609.734 254.216C610.238 254.456 610.874 254.576 611.642 254.576C611.81 254.576 612.002 254.564 612.218 254.54C612.458 254.516 612.686 254.492 612.902 254.468V258.5C612.566 258.548 612.182 258.596 611.75 258.644C611.318 258.692 610.922 258.716 610.562 258.716ZM616.505 258.5V238.916H621.221V258.5H616.505ZM616.505 236.72V231.68H621.221V236.72H616.505ZM635.151 258.932C633.231 258.932 631.479 258.488 629.895 257.6C628.335 256.712 627.087 255.5 626.151 253.964C625.239 252.428 624.783 250.676 624.783 248.708C624.783 246.74 625.239 244.988 626.151 243.452C627.087 241.916 628.335 240.704 629.895 239.816C631.455 238.928 633.207 238.484 635.151 238.484C637.071 238.484 638.811 238.928 640.371 239.816C641.931 240.704 643.167 241.916 644.079 243.452C645.015 244.964 645.483 246.716 645.483 248.708C645.483 250.676 645.015 252.428 644.079 253.964C643.143 255.5 641.895 256.712 640.335 257.6C638.775 258.488 637.047 258.932 635.151 258.932ZM635.151 254.612C636.207 254.612 637.131 254.36 637.923 253.856C638.739 253.352 639.375 252.656 639.831 251.768C640.311 250.856 640.551 249.836 640.551 248.708C640.551 247.556 640.311 246.548 639.831 245.684C639.375 244.796 638.739 244.1 637.923 243.596C637.131 243.068 636.207 242.804 635.151 242.804C634.071 242.804 633.123 243.068 632.307 243.596C631.491 244.1 630.843 244.796 630.363 245.684C629.907 246.548 629.679 247.556 629.679 248.708C629.679 249.836 629.907 250.856 630.363 251.768C630.843 252.656 631.491 253.352 632.307 253.856C633.123 254.36 634.071 254.612 635.151 254.612ZM649.059 258.5V238.916H653.487V242.768L653.127 242.084C653.583 240.908 654.327 240.02 655.359 239.42C656.415 238.796 657.639 238.484 659.031 238.484C660.471 238.484 661.743 238.796 662.847 239.42C663.975 240.044 664.851 240.92 665.475 242.048C666.099 243.152 666.411 244.436 666.411 245.9V258.5H661.695V247.016C661.695 246.152 661.527 245.408 661.191 244.784C660.855 244.16 660.387 243.68 659.787 243.344C659.211 242.984 658.527 242.804 657.735 242.804C656.967 242.804 656.283 242.984 655.683 243.344C655.083 243.68 654.615 244.16 654.279 244.784C653.943 245.408 653.775 246.152 653.775 247.016V258.5H649.059Z" fill="#252D36"/>
<rect x="1214" y="219.5" width="166" height="48" rx="8" fill="#7E0EB3"/>
<path d="M1256.12 236.75C1256.12 235.645 1255.23 234.75 1254.12 234.75H1240C1238.9 234.75 1238 235.645 1238 236.75V250.25C1238 251.355 1238.9 252.25 1240 252.25H1254.12C1255.23 252.25 1256.12 251.355 1256.12 250.25V236.75Z" fill="white"/>
<path d="M1265.71 234.75C1265.37 234.75 1265.05 234.88 1264.81 235.112L1260.36 239.41C1259.97 239.787 1259.75 240.306 1259.75 240.849V246.151C1259.75 246.694 1259.97 247.213 1260.36 247.59L1264.81 251.888C1265.05 252.12 1265.37 252.25 1265.71 252.25C1266.42 252.25 1267 251.672 1267 250.959V236.041C1267 235.328 1266.42 234.75 1265.71 234.75Z" fill="white"/>
<g filter="url(#filter2_d_3021_925)">
<path d="M1285.42 240.92C1285.36 240.383 1285.11 239.966 1284.67 239.67C1284.23 239.371 1283.68 239.222 1283.01 239.222C1282.54 239.222 1282.12 239.297 1281.77 239.449C1281.43 239.597 1281.15 239.801 1280.96 240.062C1280.77 240.32 1280.68 240.614 1280.68 240.943C1280.68 241.22 1280.74 241.458 1280.87 241.659C1281 241.86 1281.18 242.028 1281.39 242.165C1281.6 242.297 1281.83 242.409 1282.08 242.5C1282.33 242.587 1282.56 242.659 1282.79 242.716L1283.93 243.011C1284.3 243.102 1284.68 243.225 1285.07 243.381C1285.46 243.536 1285.82 243.741 1286.15 243.994C1286.49 244.248 1286.76 244.562 1286.96 244.938C1287.17 245.312 1287.27 245.761 1287.27 246.284C1287.27 246.943 1287.1 247.528 1286.76 248.04C1286.43 248.551 1285.94 248.955 1285.29 249.25C1284.65 249.545 1283.88 249.693 1282.97 249.693C1282.1 249.693 1281.34 249.555 1280.71 249.278C1280.07 249.002 1279.57 248.61 1279.21 248.102C1278.85 247.591 1278.65 246.985 1278.62 246.284H1280.38C1280.41 246.705 1280.55 247.055 1280.79 247.335C1281.03 247.612 1281.34 247.818 1281.71 247.955C1282.09 248.087 1282.51 248.153 1282.96 248.153C1283.45 248.153 1283.89 248.076 1284.28 247.92C1284.67 247.761 1284.98 247.542 1285.2 247.261C1285.42 246.977 1285.54 246.646 1285.54 246.267C1285.54 245.922 1285.44 245.64 1285.24 245.42C1285.05 245.201 1284.78 245.019 1284.45 244.875C1284.12 244.731 1283.75 244.604 1283.33 244.494L1281.96 244.119C1281.02 243.866 1280.29 243.492 1279.74 243C1279.2 242.508 1278.93 241.856 1278.93 241.045C1278.93 240.375 1279.11 239.79 1279.47 239.29C1279.84 238.79 1280.33 238.402 1280.95 238.125C1281.57 237.845 1282.27 237.705 1283.05 237.705C1283.84 237.705 1284.54 237.843 1285.14 238.119C1285.74 238.396 1286.22 238.777 1286.57 239.261C1286.92 239.742 1287.1 240.295 1287.12 240.92H1285.42ZM1289.37 249.5V237.864H1291.13V242.92H1296.93V237.864H1298.69V249.5H1296.93V244.426H1291.13V249.5H1289.37ZM1311.36 243.682C1311.36 244.924 1311.13 245.992 1310.67 246.886C1310.22 247.777 1309.6 248.462 1308.8 248.943C1308.02 249.42 1307.12 249.659 1306.12 249.659C1305.11 249.659 1304.21 249.42 1303.42 248.943C1302.63 248.462 1302.01 247.775 1301.55 246.881C1301.1 245.987 1300.87 244.92 1300.87 243.682C1300.87 242.439 1301.1 241.373 1301.55 240.483C1302.01 239.589 1302.63 238.903 1303.42 238.426C1304.21 237.945 1305.11 237.705 1306.12 237.705C1307.12 237.705 1308.02 237.945 1308.8 238.426C1309.6 238.903 1310.22 239.589 1310.67 240.483C1311.13 241.373 1311.36 242.439 1311.36 243.682ZM1309.62 243.682C1309.62 242.735 1309.46 241.937 1309.16 241.29C1308.85 240.638 1308.44 240.146 1307.91 239.812C1307.38 239.475 1306.78 239.307 1306.12 239.307C1305.45 239.307 1304.85 239.475 1304.32 239.812C1303.79 240.146 1303.38 240.638 1303.07 241.29C1302.77 241.937 1302.62 242.735 1302.62 243.682C1302.62 244.629 1302.77 245.428 1303.07 246.08C1303.38 246.727 1303.79 247.22 1304.32 247.557C1304.85 247.89 1305.45 248.057 1306.12 248.057C1306.78 248.057 1307.38 247.89 1307.91 247.557C1308.44 247.22 1308.85 246.727 1309.16 246.08C1309.46 245.428 1309.62 244.629 1309.62 243.682ZM1315.68 249.5L1312.45 237.864H1314.3L1316.57 246.875H1316.68L1319.03 237.864H1320.86L1323.22 246.881H1323.33L1325.59 237.864H1327.44L1324.21 249.5H1322.44L1319.99 240.784H1319.9L1317.45 249.5H1315.68ZM1333.28 237.864H1335.41L1339.11 246.909H1339.25L1342.95 237.864H1345.09V249.5H1343.41V241.08H1343.31L1339.88 249.483H1338.49L1335.06 241.074H1334.95V249.5H1333.28V237.864ZM1347.64 249.5V237.864H1354.93V239.375H1349.39V242.92H1354.55V244.426H1349.39V247.989H1355V249.5H1347.64Z" fill="white"/>
</g>
<defs>
<filter id="filter0_d_3021_925" x="168.185" y="99.2046" width="79.9956" height="13.9888" filterUnits="userSpaceOnUse" color-interpolation-filters="sRGB">
<feFlood flood-opacity="0" result="BackgroundImageFix"/>
<feColorMatrix in="SourceAlpha" type="matrix" values="0 0 0 0 0 0 0 0 0 0 0 0 0 0 0 0 0 0 127 0" result="hardAlpha"/>
<feOffset dx="1" dy="1"/>
<feGaussianBlur stdDeviation="0.5"/>
<feComposite in2="hardAlpha" operator="out"/>
<feColorMatrix type="matrix" values="0 0 0 0 0 0 0 0 0 0 0 0 0 0 0 0 0 0 0.01 0"/>
<feBlend mode="normal" in2="BackgroundImageFix" result="effect1_dropShadow_3021_925"/>
<feBlend mode="normal" in="SourceGraphic" in2="effect1_dropShadow_3021_925" result="shape"/>
</filter>
<filter id="filter1_d_3021_925" x="1232.61" y="99.3638" width="42.6821" height="13.6362" filterUnits="userSpaceOnUse" color-interpolation-filters="sRGB">
<feFlood flood-opacity="0" result="BackgroundImageFix"/>
<feColorMatrix in="SourceAlpha" type="matrix" values="0 0 0 0 0 0 0 0 0 0 0 0 0 0 0 0 0 0 127 0" result="hardAlpha"/>
<feOffset dx="1" dy="1"/>
<feGaussianBlur stdDeviation="0.5"/>
<feComposite in2="hardAlpha" operator="out"/>
<feColorMatrix type="matrix" values="0 0 0 0 0 0 0 0 0 0 0 0 0 0 0 0 0 0 0.01 0"/>
<feBlend mode="normal" in2="BackgroundImageFix" result="effect1_dropShadow_3021_925"/>
<feBlend mode="normal" in="SourceGraphic" in2="effect1_dropShadow_3021_925" result="shape"/>
</filter>
<filter id="filter2_d_3021_925" x="1278.62" y="237.705" width="78.3862" height="13.9888" filterUnits="userSpaceOnUse" color-interpolation-filters="sRGB">
<feFlood flood-opacity="0" result="BackgroundImageFix"/>
<feColorMatrix in="SourceAlpha" type="matrix" values="0 0 0 0 0 0 0 0 0 0 0 0 0 0 0 0 0 0 127 0" result="hardAlpha"/>
<feOffset dx="1" dy="1"/>
<feGaussianBlur stdDeviation="0.5"/>
<feComposite in2="hardAlpha" operator="out"/>
<feColorMatrix type="matrix" values="0 0 0 0 0 0 0 0 0 0 0 0 0 0 0 0 0 0 0.01 0"/>
<feBlend mode="normal" in2="BackgroundImageFix" result="effect1_dropShadow_3021_925"/>
<feBlend mode="normal" in="SourceGraphic" in2="effect1_dropShadow_3021_925" result="shape"/>
</filter>
</defs>
</svg>
