<svg width="1320" height="72" viewBox="0 0 1320 72" fill="none" xmlns="http://www.w3.org/2000/svg">
<rect width="1320" height="72" rx="8" fill="#1482FF"/>
<path d="M29.4393 39.8543L24.1463 45.1473L22.3533 43.3543L27.6463 38.0613L29.4393 39.8543ZM30.1463 40.5613L24.8533 45.8543L26.6463 47.6473L31.9393 42.3543L30.1463 40.5613ZM25.7073 36.1213C25.5183 35.9323 25.2673 35.8283 25.0003 35.8283C24.7333 35.8283 24.4823 35.9323 24.2933 36.1213L20.4143 40.0003C20.0233 40.3913 20.0233 41.0243 20.4143 41.4143L21.6463 42.6463L26.9393 37.3533L25.7073 36.1213ZM34.1723 45.0003C34.1723 44.7333 34.0683 44.4823 33.8793 44.2933L32.6473 43.0613L27.3543 48.3543L28.5853 49.5853C28.9753 49.9763 29.6083 49.9763 29.9993 49.5853L33.8793 45.7073C34.0683 45.5183 34.1723 45.2673 34.1723 45.0003ZM47.2933 27.2933L42.7073 22.7073C42.3163 22.3163 41.6833 22.3163 41.2933 22.7073L37.0003 27.0003H34.6573C33.8613 27.0003 33.0983 27.3163 32.5363 27.8793L28.1223 32.2933C27.7323 32.6833 27.7323 33.3173 28.1223 33.7073L28.2943 33.8793C28.4833 34.0683 28.7343 34.1723 29.0013 34.1723C29.2683 34.1723 29.5193 34.0683 29.7083 33.8793L32.1723 31.4153C33.3443 30.2433 35.2433 30.2433 36.4153 31.4153L42.0003 37.0003L43.0003 38.0003V33.0003L47.2933 28.7073C47.6833 28.3173 47.6833 27.6833 47.2933 27.2933ZM35.7083 32.1223C34.9273 31.3403 33.6603 31.3403 32.8793 32.1213L30.4153 34.5863C30.0243 34.9773 29.5133 35.1723 29.0013 35.1723C28.4893 35.1723 27.9773 34.9773 27.5873 34.5863L27.4153 34.4143C26.6343 33.6333 26.6343 32.3673 27.4153 31.5863L32.0003 27.0003H27.0003L22.7073 22.7073C22.3163 22.3163 21.6833 22.3163 21.2933 22.7073L16.7073 27.2933C16.3163 27.6843 16.3163 28.3173 16.7073 28.7073L21.0003 33.0003V38.0003L23.5863 35.4143C23.9763 35.0243 24.4883 34.8283 25.0003 34.8283C25.5123 34.8283 26.0243 35.0233 26.4143 35.4143L34.5863 43.5863C35.0833 44.0833 35.2613 44.7773 35.1253 45.4183L37.3543 47.6473L39.1473 45.8543L35.5003 42.2073C35.3053 42.0123 35.3053 41.6953 35.5003 41.5003C35.6953 41.3053 36.0123 41.3053 36.2073 41.5003L39.8533 45.1463L41.6463 43.3533L38.0003 39.7073C37.8053 39.5123 37.8053 39.1953 38.0003 39.0003C38.1953 38.8053 38.5123 38.8053 38.7073 39.0003L42.3533 42.6463L43.5813 41.4183C43.9713 41.0283 43.9723 40.3953 43.5813 40.0043L35.7083 32.1223ZM32.7193 48.2813L34.0123 49.5743C34.4033 49.9653 35.0363 49.9653 35.4263 49.5743L36.5863 48.4133L34.5853 46.4143L32.7193 48.2813Z" fill="white"/>
<path d="M65.728 46V28.12H77.656V31H68.992V35.944H76.576V38.824H68.992V46H65.728ZM85.3893 46.288C84.1093 46.288 82.9413 45.992 81.8853 45.4C80.8453 44.808 80.0133 44 79.3893 42.976C78.7813 41.952 78.4773 40.784 78.4773 39.472C78.4773 38.16 78.7813 36.992 79.3893 35.968C80.0133 34.944 80.8453 34.136 81.8853 33.544C82.9253 32.952 84.0933 32.656 85.3893 32.656C86.6693 32.656 87.8293 32.952 88.8693 33.544C89.9093 34.136 90.7333 34.944 91.3413 35.968C91.9653 36.976 92.2773 38.144 92.2773 39.472C92.2773 40.784 91.9653 41.952 91.3413 42.976C90.7173 44 89.8853 44.808 88.8453 45.4C87.8053 45.992 86.6533 46.288 85.3893 46.288ZM85.3893 43.408C86.0933 43.408 86.7093 43.24 87.2373 42.904C87.7813 42.568 88.2053 42.104 88.5093 41.512C88.8293 40.904 88.9893 40.224 88.9893 39.472C88.9893 38.704 88.8293 38.032 88.5093 37.456C88.2053 36.864 87.7813 36.4 87.2373 36.064C86.7093 35.712 86.0933 35.536 85.3893 35.536C84.6693 35.536 84.0373 35.712 83.4933 36.064C82.9493 36.4 82.5173 36.864 82.1973 37.456C81.8933 38.032 81.7413 38.704 81.7413 39.472C81.7413 40.224 81.8933 40.904 82.1973 41.512C82.5173 42.104 82.9493 42.568 83.4933 42.904C84.0373 43.24 84.6693 43.408 85.3893 43.408ZM94.4215 46V32.944H97.3735V35.848L97.1335 35.416C97.4375 34.44 97.9095 33.76 98.5495 33.376C99.2055 32.992 99.9895 32.8 100.902 32.8H101.67V35.584H100.542C99.6455 35.584 98.9255 35.864 98.3815 36.424C97.8375 36.968 97.5655 37.736 97.5655 38.728V46H94.4215ZM110.616 46V31H105.984V28.12H118.464V31H113.904V46H110.616ZM124.456 46.288C123.112 46.288 121.936 45.984 120.928 45.376C119.92 44.768 119.136 43.944 118.576 42.904C118.016 41.864 117.736 40.712 117.736 39.448C117.736 38.136 118.016 36.976 118.576 35.968C119.152 34.944 119.928 34.136 120.904 33.544C121.896 32.952 123 32.656 124.216 32.656C125.24 32.656 126.136 32.824 126.904 33.16C127.688 33.496 128.352 33.96 128.896 34.552C129.44 35.144 129.856 35.824 130.144 36.592C130.432 37.344 130.576 38.16 130.576 39.04C130.576 39.264 130.56 39.496 130.528 39.736C130.512 39.976 130.472 40.184 130.408 40.36H120.328V37.96H128.632L127.144 39.088C127.288 38.352 127.248 37.696 127.024 37.12C126.816 36.544 126.464 36.088 125.968 35.752C125.488 35.416 124.904 35.248 124.216 35.248C123.56 35.248 122.976 35.416 122.464 35.752C121.952 36.072 121.56 36.552 121.288 37.192C121.032 37.816 120.936 38.576 121 39.472C120.936 40.272 121.04 40.984 121.312 41.608C121.6 42.216 122.016 42.688 122.56 43.024C123.12 43.36 123.76 43.528 124.48 43.528C125.2 43.528 125.808 43.376 126.304 43.072C126.816 42.768 127.216 42.36 127.504 41.848L130.048 43.096C129.792 43.72 129.392 44.272 128.848 44.752C128.304 45.232 127.656 45.608 126.904 45.88C126.168 46.152 125.352 46.288 124.456 46.288ZM132.719 46V32.944H135.671V35.512L135.431 35.056C135.735 34.272 136.231 33.68 136.919 33.28C137.623 32.864 138.439 32.656 139.367 32.656C140.327 32.656 141.175 32.864 141.911 33.28C142.663 33.696 143.247 34.28 143.663 35.032C144.079 35.768 144.287 36.624 144.287 37.6V46H141.143V38.344C141.143 37.768 141.031 37.272 140.807 36.856C140.583 36.44 140.271 36.12 139.871 35.896C139.487 35.656 139.031 35.536 138.503 35.536C137.991 35.536 137.535 35.656 137.135 35.896C136.735 36.12 136.423 36.44 136.199 36.856C135.975 37.272 135.863 37.768 135.863 38.344V46H132.719ZM152.778 46.288C151.514 46.288 150.386 45.992 149.394 45.4C148.402 44.792 147.618 43.968 147.042 42.928C146.466 41.888 146.178 40.736 146.178 39.472C146.178 38.192 146.466 37.04 147.042 36.016C147.618 34.992 148.402 34.176 149.394 33.568C150.402 32.96 151.522 32.656 152.754 32.656C153.746 32.656 154.626 32.856 155.394 33.256C156.178 33.64 156.794 34.184 157.242 34.888L156.762 35.536V27.832H159.906V46H156.93V43.48L157.266 44.104C156.818 44.808 156.194 45.352 155.394 45.736C154.594 46.104 153.722 46.288 152.778 46.288ZM153.114 43.408C153.834 43.408 154.466 43.24 155.01 42.904C155.554 42.568 155.978 42.104 156.282 41.512C156.602 40.92 156.762 40.24 156.762 39.472C156.762 38.72 156.602 38.048 156.282 37.456C155.978 36.848 155.554 36.376 155.01 36.04C154.466 35.704 153.834 35.536 153.114 35.536C152.41 35.536 151.778 35.712 151.218 36.064C150.658 36.4 150.218 36.864 149.898 37.456C149.594 38.032 149.442 38.704 149.442 39.472C149.442 40.24 149.594 40.92 149.898 41.512C150.218 42.104 150.658 42.568 151.218 42.904C151.778 43.24 152.41 43.408 153.114 43.408ZM168.783 46.288C167.439 46.288 166.263 45.984 165.255 45.376C164.247 44.768 163.463 43.944 162.903 42.904C162.343 41.864 162.063 40.712 162.063 39.448C162.063 38.136 162.343 36.976 162.903 35.968C163.479 34.944 164.255 34.136 165.231 33.544C166.223 32.952 167.327 32.656 168.543 32.656C169.567 32.656 170.463 32.824 171.231 33.16C172.015 33.496 172.679 33.96 173.223 34.552C173.767 35.144 174.183 35.824 174.471 36.592C174.759 37.344 174.903 38.16 174.903 39.04C174.903 39.264 174.887 39.496 174.855 39.736C174.839 39.976 174.799 40.184 174.735 40.36H164.655V37.96H172.959L171.471 39.088C171.615 38.352 171.575 37.696 171.351 37.12C171.143 36.544 170.791 36.088 170.295 35.752C169.815 35.416 169.231 35.248 168.543 35.248C167.887 35.248 167.303 35.416 166.791 35.752C166.279 36.072 165.887 36.552 165.615 37.192C165.359 37.816 165.263 38.576 165.327 39.472C165.263 40.272 165.367 40.984 165.639 41.608C165.927 42.216 166.343 42.688 166.887 43.024C167.447 43.36 168.087 43.528 168.807 43.528C169.527 43.528 170.135 43.376 170.631 43.072C171.143 42.768 171.543 42.36 171.831 41.848L174.375 43.096C174.119 43.72 173.719 44.272 173.175 44.752C172.631 45.232 171.983 45.608 171.231 45.88C170.495 46.152 169.679 46.288 168.783 46.288ZM177.046 46V32.944H179.998V35.848L179.758 35.416C180.062 34.44 180.534 33.76 181.174 33.376C181.83 32.992 182.614 32.8 183.526 32.8H184.294V35.584H183.166C182.27 35.584 181.55 35.864 181.006 36.424C180.462 36.968 180.19 37.736 180.19 38.728V46H177.046ZM190.751 46.288C189.359 46.288 188.143 45.96 187.103 45.304C186.079 44.632 185.375 43.728 184.991 42.592L187.343 41.464C187.679 42.2 188.143 42.776 188.735 43.192C189.343 43.608 190.015 43.816 190.751 43.816C191.327 43.816 191.783 43.688 192.119 43.432C192.455 43.176 192.623 42.84 192.623 42.424C192.623 42.168 192.551 41.96 192.407 41.8C192.279 41.624 192.095 41.48 191.855 41.368C191.631 41.24 191.383 41.136 191.111 41.056L188.975 40.456C187.871 40.136 187.031 39.648 186.455 38.992C185.895 38.336 185.615 37.56 185.615 36.664C185.615 35.864 185.815 35.168 186.215 34.576C186.631 33.968 187.199 33.496 187.919 33.16C188.655 32.824 189.495 32.656 190.439 32.656C191.671 32.656 192.759 32.952 193.703 33.544C194.647 34.136 195.319 34.968 195.719 36.04L193.319 37.168C193.095 36.576 192.719 36.104 192.191 35.752C191.663 35.4 191.071 35.224 190.415 35.224C189.887 35.224 189.471 35.344 189.167 35.584C188.863 35.824 188.711 36.136 188.711 36.52C188.711 36.76 188.775 36.968 188.903 37.144C189.031 37.32 189.207 37.464 189.431 37.576C189.671 37.688 189.943 37.792 190.247 37.888L192.335 38.512C193.407 38.832 194.231 39.312 194.807 39.952C195.399 40.592 195.695 41.376 195.695 42.304C195.695 43.088 195.487 43.784 195.071 44.392C194.655 44.984 194.079 45.448 193.343 45.784C192.607 46.12 191.743 46.288 190.751 46.288Z" fill="white"/>
<path d="M1284 29V43M1284 43L1291 36M1284 43L1277 36" stroke="white" stroke-width="2" stroke-linecap="round" stroke-linejoin="round"/>
</svg>
