<svg width="1344" height="266" viewBox="0 0 1344 266" fill="none" xmlns="http://www.w3.org/2000/svg">
<rect x="24" width="1320" height="72" rx="8" fill="#1482FF"/>
<path d="M53.4393 39.8543L48.1463 45.1473L46.3533 43.3543L51.6463 38.0613L53.4393 39.8543ZM54.1463 40.5613L48.8533 45.8543L50.6463 47.6473L55.9393 42.3543L54.1463 40.5613ZM49.7073 36.1213C49.5183 35.9323 49.2673 35.8283 49.0003 35.8283C48.7333 35.8283 48.4823 35.9323 48.2933 36.1213L44.4143 40.0003C44.0233 40.3913 44.0233 41.0243 44.4143 41.4143L45.6463 42.6463L50.9393 37.3533L49.7073 36.1213ZM58.1723 45.0003C58.1723 44.7333 58.0683 44.4823 57.8793 44.2933L56.6473 43.0613L51.3543 48.3543L52.5853 49.5853C52.9753 49.9763 53.6083 49.9763 53.9993 49.5853L57.8793 45.7073C58.0683 45.5183 58.1723 45.2673 58.1723 45.0003ZM71.2933 27.2933L66.7073 22.7073C66.3163 22.3163 65.6833 22.3163 65.2933 22.7073L61.0003 27.0003H58.6573C57.8613 27.0003 57.0983 27.3163 56.5363 27.8793L52.1223 32.2933C51.7323 32.6833 51.7323 33.3173 52.1223 33.7073L52.2943 33.8793C52.4833 34.0683 52.7343 34.1723 53.0013 34.1723C53.2683 34.1723 53.5193 34.0683 53.7083 33.8793L56.1723 31.4153C57.3443 30.2433 59.2433 30.2433 60.4153 31.4153L66.0003 37.0003L67.0003 38.0003V33.0003L71.2933 28.7073C71.6833 28.3173 71.6833 27.6833 71.2933 27.2933ZM59.7083 32.1223C58.9273 31.3403 57.6603 31.3403 56.8793 32.1213L54.4153 34.5863C54.0243 34.9773 53.5133 35.1723 53.0013 35.1723C52.4893 35.1723 51.9773 34.9773 51.5873 34.5863L51.4153 34.4143C50.6343 33.6333 50.6343 32.3673 51.4153 31.5863L56.0003 27.0003H51.0003L46.7073 22.7073C46.3163 22.3163 45.6833 22.3163 45.2933 22.7073L40.7073 27.2933C40.3163 27.6843 40.3163 28.3173 40.7073 28.7073L45.0003 33.0003V38.0003L47.5863 35.4143C47.9763 35.0243 48.4883 34.8283 49.0003 34.8283C49.5123 34.8283 50.0243 35.0233 50.4143 35.4143L58.5863 43.5863C59.0833 44.0833 59.2613 44.7773 59.1253 45.4183L61.3543 47.6473L63.1473 45.8543L59.5003 42.2073C59.3053 42.0123 59.3053 41.6953 59.5003 41.5003C59.6953 41.3053 60.0123 41.3053 60.2073 41.5003L63.8533 45.1463L65.6463 43.3533L62.0003 39.7073C61.8053 39.5123 61.8053 39.1953 62.0003 39.0003C62.1953 38.8053 62.5123 38.8053 62.7073 39.0003L66.3533 42.6463L67.5813 41.4183C67.9713 41.0283 67.9723 40.3953 67.5813 40.0043L59.7083 32.1223ZM56.7193 48.2813L58.0123 49.5743C58.4033 49.9653 59.0363 49.9653 59.4263 49.5743L60.5863 48.4133L58.5853 46.4143L56.7193 48.2813Z" fill="white"/>
<path d="M89.728 46V28.12H101.656V31H92.992V35.944H100.576V38.824H92.992V46H89.728ZM109.389 46.288C108.109 46.288 106.941 45.992 105.885 45.4C104.845 44.808 104.013 44 103.389 42.976C102.781 41.952 102.477 40.784 102.477 39.472C102.477 38.16 102.781 36.992 103.389 35.968C104.013 34.944 104.845 34.136 105.885 33.544C106.925 32.952 108.093 32.656 109.389 32.656C110.669 32.656 111.829 32.952 112.869 33.544C113.909 34.136 114.733 34.944 115.341 35.968C115.965 36.976 116.277 38.144 116.277 39.472C116.277 40.784 115.965 41.952 115.341 42.976C114.717 44 113.885 44.808 112.845 45.4C111.805 45.992 110.653 46.288 109.389 46.288ZM109.389 43.408C110.093 43.408 110.709 43.24 111.237 42.904C111.781 42.568 112.205 42.104 112.509 41.512C112.829 40.904 112.989 40.224 112.989 39.472C112.989 38.704 112.829 38.032 112.509 37.456C112.205 36.864 111.781 36.4 111.237 36.064C110.709 35.712 110.093 35.536 109.389 35.536C108.669 35.536 108.037 35.712 107.493 36.064C106.949 36.4 106.517 36.864 106.197 37.456C105.893 38.032 105.741 38.704 105.741 39.472C105.741 40.224 105.893 40.904 106.197 41.512C106.517 42.104 106.949 42.568 107.493 42.904C108.037 43.24 108.669 43.408 109.389 43.408ZM118.422 46V32.944H121.374V35.848L121.134 35.416C121.438 34.44 121.91 33.76 122.55 33.376C123.206 32.992 123.99 32.8 124.902 32.8H125.67V35.584H124.542C123.646 35.584 122.926 35.864 122.382 36.424C121.838 36.968 121.566 37.736 121.566 38.728V46H118.422ZM134.616 46V31H129.984V28.12H142.464V31H137.904V46H134.616ZM148.456 46.288C147.112 46.288 145.936 45.984 144.928 45.376C143.92 44.768 143.136 43.944 142.576 42.904C142.016 41.864 141.736 40.712 141.736 39.448C141.736 38.136 142.016 36.976 142.576 35.968C143.152 34.944 143.928 34.136 144.904 33.544C145.896 32.952 147 32.656 148.216 32.656C149.24 32.656 150.136 32.824 150.904 33.16C151.688 33.496 152.352 33.96 152.896 34.552C153.44 35.144 153.856 35.824 154.144 36.592C154.432 37.344 154.576 38.16 154.576 39.04C154.576 39.264 154.56 39.496 154.528 39.736C154.512 39.976 154.472 40.184 154.408 40.36H144.328V37.96H152.632L151.144 39.088C151.288 38.352 151.248 37.696 151.024 37.12C150.816 36.544 150.464 36.088 149.968 35.752C149.488 35.416 148.904 35.248 148.216 35.248C147.56 35.248 146.976 35.416 146.464 35.752C145.952 36.072 145.56 36.552 145.288 37.192C145.032 37.816 144.936 38.576 145 39.472C144.936 40.272 145.04 40.984 145.312 41.608C145.6 42.216 146.016 42.688 146.56 43.024C147.12 43.36 147.76 43.528 148.48 43.528C149.2 43.528 149.808 43.376 150.304 43.072C150.816 42.768 151.216 42.36 151.504 41.848L154.048 43.096C153.792 43.72 153.392 44.272 152.848 44.752C152.304 45.232 151.656 45.608 150.904 45.88C150.168 46.152 149.352 46.288 148.456 46.288ZM156.719 46V32.944H159.671V35.512L159.431 35.056C159.735 34.272 160.231 33.68 160.919 33.28C161.623 32.864 162.439 32.656 163.367 32.656C164.327 32.656 165.175 32.864 165.911 33.28C166.663 33.696 167.247 34.28 167.663 35.032C168.079 35.768 168.287 36.624 168.287 37.6V46H165.143V38.344C165.143 37.768 165.031 37.272 164.807 36.856C164.583 36.44 164.271 36.12 163.871 35.896C163.487 35.656 163.031 35.536 162.503 35.536C161.991 35.536 161.535 35.656 161.135 35.896C160.735 36.12 160.423 36.44 160.199 36.856C159.975 37.272 159.863 37.768 159.863 38.344V46H156.719ZM176.778 46.288C175.514 46.288 174.386 45.992 173.394 45.4C172.402 44.792 171.618 43.968 171.042 42.928C170.466 41.888 170.178 40.736 170.178 39.472C170.178 38.192 170.466 37.04 171.042 36.016C171.618 34.992 172.402 34.176 173.394 33.568C174.402 32.96 175.522 32.656 176.754 32.656C177.746 32.656 178.626 32.856 179.394 33.256C180.178 33.64 180.794 34.184 181.242 34.888L180.762 35.536V27.832H183.906V46H180.93V43.48L181.266 44.104C180.818 44.808 180.194 45.352 179.394 45.736C178.594 46.104 177.722 46.288 176.778 46.288ZM177.114 43.408C177.834 43.408 178.466 43.24 179.01 42.904C179.554 42.568 179.978 42.104 180.282 41.512C180.602 40.92 180.762 40.24 180.762 39.472C180.762 38.72 180.602 38.048 180.282 37.456C179.978 36.848 179.554 36.376 179.01 36.04C178.466 35.704 177.834 35.536 177.114 35.536C176.41 35.536 175.778 35.712 175.218 36.064C174.658 36.4 174.218 36.864 173.898 37.456C173.594 38.032 173.442 38.704 173.442 39.472C173.442 40.24 173.594 40.92 173.898 41.512C174.218 42.104 174.658 42.568 175.218 42.904C175.778 43.24 176.41 43.408 177.114 43.408ZM192.783 46.288C191.439 46.288 190.263 45.984 189.255 45.376C188.247 44.768 187.463 43.944 186.903 42.904C186.343 41.864 186.063 40.712 186.063 39.448C186.063 38.136 186.343 36.976 186.903 35.968C187.479 34.944 188.255 34.136 189.231 33.544C190.223 32.952 191.327 32.656 192.543 32.656C193.567 32.656 194.463 32.824 195.231 33.16C196.015 33.496 196.679 33.96 197.223 34.552C197.767 35.144 198.183 35.824 198.471 36.592C198.759 37.344 198.903 38.16 198.903 39.04C198.903 39.264 198.887 39.496 198.855 39.736C198.839 39.976 198.799 40.184 198.735 40.36H188.655V37.96H196.959L195.471 39.088C195.615 38.352 195.575 37.696 195.351 37.12C195.143 36.544 194.791 36.088 194.295 35.752C193.815 35.416 193.231 35.248 192.543 35.248C191.887 35.248 191.303 35.416 190.791 35.752C190.279 36.072 189.887 36.552 189.615 37.192C189.359 37.816 189.263 38.576 189.327 39.472C189.263 40.272 189.367 40.984 189.639 41.608C189.927 42.216 190.343 42.688 190.887 43.024C191.447 43.36 192.087 43.528 192.807 43.528C193.527 43.528 194.135 43.376 194.631 43.072C195.143 42.768 195.543 42.36 195.831 41.848L198.375 43.096C198.119 43.72 197.719 44.272 197.175 44.752C196.631 45.232 195.983 45.608 195.231 45.88C194.495 46.152 193.679 46.288 192.783 46.288ZM201.046 46V32.944H203.998V35.848L203.758 35.416C204.062 34.44 204.534 33.76 205.174 33.376C205.83 32.992 206.614 32.8 207.526 32.8H208.294V35.584H207.166C206.27 35.584 205.55 35.864 205.006 36.424C204.462 36.968 204.19 37.736 204.19 38.728V46H201.046ZM214.751 46.288C213.359 46.288 212.143 45.96 211.103 45.304C210.079 44.632 209.375 43.728 208.991 42.592L211.343 41.464C211.679 42.2 212.143 42.776 212.735 43.192C213.343 43.608 214.015 43.816 214.751 43.816C215.327 43.816 215.783 43.688 216.119 43.432C216.455 43.176 216.623 42.84 216.623 42.424C216.623 42.168 216.551 41.96 216.407 41.8C216.279 41.624 216.095 41.48 215.855 41.368C215.631 41.24 215.383 41.136 215.111 41.056L212.975 40.456C211.871 40.136 211.031 39.648 210.455 38.992C209.895 38.336 209.615 37.56 209.615 36.664C209.615 35.864 209.815 35.168 210.215 34.576C210.631 33.968 211.199 33.496 211.919 33.16C212.655 32.824 213.495 32.656 214.439 32.656C215.671 32.656 216.759 32.952 217.703 33.544C218.647 34.136 219.319 34.968 219.719 36.04L217.319 37.168C217.095 36.576 216.719 36.104 216.191 35.752C215.663 35.4 215.071 35.224 214.415 35.224C213.887 35.224 213.471 35.344 213.167 35.584C212.863 35.824 212.711 36.136 212.711 36.52C212.711 36.76 212.775 36.968 212.903 37.144C213.031 37.32 213.207 37.464 213.431 37.576C213.671 37.688 213.943 37.792 214.247 37.888L216.335 38.512C217.407 38.832 218.231 39.312 218.807 39.952C219.399 40.592 219.695 41.376 219.695 42.304C219.695 43.088 219.487 43.784 219.071 44.392C218.655 44.984 218.079 45.448 217.343 45.784C216.607 46.12 215.743 46.288 214.751 46.288Z" fill="white"/>
<path d="M1308 43V29M1308 29L1301 36M1308 29L1315 36" stroke="white" stroke-width="2" stroke-linecap="round" stroke-linejoin="round"/>
<g filter="url(#filter0_d_2012_2532)">
<g clip-path="url(#clip0_2012_2532)">
<rect x="24" y="88" width="315" height="158" rx="12" fill="white"/>
<path d="M53.728 146V128.12H65.608V131H56.992V135.584H65.128V138.464H56.992V143.12H65.608V146H53.728ZM67.4974 146V132.944H70.4494V135.512L70.2094 135.056C70.5134 134.272 71.0094 133.68 71.6974 133.28C72.4014 132.864 73.2174 132.656 74.1454 132.656C75.1054 132.656 75.9534 132.864 76.6894 133.28C77.4414 133.696 78.0254 134.28 78.4414 135.032C78.8574 135.768 79.0654 136.624 79.0654 137.6V146H75.9214V138.344C75.9214 137.768 75.8094 137.272 75.5854 136.856C75.3614 136.44 75.0494 136.12 74.6494 135.896C74.2654 135.656 73.8094 135.536 73.2814 135.536C72.7694 135.536 72.3134 135.656 71.9134 135.896C71.5134 136.12 71.2014 136.44 70.9774 136.856C70.7534 137.272 70.6414 137.768 70.6414 138.344V146H67.4974ZM81.484 146V127.832H84.628V135.512L84.196 135.056C84.5 134.272 84.996 133.68 85.684 133.28C86.388 132.864 87.204 132.656 88.132 132.656C89.092 132.656 89.94 132.864 90.676 133.28C91.428 133.696 92.012 134.28 92.428 135.032C92.844 135.768 93.052 136.624 93.052 137.6V146H89.908V138.344C89.908 137.768 89.796 137.272 89.572 136.856C89.348 136.44 89.036 136.12 88.636 135.896C88.252 135.656 87.796 135.536 87.268 135.536C86.756 135.536 86.3 135.656 85.9 135.896C85.5 136.12 85.188 136.44 84.964 136.856C84.74 137.272 84.628 137.768 84.628 138.344V146H81.484ZM99.4306 146.288C98.5186 146.288 97.7266 146.136 97.0546 145.832C96.3826 145.528 95.8626 145.096 95.4946 144.536C95.1266 143.96 94.9426 143.296 94.9426 142.544C94.9426 141.824 95.1026 141.184 95.4226 140.624C95.7426 140.048 96.2386 139.568 96.9106 139.184C97.5826 138.8 98.4306 138.528 99.4546 138.368L103.727 137.672V140.072L100.055 140.696C99.4306 140.808 98.9666 141.008 98.6626 141.296C98.3586 141.584 98.2066 141.96 98.2066 142.424C98.2066 142.872 98.3746 143.232 98.7106 143.504C99.0626 143.76 99.4946 143.888 100.007 143.888C100.663 143.888 101.239 143.752 101.735 143.48C102.247 143.192 102.639 142.8 102.911 142.304C103.199 141.808 103.343 141.264 103.343 140.672V137.312C103.343 136.752 103.119 136.288 102.671 135.92C102.239 135.536 101.663 135.344 100.943 135.344C100.271 135.344 99.6706 135.528 99.1426 135.896C98.6306 136.248 98.2546 136.72 98.0146 137.312L95.4466 136.064C95.7026 135.376 96.1026 134.784 96.6466 134.288C97.2066 133.776 97.8626 133.376 98.6146 133.088C99.3666 132.8 100.183 132.656 101.063 132.656C102.135 132.656 103.079 132.856 103.895 133.256C104.711 133.64 105.343 134.184 105.791 134.888C106.255 135.576 106.487 136.384 106.487 137.312V146H103.511V143.768L104.183 143.72C103.847 144.28 103.447 144.752 102.983 145.136C102.519 145.504 101.991 145.792 101.399 146C100.807 146.192 100.151 146.288 99.4306 146.288ZM109.152 146V132.944H112.104V135.512L111.864 135.056C112.168 134.272 112.664 133.68 113.352 133.28C114.056 132.864 114.872 132.656 115.8 132.656C116.76 132.656 117.608 132.864 118.344 133.28C119.096 133.696 119.68 134.28 120.096 135.032C120.512 135.768 120.72 136.624 120.72 137.6V146H117.576V138.344C117.576 137.768 117.464 137.272 117.24 136.856C117.016 136.44 116.704 136.12 116.304 135.896C115.92 135.656 115.464 135.536 114.936 135.536C114.424 135.536 113.968 135.656 113.568 135.896C113.168 136.12 112.856 136.44 112.632 136.856C112.408 137.272 112.296 137.768 112.296 138.344V146H109.152ZM129.427 146.288C128.131 146.288 126.963 145.992 125.923 145.4C124.899 144.792 124.091 143.976 123.499 142.952C122.907 141.912 122.611 140.744 122.611 139.448C122.611 138.152 122.907 136.992 123.499 135.968C124.091 134.944 124.899 134.136 125.923 133.544C126.963 132.952 128.131 132.656 129.427 132.656C130.355 132.656 131.219 132.824 132.019 133.16C132.819 133.48 133.507 133.928 134.083 134.504C134.675 135.064 135.099 135.736 135.355 136.52L132.595 137.72C132.355 137.064 131.947 136.536 131.371 136.136C130.811 135.736 130.163 135.536 129.427 135.536C128.739 135.536 128.123 135.704 127.579 136.04C127.051 136.376 126.635 136.84 126.331 137.432C126.027 138.024 125.875 138.704 125.875 139.472C125.875 140.24 126.027 140.92 126.331 141.512C126.635 142.104 127.051 142.568 127.579 142.904C128.123 143.24 128.739 143.408 129.427 143.408C130.179 143.408 130.835 143.208 131.395 142.808C131.955 142.408 132.355 141.872 132.595 141.2L135.355 142.448C135.099 143.184 134.683 143.848 134.107 144.44C133.531 145.016 132.843 145.472 132.043 145.808C131.243 146.128 130.371 146.288 129.427 146.288ZM143.693 146.288C142.349 146.288 141.173 145.984 140.165 145.376C139.157 144.768 138.373 143.944 137.813 142.904C137.253 141.864 136.973 140.712 136.973 139.448C136.973 138.136 137.253 136.976 137.813 135.968C138.389 134.944 139.165 134.136 140.141 133.544C141.133 132.952 142.237 132.656 143.453 132.656C144.477 132.656 145.373 132.824 146.141 133.16C146.925 133.496 147.589 133.96 148.133 134.552C148.677 135.144 149.093 135.824 149.381 136.592C149.669 137.344 149.813 138.16 149.813 139.04C149.813 139.264 149.797 139.496 149.765 139.736C149.749 139.976 149.709 140.184 149.645 140.36H139.565V137.96H147.869L146.381 139.088C146.525 138.352 146.485 137.696 146.261 137.12C146.053 136.544 145.701 136.088 145.205 135.752C144.725 135.416 144.141 135.248 143.453 135.248C142.797 135.248 142.213 135.416 141.701 135.752C141.189 136.072 140.797 136.552 140.525 137.192C140.269 137.816 140.173 138.576 140.237 139.472C140.173 140.272 140.277 140.984 140.549 141.608C140.837 142.216 141.253 142.688 141.797 143.024C142.357 143.36 142.997 143.528 143.717 143.528C144.437 143.528 145.045 143.376 145.541 143.072C146.053 142.768 146.453 142.36 146.741 141.848L149.285 143.096C149.029 143.72 148.629 144.272 148.085 144.752C147.541 145.232 146.893 145.608 146.141 145.88C145.405 146.152 144.589 146.288 143.693 146.288ZM58.288 176V168.08L52.264 158.12H55.984L60.592 165.896H59.272L63.856 158.12H67.576L61.576 168.056V176H58.288ZM73.2486 176.288C71.9686 176.288 70.8006 175.992 69.7446 175.4C68.7046 174.808 67.8726 174 67.2486 172.976C66.6406 171.952 66.3366 170.784 66.3366 169.472C66.3366 168.16 66.6406 166.992 67.2486 165.968C67.8726 164.944 68.7046 164.136 69.7446 163.544C70.7846 162.952 71.9526 162.656 73.2486 162.656C74.5286 162.656 75.6886 162.952 76.7286 163.544C77.7686 164.136 78.5926 164.944 79.2006 165.968C79.8246 166.976 80.1366 168.144 80.1366 169.472C80.1366 170.784 79.8246 171.952 79.2006 172.976C78.5766 174 77.7446 174.808 76.7046 175.4C75.6646 175.992 74.5126 176.288 73.2486 176.288ZM73.2486 173.408C73.9526 173.408 74.5686 173.24 75.0966 172.904C75.6406 172.568 76.0646 172.104 76.3686 171.512C76.6886 170.904 76.8486 170.224 76.8486 169.472C76.8486 168.704 76.6886 168.032 76.3686 167.456C76.0646 166.864 75.6406 166.4 75.0966 166.064C74.5686 165.712 73.9526 165.536 73.2486 165.536C72.5286 165.536 71.8966 165.712 71.3526 166.064C70.8086 166.4 70.3766 166.864 70.0566 167.456C69.7526 168.032 69.6006 168.704 69.6006 169.472C69.6006 170.224 69.7526 170.904 70.0566 171.512C70.3766 172.104 70.8086 172.568 71.3526 172.904C71.8966 173.24 72.5286 173.408 73.2486 173.408ZM86.9369 176.288C85.9289 176.288 85.0489 176.064 84.2969 175.616C83.5609 175.168 82.9929 174.544 82.5929 173.744C82.2089 172.944 82.0169 172.008 82.0169 170.936V162.944H85.1609V170.672C85.1609 171.216 85.2649 171.696 85.4729 172.112C85.6969 172.512 86.0089 172.832 86.4089 173.072C86.8249 173.296 87.2889 173.408 87.8009 173.408C88.3129 173.408 88.7689 173.296 89.1689 173.072C89.5689 172.832 89.8809 172.504 90.1049 172.088C90.3289 171.672 90.4409 171.176 90.4409 170.6V162.944H93.5849V176H90.6089V173.432L90.8729 173.888C90.5689 174.688 90.0649 175.288 89.3609 175.688C88.6729 176.088 87.8649 176.288 86.9369 176.288ZM96.2674 176V162.944H99.2194V165.848L98.9794 165.416C99.2834 164.44 99.7554 163.76 100.395 163.376C101.051 162.992 101.835 162.8 102.747 162.8H103.515V165.584H102.387C101.491 165.584 100.771 165.864 100.227 166.424C99.6834 166.968 99.4114 167.736 99.4114 168.728V176H96.2674ZM112.462 176V161H107.83V158.12H120.31V161H115.75V176H112.462ZM126.302 176.288C124.958 176.288 123.782 175.984 122.774 175.376C121.766 174.768 120.982 173.944 120.422 172.904C119.862 171.864 119.582 170.712 119.582 169.448C119.582 168.136 119.862 166.976 120.422 165.968C120.998 164.944 121.774 164.136 122.75 163.544C123.742 162.952 124.846 162.656 126.062 162.656C127.086 162.656 127.982 162.824 128.75 163.16C129.534 163.496 130.198 163.96 130.742 164.552C131.286 165.144 131.702 165.824 131.99 166.592C132.278 167.344 132.422 168.16 132.422 169.04C132.422 169.264 132.406 169.496 132.374 169.736C132.358 169.976 132.318 170.184 132.254 170.36H122.174V167.96H130.478L128.99 169.088C129.134 168.352 129.094 167.696 128.87 167.12C128.662 166.544 128.31 166.088 127.814 165.752C127.334 165.416 126.75 165.248 126.062 165.248C125.406 165.248 124.822 165.416 124.31 165.752C123.798 166.072 123.406 166.552 123.134 167.192C122.878 167.816 122.782 168.576 122.846 169.472C122.782 170.272 122.886 170.984 123.158 171.608C123.446 172.216 123.862 172.688 124.406 173.024C124.966 173.36 125.606 173.528 126.326 173.528C127.046 173.528 127.654 173.376 128.15 173.072C128.662 172.768 129.062 172.36 129.35 171.848L131.894 173.096C131.638 173.72 131.238 174.272 130.694 174.752C130.15 175.232 129.502 175.608 128.75 175.88C128.014 176.152 127.198 176.288 126.302 176.288ZM134.565 176V162.944H137.517V165.512L137.277 165.056C137.581 164.272 138.077 163.68 138.765 163.28C139.469 162.864 140.285 162.656 141.213 162.656C142.173 162.656 143.021 162.864 143.757 163.28C144.509 163.696 145.093 164.28 145.509 165.032C145.925 165.768 146.133 166.624 146.133 167.6V176H142.989V168.344C142.989 167.768 142.877 167.272 142.653 166.856C142.429 166.44 142.117 166.12 141.717 165.896C141.333 165.656 140.877 165.536 140.349 165.536C139.837 165.536 139.381 165.656 138.981 165.896C138.581 166.12 138.269 166.44 138.045 166.856C137.821 167.272 137.709 167.768 137.709 168.344V176H134.565ZM154.624 176.288C153.36 176.288 152.232 175.992 151.24 175.4C150.248 174.792 149.464 173.968 148.888 172.928C148.312 171.888 148.024 170.736 148.024 169.472C148.024 168.192 148.312 167.04 148.888 166.016C149.464 164.992 150.248 164.176 151.24 163.568C152.248 162.96 153.368 162.656 154.6 162.656C155.592 162.656 156.472 162.856 157.24 163.256C158.024 163.64 158.64 164.184 159.088 164.888L158.608 165.536V157.832H161.752V176H158.776V173.48L159.112 174.104C158.664 174.808 158.04 175.352 157.24 175.736C156.44 176.104 155.568 176.288 154.624 176.288ZM154.96 173.408C155.68 173.408 156.312 173.24 156.856 172.904C157.4 172.568 157.824 172.104 158.128 171.512C158.448 170.92 158.608 170.24 158.608 169.472C158.608 168.72 158.448 168.048 158.128 167.456C157.824 166.848 157.4 166.376 156.856 166.04C156.312 165.704 155.68 165.536 154.96 165.536C154.256 165.536 153.624 165.712 153.064 166.064C152.504 166.4 152.064 166.864 151.744 167.456C151.44 168.032 151.288 168.704 151.288 169.472C151.288 170.24 151.44 170.92 151.744 171.512C152.064 172.104 152.504 172.568 153.064 172.904C153.624 173.24 154.256 173.408 154.96 173.408ZM170.629 176.288C169.285 176.288 168.109 175.984 167.101 175.376C166.093 174.768 165.309 173.944 164.749 172.904C164.189 171.864 163.909 170.712 163.909 169.448C163.909 168.136 164.189 166.976 164.749 165.968C165.325 164.944 166.101 164.136 167.077 163.544C168.069 162.952 169.173 162.656 170.389 162.656C171.413 162.656 172.309 162.824 173.077 163.16C173.861 163.496 174.525 163.96 175.069 164.552C175.613 165.144 176.029 165.824 176.317 166.592C176.605 167.344 176.749 168.16 176.749 169.04C176.749 169.264 176.733 169.496 176.701 169.736C176.685 169.976 176.645 170.184 176.581 170.36H166.501V167.96H174.805L173.317 169.088C173.461 168.352 173.421 167.696 173.197 167.12C172.989 166.544 172.637 166.088 172.141 165.752C171.661 165.416 171.077 165.248 170.389 165.248C169.733 165.248 169.149 165.416 168.637 165.752C168.125 166.072 167.733 166.552 167.461 167.192C167.205 167.816 167.109 168.576 167.173 169.472C167.109 170.272 167.213 170.984 167.485 171.608C167.773 172.216 168.189 172.688 168.733 173.024C169.293 173.36 169.933 173.528 170.653 173.528C171.373 173.528 171.981 173.376 172.477 173.072C172.989 172.768 173.389 172.36 173.677 171.848L176.221 173.096C175.965 173.72 175.565 174.272 175.021 174.752C174.477 175.232 173.829 175.608 173.077 175.88C172.341 176.152 171.525 176.288 170.629 176.288ZM178.892 176V162.944H181.844V165.848L181.604 165.416C181.908 164.44 182.38 163.76 183.02 163.376C183.676 162.992 184.46 162.8 185.372 162.8H186.14V165.584H185.012C184.116 165.584 183.396 165.864 182.852 166.424C182.308 166.968 182.036 167.736 182.036 168.728V176H178.892ZM192.597 176.288C191.205 176.288 189.989 175.96 188.949 175.304C187.925 174.632 187.221 173.728 186.837 172.592L189.189 171.464C189.525 172.2 189.989 172.776 190.581 173.192C191.189 173.608 191.861 173.816 192.597 173.816C193.173 173.816 193.629 173.688 193.965 173.432C194.301 173.176 194.469 172.84 194.469 172.424C194.469 172.168 194.397 171.96 194.253 171.8C194.125 171.624 193.941 171.48 193.701 171.368C193.477 171.24 193.229 171.136 192.957 171.056L190.821 170.456C189.717 170.136 188.877 169.648 188.301 168.992C187.741 168.336 187.461 167.56 187.461 166.664C187.461 165.864 187.661 165.168 188.061 164.576C188.477 163.968 189.045 163.496 189.765 163.16C190.501 162.824 191.341 162.656 192.285 162.656C193.517 162.656 194.605 162.952 195.549 163.544C196.493 164.136 197.165 164.968 197.565 166.04L195.165 167.168C194.941 166.576 194.565 166.104 194.037 165.752C193.509 165.4 192.917 165.224 192.261 165.224C191.733 165.224 191.317 165.344 191.013 165.584C190.709 165.824 190.557 166.136 190.557 166.52C190.557 166.76 190.621 166.968 190.749 167.144C190.877 167.32 191.053 167.464 191.277 167.576C191.517 167.688 191.789 167.792 192.093 167.888L194.181 168.512C195.253 168.832 196.077 169.312 196.653 169.952C197.245 170.592 197.541 171.376 197.541 172.304C197.541 173.088 197.333 173.784 196.917 174.392C196.501 174.984 195.925 175.448 195.189 175.784C194.453 176.12 193.589 176.288 192.597 176.288Z" fill="#252D36"/>
<path d="M53.4766 205V192.115H62.1689V193.636H55.1816V197.626H61.2285V199.146H55.1816V205H53.4766ZM63.6016 200.333C63.6016 198.604 64.082 197.324 65.043 196.492C65.8457 195.801 66.8242 195.455 67.9785 195.455C69.2617 195.455 70.3105 195.877 71.125 196.721C71.9395 197.559 72.3467 198.719 72.3467 200.201C72.3467 201.402 72.165 202.349 71.8018 203.04C71.4443 203.726 70.9199 204.259 70.2285 204.64C69.543 205.021 68.793 205.211 67.9785 205.211C66.6719 205.211 65.6143 204.792 64.8057 203.954C64.0029 203.116 63.6016 201.909 63.6016 200.333ZM65.2275 200.333C65.2275 201.528 65.4883 202.425 66.0098 203.022C66.5312 203.614 67.1875 203.91 67.9785 203.91C68.7637 203.91 69.417 203.611 69.9385 203.014C70.46 202.416 70.7207 201.505 70.7207 200.28C70.7207 199.126 70.457 198.253 69.9297 197.661C69.4082 197.063 68.7578 196.765 67.9785 196.765C67.1875 196.765 66.5312 197.061 66.0098 197.652C65.4883 198.244 65.2275 199.138 65.2275 200.333ZM74.1924 205V195.666H75.6162V197.081C75.9795 196.419 76.3135 195.982 76.6182 195.771C76.9287 195.561 77.2686 195.455 77.6377 195.455C78.1709 195.455 78.7129 195.625 79.2637 195.965L78.7188 197.433C78.332 197.204 77.9453 197.09 77.5586 197.09C77.2129 197.09 76.9023 197.195 76.627 197.406C76.3516 197.611 76.1553 197.898 76.0381 198.268C75.8623 198.83 75.7744 199.445 75.7744 200.113V205H74.1924ZM88.3604 205V193.636H84.1152V192.115H94.3281V193.636H90.0654V205H88.3604ZM100.27 201.994L101.904 202.196C101.646 203.151 101.169 203.893 100.472 204.42C99.7744 204.947 98.8838 205.211 97.7998 205.211C96.4346 205.211 95.3506 204.792 94.5479 203.954C93.751 203.11 93.3525 201.93 93.3525 200.412C93.3525 198.842 93.7568 197.623 94.5654 196.756C95.374 195.889 96.4229 195.455 97.7119 195.455C98.96 195.455 99.9795 195.88 100.771 196.729C101.562 197.579 101.957 198.774 101.957 200.315C101.957 200.409 101.954 200.55 101.948 200.737H94.9873C95.0459 201.763 95.3359 202.548 95.8574 203.093C96.3789 203.638 97.0293 203.91 97.8086 203.91C98.3887 203.91 98.8838 203.758 99.2939 203.453C99.7041 203.148 100.029 202.662 100.27 201.994ZM95.0752 199.437H100.287C100.217 198.651 100.018 198.062 99.6895 197.67C99.1855 197.061 98.5322 196.756 97.7295 196.756C97.0029 196.756 96.3906 196.999 95.8926 197.485C95.4004 197.972 95.1279 198.622 95.0752 199.437ZM103.899 205V195.666H105.323V196.993C106.009 195.968 106.999 195.455 108.294 195.455C108.856 195.455 109.372 195.558 109.841 195.763C110.315 195.962 110.67 196.226 110.904 196.554C111.139 196.882 111.303 197.271 111.396 197.723C111.455 198.016 111.484 198.528 111.484 199.261V205H109.902V199.322C109.902 198.678 109.841 198.197 109.718 197.881C109.595 197.559 109.375 197.304 109.059 197.116C108.748 196.923 108.382 196.826 107.96 196.826C107.286 196.826 106.703 197.04 106.211 197.468C105.725 197.896 105.481 198.707 105.481 199.902V205H103.899ZM119.975 205V203.822C119.383 204.748 118.513 205.211 117.364 205.211C116.62 205.211 115.935 205.006 115.308 204.596C114.687 204.186 114.203 203.614 113.857 202.882C113.518 202.144 113.348 201.297 113.348 200.342C113.348 199.41 113.503 198.566 113.813 197.811C114.124 197.049 114.59 196.466 115.211 196.062C115.832 195.657 116.526 195.455 117.294 195.455C117.856 195.455 118.357 195.575 118.797 195.815C119.236 196.05 119.594 196.357 119.869 196.738V192.115H121.442V205H119.975ZM114.974 200.342C114.974 201.537 115.226 202.431 115.729 203.022C116.233 203.614 116.828 203.91 117.514 203.91C118.205 203.91 118.791 203.629 119.271 203.066C119.758 202.498 120.001 201.634 120.001 200.474C120.001 199.196 119.755 198.259 119.263 197.661C118.771 197.063 118.164 196.765 117.443 196.765C116.74 196.765 116.151 197.052 115.677 197.626C115.208 198.2 114.974 199.105 114.974 200.342ZM130.328 201.994L131.963 202.196C131.705 203.151 131.228 203.893 130.53 204.42C129.833 204.947 128.942 205.211 127.858 205.211C126.493 205.211 125.409 204.792 124.606 203.954C123.81 203.11 123.411 201.93 123.411 200.412C123.411 198.842 123.815 197.623 124.624 196.756C125.433 195.889 126.481 195.455 127.771 195.455C129.019 195.455 130.038 195.88 130.829 196.729C131.62 197.579 132.016 198.774 132.016 200.315C132.016 200.409 132.013 200.55 132.007 200.737H125.046C125.104 201.763 125.395 202.548 125.916 203.093C126.438 203.638 127.088 203.91 127.867 203.91C128.447 203.91 128.942 203.758 129.353 203.453C129.763 203.148 130.088 202.662 130.328 201.994ZM125.134 199.437H130.346C130.275 198.651 130.076 198.062 129.748 197.67C129.244 197.061 128.591 196.756 127.788 196.756C127.062 196.756 126.449 196.999 125.951 197.485C125.459 197.972 125.187 198.622 125.134 199.437ZM133.94 205V195.666H135.364V197.081C135.728 196.419 136.062 195.982 136.366 195.771C136.677 195.561 137.017 195.455 137.386 195.455C137.919 195.455 138.461 195.625 139.012 195.965L138.467 197.433C138.08 197.204 137.693 197.09 137.307 197.09C136.961 197.09 136.65 197.195 136.375 197.406C136.1 197.611 135.903 197.898 135.786 198.268C135.61 198.83 135.522 199.445 135.522 200.113V205H133.94ZM148.108 205V193.636H143.863V192.115H154.076V193.636H149.813V205H148.108ZM160.018 201.994L161.652 202.196C161.395 203.151 160.917 203.893 160.22 204.42C159.522 204.947 158.632 205.211 157.548 205.211C156.183 205.211 155.099 204.792 154.296 203.954C153.499 203.11 153.101 201.93 153.101 200.412C153.101 198.842 153.505 197.623 154.313 196.756C155.122 195.889 156.171 195.455 157.46 195.455C158.708 195.455 159.728 195.88 160.519 196.729C161.31 197.579 161.705 198.774 161.705 200.315C161.705 200.409 161.702 200.55 161.696 200.737H154.735C154.794 201.763 155.084 202.548 155.605 203.093C156.127 203.638 156.777 203.91 157.557 203.91C158.137 203.91 158.632 203.758 159.042 203.453C159.452 203.148 159.777 202.662 160.018 201.994ZM154.823 199.437H160.035C159.965 198.651 159.766 198.062 159.438 197.67C158.934 197.061 158.28 196.756 157.478 196.756C156.751 196.756 156.139 196.999 155.641 197.485C155.148 197.972 154.876 198.622 154.823 199.437ZM169.738 203.849C169.152 204.347 168.587 204.698 168.042 204.903C167.503 205.108 166.923 205.211 166.302 205.211C165.276 205.211 164.488 204.962 163.938 204.464C163.387 203.96 163.111 203.318 163.111 202.539C163.111 202.082 163.214 201.666 163.419 201.291C163.63 200.91 163.902 200.605 164.236 200.377C164.576 200.148 164.957 199.976 165.379 199.858C165.689 199.776 166.158 199.697 166.785 199.621C168.062 199.469 169.003 199.287 169.606 199.076C169.612 198.859 169.615 198.722 169.615 198.663C169.615 198.019 169.466 197.564 169.167 197.301C168.763 196.943 168.162 196.765 167.365 196.765C166.621 196.765 166.07 196.896 165.713 197.16C165.361 197.418 165.101 197.878 164.931 198.54L163.384 198.329C163.524 197.667 163.756 197.134 164.078 196.729C164.4 196.319 164.866 196.006 165.476 195.789C166.085 195.566 166.791 195.455 167.594 195.455C168.391 195.455 169.038 195.549 169.536 195.736C170.034 195.924 170.4 196.161 170.635 196.448C170.869 196.729 171.033 197.087 171.127 197.521C171.18 197.79 171.206 198.276 171.206 198.979V201.089C171.206 202.56 171.238 203.491 171.303 203.884C171.373 204.271 171.508 204.643 171.707 205H170.055C169.891 204.672 169.785 204.288 169.738 203.849ZM169.606 200.315C169.032 200.55 168.171 200.749 167.022 200.913C166.372 201.007 165.912 201.112 165.643 201.229C165.373 201.347 165.165 201.52 165.019 201.748C164.872 201.971 164.799 202.22 164.799 202.495C164.799 202.917 164.957 203.269 165.273 203.55C165.596 203.831 166.064 203.972 166.68 203.972C167.289 203.972 167.831 203.84 168.306 203.576C168.78 203.307 169.129 202.94 169.352 202.478C169.521 202.12 169.606 201.593 169.606 200.896V200.315ZM173.667 205V195.666H175.082V196.976C175.375 196.519 175.765 196.152 176.251 195.877C176.737 195.596 177.291 195.455 177.912 195.455C178.604 195.455 179.169 195.599 179.608 195.886C180.054 196.173 180.367 196.574 180.549 197.09C181.287 196 182.248 195.455 183.432 195.455C184.357 195.455 185.069 195.713 185.567 196.229C186.065 196.738 186.314 197.526 186.314 198.593V205H184.741V199.12C184.741 198.487 184.688 198.033 184.583 197.758C184.483 197.477 184.299 197.251 184.029 197.081C183.76 196.911 183.443 196.826 183.08 196.826C182.424 196.826 181.879 197.046 181.445 197.485C181.012 197.919 180.795 198.616 180.795 199.577V205H179.213V198.936C179.213 198.232 179.084 197.705 178.826 197.354C178.568 197.002 178.146 196.826 177.561 196.826C177.115 196.826 176.702 196.943 176.321 197.178C175.946 197.412 175.674 197.755 175.504 198.206C175.334 198.657 175.249 199.308 175.249 200.157V205H173.667ZM188.028 202.214L189.593 201.968C189.681 202.595 189.924 203.075 190.322 203.409C190.727 203.743 191.289 203.91 192.01 203.91C192.736 203.91 193.275 203.764 193.627 203.471C193.979 203.172 194.154 202.823 194.154 202.425C194.154 202.067 193.999 201.786 193.688 201.581C193.472 201.44 192.933 201.262 192.071 201.045C190.911 200.752 190.105 200.5 189.654 200.289C189.209 200.072 188.869 199.776 188.635 199.401C188.406 199.021 188.292 198.602 188.292 198.145C188.292 197.729 188.386 197.345 188.573 196.993C188.767 196.636 189.027 196.34 189.355 196.105C189.602 195.924 189.936 195.771 190.357 195.648C190.785 195.52 191.242 195.455 191.729 195.455C192.461 195.455 193.103 195.561 193.653 195.771C194.21 195.982 194.62 196.27 194.884 196.633C195.147 196.99 195.329 197.471 195.429 198.074L193.882 198.285C193.812 197.805 193.606 197.43 193.267 197.16C192.933 196.891 192.458 196.756 191.843 196.756C191.116 196.756 190.598 196.876 190.287 197.116C189.977 197.356 189.821 197.638 189.821 197.96C189.821 198.165 189.886 198.35 190.015 198.514C190.144 198.684 190.346 198.824 190.621 198.936C190.779 198.994 191.245 199.129 192.019 199.34C193.138 199.639 193.917 199.885 194.356 200.078C194.802 200.266 195.15 200.541 195.402 200.904C195.654 201.268 195.78 201.719 195.78 202.258C195.78 202.785 195.625 203.283 195.314 203.752C195.01 204.215 194.567 204.575 193.987 204.833C193.407 205.085 192.751 205.211 192.019 205.211C190.806 205.211 189.88 204.959 189.241 204.455C188.608 203.951 188.204 203.204 188.028 202.214Z" fill="#252D36"/>
<path d="M295.543 -59C272.107 -59.0081 249.192 -52.0662 229.699 -39.0532C210.207 -26.0403 195.014 -7.53539 186.038 14.1124C177.058 35.7642 174.704 59.5869 179.271 82.5752C183.833 105.564 195.111 126.685 211.679 143.262C228.247 159.839 249.358 171.135 272.341 175.715C295.325 180.296 319.154 177.955 340.81 168.996C362.467 160.033 380.981 144.854 394.006 125.369C407.035 105.888 413.992 82.9802 414 59.5423C413.955 28.1298 401.465 -1.98271 379.262 -24.2015C357.059 -46.4204 326.956 -58.9311 295.543 -59ZM295.543 129.84C281.629 129.848 268.021 125.729 256.449 118.005C244.876 110.278 235.852 99.294 230.52 86.439C225.193 73.584 223.798 59.437 226.508 45.7882C229.222 32.1394 235.925 19.6003 245.762 9.76259C255.603 -0.0791473 268.139 -6.77802 281.786 -9.49159C295.438 -12.2052 309.583 -10.8079 322.438 -5.47794C335.293 -0.14801 346.279 8.87155 354.005 20.4467C361.731 32.0219 365.849 45.6262 365.841 59.5423C365.808 78.1768 358.39 96.0377 345.215 109.213C332.037 122.392 314.178 129.807 295.543 129.84Z" fill="#1482FF" fill-opacity="0.08"/>
<path d="M347.689 72.7197C346.343 83.0667 341.65 92.6865 334.326 100.129C327.218 107.351 318.009 112.134 308.021 113.803C307.414 113.904 306.798 113.946 306.181 113.946C304.629 113.902 303.142 113.32 301.965 112.306C301.218 111.668 300.615 110.872 300.203 109.979C299.787 109.086 299.569 108.116 299.565 107.13C299.556 105.506 300.134 103.931 301.198 102.694C302.257 101.458 303.728 100.642 305.337 100.399C312.717 99.2964 319.536 95.8258 324.766 90.5169C329.997 85.204 333.352 78.3356 334.33 70.9541C334.504 69.6572 335.045 68.437 335.89 67.4391C336.739 66.4452 337.854 65.7099 339.107 65.3301C340.36 64.9463 341.694 64.9341 342.955 65.2897C344.216 65.6452 345.348 66.3563 346.213 67.334C346.832 68.0734 347.284 68.938 347.539 69.8673C347.794 70.7965 347.846 71.7702 347.689 72.7197Z" fill="#1482FF" fill-opacity="0.08"/>
</g>
</g>
<g filter="url(#filter1_d_2012_2532)">
<g clip-path="url(#clip1_2012_2532)">
<rect x="359" y="88" width="315" height="158" rx="12" fill="white"/>
<path d="M388.728 146V128.12H395.376C396.592 128.12 397.664 128.344 398.592 128.792C399.536 129.224 400.272 129.864 400.8 130.712C401.328 131.544 401.592 132.56 401.592 133.76C401.592 134.992 401.296 136.04 400.704 136.904C400.128 137.768 399.344 138.408 398.352 138.824L402.456 146H398.76L394.368 138.152L396.48 139.4H391.992V146H388.728ZM391.992 136.52H395.424C396.016 136.52 396.528 136.408 396.96 136.184C397.392 135.944 397.728 135.616 397.968 135.2C398.208 134.784 398.328 134.304 398.328 133.76C398.328 133.2 398.208 132.72 397.968 132.32C397.728 131.904 397.392 131.584 396.96 131.36C396.528 131.12 396.016 131 395.424 131H391.992V136.52ZM409.557 146.288C408.213 146.288 407.037 145.984 406.029 145.376C405.021 144.768 404.237 143.944 403.677 142.904C403.117 141.864 402.837 140.712 402.837 139.448C402.837 138.136 403.117 136.976 403.677 135.968C404.253 134.944 405.029 134.136 406.005 133.544C406.997 132.952 408.101 132.656 409.317 132.656C410.341 132.656 411.237 132.824 412.005 133.16C412.789 133.496 413.453 133.96 413.997 134.552C414.541 135.144 414.957 135.824 415.245 136.592C415.533 137.344 415.677 138.16 415.677 139.04C415.677 139.264 415.661 139.496 415.629 139.736C415.613 139.976 415.573 140.184 415.509 140.36H405.429V137.96H413.733L412.245 139.088C412.389 138.352 412.349 137.696 412.125 137.12C411.917 136.544 411.565 136.088 411.069 135.752C410.589 135.416 410.005 135.248 409.317 135.248C408.661 135.248 408.077 135.416 407.565 135.752C407.053 136.072 406.661 136.552 406.389 137.192C406.133 137.816 406.037 138.576 406.101 139.472C406.037 140.272 406.141 140.984 406.413 141.608C406.701 142.216 407.117 142.688 407.661 143.024C408.221 143.36 408.861 143.528 409.581 143.528C410.301 143.528 410.909 143.376 411.405 143.072C411.917 142.768 412.317 142.36 412.605 141.848L415.149 143.096C414.893 143.72 414.493 144.272 413.949 144.752C413.405 145.232 412.757 145.608 412.005 145.88C411.269 146.152 410.453 146.288 409.557 146.288ZM421.108 146L416.62 132.944H419.932L423.22 142.856L422.068 142.832L425.572 132.944H428.356L431.836 142.832L430.684 142.856L433.972 132.944H437.284L432.796 146H429.988L426.436 135.656H427.492L423.892 146H421.108ZM442.259 146.288C441.347 146.288 440.555 146.136 439.883 145.832C439.211 145.528 438.691 145.096 438.323 144.536C437.955 143.96 437.771 143.296 437.771 142.544C437.771 141.824 437.931 141.184 438.251 140.624C438.571 140.048 439.067 139.568 439.739 139.184C440.411 138.8 441.259 138.528 442.283 138.368L446.555 137.672V140.072L442.883 140.696C442.259 140.808 441.795 141.008 441.491 141.296C441.187 141.584 441.035 141.96 441.035 142.424C441.035 142.872 441.203 143.232 441.539 143.504C441.891 143.76 442.323 143.888 442.835 143.888C443.491 143.888 444.067 143.752 444.563 143.48C445.075 143.192 445.467 142.8 445.739 142.304C446.027 141.808 446.171 141.264 446.171 140.672V137.312C446.171 136.752 445.947 136.288 445.499 135.92C445.067 135.536 444.491 135.344 443.771 135.344C443.099 135.344 442.499 135.528 441.971 135.896C441.459 136.248 441.083 136.72 440.843 137.312L438.275 136.064C438.531 135.376 438.931 134.784 439.475 134.288C440.035 133.776 440.691 133.376 441.443 133.088C442.195 132.8 443.011 132.656 443.891 132.656C444.963 132.656 445.907 132.856 446.723 133.256C447.539 133.64 448.171 134.184 448.619 134.888C449.083 135.576 449.315 136.384 449.315 137.312V146H446.339V143.768L447.011 143.72C446.675 144.28 446.275 144.752 445.811 145.136C445.347 145.504 444.819 145.792 444.227 146C443.635 146.192 442.979 146.288 442.259 146.288ZM451.981 146V132.944H454.933V135.848L454.693 135.416C454.997 134.44 455.469 133.76 456.109 133.376C456.765 132.992 457.549 132.8 458.461 132.8H459.229V135.584H458.101C457.205 135.584 456.485 135.864 455.941 136.424C455.397 136.968 455.125 137.736 455.125 138.728V146H451.981ZM466.789 146.288C465.525 146.288 464.397 145.992 463.405 145.4C462.413 144.792 461.629 143.968 461.053 142.928C460.477 141.888 460.189 140.736 460.189 139.472C460.189 138.192 460.477 137.04 461.053 136.016C461.629 134.992 462.413 134.176 463.405 133.568C464.413 132.96 465.533 132.656 466.765 132.656C467.757 132.656 468.637 132.856 469.405 133.256C470.189 133.64 470.805 134.184 471.253 134.888L470.773 135.536V127.832H473.917V146H470.941V143.48L471.277 144.104C470.829 144.808 470.205 145.352 469.405 145.736C468.605 146.104 467.733 146.288 466.789 146.288ZM467.125 143.408C467.845 143.408 468.477 143.24 469.021 142.904C469.565 142.568 469.989 142.104 470.293 141.512C470.613 140.92 470.773 140.24 470.773 139.472C470.773 138.72 470.613 138.048 470.293 137.456C469.989 136.848 469.565 136.376 469.021 136.04C468.477 135.704 467.845 135.536 467.125 135.536C466.421 135.536 465.789 135.712 465.229 136.064C464.669 136.4 464.229 136.864 463.909 137.456C463.605 138.032 463.453 138.704 463.453 139.472C463.453 140.24 463.605 140.92 463.909 141.512C464.229 142.104 464.669 142.568 465.229 142.904C465.789 143.24 466.421 143.408 467.125 143.408ZM489.7 146.288C488.388 146.288 487.164 146.056 486.028 145.592C484.892 145.128 483.9 144.48 483.052 143.648C482.204 142.816 481.54 141.84 481.06 140.72C480.596 139.584 480.364 138.36 480.364 137.048C480.364 135.72 480.596 134.496 481.06 133.376C481.524 132.256 482.18 131.28 483.028 130.448C483.876 129.616 484.868 128.976 486.004 128.528C487.14 128.064 488.372 127.832 489.7 127.832C491.028 127.832 492.26 128.064 493.396 128.528C494.532 128.992 495.524 129.64 496.372 130.472C497.22 131.288 497.876 132.256 498.34 133.376C498.82 134.496 499.06 135.72 499.06 137.048C499.06 138.36 498.82 139.584 498.34 140.72C497.86 141.84 497.196 142.816 496.348 143.648C495.5 144.48 494.508 145.128 493.372 145.592C492.252 146.056 491.028 146.288 489.7 146.288ZM489.7 143.312C490.58 143.312 491.388 143.16 492.124 142.856C492.86 142.536 493.5 142.096 494.044 141.536C494.604 140.976 495.028 140.312 495.316 139.544C495.62 138.776 495.772 137.944 495.772 137.048C495.772 136.152 495.62 135.328 495.316 134.576C495.028 133.808 494.604 133.144 494.044 132.584C493.5 132.008 492.86 131.568 492.124 131.264C491.388 130.96 490.58 130.808 489.7 130.808C488.836 130.808 488.036 130.96 487.3 131.264C486.564 131.568 485.916 132.008 485.356 132.584C484.812 133.144 484.388 133.808 484.084 134.576C483.78 135.328 483.628 136.152 483.628 137.048C483.628 137.944 483.78 138.776 484.084 139.544C484.388 140.312 484.812 140.976 485.356 141.536C485.916 142.096 486.564 142.536 487.3 142.856C488.036 143.16 488.836 143.312 489.7 143.312ZM493.828 148.16L488.26 138.848H491.668L497.308 148.16H493.828ZM506.114 146.288C505.106 146.288 504.226 146.064 503.474 145.616C502.738 145.168 502.17 144.544 501.77 143.744C501.386 142.944 501.194 142.008 501.194 140.936V132.944H504.338V140.672C504.338 141.216 504.442 141.696 504.65 142.112C504.874 142.512 505.186 142.832 505.586 143.072C506.002 143.296 506.466 143.408 506.978 143.408C507.49 143.408 507.946 143.296 508.346 143.072C508.746 142.832 509.058 142.504 509.282 142.088C509.506 141.672 509.618 141.176 509.618 140.6V132.944H512.762V146H509.786V143.432L510.05 143.888C509.746 144.688 509.242 145.288 508.538 145.688C507.85 146.088 507.042 146.288 506.114 146.288ZM519.405 146.288C518.493 146.288 517.701 146.136 517.029 145.832C516.357 145.528 515.837 145.096 515.469 144.536C515.101 143.96 514.917 143.296 514.917 142.544C514.917 141.824 515.077 141.184 515.397 140.624C515.717 140.048 516.213 139.568 516.885 139.184C517.557 138.8 518.405 138.528 519.429 138.368L523.701 137.672V140.072L520.029 140.696C519.405 140.808 518.941 141.008 518.637 141.296C518.333 141.584 518.181 141.96 518.181 142.424C518.181 142.872 518.349 143.232 518.685 143.504C519.037 143.76 519.469 143.888 519.981 143.888C520.637 143.888 521.213 143.752 521.709 143.48C522.221 143.192 522.613 142.8 522.885 142.304C523.173 141.808 523.317 141.264 523.317 140.672V137.312C523.317 136.752 523.093 136.288 522.645 135.92C522.213 135.536 521.637 135.344 520.917 135.344C520.245 135.344 519.645 135.528 519.117 135.896C518.605 136.248 518.229 136.72 517.989 137.312L515.421 136.064C515.677 135.376 516.077 134.784 516.621 134.288C517.181 133.776 517.837 133.376 518.589 133.088C519.341 132.8 520.157 132.656 521.037 132.656C522.109 132.656 523.053 132.856 523.869 133.256C524.685 133.64 525.317 134.184 525.765 134.888C526.229 135.576 526.461 136.384 526.461 137.312V146H523.485V143.768L524.157 143.72C523.821 144.28 523.421 144.752 522.957 145.136C522.493 145.504 521.965 145.792 521.373 146C520.781 146.192 520.125 146.288 519.405 146.288ZM529.127 146V127.832H532.271V146H529.127ZM534.933 146V132.944H538.077V146H534.933ZM534.933 131.48V128.12H538.077V131.48H534.933ZM546.692 146.144C545.22 146.144 544.076 145.744 543.26 144.944C542.46 144.128 542.06 142.984 542.06 141.512V135.752H539.804V132.944H540.044C540.684 132.944 541.18 132.776 541.532 132.44C541.884 132.104 542.06 131.616 542.06 130.976V129.968H545.204V132.944H548.204V135.752H545.204V141.344C545.204 141.776 545.276 142.144 545.42 142.448C545.58 142.752 545.82 142.984 546.14 143.144C546.476 143.304 546.9 143.384 547.412 143.384C547.524 143.384 547.652 143.376 547.796 143.36C547.956 143.344 548.108 143.328 548.252 143.312V146C548.028 146.032 547.772 146.064 547.484 146.096C547.196 146.128 546.932 146.144 546.692 146.144ZM551.998 151.28C551.646 151.28 551.302 151.248 550.966 151.184C550.63 151.136 550.326 151.04 550.054 150.896V148.28C550.262 148.328 550.51 148.376 550.798 148.424C551.102 148.472 551.382 148.496 551.638 148.496C552.358 148.496 552.878 148.328 553.198 147.992C553.534 147.672 553.83 147.24 554.086 146.696L554.95 144.68L554.902 147.32L549.214 132.944H552.598L556.582 143.552H555.382L559.342 132.944H562.75L557.062 147.32C556.726 148.152 556.318 148.864 555.838 149.456C555.358 150.048 554.798 150.496 554.158 150.8C553.534 151.12 552.814 151.28 551.998 151.28ZM388.728 176V158.12H396.264C397.448 158.12 398.456 158.328 399.288 158.744C400.136 159.144 400.784 159.72 401.232 160.472C401.696 161.208 401.928 162.104 401.928 163.16C401.928 163.976 401.704 164.744 401.256 165.464C400.824 166.168 400.128 166.752 399.168 167.216V165.704C400.048 166.04 400.744 166.456 401.256 166.952C401.768 167.448 402.128 168 402.336 168.608C402.544 169.216 402.648 169.856 402.648 170.528C402.648 172.24 402.08 173.584 400.944 174.56C399.824 175.52 398.264 176 396.264 176H388.728ZM391.992 173.12H396.6C397.448 173.12 398.12 172.888 398.616 172.424C399.128 171.944 399.384 171.312 399.384 170.528C399.384 169.744 399.128 169.112 398.616 168.632C398.12 168.152 397.448 167.912 396.6 167.912H391.992V173.12ZM391.992 165.056H396.432C397.104 165.056 397.64 164.864 398.04 164.48C398.44 164.08 398.64 163.568 398.64 162.944C398.64 162.32 398.44 161.824 398.04 161.456C397.64 161.088 397.104 160.904 396.432 160.904H391.992V165.056ZM411.01 176.288C409.666 176.288 408.49 175.984 407.482 175.376C406.474 174.768 405.69 173.944 405.13 172.904C404.57 171.864 404.29 170.712 404.29 169.448C404.29 168.136 404.57 166.976 405.13 165.968C405.706 164.944 406.482 164.136 407.458 163.544C408.45 162.952 409.554 162.656 410.77 162.656C411.794 162.656 412.69 162.824 413.458 163.16C414.242 163.496 414.906 163.96 415.45 164.552C415.994 165.144 416.41 165.824 416.698 166.592C416.986 167.344 417.13 168.16 417.13 169.04C417.13 169.264 417.114 169.496 417.082 169.736C417.066 169.976 417.026 170.184 416.962 170.36H406.882V167.96H415.186L413.698 169.088C413.842 168.352 413.802 167.696 413.578 167.12C413.37 166.544 413.018 166.088 412.522 165.752C412.042 165.416 411.458 165.248 410.77 165.248C410.114 165.248 409.53 165.416 409.018 165.752C408.506 166.072 408.114 166.552 407.842 167.192C407.586 167.816 407.49 168.576 407.554 169.472C407.49 170.272 407.594 170.984 407.866 171.608C408.154 172.216 408.57 172.688 409.114 173.024C409.674 173.36 410.314 173.528 411.034 173.528C411.754 173.528 412.362 173.376 412.858 173.072C413.37 172.768 413.77 172.36 414.058 171.848L416.602 173.096C416.346 173.72 415.946 174.272 415.402 174.752C414.858 175.232 414.21 175.608 413.458 175.88C412.722 176.152 411.906 176.288 411.01 176.288ZM419.273 176V157.832H422.417V165.512L421.985 165.056C422.289 164.272 422.785 163.68 423.473 163.28C424.177 162.864 424.993 162.656 425.921 162.656C426.881 162.656 427.729 162.864 428.465 163.28C429.217 163.696 429.801 164.28 430.217 165.032C430.633 165.768 430.841 166.624 430.841 167.6V176H427.697V168.344C427.697 167.768 427.585 167.272 427.361 166.856C427.137 166.44 426.825 166.12 426.425 165.896C426.041 165.656 425.585 165.536 425.057 165.536C424.545 165.536 424.089 165.656 423.689 165.896C423.289 166.12 422.977 166.44 422.753 166.856C422.529 167.272 422.417 167.768 422.417 168.344V176H419.273ZM437.22 176.288C436.308 176.288 435.516 176.136 434.844 175.832C434.172 175.528 433.652 175.096 433.284 174.536C432.916 173.96 432.732 173.296 432.732 172.544C432.732 171.824 432.892 171.184 433.212 170.624C433.532 170.048 434.028 169.568 434.7 169.184C435.372 168.8 436.22 168.528 437.244 168.368L441.516 167.672V170.072L437.844 170.696C437.22 170.808 436.756 171.008 436.452 171.296C436.148 171.584 435.996 171.96 435.996 172.424C435.996 172.872 436.164 173.232 436.5 173.504C436.852 173.76 437.284 173.888 437.796 173.888C438.452 173.888 439.028 173.752 439.524 173.48C440.036 173.192 440.428 172.8 440.7 172.304C440.988 171.808 441.132 171.264 441.132 170.672V167.312C441.132 166.752 440.908 166.288 440.46 165.92C440.028 165.536 439.452 165.344 438.732 165.344C438.06 165.344 437.46 165.528 436.932 165.896C436.42 166.248 436.044 166.72 435.804 167.312L433.236 166.064C433.492 165.376 433.892 164.784 434.436 164.288C434.996 163.776 435.652 163.376 436.404 163.088C437.156 162.8 437.972 162.656 438.852 162.656C439.924 162.656 440.868 162.856 441.684 163.256C442.5 163.64 443.132 164.184 443.58 164.888C444.044 165.576 444.276 166.384 444.276 167.312V176H441.3V173.768L441.972 173.72C441.636 174.28 441.236 174.752 440.772 175.136C440.308 175.504 439.78 175.792 439.188 176C438.596 176.192 437.94 176.288 437.22 176.288ZM450.643 176L445.507 162.944H448.939L452.659 173.216H451.387L455.131 162.944H458.563L453.427 176H450.643ZM460.061 176V162.944H463.205V176H460.061ZM460.061 161.48V158.12H463.205V161.48H460.061ZM472.252 176.288C470.972 176.288 469.804 175.992 468.748 175.4C467.708 174.808 466.876 174 466.252 172.976C465.644 171.952 465.34 170.784 465.34 169.472C465.34 168.16 465.644 166.992 466.252 165.968C466.876 164.944 467.708 164.136 468.748 163.544C469.788 162.952 470.956 162.656 472.252 162.656C473.532 162.656 474.692 162.952 475.732 163.544C476.772 164.136 477.596 164.944 478.204 165.968C478.828 166.976 479.14 168.144 479.14 169.472C479.14 170.784 478.828 171.952 478.204 172.976C477.58 174 476.748 174.808 475.708 175.4C474.668 175.992 473.516 176.288 472.252 176.288ZM472.252 173.408C472.956 173.408 473.572 173.24 474.1 172.904C474.644 172.568 475.068 172.104 475.372 171.512C475.692 170.904 475.852 170.224 475.852 169.472C475.852 168.704 475.692 168.032 475.372 167.456C475.068 166.864 474.644 166.4 474.1 166.064C473.572 165.712 472.956 165.536 472.252 165.536C471.532 165.536 470.9 165.712 470.356 166.064C469.812 166.4 469.38 166.864 469.06 167.456C468.756 168.032 468.604 168.704 468.604 169.472C468.604 170.224 468.756 170.904 469.06 171.512C469.38 172.104 469.812 172.568 470.356 172.904C470.9 173.24 471.532 173.408 472.252 173.408ZM485.94 176.288C484.932 176.288 484.052 176.064 483.3 175.616C482.564 175.168 481.996 174.544 481.596 173.744C481.212 172.944 481.02 172.008 481.02 170.936V162.944H484.164V170.672C484.164 171.216 484.268 171.696 484.476 172.112C484.7 172.512 485.012 172.832 485.412 173.072C485.828 173.296 486.292 173.408 486.804 173.408C487.316 173.408 487.772 173.296 488.172 173.072C488.572 172.832 488.884 172.504 489.108 172.088C489.332 171.672 489.444 171.176 489.444 170.6V162.944H492.588V176H489.612V173.432L489.876 173.888C489.572 174.688 489.068 175.288 488.364 175.688C487.676 176.088 486.868 176.288 485.94 176.288ZM495.271 176V162.944H498.223V165.848L497.983 165.416C498.287 164.44 498.759 163.76 499.399 163.376C500.055 162.992 500.839 162.8 501.751 162.8H502.519V165.584H501.391C500.495 165.584 499.775 165.864 499.231 166.424C498.687 166.968 498.415 167.736 498.415 168.728V176H495.271Z" fill="#252D36"/>
<path d="M388.477 205V192.115H397.169V193.636H390.182V197.626H396.229V199.146H390.182V205H388.477ZM398.602 200.333C398.602 198.604 399.082 197.324 400.043 196.492C400.846 195.801 401.824 195.455 402.979 195.455C404.262 195.455 405.311 195.877 406.125 196.721C406.939 197.559 407.347 198.719 407.347 200.201C407.347 201.402 407.165 202.349 406.802 203.04C406.444 203.726 405.92 204.259 405.229 204.64C404.543 205.021 403.793 205.211 402.979 205.211C401.672 205.211 400.614 204.792 399.806 203.954C399.003 203.116 398.602 201.909 398.602 200.333ZM400.228 200.333C400.228 201.528 400.488 202.425 401.01 203.022C401.531 203.614 402.188 203.91 402.979 203.91C403.764 203.91 404.417 203.611 404.938 203.014C405.46 202.416 405.721 201.505 405.721 200.28C405.721 199.126 405.457 198.253 404.93 197.661C404.408 197.063 403.758 196.765 402.979 196.765C402.188 196.765 401.531 197.061 401.01 197.652C400.488 198.244 400.228 199.138 400.228 200.333ZM409.192 205V195.666H410.616V197.081C410.979 196.419 411.313 195.982 411.618 195.771C411.929 195.561 412.269 195.455 412.638 195.455C413.171 195.455 413.713 195.625 414.264 195.965L413.719 197.433C413.332 197.204 412.945 197.09 412.559 197.09C412.213 197.09 411.902 197.195 411.627 197.406C411.352 197.611 411.155 197.898 411.038 198.268C410.862 198.83 410.774 199.445 410.774 200.113V205H409.192ZM420.363 205V192.115H422.93L425.979 201.238C426.261 202.088 426.466 202.724 426.595 203.146C426.741 202.677 426.97 201.988 427.28 201.08L430.365 192.115H432.659V205H431.016V194.216L427.271 205H425.733L422.007 194.031V205H420.363ZM441.299 203.849C440.713 204.347 440.147 204.698 439.603 204.903C439.063 205.108 438.483 205.211 437.862 205.211C436.837 205.211 436.049 204.962 435.498 204.464C434.947 203.96 434.672 203.318 434.672 202.539C434.672 202.082 434.774 201.666 434.979 201.291C435.19 200.91 435.463 200.605 435.797 200.377C436.137 200.148 436.518 199.976 436.939 199.858C437.25 199.776 437.719 199.697 438.346 199.621C439.623 199.469 440.563 199.287 441.167 199.076C441.173 198.859 441.176 198.722 441.176 198.663C441.176 198.019 441.026 197.564 440.728 197.301C440.323 196.943 439.723 196.765 438.926 196.765C438.182 196.765 437.631 196.896 437.273 197.16C436.922 197.418 436.661 197.878 436.491 198.54L434.944 198.329C435.085 197.667 435.316 197.134 435.639 196.729C435.961 196.319 436.427 196.006 437.036 195.789C437.646 195.566 438.352 195.455 439.154 195.455C439.951 195.455 440.599 195.549 441.097 195.736C441.595 195.924 441.961 196.161 442.195 196.448C442.43 196.729 442.594 197.087 442.688 197.521C442.74 197.79 442.767 198.276 442.767 198.979V201.089C442.767 202.56 442.799 203.491 442.863 203.884C442.934 204.271 443.068 204.643 443.268 205H441.615C441.451 204.672 441.346 204.288 441.299 203.849ZM441.167 200.315C440.593 200.55 439.731 200.749 438.583 200.913C437.933 201.007 437.473 201.112 437.203 201.229C436.934 201.347 436.726 201.52 436.579 201.748C436.433 201.971 436.359 202.22 436.359 202.495C436.359 202.917 436.518 203.269 436.834 203.55C437.156 203.831 437.625 203.972 438.24 203.972C438.85 203.972 439.392 203.84 439.866 203.576C440.341 203.307 440.689 202.94 440.912 202.478C441.082 202.12 441.167 201.593 441.167 200.896V200.315ZM445.228 205V195.666H446.651V196.993C447.337 195.968 448.327 195.455 449.622 195.455C450.185 195.455 450.7 195.558 451.169 195.763C451.644 195.962 451.998 196.226 452.232 196.554C452.467 196.882 452.631 197.271 452.725 197.723C452.783 198.016 452.812 198.528 452.812 199.261V205H451.23V199.322C451.23 198.678 451.169 198.197 451.046 197.881C450.923 197.559 450.703 197.304 450.387 197.116C450.076 196.923 449.71 196.826 449.288 196.826C448.614 196.826 448.031 197.04 447.539 197.468C447.053 197.896 446.81 198.707 446.81 199.902V205H445.228ZM461.338 203.849C460.752 204.347 460.187 204.698 459.642 204.903C459.103 205.108 458.522 205.211 457.901 205.211C456.876 205.211 456.088 204.962 455.537 204.464C454.986 203.96 454.711 203.318 454.711 202.539C454.711 202.082 454.813 201.666 455.019 201.291C455.229 200.91 455.502 200.605 455.836 200.377C456.176 200.148 456.557 199.976 456.979 199.858C457.289 199.776 457.758 199.697 458.385 199.621C459.662 199.469 460.603 199.287 461.206 199.076C461.212 198.859 461.215 198.722 461.215 198.663C461.215 198.019 461.065 197.564 460.767 197.301C460.362 196.943 459.762 196.765 458.965 196.765C458.221 196.765 457.67 196.896 457.312 197.16C456.961 197.418 456.7 197.878 456.53 198.54L454.983 198.329C455.124 197.667 455.355 197.134 455.678 196.729C456 196.319 456.466 196.006 457.075 195.789C457.685 195.566 458.391 195.455 459.193 195.455C459.99 195.455 460.638 195.549 461.136 195.736C461.634 195.924 462 196.161 462.234 196.448C462.469 196.729 462.633 197.087 462.727 197.521C462.779 197.79 462.806 198.276 462.806 198.979V201.089C462.806 202.56 462.838 203.491 462.902 203.884C462.973 204.271 463.107 204.643 463.307 205H461.654C461.49 204.672 461.385 204.288 461.338 203.849ZM461.206 200.315C460.632 200.55 459.771 200.749 458.622 200.913C457.972 201.007 457.512 201.112 457.242 201.229C456.973 201.347 456.765 201.52 456.618 201.748C456.472 201.971 456.398 202.22 456.398 202.495C456.398 202.917 456.557 203.269 456.873 203.55C457.195 203.831 457.664 203.972 458.279 203.972C458.889 203.972 459.431 203.84 459.905 203.576C460.38 203.307 460.729 202.94 460.951 202.478C461.121 202.12 461.206 201.593 461.206 200.896V200.315ZM464.977 205.773L466.515 206.002C466.579 206.477 466.758 206.822 467.051 207.039C467.443 207.332 467.979 207.479 468.659 207.479C469.392 207.479 469.957 207.332 470.355 207.039C470.754 206.746 471.023 206.336 471.164 205.809C471.246 205.486 471.284 204.81 471.278 203.778C470.587 204.593 469.726 205 468.694 205C467.411 205 466.418 204.537 465.715 203.611C465.012 202.686 464.66 201.575 464.66 200.28C464.66 199.39 464.821 198.569 465.144 197.819C465.466 197.063 465.932 196.48 466.541 196.07C467.156 195.66 467.877 195.455 468.703 195.455C469.805 195.455 470.713 195.9 471.428 196.791V195.666H472.887V203.734C472.887 205.188 472.737 206.216 472.438 206.819C472.146 207.429 471.677 207.909 471.032 208.261C470.394 208.612 469.605 208.788 468.668 208.788C467.555 208.788 466.655 208.536 465.97 208.032C465.284 207.534 464.953 206.781 464.977 205.773ZM466.286 200.166C466.286 201.391 466.529 202.284 467.016 202.847C467.502 203.409 468.111 203.69 468.844 203.69C469.57 203.69 470.18 203.412 470.672 202.855C471.164 202.293 471.41 201.414 471.41 200.219C471.41 199.076 471.155 198.215 470.646 197.635C470.142 197.055 469.532 196.765 468.817 196.765C468.114 196.765 467.517 197.052 467.024 197.626C466.532 198.194 466.286 199.041 466.286 200.166ZM481.676 201.994L483.311 202.196C483.053 203.151 482.575 203.893 481.878 204.42C481.181 204.947 480.29 205.211 479.206 205.211C477.841 205.211 476.757 204.792 475.954 203.954C475.157 203.11 474.759 201.93 474.759 200.412C474.759 198.842 475.163 197.623 475.972 196.756C476.78 195.889 477.829 195.455 479.118 195.455C480.366 195.455 481.386 195.88 482.177 196.729C482.968 197.579 483.363 198.774 483.363 200.315C483.363 200.409 483.36 200.55 483.354 200.737H476.394C476.452 201.763 476.742 202.548 477.264 203.093C477.785 203.638 478.436 203.91 479.215 203.91C479.795 203.91 480.29 203.758 480.7 203.453C481.11 203.148 481.436 202.662 481.676 201.994ZM476.481 199.437H481.693C481.623 198.651 481.424 198.062 481.096 197.67C480.592 197.061 479.938 196.756 479.136 196.756C478.409 196.756 477.797 196.999 477.299 197.485C476.807 197.972 476.534 198.622 476.481 199.437ZM485.288 205V195.666H486.712V197.081C487.075 196.419 487.409 195.982 487.714 195.771C488.024 195.561 488.364 195.455 488.733 195.455C489.267 195.455 489.809 195.625 490.359 195.965L489.814 197.433C489.428 197.204 489.041 197.09 488.654 197.09C488.309 197.09 487.998 197.195 487.723 197.406C487.447 197.611 487.251 197.898 487.134 198.268C486.958 198.83 486.87 199.445 486.87 200.113V205H485.288ZM490.667 202.214L492.231 201.968C492.319 202.595 492.562 203.075 492.961 203.409C493.365 203.743 493.928 203.91 494.648 203.91C495.375 203.91 495.914 203.764 496.266 203.471C496.617 203.172 496.793 202.823 496.793 202.425C496.793 202.067 496.638 201.786 496.327 201.581C496.11 201.44 495.571 201.262 494.71 201.045C493.55 200.752 492.744 200.5 492.293 200.289C491.848 200.072 491.508 199.776 491.273 199.401C491.045 199.021 490.931 198.602 490.931 198.145C490.931 197.729 491.024 197.345 491.212 196.993C491.405 196.636 491.666 196.34 491.994 196.105C492.24 195.924 492.574 195.771 492.996 195.648C493.424 195.52 493.881 195.455 494.367 195.455C495.1 195.455 495.741 195.561 496.292 195.771C496.849 195.982 497.259 196.27 497.522 196.633C497.786 196.99 497.968 197.471 498.067 198.074L496.521 198.285C496.45 197.805 496.245 197.43 495.905 197.16C495.571 196.891 495.097 196.756 494.481 196.756C493.755 196.756 493.236 196.876 492.926 197.116C492.615 197.356 492.46 197.638 492.46 197.96C492.46 198.165 492.524 198.35 492.653 198.514C492.782 198.684 492.984 198.824 493.26 198.936C493.418 198.994 493.884 199.129 494.657 199.34C495.776 199.639 496.556 199.885 496.995 200.078C497.44 200.266 497.789 200.541 498.041 200.904C498.293 201.268 498.419 201.719 498.419 202.258C498.419 202.785 498.264 203.283 497.953 203.752C497.648 204.215 497.206 204.575 496.626 204.833C496.046 205.085 495.39 205.211 494.657 205.211C493.444 205.211 492.519 204.959 491.88 204.455C491.247 203.951 490.843 203.204 490.667 202.214Z" fill="#252D36"/>
<path d="M630.543 -59C607.107 -59.0081 584.192 -52.0662 564.699 -39.0532C545.207 -26.0403 530.014 -7.53539 521.038 14.1124C512.058 35.7642 509.704 59.5869 514.271 82.5752C518.833 105.564 530.111 126.685 546.679 143.262C563.247 159.839 584.358 171.135 607.341 175.715C630.325 180.296 654.154 177.955 675.81 168.996C697.467 160.033 715.981 144.854 729.006 125.369C742.035 105.888 748.992 82.9802 749 59.5423C748.955 28.1298 736.465 -1.98271 714.262 -24.2015C692.059 -46.4204 661.956 -58.9311 630.543 -59ZM630.543 129.84C616.629 129.848 603.021 125.729 591.449 118.005C579.876 110.278 570.852 99.294 565.52 86.439C560.193 73.584 558.798 59.437 561.508 45.7882C564.222 32.1394 570.925 19.6003 580.762 9.76259C590.603 -0.0791473 603.139 -6.77802 616.786 -9.49159C630.438 -12.2052 644.583 -10.8079 657.438 -5.47794C670.293 -0.14801 681.279 8.87155 689.005 20.4467C696.731 32.0219 700.849 45.6262 700.841 59.5423C700.808 78.1768 693.39 96.0377 680.215 109.213C667.037 122.392 649.178 129.807 630.543 129.84Z" fill="#1482FF" fill-opacity="0.08"/>
<path d="M682.689 72.7197C681.343 83.0667 676.65 92.6865 669.326 100.129C662.218 107.351 653.009 112.134 643.021 113.803C642.414 113.904 641.798 113.946 641.181 113.946C639.629 113.902 638.142 113.32 636.965 112.306C636.218 111.668 635.615 110.872 635.203 109.979C634.787 109.086 634.569 108.116 634.565 107.13C634.556 105.506 635.134 103.931 636.198 102.694C637.257 101.458 638.728 100.642 640.337 100.399C647.717 99.2964 654.536 95.8258 659.766 90.5169C664.997 85.204 668.352 78.3356 669.33 70.9541C669.504 69.6572 670.045 68.437 670.89 67.4391C671.739 66.4452 672.854 65.7099 674.107 65.3301C675.36 64.9463 676.694 64.9341 677.955 65.2897C679.216 65.6452 680.348 66.3563 681.213 67.334C681.832 68.0734 682.284 68.938 682.539 69.8673C682.794 70.7965 682.846 71.7702 682.689 72.7197Z" fill="#1482FF" fill-opacity="0.08"/>
</g>
</g>
<g filter="url(#filter2_d_2012_2532)">
<g clip-path="url(#clip2_2012_2532)">
<rect x="694" y="88" width="315" height="158" rx="12" fill="white"/>
<path d="M723.728 146V128.12H731.264C732.448 128.12 733.456 128.328 734.288 128.744C735.136 129.144 735.784 129.72 736.232 130.472C736.696 131.208 736.928 132.104 736.928 133.16C736.928 133.976 736.704 134.744 736.256 135.464C735.824 136.168 735.128 136.752 734.168 137.216V135.704C735.048 136.04 735.744 136.456 736.256 136.952C736.768 137.448 737.128 138 737.336 138.608C737.544 139.216 737.648 139.856 737.648 140.528C737.648 142.24 737.08 143.584 735.944 144.56C734.824 145.52 733.264 146 731.264 146H723.728ZM726.992 143.12H731.6C732.448 143.12 733.12 142.888 733.616 142.424C734.128 141.944 734.384 141.312 734.384 140.528C734.384 139.744 734.128 139.112 733.616 138.632C733.12 138.152 732.448 137.912 731.6 137.912H726.992V143.12ZM726.992 135.056H731.432C732.104 135.056 732.64 134.864 733.04 134.48C733.44 134.08 733.64 133.568 733.64 132.944C733.64 132.32 733.44 131.824 733.04 131.456C732.64 131.088 732.104 130.904 731.432 130.904H726.992V135.056ZM746.01 146.288C744.666 146.288 743.49 145.984 742.482 145.376C741.474 144.768 740.69 143.944 740.13 142.904C739.57 141.864 739.29 140.712 739.29 139.448C739.29 138.136 739.57 136.976 740.13 135.968C740.706 134.944 741.482 134.136 742.458 133.544C743.45 132.952 744.554 132.656 745.77 132.656C746.794 132.656 747.69 132.824 748.458 133.16C749.242 133.496 749.906 133.96 750.45 134.552C750.994 135.144 751.41 135.824 751.698 136.592C751.986 137.344 752.13 138.16 752.13 139.04C752.13 139.264 752.114 139.496 752.082 139.736C752.066 139.976 752.026 140.184 751.962 140.36H741.882V137.96H750.186L748.698 139.088C748.842 138.352 748.802 137.696 748.578 137.12C748.37 136.544 748.018 136.088 747.522 135.752C747.042 135.416 746.458 135.248 745.77 135.248C745.114 135.248 744.53 135.416 744.018 135.752C743.506 136.072 743.114 136.552 742.842 137.192C742.586 137.816 742.49 138.576 742.554 139.472C742.49 140.272 742.594 140.984 742.866 141.608C743.154 142.216 743.57 142.688 744.114 143.024C744.674 143.36 745.314 143.528 746.034 143.528C746.754 143.528 747.362 143.376 747.858 143.072C748.37 142.768 748.77 142.36 749.058 141.848L751.602 143.096C751.346 143.72 750.946 144.272 750.402 144.752C749.858 145.232 749.21 145.608 748.458 145.88C747.722 146.152 746.906 146.288 746.01 146.288ZM760.225 146.144C758.753 146.144 757.609 145.744 756.793 144.944C755.993 144.128 755.593 142.984 755.593 141.512V135.752H753.337V132.944H753.577C754.217 132.944 754.713 132.776 755.065 132.44C755.417 132.104 755.593 131.616 755.593 130.976V129.968H758.737V132.944H761.737V135.752H758.737V141.344C758.737 141.776 758.809 142.144 758.953 142.448C759.113 142.752 759.353 142.984 759.673 143.144C760.009 143.304 760.433 143.384 760.945 143.384C761.057 143.384 761.185 143.376 761.329 143.36C761.489 143.344 761.641 143.328 761.785 143.312V146C761.561 146.032 761.305 146.064 761.017 146.096C760.729 146.128 760.465 146.144 760.225 146.144ZM769.899 146.144C768.427 146.144 767.283 145.744 766.467 144.944C765.667 144.128 765.267 142.984 765.267 141.512V135.752H763.011V132.944H763.251C763.891 132.944 764.387 132.776 764.739 132.44C765.091 132.104 765.267 131.616 765.267 130.976V129.968H768.411V132.944H771.411V135.752H768.411V141.344C768.411 141.776 768.483 142.144 768.627 142.448C768.787 142.752 769.027 142.984 769.347 143.144C769.683 143.304 770.107 143.384 770.619 143.384C770.731 143.384 770.859 143.376 771.003 143.36C771.163 143.344 771.315 143.328 771.459 143.312V146C771.235 146.032 770.979 146.064 770.691 146.096C770.403 146.128 770.139 146.144 769.899 146.144ZM779.696 146.288C778.352 146.288 777.176 145.984 776.168 145.376C775.16 144.768 774.376 143.944 773.816 142.904C773.256 141.864 772.976 140.712 772.976 139.448C772.976 138.136 773.256 136.976 773.816 135.968C774.392 134.944 775.168 134.136 776.144 133.544C777.136 132.952 778.24 132.656 779.456 132.656C780.48 132.656 781.376 132.824 782.144 133.16C782.928 133.496 783.592 133.96 784.136 134.552C784.68 135.144 785.096 135.824 785.384 136.592C785.672 137.344 785.816 138.16 785.816 139.04C785.816 139.264 785.8 139.496 785.768 139.736C785.752 139.976 785.712 140.184 785.648 140.36H775.568V137.96H783.872L782.384 139.088C782.528 138.352 782.488 137.696 782.264 137.12C782.056 136.544 781.704 136.088 781.208 135.752C780.728 135.416 780.144 135.248 779.456 135.248C778.8 135.248 778.216 135.416 777.704 135.752C777.192 136.072 776.8 136.552 776.528 137.192C776.272 137.816 776.176 138.576 776.24 139.472C776.176 140.272 776.28 140.984 776.552 141.608C776.84 142.216 777.256 142.688 777.8 143.024C778.36 143.36 779 143.528 779.72 143.528C780.44 143.528 781.048 143.376 781.544 143.072C782.056 142.768 782.456 142.36 782.744 141.848L785.288 143.096C785.032 143.72 784.632 144.272 784.088 144.752C783.544 145.232 782.896 145.608 782.144 145.88C781.408 146.152 780.592 146.288 779.696 146.288ZM787.959 146V132.944H790.911V135.848L790.671 135.416C790.975 134.44 791.447 133.76 792.087 133.376C792.743 132.992 793.527 132.8 794.439 132.8H795.207V135.584H794.079C793.183 135.584 792.463 135.864 791.919 136.424C791.375 136.968 791.103 137.736 791.103 138.728V146H787.959ZM800.985 146V128.12H804.249V146H800.985ZM810.617 146V131H805.985V128.12H818.465V131H813.905V146H810.617ZM820.216 146V128.12H826.888C828.104 128.12 829.176 128.344 830.104 128.792C831.048 129.224 831.784 129.864 832.312 130.712C832.84 131.544 833.104 132.56 833.104 133.76C833.104 134.944 832.832 135.96 832.288 136.808C831.76 137.64 831.032 138.28 830.104 138.728C829.176 139.176 828.104 139.4 826.888 139.4H823.48V146H820.216ZM823.48 136.52H826.936C827.528 136.52 828.04 136.408 828.472 136.184C828.904 135.944 829.24 135.616 829.48 135.2C829.72 134.784 829.84 134.304 829.84 133.76C829.84 133.2 829.72 132.72 829.48 132.32C829.24 131.904 828.904 131.584 828.472 131.36C828.04 131.12 827.528 131 826.936 131H823.48V136.52ZM839.774 146.288C838.382 146.288 837.166 145.96 836.126 145.304C835.102 144.632 834.398 143.728 834.014 142.592L836.366 141.464C836.702 142.2 837.166 142.776 837.758 143.192C838.366 143.608 839.038 143.816 839.774 143.816C840.35 143.816 840.806 143.688 841.142 143.432C841.478 143.176 841.646 142.84 841.646 142.424C841.646 142.168 841.574 141.96 841.43 141.8C841.302 141.624 841.118 141.48 840.878 141.368C840.654 141.24 840.406 141.136 840.134 141.056L837.998 140.456C836.894 140.136 836.054 139.648 835.478 138.992C834.918 138.336 834.638 137.56 834.638 136.664C834.638 135.864 834.838 135.168 835.238 134.576C835.654 133.968 836.222 133.496 836.942 133.16C837.678 132.824 838.518 132.656 839.462 132.656C840.694 132.656 841.782 132.952 842.726 133.544C843.67 134.136 844.342 134.968 844.742 136.04L842.342 137.168C842.118 136.576 841.742 136.104 841.214 135.752C840.686 135.4 840.094 135.224 839.438 135.224C838.91 135.224 838.494 135.344 838.19 135.584C837.886 135.824 837.734 136.136 837.734 136.52C837.734 136.76 837.798 136.968 837.926 137.144C838.054 137.32 838.23 137.464 838.454 137.576C838.694 137.688 838.966 137.792 839.27 137.888L841.358 138.512C842.43 138.832 843.254 139.312 843.83 139.952C844.422 140.592 844.718 141.376 844.718 142.304C844.718 143.088 844.51 143.784 844.094 144.392C843.678 144.984 843.102 145.448 842.366 145.784C841.63 146.12 840.766 146.288 839.774 146.288ZM726.752 176L722.264 162.944H725.576L728.864 172.856L727.712 172.832L731.216 162.944H734L737.48 172.832L736.328 172.856L739.616 162.944H742.928L738.44 176H735.632L732.08 165.656H733.136L729.536 176H726.752ZM744.412 176V162.944H747.556V176H744.412ZM744.412 161.48V158.12H747.556V161.48H744.412ZM756.17 176.144C754.698 176.144 753.554 175.744 752.738 174.944C751.938 174.128 751.538 172.984 751.538 171.512V165.752H749.282V162.944H749.522C750.162 162.944 750.658 162.776 751.01 162.44C751.362 162.104 751.538 161.616 751.538 160.976V159.968H754.682V162.944H757.682V165.752H754.682V171.344C754.682 171.776 754.754 172.144 754.898 172.448C755.058 172.752 755.298 172.984 755.618 173.144C755.954 173.304 756.378 173.384 756.89 173.384C757.002 173.384 757.13 173.376 757.274 173.36C757.434 173.344 757.586 173.328 757.73 173.312V176C757.506 176.032 757.25 176.064 756.962 176.096C756.674 176.128 756.41 176.144 756.17 176.144ZM759.892 176V157.832H763.036V165.512L762.604 165.056C762.908 164.272 763.404 163.68 764.092 163.28C764.796 162.864 765.612 162.656 766.54 162.656C767.5 162.656 768.348 162.864 769.084 163.28C769.836 163.696 770.42 164.28 770.836 165.032C771.252 165.768 771.46 166.624 771.46 167.6V176H768.316V168.344C768.316 167.768 768.204 167.272 767.98 166.856C767.756 166.44 767.444 166.12 767.044 165.896C766.66 165.656 766.204 165.536 765.676 165.536C765.164 165.536 764.708 165.656 764.308 165.896C763.908 166.12 763.596 166.44 763.372 166.856C763.148 167.272 763.036 167.768 763.036 168.344V176H759.892ZM781.337 176V161H776.705V158.12H789.185V161H784.625V176H781.337ZM795.369 176.288C794.089 176.288 792.921 175.992 791.865 175.4C790.825 174.808 789.993 174 789.369 172.976C788.761 171.952 788.457 170.784 788.457 169.472C788.457 168.16 788.761 166.992 789.369 165.968C789.993 164.944 790.825 164.136 791.865 163.544C792.905 162.952 794.073 162.656 795.369 162.656C796.649 162.656 797.809 162.952 798.849 163.544C799.889 164.136 800.713 164.944 801.321 165.968C801.945 166.976 802.257 168.144 802.257 169.472C802.257 170.784 801.945 171.952 801.321 172.976C800.697 174 799.865 174.808 798.825 175.4C797.785 175.992 796.633 176.288 795.369 176.288ZM795.369 173.408C796.073 173.408 796.689 173.24 797.217 172.904C797.761 172.568 798.185 172.104 798.489 171.512C798.809 170.904 798.969 170.224 798.969 169.472C798.969 168.704 798.809 168.032 798.489 167.456C798.185 166.864 797.761 166.4 797.217 166.064C796.689 165.712 796.073 165.536 795.369 165.536C794.649 165.536 794.017 165.712 793.473 166.064C792.929 166.4 792.497 166.864 792.177 167.456C791.873 168.032 791.721 168.704 791.721 169.472C791.721 170.224 791.873 170.904 792.177 171.512C792.497 172.104 792.929 172.568 793.473 172.904C794.017 173.24 794.649 173.408 795.369 173.408ZM810.785 176.288C809.505 176.288 808.337 175.992 807.281 175.4C806.241 174.808 805.409 174 804.785 172.976C804.177 171.952 803.873 170.784 803.873 169.472C803.873 168.16 804.177 166.992 804.785 165.968C805.409 164.944 806.241 164.136 807.281 163.544C808.321 162.952 809.489 162.656 810.785 162.656C812.065 162.656 813.225 162.952 814.265 163.544C815.305 164.136 816.129 164.944 816.737 165.968C817.361 166.976 817.673 168.144 817.673 169.472C817.673 170.784 817.361 171.952 816.737 172.976C816.113 174 815.281 174.808 814.241 175.4C813.201 175.992 812.049 176.288 810.785 176.288ZM810.785 173.408C811.489 173.408 812.105 173.24 812.633 172.904C813.177 172.568 813.601 172.104 813.905 171.512C814.225 170.904 814.385 170.224 814.385 169.472C814.385 168.704 814.225 168.032 813.905 167.456C813.601 166.864 813.177 166.4 812.633 166.064C812.105 165.712 811.489 165.536 810.785 165.536C810.065 165.536 809.433 165.712 808.889 166.064C808.345 166.4 807.913 166.864 807.593 167.456C807.289 168.032 807.137 168.704 807.137 169.472C807.137 170.224 807.289 170.904 807.593 171.512C807.913 172.104 808.345 172.568 808.889 172.904C809.433 173.24 810.065 173.408 810.785 173.408ZM819.817 176V157.832H822.961V176H819.817ZM830.592 176.288C829.2 176.288 827.984 175.96 826.944 175.304C825.92 174.632 825.216 173.728 824.832 172.592L827.184 171.464C827.52 172.2 827.984 172.776 828.576 173.192C829.184 173.608 829.856 173.816 830.592 173.816C831.168 173.816 831.624 173.688 831.96 173.432C832.296 173.176 832.464 172.84 832.464 172.424C832.464 172.168 832.392 171.96 832.248 171.8C832.12 171.624 831.936 171.48 831.696 171.368C831.472 171.24 831.224 171.136 830.952 171.056L828.816 170.456C827.712 170.136 826.872 169.648 826.296 168.992C825.736 168.336 825.456 167.56 825.456 166.664C825.456 165.864 825.656 165.168 826.056 164.576C826.472 163.968 827.04 163.496 827.76 163.16C828.496 162.824 829.336 162.656 830.28 162.656C831.512 162.656 832.6 162.952 833.544 163.544C834.488 164.136 835.16 164.968 835.56 166.04L833.16 167.168C832.936 166.576 832.56 166.104 832.032 165.752C831.504 165.4 830.912 165.224 830.256 165.224C829.728 165.224 829.312 165.344 829.008 165.584C828.704 165.824 828.552 166.136 828.552 166.52C828.552 166.76 828.616 166.968 828.744 167.144C828.872 167.32 829.048 167.464 829.272 167.576C829.512 167.688 829.784 167.792 830.088 167.888L832.176 168.512C833.248 168.832 834.072 169.312 834.648 169.952C835.24 170.592 835.536 171.376 835.536 172.304C835.536 173.088 835.328 173.784 834.912 174.392C834.496 174.984 833.92 175.448 833.184 175.784C832.448 176.12 831.584 176.288 830.592 176.288Z" fill="#252D36"/>
<path d="M723.477 205V192.115H732.169V193.636H725.182V197.626H731.229V199.146H725.182V205H723.477ZM733.602 200.333C733.602 198.604 734.082 197.324 735.043 196.492C735.846 195.801 736.824 195.455 737.979 195.455C739.262 195.455 740.311 195.877 741.125 196.721C741.939 197.559 742.347 198.719 742.347 200.201C742.347 201.402 742.165 202.349 741.802 203.04C741.444 203.726 740.92 204.259 740.229 204.64C739.543 205.021 738.793 205.211 737.979 205.211C736.672 205.211 735.614 204.792 734.806 203.954C734.003 203.116 733.602 201.909 733.602 200.333ZM735.228 200.333C735.228 201.528 735.488 202.425 736.01 203.022C736.531 203.614 737.188 203.91 737.979 203.91C738.764 203.91 739.417 203.611 739.938 203.014C740.46 202.416 740.721 201.505 740.721 200.28C740.721 199.126 740.457 198.253 739.93 197.661C739.408 197.063 738.758 196.765 737.979 196.765C737.188 196.765 736.531 197.061 736.01 197.652C735.488 198.244 735.228 199.138 735.228 200.333ZM744.192 205V195.666H745.616V197.081C745.979 196.419 746.313 195.982 746.618 195.771C746.929 195.561 747.269 195.455 747.638 195.455C748.171 195.455 748.713 195.625 749.264 195.965L748.719 197.433C748.332 197.204 747.945 197.09 747.559 197.09C747.213 197.09 746.902 197.195 746.627 197.406C746.352 197.611 746.155 197.898 746.038 198.268C745.862 198.83 745.774 199.445 745.774 200.113V205H744.192ZM765.181 203.62C765.972 204.165 766.701 204.563 767.369 204.815L766.868 206.002C765.942 205.668 765.02 205.141 764.1 204.42C763.145 204.953 762.09 205.22 760.936 205.22C759.77 205.22 758.712 204.938 757.763 204.376C756.813 203.813 756.081 203.022 755.565 202.003C755.056 200.983 754.801 199.835 754.801 198.558C754.801 197.286 755.059 196.129 755.574 195.086C756.09 194.043 756.822 193.249 757.771 192.704C758.727 192.159 759.793 191.887 760.971 191.887C762.16 191.887 763.232 192.171 764.188 192.739C765.143 193.302 765.869 194.093 766.367 195.112C766.871 196.126 767.123 197.271 767.123 198.549C767.123 199.609 766.962 200.564 766.64 201.414C766.317 202.258 765.831 202.993 765.181 203.62ZM761.428 201.44C762.412 201.716 763.224 202.126 763.862 202.671C764.864 201.757 765.365 200.383 765.365 198.549C765.365 197.506 765.187 196.595 764.829 195.815C764.478 195.036 763.959 194.433 763.273 194.005C762.594 193.571 761.829 193.354 760.979 193.354C759.708 193.354 758.653 193.791 757.815 194.664C756.978 195.531 756.559 196.829 756.559 198.558C756.559 200.233 756.972 201.52 757.798 202.416C758.63 203.312 759.69 203.761 760.979 203.761C761.589 203.761 762.163 203.646 762.702 203.418C762.169 203.072 761.606 202.826 761.015 202.68L761.428 201.44ZM768.011 205L772.959 192.115H774.796L780.069 205H778.127L776.624 201.098H771.236L769.821 205H768.011ZM771.729 199.709H776.097L774.752 196.141C774.342 195.057 774.037 194.166 773.838 193.469C773.674 194.295 773.442 195.115 773.144 195.93L771.729 199.709ZM788.384 205V193.636H784.139V192.115H794.352V193.636H790.089V205H788.384ZM800.293 201.994L801.928 202.196C801.67 203.151 801.192 203.893 800.495 204.42C799.798 204.947 798.907 205.211 797.823 205.211C796.458 205.211 795.374 204.792 794.571 203.954C793.774 203.11 793.376 201.93 793.376 200.412C793.376 198.842 793.78 197.623 794.589 196.756C795.397 195.889 796.446 195.455 797.735 195.455C798.983 195.455 800.003 195.88 800.794 196.729C801.585 197.579 801.98 198.774 801.98 200.315C801.98 200.409 801.978 200.55 801.972 200.737H795.011C795.069 201.763 795.359 202.548 795.881 203.093C796.402 203.638 797.053 203.91 797.832 203.91C798.412 203.91 798.907 203.758 799.317 203.453C799.728 203.148 800.053 202.662 800.293 201.994ZM795.099 199.437H800.311C800.24 198.651 800.041 198.062 799.713 197.67C799.209 197.061 798.556 196.756 797.753 196.756C797.026 196.756 796.414 196.999 795.916 197.485C795.424 197.972 795.151 198.622 795.099 199.437ZM810.014 203.849C809.428 204.347 808.862 204.698 808.317 204.903C807.778 205.108 807.198 205.211 806.577 205.211C805.552 205.211 804.764 204.962 804.213 204.464C803.662 203.96 803.387 203.318 803.387 202.539C803.387 202.082 803.489 201.666 803.694 201.291C803.905 200.91 804.178 200.605 804.512 200.377C804.852 200.148 805.232 199.976 805.654 199.858C805.965 199.776 806.434 199.697 807.061 199.621C808.338 199.469 809.278 199.287 809.882 199.076C809.888 198.859 809.891 198.722 809.891 198.663C809.891 198.019 809.741 197.564 809.442 197.301C809.038 196.943 808.438 196.765 807.641 196.765C806.896 196.765 806.346 196.896 805.988 197.16C805.637 197.418 805.376 197.878 805.206 198.54L803.659 198.329C803.8 197.667 804.031 197.134 804.354 196.729C804.676 196.319 805.142 196.006 805.751 195.789C806.36 195.566 807.066 195.455 807.869 195.455C808.666 195.455 809.313 195.549 809.812 195.736C810.31 195.924 810.676 196.161 810.91 196.448C811.145 196.729 811.309 197.087 811.402 197.521C811.455 197.79 811.481 198.276 811.481 198.979V201.089C811.481 202.56 811.514 203.491 811.578 203.884C811.648 204.271 811.783 204.643 811.982 205H810.33C810.166 204.672 810.061 204.288 810.014 203.849ZM809.882 200.315C809.308 200.55 808.446 200.749 807.298 200.913C806.647 201.007 806.188 201.112 805.918 201.229C805.648 201.347 805.44 201.52 805.294 201.748C805.147 201.971 805.074 202.22 805.074 202.495C805.074 202.917 805.232 203.269 805.549 203.55C805.871 203.831 806.34 203.972 806.955 203.972C807.564 203.972 808.106 203.84 808.581 203.576C809.056 203.307 809.404 202.94 809.627 202.478C809.797 202.12 809.882 201.593 809.882 200.896V200.315ZM813.942 205V195.666H815.357V196.976C815.65 196.519 816.04 196.152 816.526 195.877C817.013 195.596 817.566 195.455 818.188 195.455C818.879 195.455 819.444 195.599 819.884 195.886C820.329 196.173 820.643 196.574 820.824 197.09C821.562 196 822.523 195.455 823.707 195.455C824.633 195.455 825.345 195.713 825.843 196.229C826.341 196.738 826.59 197.526 826.59 198.593V205H825.017V199.12C825.017 198.487 824.964 198.033 824.858 197.758C824.759 197.477 824.574 197.251 824.305 197.081C824.035 196.911 823.719 196.826 823.355 196.826C822.699 196.826 822.154 197.046 821.721 197.485C821.287 197.919 821.07 198.616 821.07 199.577V205H819.488V198.936C819.488 198.232 819.359 197.705 819.102 197.354C818.844 197.002 818.422 196.826 817.836 196.826C817.391 196.826 816.978 196.943 816.597 197.178C816.222 197.412 815.949 197.755 815.779 198.206C815.609 198.657 815.524 199.308 815.524 200.157V205H813.942ZM828.304 202.214L829.868 201.968C829.956 202.595 830.199 203.075 830.598 203.409C831.002 203.743 831.564 203.91 832.285 203.91C833.012 203.91 833.551 203.764 833.902 203.471C834.254 203.172 834.43 202.823 834.43 202.425C834.43 202.067 834.274 201.786 833.964 201.581C833.747 201.44 833.208 201.262 832.347 201.045C831.187 200.752 830.381 200.5 829.93 200.289C829.484 200.072 829.145 199.776 828.91 199.401C828.682 199.021 828.567 198.602 828.567 198.145C828.567 197.729 828.661 197.345 828.849 196.993C829.042 196.636 829.303 196.34 829.631 196.105C829.877 195.924 830.211 195.771 830.633 195.648C831.061 195.52 831.518 195.455 832.004 195.455C832.736 195.455 833.378 195.561 833.929 195.771C834.485 195.982 834.896 196.27 835.159 196.633C835.423 196.99 835.604 197.471 835.704 198.074L834.157 198.285C834.087 197.805 833.882 197.43 833.542 197.16C833.208 196.891 832.733 196.756 832.118 196.756C831.392 196.756 830.873 196.876 830.562 197.116C830.252 197.356 830.097 197.638 830.097 197.96C830.097 198.165 830.161 198.35 830.29 198.514C830.419 198.684 830.621 198.824 830.896 198.936C831.055 198.994 831.521 199.129 832.294 199.34C833.413 199.639 834.192 199.885 834.632 200.078C835.077 200.266 835.426 200.541 835.678 200.904C835.93 201.268 836.056 201.719 836.056 202.258C836.056 202.785 835.9 203.283 835.59 203.752C835.285 204.215 834.843 204.575 834.263 204.833C833.683 205.085 833.026 205.211 832.294 205.211C831.081 205.211 830.155 204.959 829.517 204.455C828.884 203.951 828.479 203.204 828.304 202.214Z" fill="#252D36"/>
<path d="M965.543 -59C942.107 -59.0081 919.192 -52.0662 899.699 -39.0532C880.207 -26.0403 865.014 -7.53539 856.038 14.1124C847.058 35.7642 844.704 59.5869 849.271 82.5752C853.833 105.564 865.111 126.685 881.679 143.262C898.247 159.839 919.358 171.135 942.341 175.715C965.325 180.296 989.154 177.955 1010.81 168.996C1032.47 160.033 1050.98 144.854 1064.01 125.369C1077.03 105.888 1083.99 82.9802 1084 59.5423C1083.96 28.1298 1071.46 -1.98271 1049.26 -24.2015C1027.06 -46.4204 996.956 -58.9311 965.543 -59ZM965.543 129.84C951.629 129.848 938.021 125.729 926.449 118.005C914.876 110.278 905.852 99.294 900.52 86.439C895.193 73.584 893.798 59.437 896.508 45.7882C899.222 32.1394 905.925 19.6003 915.762 9.76259C925.603 -0.0791473 938.139 -6.77802 951.786 -9.49159C965.438 -12.2052 979.583 -10.8079 992.438 -5.47794C1005.29 -0.14801 1016.28 8.87155 1024.01 20.4467C1031.73 32.0219 1035.85 45.6262 1035.84 59.5423C1035.81 78.1768 1028.39 96.0377 1015.22 109.213C1002.04 122.392 984.178 129.807 965.543 129.84Z" fill="#1482FF" fill-opacity="0.08"/>
<path d="M1017.69 72.7197C1016.34 83.0667 1011.65 92.6865 1004.33 100.129C997.218 107.351 988.009 112.134 978.021 113.803C977.414 113.904 976.798 113.946 976.181 113.946C974.629 113.902 973.142 113.32 971.965 112.306C971.218 111.668 970.615 110.872 970.203 109.979C969.787 109.086 969.569 108.116 969.565 107.13C969.556 105.506 970.134 103.931 971.198 102.694C972.257 101.458 973.728 100.642 975.337 100.399C982.717 99.2964 989.536 95.8258 994.766 90.5169C999.997 85.204 1003.35 78.3356 1004.33 70.9541C1004.5 69.6572 1005.05 68.437 1005.89 67.4391C1006.74 66.4452 1007.85 65.7099 1009.11 65.3301C1010.36 64.9463 1011.69 64.9341 1012.96 65.2897C1014.22 65.6452 1015.35 66.3563 1016.21 67.334C1016.83 68.0734 1017.28 68.938 1017.54 69.8673C1017.79 70.7965 1017.85 71.7702 1017.69 72.7197Z" fill="#1482FF" fill-opacity="0.08"/>
</g>
</g>
<defs>
<filter id="filter0_d_2012_2532" x="0" y="76" width="363" height="206" filterUnits="userSpaceOnUse" color-interpolation-filters="sRGB">
<feFlood flood-opacity="0" result="BackgroundImageFix"/>
<feColorMatrix in="SourceAlpha" type="matrix" values="0 0 0 0 0 0 0 0 0 0 0 0 0 0 0 0 0 0 127 0" result="hardAlpha"/>
<feOffset dy="12"/>
<feGaussianBlur stdDeviation="12"/>
<feComposite in2="hardAlpha" operator="out"/>
<feColorMatrix type="matrix" values="0 0 0 0 0 0 0 0 0 0 0 0 0 0 0 0 0 0 0.1 0"/>
<feBlend mode="normal" in2="BackgroundImageFix" result="effect1_dropShadow_2012_2532"/>
<feBlend mode="normal" in="SourceGraphic" in2="effect1_dropShadow_2012_2532" result="shape"/>
</filter>
<filter id="filter1_d_2012_2532" x="335" y="76" width="363" height="206" filterUnits="userSpaceOnUse" color-interpolation-filters="sRGB">
<feFlood flood-opacity="0" result="BackgroundImageFix"/>
<feColorMatrix in="SourceAlpha" type="matrix" values="0 0 0 0 0 0 0 0 0 0 0 0 0 0 0 0 0 0 127 0" result="hardAlpha"/>
<feOffset dy="12"/>
<feGaussianBlur stdDeviation="12"/>
<feComposite in2="hardAlpha" operator="out"/>
<feColorMatrix type="matrix" values="0 0 0 0 0 0 0 0 0 0 0 0 0 0 0 0 0 0 0.1 0"/>
<feBlend mode="normal" in2="BackgroundImageFix" result="effect1_dropShadow_2012_2532"/>
<feBlend mode="normal" in="SourceGraphic" in2="effect1_dropShadow_2012_2532" result="shape"/>
</filter>
<filter id="filter2_d_2012_2532" x="670" y="76" width="363" height="206" filterUnits="userSpaceOnUse" color-interpolation-filters="sRGB">
<feFlood flood-opacity="0" result="BackgroundImageFix"/>
<feColorMatrix in="SourceAlpha" type="matrix" values="0 0 0 0 0 0 0 0 0 0 0 0 0 0 0 0 0 0 127 0" result="hardAlpha"/>
<feOffset dy="12"/>
<feGaussianBlur stdDeviation="12"/>
<feComposite in2="hardAlpha" operator="out"/>
<feColorMatrix type="matrix" values="0 0 0 0 0 0 0 0 0 0 0 0 0 0 0 0 0 0 0.1 0"/>
<feBlend mode="normal" in2="BackgroundImageFix" result="effect1_dropShadow_2012_2532"/>
<feBlend mode="normal" in="SourceGraphic" in2="effect1_dropShadow_2012_2532" result="shape"/>
</filter>
<clipPath id="clip0_2012_2532">
<rect x="24" y="88" width="315" height="158" rx="12" fill="white"/>
</clipPath>
<clipPath id="clip1_2012_2532">
<rect x="359" y="88" width="315" height="158" rx="12" fill="white"/>
</clipPath>
<clipPath id="clip2_2012_2532">
<rect x="694" y="88" width="315" height="158" rx="12" fill="white"/>
</clipPath>
</defs>
</svg>
