<svg width="1320" height="72" viewBox="0 0 1320 72" fill="none" xmlns="http://www.w3.org/2000/svg">
<rect width="1320" height="72" rx="8" fill="#1482FF"/>
<path d="M38 21H25V23H38V21Z" fill="white"/>
<path d="M40.598 32.998C38.318 31.098 37 28.284 37 25.316V24H26V25.316C26 28.284 24.682 31.098 22.402 32.998L20 35L31 51V39.95C29.859 39.718 29 38.71 29 37.5C29 36.119 30.119 35 31.5 35C32.881 35 34 36.119 34 37.5C34 38.709 33.141 39.718 32 39.95V51L43 35L40.598 32.998Z" fill="white"/>
<path d="M38 21H25V23H38V21Z" fill="white"/>
<path d="M40.598 32.998C38.318 31.098 37 28.284 37 25.316V24H26V25.316C26 28.284 24.682 31.098 22.402 32.998L20 35L31 51V39.95C29.859 39.718 29 38.71 29 37.5C29 36.119 30.119 35 31.5 35C32.881 35 34 36.119 34 37.5C34 38.709 33.141 39.718 32 39.95V51L43 35L40.598 32.998Z" fill="white"/>
<path d="M65.728 46V28.12H77.656V31H68.992V35.944H76.576V38.824H68.992V46H65.728ZM85.3893 46.288C84.1093 46.288 82.9413 45.992 81.8853 45.4C80.8453 44.808 80.0133 44 79.3893 42.976C78.7813 41.952 78.4773 40.784 78.4773 39.472C78.4773 38.16 78.7813 36.992 79.3893 35.968C80.0133 34.944 80.8453 34.136 81.8853 33.544C82.9253 32.952 84.0933 32.656 85.3893 32.656C86.6693 32.656 87.8293 32.952 88.8693 33.544C89.9093 34.136 90.7333 34.944 91.3413 35.968C91.9653 36.976 92.2773 38.144 92.2773 39.472C92.2773 40.784 91.9653 41.952 91.3413 42.976C90.7173 44 89.8853 44.808 88.8453 45.4C87.8053 45.992 86.6533 46.288 85.3893 46.288ZM85.3893 43.408C86.0933 43.408 86.7093 43.24 87.2373 42.904C87.7813 42.568 88.2053 42.104 88.5093 41.512C88.8293 40.904 88.9893 40.224 88.9893 39.472C88.9893 38.704 88.8293 38.032 88.5093 37.456C88.2053 36.864 87.7813 36.4 87.2373 36.064C86.7093 35.712 86.0933 35.536 85.3893 35.536C84.6693 35.536 84.0373 35.712 83.4933 36.064C82.9493 36.4 82.5173 36.864 82.1973 37.456C81.8933 38.032 81.7413 38.704 81.7413 39.472C81.7413 40.224 81.8933 40.904 82.1973 41.512C82.5173 42.104 82.9493 42.568 83.4933 42.904C84.0373 43.24 84.6693 43.408 85.3893 43.408ZM94.4215 46V32.944H97.3735V35.848L97.1335 35.416C97.4375 34.44 97.9095 33.76 98.5495 33.376C99.2055 32.992 99.9895 32.8 100.902 32.8H101.67V35.584H100.542C99.6455 35.584 98.9255 35.864 98.3815 36.424C97.8375 36.968 97.5655 37.736 97.5655 38.728V46H94.4215ZM107.448 46V28.12H113.28C115.168 28.12 116.808 28.504 118.2 29.272C119.608 30.024 120.696 31.072 121.464 32.416C122.232 33.744 122.616 35.288 122.616 37.048C122.616 38.792 122.232 40.344 121.464 41.704C120.696 43.048 119.608 44.104 118.2 44.872C116.808 45.624 115.168 46 113.28 46H107.448ZM110.712 43.12H113.352C114.568 43.12 115.616 42.872 116.496 42.376C117.392 41.864 118.088 41.16 118.584 40.264C119.08 39.352 119.328 38.28 119.328 37.048C119.328 35.8 119.08 34.728 118.584 33.832C118.088 32.936 117.392 32.24 116.496 31.744C115.616 31.248 114.568 31 113.352 31H110.712V43.12ZM130.901 46.288C129.557 46.288 128.381 45.984 127.373 45.376C126.365 44.768 125.581 43.944 125.021 42.904C124.461 41.864 124.181 40.712 124.181 39.448C124.181 38.136 124.461 36.976 125.021 35.968C125.597 34.944 126.373 34.136 127.349 33.544C128.341 32.952 129.445 32.656 130.661 32.656C131.685 32.656 132.581 32.824 133.349 33.16C134.133 33.496 134.797 33.96 135.341 34.552C135.885 35.144 136.301 35.824 136.589 36.592C136.877 37.344 137.021 38.16 137.021 39.04C137.021 39.264 137.005 39.496 136.973 39.736C136.957 39.976 136.917 40.184 136.853 40.36H126.773V37.96H135.077L133.589 39.088C133.733 38.352 133.693 37.696 133.469 37.12C133.261 36.544 132.909 36.088 132.413 35.752C131.933 35.416 131.349 35.248 130.661 35.248C130.005 35.248 129.421 35.416 128.909 35.752C128.397 36.072 128.005 36.552 127.733 37.192C127.477 37.816 127.381 38.576 127.445 39.472C127.381 40.272 127.485 40.984 127.757 41.608C128.045 42.216 128.461 42.688 129.005 43.024C129.565 43.36 130.205 43.528 130.925 43.528C131.645 43.528 132.253 43.376 132.749 43.072C133.261 42.768 133.661 42.36 133.949 41.848L136.493 43.096C136.237 43.72 135.837 44.272 135.293 44.752C134.749 45.232 134.101 45.608 133.349 45.88C132.613 46.152 131.797 46.288 130.901 46.288ZM144.133 46.288C142.741 46.288 141.525 45.96 140.485 45.304C139.461 44.632 138.757 43.728 138.373 42.592L140.725 41.464C141.061 42.2 141.525 42.776 142.117 43.192C142.725 43.608 143.397 43.816 144.133 43.816C144.709 43.816 145.165 43.688 145.501 43.432C145.837 43.176 146.005 42.84 146.005 42.424C146.005 42.168 145.933 41.96 145.789 41.8C145.661 41.624 145.477 41.48 145.237 41.368C145.013 41.24 144.765 41.136 144.493 41.056L142.357 40.456C141.253 40.136 140.413 39.648 139.837 38.992C139.277 38.336 138.997 37.56 138.997 36.664C138.997 35.864 139.197 35.168 139.597 34.576C140.013 33.968 140.581 33.496 141.301 33.16C142.037 32.824 142.877 32.656 143.821 32.656C145.053 32.656 146.141 32.952 147.085 33.544C148.029 34.136 148.701 34.968 149.101 36.04L146.701 37.168C146.477 36.576 146.101 36.104 145.573 35.752C145.045 35.4 144.453 35.224 143.797 35.224C143.269 35.224 142.853 35.344 142.549 35.584C142.245 35.824 142.093 36.136 142.093 36.52C142.093 36.76 142.157 36.968 142.285 37.144C142.413 37.32 142.589 37.464 142.813 37.576C143.053 37.688 143.325 37.792 143.629 37.888L145.717 38.512C146.789 38.832 147.613 39.312 148.189 39.952C148.781 40.592 149.077 41.376 149.077 42.304C149.077 43.088 148.869 43.784 148.453 44.392C148.037 44.984 147.461 45.448 146.725 45.784C145.989 46.12 145.125 46.288 144.133 46.288ZM151.253 46V32.944H154.397V46H151.253ZM151.253 31.48V28.12H154.397V31.48H151.253ZM163.396 51.28C162.42 51.28 161.516 51.12 160.684 50.8C159.852 50.48 159.132 50.032 158.524 49.456C157.932 48.896 157.5 48.232 157.228 47.464L160.156 46.36C160.348 46.968 160.724 47.456 161.284 47.824C161.86 48.208 162.564 48.4 163.396 48.4C164.036 48.4 164.596 48.28 165.076 48.04C165.572 47.8 165.956 47.448 166.228 46.984C166.5 46.536 166.636 45.992 166.636 45.352V42.376L167.236 43.096C166.788 43.88 166.188 44.472 165.436 44.872C164.684 45.272 163.828 45.472 162.868 45.472C161.652 45.472 160.564 45.192 159.604 44.632C158.644 44.072 157.892 43.304 157.348 42.328C156.804 41.352 156.532 40.256 156.532 39.04C156.532 37.808 156.804 36.712 157.348 35.752C157.892 34.792 158.636 34.04 159.58 33.496C160.524 32.936 161.596 32.656 162.796 32.656C163.772 32.656 164.628 32.864 165.364 33.28C166.116 33.68 166.74 34.264 167.236 35.032L166.804 35.824V32.944H169.78V45.352C169.78 46.488 169.5 47.504 168.94 48.4C168.396 49.296 167.644 50 166.684 50.512C165.74 51.024 164.644 51.28 163.396 51.28ZM163.252 42.568C163.924 42.568 164.508 42.424 165.004 42.136C165.516 41.832 165.916 41.416 166.204 40.888C166.492 40.36 166.636 39.752 166.636 39.064C166.636 38.392 166.484 37.792 166.18 37.264C165.892 36.72 165.492 36.296 164.98 35.992C164.484 35.688 163.908 35.536 163.252 35.536C162.596 35.536 162.004 35.688 161.476 35.992C160.948 36.296 160.532 36.72 160.228 37.264C159.94 37.792 159.796 38.392 159.796 39.064C159.796 39.736 159.94 40.336 160.228 40.864C160.532 41.392 160.94 41.808 161.452 42.112C161.98 42.416 162.58 42.568 163.252 42.568ZM172.476 46V32.944H175.428V35.512L175.188 35.056C175.492 34.272 175.988 33.68 176.676 33.28C177.38 32.864 178.196 32.656 179.124 32.656C180.084 32.656 180.932 32.864 181.668 33.28C182.42 33.696 183.004 34.28 183.42 35.032C183.836 35.768 184.044 36.624 184.044 37.6V46H180.9V38.344C180.9 37.768 180.788 37.272 180.564 36.856C180.34 36.44 180.028 36.12 179.628 35.896C179.244 35.656 178.788 35.536 178.26 35.536C177.748 35.536 177.292 35.656 176.892 35.896C176.492 36.12 176.18 36.44 175.956 36.856C175.732 37.272 175.62 37.768 175.62 38.344V46H172.476ZM193.92 46V31H189.288V28.12H201.768V31H197.208V46H193.92ZM207.76 46.288C206.416 46.288 205.24 45.984 204.232 45.376C203.224 44.768 202.44 43.944 201.88 42.904C201.32 41.864 201.04 40.712 201.04 39.448C201.04 38.136 201.32 36.976 201.88 35.968C202.456 34.944 203.232 34.136 204.208 33.544C205.2 32.952 206.304 32.656 207.52 32.656C208.544 32.656 209.44 32.824 210.208 33.16C210.992 33.496 211.656 33.96 212.2 34.552C212.744 35.144 213.16 35.824 213.448 36.592C213.736 37.344 213.88 38.16 213.88 39.04C213.88 39.264 213.864 39.496 213.832 39.736C213.816 39.976 213.776 40.184 213.712 40.36H203.632V37.96H211.936L210.448 39.088C210.592 38.352 210.552 37.696 210.328 37.12C210.12 36.544 209.768 36.088 209.272 35.752C208.792 35.416 208.208 35.248 207.52 35.248C206.864 35.248 206.28 35.416 205.768 35.752C205.256 36.072 204.864 36.552 204.592 37.192C204.336 37.816 204.24 38.576 204.304 39.472C204.24 40.272 204.344 40.984 204.616 41.608C204.904 42.216 205.32 42.688 205.864 43.024C206.424 43.36 207.064 43.528 207.784 43.528C208.504 43.528 209.112 43.376 209.608 43.072C210.12 42.768 210.52 42.36 210.808 41.848L213.352 43.096C213.096 43.72 212.696 44.272 212.152 44.752C211.608 45.232 210.96 45.608 210.208 45.88C209.472 46.152 208.656 46.288 207.76 46.288ZM219.937 46.288C219.025 46.288 218.233 46.136 217.561 45.832C216.889 45.528 216.369 45.096 216.001 44.536C215.633 43.96 215.449 43.296 215.449 42.544C215.449 41.824 215.609 41.184 215.929 40.624C216.249 40.048 216.745 39.568 217.417 39.184C218.089 38.8 218.937 38.528 219.961 38.368L224.233 37.672V40.072L220.561 40.696C219.937 40.808 219.473 41.008 219.169 41.296C218.865 41.584 218.713 41.96 218.713 42.424C218.713 42.872 218.881 43.232 219.217 43.504C219.569 43.76 220.001 43.888 220.513 43.888C221.169 43.888 221.745 43.752 222.241 43.48C222.753 43.192 223.145 42.8 223.417 42.304C223.705 41.808 223.849 41.264 223.849 40.672V37.312C223.849 36.752 223.625 36.288 223.177 35.92C222.745 35.536 222.169 35.344 221.449 35.344C220.777 35.344 220.177 35.528 219.649 35.896C219.137 36.248 218.761 36.72 218.521 37.312L215.953 36.064C216.209 35.376 216.609 34.784 217.153 34.288C217.713 33.776 218.369 33.376 219.121 33.088C219.873 32.8 220.689 32.656 221.569 32.656C222.641 32.656 223.585 32.856 224.401 33.256C225.217 33.64 225.849 34.184 226.297 34.888C226.761 35.576 226.993 36.384 226.993 37.312V46H224.017V43.768L224.689 43.72C224.353 44.28 223.953 44.752 223.489 45.136C223.025 45.504 222.497 45.792 221.905 46C221.313 46.192 220.657 46.288 219.937 46.288ZM229.659 46V32.944H232.611V35.968L232.275 35.464C232.515 34.52 232.995 33.816 233.715 33.352C234.435 32.888 235.283 32.656 236.259 32.656C237.331 32.656 238.275 32.936 239.091 33.496C239.907 34.056 240.435 34.792 240.675 35.704L239.787 35.776C240.187 34.736 240.787 33.96 241.587 33.448C242.387 32.92 243.307 32.656 244.347 32.656C245.275 32.656 246.099 32.864 246.819 33.28C247.555 33.696 248.131 34.28 248.547 35.032C248.963 35.768 249.171 36.624 249.171 37.6V46H246.027V38.344C246.027 37.768 245.923 37.272 245.715 36.856C245.507 36.44 245.219 36.12 244.851 35.896C244.483 35.656 244.035 35.536 243.507 35.536C243.011 35.536 242.571 35.656 242.187 35.896C241.803 36.12 241.507 36.44 241.299 36.856C241.091 37.272 240.987 37.768 240.987 38.344V46H237.843V38.344C237.843 37.768 237.739 37.272 237.531 36.856C237.323 36.44 237.027 36.12 236.643 35.896C236.275 35.656 235.835 35.536 235.323 35.536C234.827 35.536 234.387 35.656 234.003 35.896C233.619 36.12 233.323 36.44 233.115 36.856C232.907 37.272 232.803 37.768 232.803 38.344V46H229.659ZM256.559 46.288C255.167 46.288 253.951 45.96 252.911 45.304C251.887 44.632 251.183 43.728 250.799 42.592L253.151 41.464C253.487 42.2 253.951 42.776 254.543 43.192C255.151 43.608 255.823 43.816 256.559 43.816C257.135 43.816 257.591 43.688 257.927 43.432C258.263 43.176 258.431 42.84 258.431 42.424C258.431 42.168 258.359 41.96 258.215 41.8C258.087 41.624 257.903 41.48 257.663 41.368C257.439 41.24 257.191 41.136 256.919 41.056L254.783 40.456C253.679 40.136 252.839 39.648 252.263 38.992C251.703 38.336 251.423 37.56 251.423 36.664C251.423 35.864 251.623 35.168 252.023 34.576C252.439 33.968 253.007 33.496 253.727 33.16C254.463 32.824 255.303 32.656 256.247 32.656C257.479 32.656 258.567 32.952 259.511 33.544C260.455 34.136 261.127 34.968 261.527 36.04L259.127 37.168C258.903 36.576 258.527 36.104 257.999 35.752C257.471 35.4 256.879 35.224 256.223 35.224C255.695 35.224 255.279 35.344 254.975 35.584C254.671 35.824 254.519 36.136 254.519 36.52C254.519 36.76 254.583 36.968 254.711 37.144C254.839 37.32 255.015 37.464 255.239 37.576C255.479 37.688 255.751 37.792 256.055 37.888L258.143 38.512C259.215 38.832 260.039 39.312 260.615 39.952C261.207 40.592 261.503 41.376 261.503 42.304C261.503 43.088 261.295 43.784 260.879 44.392C260.463 44.984 259.887 45.448 259.151 45.784C258.415 46.12 257.551 46.288 256.559 46.288Z" fill="white"/>
<path d="M1284 29V43M1284 43L1291 36M1284 43L1277 36" stroke="white" stroke-width="2" stroke-linecap="round" stroke-linejoin="round"/>
</svg>
