<svg width="1320" height="72" viewBox="0 0 1320 72" fill="none" xmlns="http://www.w3.org/2000/svg">
<rect width="1320" height="72" rx="8" fill="#1482FF"/>
<g clip-path="url(#clip0_2012_2762)">
<path d="M32.0003 34.667C33.7684 34.667 35.4641 35.3694 36.7144 36.6196C37.9646 37.8699 38.667 39.5655 38.667 41.3337V49.3337H25.3337V41.3337C25.3337 39.5655 26.036 37.8699 27.2863 36.6196C28.5365 35.3694 30.2322 34.667 32.0003 34.667ZM23.051 38.675C22.8388 39.3907 22.7135 40.1293 22.6777 40.875L22.667 41.3337V49.3337H18.667V43.3337C18.6667 42.1838 19.091 41.0742 19.8585 40.2179C20.626 39.3616 21.6826 38.8188 22.8257 38.6937L23.051 38.675ZM40.9497 38.675C42.1362 38.7473 43.2505 39.2696 44.0651 40.1353C44.8798 41.001 45.3335 42.1449 45.3337 43.3337V49.3337H41.3337V41.3337C41.3337 40.4097 41.2003 39.5177 40.9497 38.675ZM23.3337 30.667C24.2177 30.667 25.0656 31.0182 25.6907 31.6433C26.3158 32.2684 26.667 33.1163 26.667 34.0003C26.667 34.8844 26.3158 35.7322 25.6907 36.3573C25.0656 36.9825 24.2177 37.3337 23.3337 37.3337C22.4496 37.3337 21.6018 36.9825 20.9766 36.3573C20.3515 35.7322 20.0003 34.8844 20.0003 34.0003C20.0003 33.1163 20.3515 32.2684 20.9766 31.6433C21.6018 31.0182 22.4496 30.667 23.3337 30.667ZM40.667 30.667C41.551 30.667 42.3989 31.0182 43.024 31.6433C43.6491 32.2684 44.0003 33.1163 44.0003 34.0003C44.0003 34.8844 43.6491 35.7322 43.024 36.3573C42.3989 36.9825 41.551 37.3337 40.667 37.3337C39.7829 37.3337 38.9351 36.9825 38.31 36.3573C37.6848 35.7322 37.3337 34.8844 37.3337 34.0003C37.3337 33.1163 37.6848 32.2684 38.31 31.6433C38.9351 31.0182 39.7829 30.667 40.667 30.667ZM32.0003 22.667C33.4148 22.667 34.7714 23.2289 35.7716 24.2291C36.7718 25.2293 37.3337 26.5858 37.3337 28.0003C37.3337 29.4148 36.7718 30.7714 35.7716 31.7716C34.7714 32.7718 33.4148 33.3337 32.0003 33.3337C30.5858 33.3337 29.2293 32.7718 28.2291 31.7716C27.2289 30.7714 26.667 29.4148 26.667 28.0003C26.667 26.5858 27.2289 25.2293 28.2291 24.2291C29.2293 23.2289 30.5858 22.667 32.0003 22.667Z" fill="white"/>
</g>
<path d="M65.728 46V28.12H77.656V31H68.992V35.944H76.576V38.824H68.992V46H65.728ZM85.3893 46.288C84.1093 46.288 82.9413 45.992 81.8853 45.4C80.8453 44.808 80.0133 44 79.3893 42.976C78.7813 41.952 78.4773 40.784 78.4773 39.472C78.4773 38.16 78.7813 36.992 79.3893 35.968C80.0133 34.944 80.8453 34.136 81.8853 33.544C82.9253 32.952 84.0933 32.656 85.3893 32.656C86.6693 32.656 87.8293 32.952 88.8693 33.544C89.9093 34.136 90.7333 34.944 91.3413 35.968C91.9653 36.976 92.2773 38.144 92.2773 39.472C92.2773 40.784 91.9653 41.952 91.3413 42.976C90.7173 44 89.8853 44.808 88.8453 45.4C87.8053 45.992 86.6533 46.288 85.3893 46.288ZM85.3893 43.408C86.0933 43.408 86.7093 43.24 87.2373 42.904C87.7813 42.568 88.2053 42.104 88.5093 41.512C88.8293 40.904 88.9893 40.224 88.9893 39.472C88.9893 38.704 88.8293 38.032 88.5093 37.456C88.2053 36.864 87.7813 36.4 87.2373 36.064C86.7093 35.712 86.0933 35.536 85.3893 35.536C84.6693 35.536 84.0373 35.712 83.4933 36.064C82.9493 36.4 82.5173 36.864 82.1973 37.456C81.8933 38.032 81.7413 38.704 81.7413 39.472C81.7413 40.224 81.8933 40.904 82.1973 41.512C82.5173 42.104 82.9493 42.568 83.4933 42.904C84.0373 43.24 84.6693 43.408 85.3893 43.408ZM94.4215 46V32.944H97.3735V35.848L97.1335 35.416C97.4375 34.44 97.9095 33.76 98.5495 33.376C99.2055 32.992 99.9895 32.8 100.902 32.8H101.67V35.584H100.542C99.6455 35.584 98.9255 35.864 98.3815 36.424C97.8375 36.968 97.5655 37.736 97.5655 38.728V46H94.4215ZM113.832 46.288C112.696 46.288 111.64 46.08 110.664 45.664C109.704 45.248 108.872 44.672 108.168 43.936C107.48 43.184 106.976 42.312 106.656 41.32L109.368 40.144C109.8 41.168 110.424 41.976 111.24 42.568C112.056 43.144 112.976 43.432 114 43.432C114.576 43.432 115.072 43.344 115.488 43.168C115.92 42.976 116.248 42.72 116.472 42.4C116.712 42.08 116.832 41.696 116.832 41.248C116.832 40.72 116.672 40.288 116.352 39.952C116.048 39.6 115.584 39.328 114.96 39.136L111.528 38.032C110.136 37.6 109.088 36.952 108.384 36.088C107.68 35.224 107.328 34.208 107.328 33.04C107.328 32.016 107.576 31.112 108.072 30.328C108.584 29.544 109.288 28.936 110.184 28.504C111.096 28.056 112.136 27.832 113.304 27.832C114.376 27.832 115.36 28.024 116.256 28.408C117.152 28.776 117.92 29.296 118.56 29.968C119.216 30.624 119.704 31.4 120.024 32.296L117.336 33.496C116.984 32.6 116.456 31.912 115.752 31.432C115.048 30.936 114.232 30.688 113.304 30.688C112.76 30.688 112.28 30.784 111.864 30.976C111.448 31.152 111.12 31.408 110.88 31.744C110.656 32.064 110.544 32.448 110.544 32.896C110.544 33.392 110.704 33.832 111.024 34.216C111.344 34.584 111.832 34.872 112.488 35.08L115.776 36.112C117.2 36.576 118.264 37.216 118.968 38.032C119.688 38.848 120.048 39.856 120.048 41.056C120.048 42.08 119.784 42.984 119.256 43.768C118.728 44.552 118 45.168 117.072 45.616C116.144 46.064 115.064 46.288 113.832 46.288ZM122.483 46V32.944H125.627V46H122.483ZM122.483 31.48V28.12H125.627V31.48H122.483ZM134.242 46.144C132.77 46.144 131.626 45.744 130.81 44.944C130.01 44.128 129.61 42.984 129.61 41.512V35.752H127.354V32.944H127.594C128.234 32.944 128.73 32.776 129.082 32.44C129.434 32.104 129.61 31.616 129.61 30.976V29.968H132.754V32.944H135.754V35.752H132.754V41.344C132.754 41.776 132.826 42.144 132.97 42.448C133.13 42.752 133.37 42.984 133.69 43.144C134.026 43.304 134.45 43.384 134.962 43.384C135.074 43.384 135.202 43.376 135.346 43.36C135.506 43.344 135.658 43.328 135.802 43.312V46C135.578 46.032 135.322 46.064 135.034 46.096C134.746 46.128 134.482 46.144 134.242 46.144ZM144.038 46.288C142.694 46.288 141.518 45.984 140.51 45.376C139.502 44.768 138.718 43.944 138.158 42.904C137.598 41.864 137.318 40.712 137.318 39.448C137.318 38.136 137.598 36.976 138.158 35.968C138.734 34.944 139.51 34.136 140.486 33.544C141.478 32.952 142.582 32.656 143.799 32.656C144.823 32.656 145.719 32.824 146.487 33.16C147.271 33.496 147.935 33.96 148.478 34.552C149.023 35.144 149.439 35.824 149.727 36.592C150.015 37.344 150.158 38.16 150.158 39.04C150.158 39.264 150.142 39.496 150.111 39.736C150.095 39.976 150.055 40.184 149.991 40.36H139.91V37.96H148.215L146.727 39.088C146.871 38.352 146.831 37.696 146.607 37.12C146.399 36.544 146.047 36.088 145.551 35.752C145.071 35.416 144.487 35.248 143.799 35.248C143.142 35.248 142.558 35.416 142.047 35.752C141.535 36.072 141.142 36.552 140.87 37.192C140.614 37.816 140.518 38.576 140.582 39.472C140.518 40.272 140.622 40.984 140.894 41.608C141.183 42.216 141.599 42.688 142.142 43.024C142.702 43.36 143.342 43.528 144.063 43.528C144.783 43.528 145.391 43.376 145.887 43.072C146.399 42.768 146.799 42.36 147.086 41.848L149.631 43.096C149.375 43.72 148.975 44.272 148.431 44.752C147.887 45.232 147.239 45.608 146.487 45.88C145.751 46.152 144.935 46.288 144.038 46.288ZM159.759 46V31H155.127V28.12H167.607V31H163.047V46H159.759ZM173.6 46.288C172.256 46.288 171.08 45.984 170.072 45.376C169.064 44.768 168.28 43.944 167.72 42.904C167.16 41.864 166.88 40.712 166.88 39.448C166.88 38.136 167.16 36.976 167.72 35.968C168.296 34.944 169.072 34.136 170.048 33.544C171.04 32.952 172.144 32.656 173.36 32.656C174.384 32.656 175.28 32.824 176.048 33.16C176.832 33.496 177.496 33.96 178.04 34.552C178.584 35.144 179 35.824 179.288 36.592C179.576 37.344 179.72 38.16 179.72 39.04C179.72 39.264 179.704 39.496 179.672 39.736C179.656 39.976 179.616 40.184 179.552 40.36H169.472V37.96H177.776L176.288 39.088C176.432 38.352 176.392 37.696 176.168 37.12C175.96 36.544 175.608 36.088 175.112 35.752C174.632 35.416 174.048 35.248 173.36 35.248C172.704 35.248 172.12 35.416 171.608 35.752C171.096 36.072 170.704 36.552 170.432 37.192C170.176 37.816 170.08 38.576 170.144 39.472C170.08 40.272 170.184 40.984 170.456 41.608C170.744 42.216 171.16 42.688 171.704 43.024C172.264 43.36 172.904 43.528 173.624 43.528C174.344 43.528 174.952 43.376 175.448 43.072C175.96 42.768 176.36 42.36 176.648 41.848L179.192 43.096C178.936 43.72 178.536 44.272 177.992 44.752C177.448 45.232 176.8 45.608 176.048 45.88C175.312 46.152 174.496 46.288 173.6 46.288ZM185.776 46.288C184.864 46.288 184.072 46.136 183.4 45.832C182.728 45.528 182.208 45.096 181.84 44.536C181.472 43.96 181.288 43.296 181.288 42.544C181.288 41.824 181.448 41.184 181.768 40.624C182.088 40.048 182.584 39.568 183.256 39.184C183.928 38.8 184.776 38.528 185.8 38.368L190.072 37.672V40.072L186.4 40.696C185.776 40.808 185.312 41.008 185.008 41.296C184.704 41.584 184.552 41.96 184.552 42.424C184.552 42.872 184.72 43.232 185.056 43.504C185.408 43.76 185.84 43.888 186.352 43.888C187.008 43.888 187.584 43.752 188.08 43.48C188.592 43.192 188.984 42.8 189.256 42.304C189.544 41.808 189.688 41.264 189.688 40.672V37.312C189.688 36.752 189.464 36.288 189.016 35.92C188.584 35.536 188.008 35.344 187.288 35.344C186.616 35.344 186.016 35.528 185.488 35.896C184.976 36.248 184.6 36.72 184.36 37.312L181.792 36.064C182.048 35.376 182.448 34.784 182.992 34.288C183.552 33.776 184.208 33.376 184.96 33.088C185.712 32.8 186.528 32.656 187.408 32.656C188.48 32.656 189.424 32.856 190.24 33.256C191.056 33.64 191.688 34.184 192.136 34.888C192.6 35.576 192.832 36.384 192.832 37.312V46H189.856V43.768L190.528 43.72C190.192 44.28 189.792 44.752 189.328 45.136C188.864 45.504 188.336 45.792 187.744 46C187.152 46.192 186.496 46.288 185.776 46.288ZM195.498 46V32.944H198.45V35.968L198.114 35.464C198.354 34.52 198.834 33.816 199.554 33.352C200.274 32.888 201.122 32.656 202.098 32.656C203.17 32.656 204.114 32.936 204.93 33.496C205.746 34.056 206.274 34.792 206.514 35.704L205.626 35.776C206.026 34.736 206.626 33.96 207.426 33.448C208.226 32.92 209.146 32.656 210.186 32.656C211.114 32.656 211.938 32.864 212.658 33.28C213.394 33.696 213.97 34.28 214.386 35.032C214.802 35.768 215.01 36.624 215.01 37.6V46H211.866V38.344C211.866 37.768 211.762 37.272 211.554 36.856C211.346 36.44 211.058 36.12 210.69 35.896C210.322 35.656 209.874 35.536 209.346 35.536C208.85 35.536 208.41 35.656 208.026 35.896C207.642 36.12 207.346 36.44 207.138 36.856C206.93 37.272 206.826 37.768 206.826 38.344V46H203.682V38.344C203.682 37.768 203.578 37.272 203.37 36.856C203.162 36.44 202.866 36.12 202.482 35.896C202.114 35.656 201.674 35.536 201.162 35.536C200.666 35.536 200.226 35.656 199.842 35.896C199.458 36.12 199.162 36.44 198.954 36.856C198.746 37.272 198.642 37.768 198.642 38.344V46H195.498ZM222.398 46.288C221.006 46.288 219.79 45.96 218.75 45.304C217.726 44.632 217.022 43.728 216.638 42.592L218.99 41.464C219.326 42.2 219.79 42.776 220.382 43.192C220.99 43.608 221.662 43.816 222.398 43.816C222.974 43.816 223.43 43.688 223.766 43.432C224.102 43.176 224.27 42.84 224.27 42.424C224.27 42.168 224.198 41.96 224.054 41.8C223.926 41.624 223.742 41.48 223.502 41.368C223.278 41.24 223.03 41.136 222.758 41.056L220.622 40.456C219.518 40.136 218.678 39.648 218.102 38.992C217.542 38.336 217.262 37.56 217.262 36.664C217.262 35.864 217.462 35.168 217.862 34.576C218.278 33.968 218.846 33.496 219.566 33.16C220.302 32.824 221.142 32.656 222.086 32.656C223.318 32.656 224.406 32.952 225.35 33.544C226.294 34.136 226.966 34.968 227.366 36.04L224.966 37.168C224.742 36.576 224.366 36.104 223.838 35.752C223.31 35.4 222.718 35.224 222.062 35.224C221.534 35.224 221.118 35.344 220.814 35.584C220.51 35.824 220.358 36.136 220.358 36.52C220.358 36.76 220.422 36.968 220.55 37.144C220.678 37.32 220.854 37.464 221.078 37.576C221.318 37.688 221.59 37.792 221.894 37.888L223.982 38.512C225.054 38.832 225.878 39.312 226.454 39.952C227.046 40.592 227.342 41.376 227.342 42.304C227.342 43.088 227.134 43.784 226.718 44.392C226.302 44.984 225.726 45.448 224.99 45.784C224.254 46.12 223.39 46.288 222.398 46.288Z" fill="white"/>
<path d="M1284 29V43M1284 43L1291 36M1284 43L1277 36" stroke="white" stroke-width="2" stroke-linecap="round" stroke-linejoin="round"/>
<defs>
<clipPath id="clip0_2012_2762">
<rect width="32" height="32" fill="white" transform="translate(16 20)"/>
</clipPath>
</defs>
</svg>
