<svg width="1320" height="62" viewBox="0 0 1320 62" fill="none" xmlns="http://www.w3.org/2000/svg">
<rect width="1320" height="62" rx="8" fill="#1482FF"/>
<path d="M42.5225 41.288C41.2425 41.288 40.0585 41.056 38.9705 40.592C37.8985 40.128 36.9545 39.48 36.1385 38.648C35.3385 37.816 34.7145 36.84 34.2665 35.72C33.8185 34.6 33.5945 33.376 33.5945 32.048C33.5945 30.72 33.8105 29.496 34.2425 28.376C34.6905 27.24 35.3145 26.264 36.1145 25.448C36.9305 24.616 37.8825 23.976 38.9705 23.528C40.0585 23.064 41.2425 22.832 42.5225 22.832C43.8025 22.832 44.9465 23.048 45.9545 23.48C46.9785 23.912 47.8425 24.488 48.5465 25.208C49.2505 25.912 49.7545 26.688 50.0585 27.536L47.1305 28.904C46.7945 28.008 46.2265 27.272 45.4265 26.696C44.6265 26.104 43.6585 25.808 42.5225 25.808C41.4025 25.808 40.4105 26.072 39.5465 26.6C38.6985 27.128 38.0345 27.856 37.5545 28.784C37.0905 29.712 36.8585 30.8 36.8585 32.048C36.8585 33.296 37.0905 34.392 37.5545 35.336C38.0345 36.264 38.6985 36.992 39.5465 37.52C40.4105 38.048 41.4025 38.312 42.5225 38.312C43.6585 38.312 44.6265 38.024 45.4265 37.448C46.2265 36.856 46.7945 36.112 47.1305 35.216L50.0585 36.584C49.7545 37.432 49.2505 38.216 48.5465 38.936C47.8425 39.64 46.9785 40.208 45.9545 40.64C44.9465 41.072 43.8025 41.288 42.5225 41.288ZM58.5941 41.288C57.3141 41.288 56.1461 40.992 55.0901 40.4C54.0501 39.808 53.2181 39 52.5941 37.976C51.9861 36.952 51.6821 35.784 51.6821 34.472C51.6821 33.16 51.9861 31.992 52.5941 30.968C53.2181 29.944 54.0501 29.136 55.0901 28.544C56.1301 27.952 57.2981 27.656 58.5941 27.656C59.8741 27.656 61.0341 27.952 62.0741 28.544C63.1141 29.136 63.9381 29.944 64.5461 30.968C65.1701 31.976 65.4821 33.144 65.4821 34.472C65.4821 35.784 65.1701 36.952 64.5461 37.976C63.9221 39 63.0901 39.808 62.0501 40.4C61.0101 40.992 59.8581 41.288 58.5941 41.288ZM58.5941 38.408C59.2981 38.408 59.9141 38.24 60.4421 37.904C60.9861 37.568 61.4101 37.104 61.7141 36.512C62.0341 35.904 62.1941 35.224 62.1941 34.472C62.1941 33.704 62.0341 33.032 61.7141 32.456C61.4101 31.864 60.9861 31.4 60.4421 31.064C59.9141 30.712 59.2981 30.536 58.5941 30.536C57.8741 30.536 57.2421 30.712 56.6981 31.064C56.1541 31.4 55.7221 31.864 55.4021 32.456C55.0981 33.032 54.9461 33.704 54.9461 34.472C54.9461 35.224 55.0981 35.904 55.4021 36.512C55.7221 37.104 56.1541 37.568 56.6981 37.904C57.2421 38.24 57.8741 38.408 58.5941 38.408ZM67.8663 41V27.944H70.8183V30.512L70.5783 30.056C70.8823 29.272 71.3783 28.68 72.0663 28.28C72.7703 27.864 73.5863 27.656 74.5143 27.656C75.4743 27.656 76.3223 27.864 77.0583 28.28C77.8103 28.696 78.3943 29.28 78.8103 30.032C79.2263 30.768 79.4343 31.624 79.4343 32.6V41H76.2903V33.344C76.2903 32.768 76.1783 32.272 75.9543 31.856C75.7303 31.44 75.4183 31.12 75.0183 30.896C74.6343 30.656 74.1783 30.536 73.6503 30.536C73.1383 30.536 72.6823 30.656 72.2823 30.896C71.8823 31.12 71.5703 31.44 71.3463 31.856C71.1223 32.272 71.0103 32.768 71.0103 33.344V41H67.8663ZM87.0609 41.288C85.6689 41.288 84.4529 40.96 83.4129 40.304C82.3889 39.632 81.6849 38.728 81.3009 37.592L83.6529 36.464C83.9889 37.2 84.4529 37.776 85.0449 38.192C85.6529 38.608 86.3249 38.816 87.0609 38.816C87.6369 38.816 88.0929 38.688 88.4289 38.432C88.7649 38.176 88.9329 37.84 88.9329 37.424C88.9329 37.168 88.8609 36.96 88.7169 36.8C88.5889 36.624 88.4049 36.48 88.1649 36.368C87.9409 36.24 87.6929 36.136 87.4209 36.056L85.2849 35.456C84.1809 35.136 83.3409 34.648 82.7649 33.992C82.2049 33.336 81.9249 32.56 81.9249 31.664C81.9249 30.864 82.1249 30.168 82.5249 29.576C82.9409 28.968 83.5089 28.496 84.2289 28.16C84.9649 27.824 85.8049 27.656 86.7489 27.656C87.9809 27.656 89.0689 27.952 90.0129 28.544C90.9569 29.136 91.6289 29.968 92.0289 31.04L89.6289 32.168C89.4049 31.576 89.0289 31.104 88.5009 30.752C87.9729 30.4 87.3809 30.224 86.7249 30.224C86.1969 30.224 85.7809 30.344 85.4769 30.584C85.1729 30.824 85.0209 31.136 85.0209 31.52C85.0209 31.76 85.0849 31.968 85.2129 32.144C85.3409 32.32 85.5169 32.464 85.7409 32.576C85.9809 32.688 86.2529 32.792 86.5569 32.888L88.6449 33.512C89.7169 33.832 90.5409 34.312 91.1169 34.952C91.7089 35.592 92.0049 36.376 92.0049 37.304C92.0049 38.088 91.7969 38.784 91.3809 39.392C90.9649 39.984 90.3889 40.448 89.6529 40.784C88.9169 41.12 88.0529 41.288 87.0609 41.288ZM100.373 41.144C98.901 41.144 97.757 40.744 96.941 39.944C96.141 39.128 95.741 37.984 95.741 36.512V30.752H93.485V27.944H93.725C94.365 27.944 94.861 27.776 95.213 27.44C95.565 27.104 95.741 26.616 95.741 25.976V24.968H98.885V27.944H101.885V30.752H98.885V36.344C98.885 36.776 98.957 37.144 99.101 37.448C99.261 37.752 99.501 37.984 99.821 38.144C100.157 38.304 100.581 38.384 101.093 38.384C101.205 38.384 101.333 38.376 101.477 38.36C101.637 38.344 101.789 38.328 101.933 38.312V41C101.709 41.032 101.453 41.064 101.165 41.096C100.877 41.128 100.613 41.144 100.373 41.144ZM104.335 41V27.944H107.287V30.848L107.047 30.416C107.351 29.44 107.823 28.76 108.463 28.376C109.119 27.992 109.903 27.8 110.815 27.8H111.583V30.584H110.455C109.559 30.584 108.839 30.864 108.295 31.424C107.751 31.968 107.479 32.736 107.479 33.728V41H104.335ZM117.968 41.288C116.96 41.288 116.08 41.064 115.328 40.616C114.592 40.168 114.024 39.544 113.624 38.744C113.24 37.944 113.048 37.008 113.048 35.936V27.944H116.192V35.672C116.192 36.216 116.296 36.696 116.504 37.112C116.728 37.512 117.04 37.832 117.44 38.072C117.856 38.296 118.32 38.408 118.832 38.408C119.344 38.408 119.8 38.296 120.2 38.072C120.6 37.832 120.912 37.504 121.136 37.088C121.36 36.672 121.472 36.176 121.472 35.6V27.944H124.616V41H121.64V38.432L121.904 38.888C121.6 39.688 121.096 40.288 120.392 40.688C119.704 41.088 118.896 41.288 117.968 41.288ZM133.826 41.288C132.53 41.288 131.362 40.992 130.322 40.4C129.298 39.792 128.49 38.976 127.898 37.952C127.306 36.912 127.01 35.744 127.01 34.448C127.01 33.152 127.306 31.992 127.898 30.968C128.49 29.944 129.298 29.136 130.322 28.544C131.362 27.952 132.53 27.656 133.826 27.656C134.754 27.656 135.618 27.824 136.418 28.16C137.218 28.48 137.906 28.928 138.482 29.504C139.074 30.064 139.498 30.736 139.754 31.52L136.994 32.72C136.754 32.064 136.346 31.536 135.77 31.136C135.21 30.736 134.562 30.536 133.826 30.536C133.138 30.536 132.522 30.704 131.978 31.04C131.45 31.376 131.034 31.84 130.73 32.432C130.426 33.024 130.274 33.704 130.274 34.472C130.274 35.24 130.426 35.92 130.73 36.512C131.034 37.104 131.45 37.568 131.978 37.904C132.522 38.24 133.138 38.408 133.826 38.408C134.578 38.408 135.234 38.208 135.794 37.808C136.354 37.408 136.754 36.872 136.994 36.2L139.754 37.448C139.498 38.184 139.082 38.848 138.506 39.44C137.93 40.016 137.242 40.472 136.442 40.808C135.642 41.128 134.77 41.288 133.826 41.288ZM148.092 41.144C146.62 41.144 145.476 40.744 144.66 39.944C143.86 39.128 143.46 37.984 143.46 36.512V30.752H141.204V27.944H141.444C142.084 27.944 142.58 27.776 142.932 27.44C143.284 27.104 143.46 26.616 143.46 25.976V24.968H146.604V27.944H149.604V30.752H146.604V36.344C146.604 36.776 146.676 37.144 146.82 37.448C146.98 37.752 147.22 37.984 147.54 38.144C147.876 38.304 148.3 38.384 148.812 38.384C148.924 38.384 149.052 38.376 149.196 38.36C149.356 38.344 149.508 38.328 149.652 38.312V41C149.428 41.032 149.172 41.064 148.884 41.096C148.596 41.128 148.332 41.144 148.092 41.144ZM152.054 41V27.944H155.198V41H152.054ZM152.054 26.48V23.12H155.198V26.48H152.054ZM164.485 41.288C163.205 41.288 162.037 40.992 160.981 40.4C159.941 39.808 159.109 39 158.485 37.976C157.877 36.952 157.573 35.784 157.573 34.472C157.573 33.16 157.877 31.992 158.485 30.968C159.109 29.944 159.941 29.136 160.981 28.544C162.021 27.952 163.189 27.656 164.485 27.656C165.765 27.656 166.925 27.952 167.965 28.544C169.005 29.136 169.829 29.944 170.437 30.968C171.061 31.976 171.373 33.144 171.373 34.472C171.373 35.784 171.061 36.952 170.437 37.976C169.813 39 168.981 39.808 167.941 40.4C166.901 40.992 165.749 41.288 164.485 41.288ZM164.485 38.408C165.189 38.408 165.805 38.24 166.333 37.904C166.877 37.568 167.301 37.104 167.605 36.512C167.925 35.904 168.085 35.224 168.085 34.472C168.085 33.704 167.925 33.032 167.605 32.456C167.301 31.864 166.877 31.4 166.333 31.064C165.805 30.712 165.189 30.536 164.485 30.536C163.765 30.536 163.133 30.712 162.589 31.064C162.045 31.4 161.613 31.864 161.293 32.456C160.989 33.032 160.837 33.704 160.837 34.472C160.837 35.224 160.989 35.904 161.293 36.512C161.613 37.104 162.045 37.568 162.589 37.904C163.133 38.24 163.765 38.408 164.485 38.408ZM173.757 41V27.944H176.709V30.512L176.469 30.056C176.773 29.272 177.269 28.68 177.957 28.28C178.661 27.864 179.477 27.656 180.405 27.656C181.365 27.656 182.213 27.864 182.949 28.28C183.701 28.696 184.285 29.28 184.701 30.032C185.117 30.768 185.325 31.624 185.325 32.6V41H182.181V33.344C182.181 32.768 182.069 32.272 181.845 31.856C181.621 31.44 181.309 31.12 180.909 30.896C180.525 30.656 180.069 30.536 179.541 30.536C179.029 30.536 178.573 30.656 178.173 30.896C177.773 31.12 177.461 31.44 177.237 31.856C177.013 32.272 176.901 32.768 176.901 33.344V41H173.757ZM192.513 41V23.12H200.049C201.233 23.12 202.241 23.328 203.073 23.744C203.921 24.144 204.569 24.72 205.017 25.472C205.481 26.208 205.713 27.104 205.713 28.16C205.713 28.976 205.489 29.744 205.041 30.464C204.609 31.168 203.913 31.752 202.953 32.216V30.704C203.833 31.04 204.529 31.456 205.041 31.952C205.553 32.448 205.913 33 206.121 33.608C206.329 34.216 206.433 34.856 206.433 35.528C206.433 37.24 205.865 38.584 204.729 39.56C203.609 40.52 202.049 41 200.049 41H192.513ZM195.777 38.12H200.385C201.233 38.12 201.905 37.888 202.401 37.424C202.913 36.944 203.169 36.312 203.169 35.528C203.169 34.744 202.913 34.112 202.401 33.632C201.905 33.152 201.233 32.912 200.385 32.912H195.777V38.12ZM195.777 30.056H200.217C200.889 30.056 201.425 29.864 201.825 29.48C202.225 29.08 202.425 28.568 202.425 27.944C202.425 27.32 202.225 26.824 201.825 26.456C201.425 26.088 200.889 25.904 200.217 25.904H195.777V30.056ZM212.803 41.288C211.891 41.288 211.099 41.136 210.427 40.832C209.755 40.528 209.235 40.096 208.867 39.536C208.499 38.96 208.315 38.296 208.315 37.544C208.315 36.824 208.475 36.184 208.795 35.624C209.115 35.048 209.611 34.568 210.283 34.184C210.955 33.8 211.803 33.528 212.827 33.368L217.099 32.672V35.072L213.427 35.696C212.803 35.808 212.339 36.008 212.035 36.296C211.731 36.584 211.579 36.96 211.579 37.424C211.579 37.872 211.747 38.232 212.083 38.504C212.435 38.76 212.867 38.888 213.379 38.888C214.035 38.888 214.611 38.752 215.107 38.48C215.619 38.192 216.011 37.8 216.283 37.304C216.571 36.808 216.715 36.264 216.715 35.672V32.312C216.715 31.752 216.491 31.288 216.043 30.92C215.611 30.536 215.035 30.344 214.315 30.344C213.643 30.344 213.043 30.528 212.515 30.896C212.003 31.248 211.627 31.72 211.387 32.312L208.819 31.064C209.075 30.376 209.475 29.784 210.019 29.288C210.579 28.776 211.235 28.376 211.987 28.088C212.739 27.8 213.555 27.656 214.435 27.656C215.507 27.656 216.451 27.856 217.267 28.256C218.083 28.64 218.715 29.184 219.163 29.888C219.627 30.576 219.859 31.384 219.859 32.312V41H216.883V38.768L217.555 38.72C217.219 39.28 216.819 39.752 216.355 40.136C215.891 40.504 215.363 40.792 214.771 41C214.179 41.192 213.523 41.288 212.803 41.288ZM227.733 41.288C226.341 41.288 225.125 40.96 224.085 40.304C223.061 39.632 222.357 38.728 221.973 37.592L224.325 36.464C224.661 37.2 225.125 37.776 225.717 38.192C226.325 38.608 226.997 38.816 227.733 38.816C228.309 38.816 228.765 38.688 229.101 38.432C229.437 38.176 229.605 37.84 229.605 37.424C229.605 37.168 229.533 36.96 229.389 36.8C229.261 36.624 229.077 36.48 228.837 36.368C228.613 36.24 228.365 36.136 228.093 36.056L225.957 35.456C224.853 35.136 224.013 34.648 223.437 33.992C222.877 33.336 222.597 32.56 222.597 31.664C222.597 30.864 222.797 30.168 223.197 29.576C223.613 28.968 224.181 28.496 224.901 28.16C225.637 27.824 226.477 27.656 227.421 27.656C228.653 27.656 229.741 27.952 230.685 28.544C231.629 29.136 232.301 29.968 232.701 31.04L230.301 32.168C230.077 31.576 229.701 31.104 229.173 30.752C228.645 30.4 228.053 30.224 227.397 30.224C226.869 30.224 226.453 30.344 226.149 30.584C225.845 30.824 225.693 31.136 225.693 31.52C225.693 31.76 225.757 31.968 225.885 32.144C226.013 32.32 226.189 32.464 226.413 32.576C226.653 32.688 226.925 32.792 227.229 32.888L229.317 33.512C230.389 33.832 231.213 34.312 231.789 34.952C232.381 35.592 232.677 36.376 232.677 37.304C232.677 38.088 232.469 38.784 232.053 39.392C231.637 39.984 231.061 40.448 230.325 40.784C229.589 41.12 228.725 41.288 227.733 41.288ZM235.093 41V27.944H238.237V41H235.093ZM235.093 26.48V23.12H238.237V26.48H235.093ZM247.428 41.288C246.132 41.288 244.964 40.992 243.924 40.4C242.9 39.792 242.092 38.976 241.5 37.952C240.908 36.912 240.612 35.744 240.612 34.448C240.612 33.152 240.908 31.992 241.5 30.968C242.092 29.944 242.9 29.136 243.924 28.544C244.964 27.952 246.132 27.656 247.428 27.656C248.356 27.656 249.22 27.824 250.02 28.16C250.82 28.48 251.508 28.928 252.084 29.504C252.676 30.064 253.1 30.736 253.356 31.52L250.596 32.72C250.356 32.064 249.948 31.536 249.372 31.136C248.812 30.736 248.164 30.536 247.428 30.536C246.74 30.536 246.124 30.704 245.58 31.04C245.052 31.376 244.636 31.84 244.332 32.432C244.028 33.024 243.876 33.704 243.876 34.472C243.876 35.24 244.028 35.92 244.332 36.512C244.636 37.104 245.052 37.568 245.58 37.904C246.124 38.24 246.74 38.408 247.428 38.408C248.18 38.408 248.836 38.208 249.396 37.808C249.956 37.408 250.356 36.872 250.596 36.2L253.356 37.448C253.1 38.184 252.684 38.848 252.108 39.44C251.532 40.016 250.844 40.472 250.044 40.808C249.244 41.128 248.372 41.288 247.428 41.288ZM260.709 41.288C259.317 41.288 258.101 40.96 257.061 40.304C256.037 39.632 255.333 38.728 254.949 37.592L257.301 36.464C257.637 37.2 258.101 37.776 258.693 38.192C259.301 38.608 259.973 38.816 260.709 38.816C261.285 38.816 261.741 38.688 262.077 38.432C262.413 38.176 262.581 37.84 262.581 37.424C262.581 37.168 262.509 36.96 262.365 36.8C262.237 36.624 262.053 36.48 261.813 36.368C261.589 36.24 261.341 36.136 261.069 36.056L258.933 35.456C257.829 35.136 256.989 34.648 256.413 33.992C255.853 33.336 255.573 32.56 255.573 31.664C255.573 30.864 255.773 30.168 256.173 29.576C256.589 28.968 257.157 28.496 257.877 28.16C258.613 27.824 259.453 27.656 260.397 27.656C261.629 27.656 262.717 27.952 263.661 28.544C264.605 29.136 265.277 29.968 265.677 31.04L263.277 32.168C263.053 31.576 262.677 31.104 262.149 30.752C261.621 30.4 261.029 30.224 260.373 30.224C259.845 30.224 259.429 30.344 259.125 30.584C258.821 30.824 258.669 31.136 258.669 31.52C258.669 31.76 258.733 31.968 258.861 32.144C258.989 32.32 259.165 32.464 259.389 32.576C259.629 32.688 259.901 32.792 260.205 32.888L262.293 33.512C263.365 33.832 264.189 34.312 264.765 34.952C265.357 35.592 265.653 36.376 265.653 37.304C265.653 38.088 265.445 38.784 265.029 39.392C264.613 39.984 264.037 40.448 263.301 40.784C262.565 41.12 261.701 41.288 260.709 41.288Z" fill="white"/>
<path d="M1276 24V38M1276 38L1283 31M1276 38L1269 31" stroke="white" stroke-width="2" stroke-linecap="round" stroke-linejoin="round"/>
</svg>
