<svg width="1320" height="62" viewBox="0 0 1320 62" fill="none" xmlns="http://www.w3.org/2000/svg">
<rect width="1320" height="62" rx="8" fill="#1482FF"/>
<path d="M40.2409 41.288C39.1049 41.288 38.0489 41.08 37.0729 40.664C36.1129 40.248 35.2809 39.672 34.5769 38.936C33.8889 38.184 33.3849 37.312 33.0649 36.32L35.7769 35.144C36.2089 36.168 36.8329 36.976 37.6489 37.568C38.4649 38.144 39.3849 38.432 40.4089 38.432C40.9849 38.432 41.4809 38.344 41.8969 38.168C42.3289 37.976 42.6569 37.72 42.8809 37.4C43.1209 37.08 43.2409 36.696 43.2409 36.248C43.2409 35.72 43.0809 35.288 42.7609 34.952C42.4569 34.6 41.9929 34.328 41.3689 34.136L37.9369 33.032C36.5449 32.6 35.4969 31.952 34.7929 31.088C34.0889 30.224 33.7369 29.208 33.7369 28.04C33.7369 27.016 33.9849 26.112 34.4809 25.328C34.9929 24.544 35.6969 23.936 36.5929 23.504C37.5049 23.056 38.5449 22.832 39.7129 22.832C40.7849 22.832 41.7689 23.024 42.6649 23.408C43.5609 23.776 44.3289 24.296 44.9689 24.968C45.6249 25.624 46.1129 26.4 46.4329 27.296L43.7449 28.496C43.3929 27.6 42.8649 26.912 42.1609 26.432C41.4569 25.936 40.6409 25.688 39.7129 25.688C39.1689 25.688 38.6889 25.784 38.2729 25.976C37.8569 26.152 37.5289 26.408 37.2889 26.744C37.0649 27.064 36.9529 27.448 36.9529 27.896C36.9529 28.392 37.1129 28.832 37.4329 29.216C37.7529 29.584 38.2409 29.872 38.8969 30.08L42.1849 31.112C43.6089 31.576 44.6729 32.216 45.3769 33.032C46.0969 33.848 46.4569 34.856 46.4569 36.056C46.4569 37.08 46.1929 37.984 45.6649 38.768C45.1369 39.552 44.4089 40.168 43.4809 40.616C42.5529 41.064 41.4729 41.288 40.2409 41.288ZM55.42 41.288C54.124 41.288 52.956 40.992 51.916 40.4C50.892 39.792 50.084 38.976 49.492 37.952C48.9 36.912 48.604 35.744 48.604 34.448C48.604 33.152 48.9 31.992 49.492 30.968C50.084 29.944 50.892 29.136 51.916 28.544C52.956 27.952 54.124 27.656 55.42 27.656C56.348 27.656 57.212 27.824 58.012 28.16C58.812 28.48 59.5 28.928 60.076 29.504C60.668 30.064 61.092 30.736 61.348 31.52L58.588 32.72C58.348 32.064 57.94 31.536 57.364 31.136C56.804 30.736 56.156 30.536 55.42 30.536C54.732 30.536 54.116 30.704 53.572 31.04C53.044 31.376 52.628 31.84 52.324 32.432C52.02 33.024 51.868 33.704 51.868 34.472C51.868 35.24 52.02 35.92 52.324 36.512C52.628 37.104 53.044 37.568 53.572 37.904C54.116 38.24 54.732 38.408 55.42 38.408C56.172 38.408 56.828 38.208 57.388 37.808C57.948 37.408 58.348 36.872 58.588 36.2L61.348 37.448C61.092 38.184 60.676 38.848 60.1 39.44C59.524 40.016 58.836 40.472 58.036 40.808C57.236 41.128 56.364 41.288 55.42 41.288ZM63.7335 41V27.944H66.8775V41H63.7335ZM63.7335 26.48V23.12H66.8775V26.48H63.7335ZM75.9724 41.288C74.6284 41.288 73.4524 40.984 72.4444 40.376C71.4364 39.768 70.6524 38.944 70.0924 37.904C69.5324 36.864 69.2524 35.712 69.2524 34.448C69.2524 33.136 69.5324 31.976 70.0924 30.968C70.6684 29.944 71.4444 29.136 72.4204 28.544C73.4124 27.952 74.5164 27.656 75.7324 27.656C76.7564 27.656 77.6524 27.824 78.4204 28.16C79.2044 28.496 79.8684 28.96 80.4124 29.552C80.9564 30.144 81.3724 30.824 81.6604 31.592C81.9484 32.344 82.0924 33.16 82.0924 34.04C82.0924 34.264 82.0764 34.496 82.0444 34.736C82.0284 34.976 81.9884 35.184 81.9244 35.36H71.8444V32.96H80.1484L78.6604 34.088C78.8044 33.352 78.7644 32.696 78.5404 32.12C78.3324 31.544 77.9804 31.088 77.4844 30.752C77.0044 30.416 76.4204 30.248 75.7324 30.248C75.0764 30.248 74.4924 30.416 73.9804 30.752C73.4684 31.072 73.0764 31.552 72.8044 32.192C72.5484 32.816 72.4524 33.576 72.5164 34.472C72.4524 35.272 72.5564 35.984 72.8284 36.608C73.1164 37.216 73.5324 37.688 74.0764 38.024C74.6364 38.36 75.2764 38.528 75.9964 38.528C76.7164 38.528 77.3244 38.376 77.8204 38.072C78.3324 37.768 78.7324 37.36 79.0204 36.848L81.5644 38.096C81.3084 38.72 80.9084 39.272 80.3644 39.752C79.8204 40.232 79.1724 40.608 78.4204 40.88C77.6844 41.152 76.8684 41.288 75.9724 41.288ZM84.4757 41V27.944H87.4277V30.512L87.1877 30.056C87.4917 29.272 87.9877 28.68 88.6757 28.28C89.3797 27.864 90.1957 27.656 91.1237 27.656C92.0837 27.656 92.9317 27.864 93.6677 28.28C94.4197 28.696 95.0037 29.28 95.4197 30.032C95.8357 30.768 96.0437 31.624 96.0437 32.6V41H92.8997V33.344C92.8997 32.768 92.7877 32.272 92.5637 31.856C92.3397 31.44 92.0277 31.12 91.6277 30.896C91.2437 30.656 90.7877 30.536 90.2597 30.536C89.7477 30.536 89.2917 30.656 88.8917 30.896C88.4917 31.12 88.1797 31.44 87.9557 31.856C87.7317 32.272 87.6197 32.768 87.6197 33.344V41H84.4757ZM104.99 41.288C103.694 41.288 102.526 40.992 101.486 40.4C100.462 39.792 99.6543 38.976 99.0623 37.952C98.4703 36.912 98.1743 35.744 98.1743 34.448C98.1743 33.152 98.4703 31.992 99.0623 30.968C99.6543 29.944 100.462 29.136 101.486 28.544C102.526 27.952 103.694 27.656 104.99 27.656C105.918 27.656 106.782 27.824 107.582 28.16C108.382 28.48 109.07 28.928 109.646 29.504C110.238 30.064 110.662 30.736 110.918 31.52L108.158 32.72C107.918 32.064 107.51 31.536 106.934 31.136C106.374 30.736 105.726 30.536 104.99 30.536C104.302 30.536 103.686 30.704 103.142 31.04C102.614 31.376 102.198 31.84 101.894 32.432C101.59 33.024 101.438 33.704 101.438 34.472C101.438 35.24 101.59 35.92 101.894 36.512C102.198 37.104 102.614 37.568 103.142 37.904C103.686 38.24 104.302 38.408 104.99 38.408C105.742 38.408 106.398 38.208 106.958 37.808C107.518 37.408 107.918 36.872 108.158 36.2L110.918 37.448C110.662 38.184 110.246 38.848 109.67 39.44C109.094 40.016 108.406 40.472 107.606 40.808C106.806 41.128 105.934 41.288 104.99 41.288ZM119.496 41.288C118.152 41.288 116.976 40.984 115.968 40.376C114.96 39.768 114.176 38.944 113.616 37.904C113.056 36.864 112.776 35.712 112.776 34.448C112.776 33.136 113.056 31.976 113.616 30.968C114.192 29.944 114.968 29.136 115.944 28.544C116.936 27.952 118.04 27.656 119.256 27.656C120.28 27.656 121.176 27.824 121.944 28.16C122.728 28.496 123.392 28.96 123.936 29.552C124.48 30.144 124.896 30.824 125.184 31.592C125.472 32.344 125.616 33.16 125.616 34.04C125.616 34.264 125.6 34.496 125.568 34.736C125.552 34.976 125.512 35.184 125.448 35.36H115.368V32.96H123.672L122.184 34.088C122.328 33.352 122.288 32.696 122.064 32.12C121.856 31.544 121.504 31.088 121.008 30.752C120.528 30.416 119.944 30.248 119.256 30.248C118.6 30.248 118.016 30.416 117.504 30.752C116.992 31.072 116.6 31.552 116.328 32.192C116.072 32.816 115.976 33.576 116.04 34.472C115.976 35.272 116.08 35.984 116.352 36.608C116.64 37.216 117.056 37.688 117.6 38.024C118.16 38.36 118.8 38.528 119.52 38.528C120.24 38.528 120.848 38.376 121.344 38.072C121.856 37.768 122.256 37.36 122.544 36.848L125.088 38.096C124.832 38.72 124.432 39.272 123.888 39.752C123.344 40.232 122.696 40.608 121.944 40.88C121.208 41.152 120.392 41.288 119.496 41.288ZM138.649 41.288C137.369 41.288 136.201 40.992 135.145 40.4C134.105 39.808 133.273 39 132.649 37.976C132.041 36.952 131.737 35.784 131.737 34.472C131.737 33.16 132.041 31.992 132.649 30.968C133.273 29.944 134.105 29.136 135.145 28.544C136.185 27.952 137.353 27.656 138.649 27.656C139.929 27.656 141.089 27.952 142.129 28.544C143.169 29.136 143.993 29.944 144.601 30.968C145.225 31.976 145.537 33.144 145.537 34.472C145.537 35.784 145.225 36.952 144.601 37.976C143.977 39 143.145 39.808 142.105 40.4C141.065 40.992 139.913 41.288 138.649 41.288ZM138.649 38.408C139.353 38.408 139.969 38.24 140.497 37.904C141.041 37.568 141.465 37.104 141.769 36.512C142.089 35.904 142.249 35.224 142.249 34.472C142.249 33.704 142.089 33.032 141.769 32.456C141.465 31.864 141.041 31.4 140.497 31.064C139.969 30.712 139.353 30.536 138.649 30.536C137.929 30.536 137.297 30.712 136.753 31.064C136.209 31.4 135.777 31.864 135.457 32.456C135.153 33.032 135.001 33.704 135.001 34.472C135.001 35.224 135.153 35.904 135.457 36.512C135.777 37.104 136.209 37.568 136.753 37.904C137.297 38.24 137.929 38.408 138.649 38.408ZM149.152 41V30.752H146.848V27.944H149.152V27.512C149.152 26.52 149.352 25.68 149.752 24.992C150.168 24.288 150.744 23.752 151.48 23.384C152.216 23.016 153.088 22.832 154.096 22.832C154.288 22.832 154.496 22.848 154.72 22.88C154.96 22.896 155.16 22.92 155.32 22.952V25.664C155.16 25.632 155.008 25.616 154.864 25.616C154.736 25.6 154.616 25.592 154.504 25.592C153.8 25.592 153.256 25.752 152.872 26.072C152.488 26.376 152.296 26.856 152.296 27.512V27.944H155.2V30.752H152.296V41H149.152ZM170.319 41.288C169.039 41.288 167.855 41.056 166.767 40.592C165.695 40.128 164.751 39.48 163.935 38.648C163.135 37.816 162.511 36.84 162.063 35.72C161.615 34.6 161.391 33.376 161.391 32.048C161.391 30.72 161.607 29.496 162.039 28.376C162.487 27.24 163.111 26.264 163.911 25.448C164.727 24.616 165.679 23.976 166.767 23.528C167.855 23.064 169.039 22.832 170.319 22.832C171.599 22.832 172.743 23.048 173.751 23.48C174.775 23.912 175.639 24.488 176.343 25.208C177.047 25.912 177.551 26.688 177.855 27.536L174.927 28.904C174.591 28.008 174.023 27.272 173.223 26.696C172.423 26.104 171.455 25.808 170.319 25.808C169.199 25.808 168.207 26.072 167.343 26.6C166.495 27.128 165.831 27.856 165.351 28.784C164.887 29.712 164.655 30.8 164.655 32.048C164.655 33.296 164.887 34.392 165.351 35.336C165.831 36.264 166.495 36.992 167.343 37.52C168.207 38.048 169.199 38.312 170.319 38.312C171.455 38.312 172.423 38.024 173.223 37.448C174.023 36.856 174.591 36.112 174.927 35.216L177.855 36.584C177.551 37.432 177.047 38.216 176.343 38.936C175.639 39.64 174.775 40.208 173.751 40.64C172.743 41.072 171.599 41.288 170.319 41.288ZM186.391 41.288C185.111 41.288 183.943 40.992 182.887 40.4C181.847 39.808 181.015 39 180.391 37.976C179.783 36.952 179.479 35.784 179.479 34.472C179.479 33.16 179.783 31.992 180.391 30.968C181.015 29.944 181.847 29.136 182.887 28.544C183.927 27.952 185.095 27.656 186.391 27.656C187.671 27.656 188.831 27.952 189.871 28.544C190.911 29.136 191.735 29.944 192.343 30.968C192.967 31.976 193.279 33.144 193.279 34.472C193.279 35.784 192.967 36.952 192.343 37.976C191.719 39 190.887 39.808 189.847 40.4C188.807 40.992 187.655 41.288 186.391 41.288ZM186.391 38.408C187.095 38.408 187.711 38.24 188.239 37.904C188.783 37.568 189.207 37.104 189.511 36.512C189.831 35.904 189.991 35.224 189.991 34.472C189.991 33.704 189.831 33.032 189.511 32.456C189.207 31.864 188.783 31.4 188.239 31.064C187.711 30.712 187.095 30.536 186.391 30.536C185.671 30.536 185.039 30.712 184.495 31.064C183.951 31.4 183.519 31.864 183.199 32.456C182.895 33.032 182.743 33.704 182.743 34.472C182.743 35.224 182.895 35.904 183.199 36.512C183.519 37.104 183.951 37.568 184.495 37.904C185.039 38.24 185.671 38.408 186.391 38.408ZM195.663 41V27.944H198.615V30.512L198.375 30.056C198.679 29.272 199.175 28.68 199.863 28.28C200.567 27.864 201.383 27.656 202.311 27.656C203.271 27.656 204.119 27.864 204.855 28.28C205.607 28.696 206.191 29.28 206.607 30.032C207.023 30.768 207.231 31.624 207.231 32.6V41H204.087V33.344C204.087 32.768 203.975 32.272 203.751 31.856C203.527 31.44 203.215 31.12 202.815 30.896C202.431 30.656 201.975 30.536 201.447 30.536C200.935 30.536 200.479 30.656 200.079 30.896C199.679 31.12 199.367 31.44 199.143 31.856C198.919 32.272 198.807 32.768 198.807 33.344V41H195.663ZM214.858 41.288C213.466 41.288 212.25 40.96 211.21 40.304C210.186 39.632 209.482 38.728 209.098 37.592L211.45 36.464C211.786 37.2 212.25 37.776 212.842 38.192C213.45 38.608 214.122 38.816 214.858 38.816C215.434 38.816 215.89 38.688 216.226 38.432C216.562 38.176 216.73 37.84 216.73 37.424C216.73 37.168 216.658 36.96 216.514 36.8C216.386 36.624 216.202 36.48 215.962 36.368C215.738 36.24 215.49 36.136 215.218 36.056L213.082 35.456C211.978 35.136 211.138 34.648 210.562 33.992C210.002 33.336 209.722 32.56 209.722 31.664C209.722 30.864 209.922 30.168 210.322 29.576C210.738 28.968 211.306 28.496 212.026 28.16C212.762 27.824 213.602 27.656 214.546 27.656C215.778 27.656 216.866 27.952 217.81 28.544C218.754 29.136 219.426 29.968 219.826 31.04L217.426 32.168C217.202 31.576 216.826 31.104 216.298 30.752C215.77 30.4 215.178 30.224 214.522 30.224C213.994 30.224 213.578 30.344 213.274 30.584C212.97 30.824 212.818 31.136 212.818 31.52C212.818 31.76 212.882 31.968 213.01 32.144C213.138 32.32 213.314 32.464 213.538 32.576C213.778 32.688 214.05 32.792 214.354 32.888L216.442 33.512C217.514 33.832 218.338 34.312 218.914 34.952C219.506 35.592 219.802 36.376 219.802 37.304C219.802 38.088 219.594 38.784 219.178 39.392C218.762 39.984 218.186 40.448 217.45 40.784C216.714 41.12 215.85 41.288 214.858 41.288ZM228.17 41.144C226.698 41.144 225.554 40.744 224.738 39.944C223.938 39.128 223.538 37.984 223.538 36.512V30.752H221.282V27.944H221.522C222.162 27.944 222.658 27.776 223.01 27.44C223.362 27.104 223.538 26.616 223.538 25.976V24.968H226.682V27.944H229.682V30.752H226.682V36.344C226.682 36.776 226.754 37.144 226.898 37.448C227.058 37.752 227.298 37.984 227.618 38.144C227.954 38.304 228.378 38.384 228.89 38.384C229.002 38.384 229.13 38.376 229.274 38.36C229.434 38.344 229.586 38.328 229.73 38.312V41C229.506 41.032 229.25 41.064 228.962 41.096C228.674 41.128 228.41 41.144 228.17 41.144ZM232.132 41V27.944H235.084V30.848L234.844 30.416C235.148 29.44 235.62 28.76 236.26 28.376C236.916 27.992 237.7 27.8 238.612 27.8H239.38V30.584H238.252C237.356 30.584 236.636 30.864 236.092 31.424C235.548 31.968 235.276 32.736 235.276 33.728V41H232.132ZM245.765 41.288C244.757 41.288 243.877 41.064 243.125 40.616C242.389 40.168 241.821 39.544 241.421 38.744C241.037 37.944 240.845 37.008 240.845 35.936V27.944H243.989V35.672C243.989 36.216 244.093 36.696 244.301 37.112C244.525 37.512 244.837 37.832 245.237 38.072C245.653 38.296 246.117 38.408 246.629 38.408C247.141 38.408 247.597 38.296 247.997 38.072C248.397 37.832 248.709 37.504 248.933 37.088C249.157 36.672 249.269 36.176 249.269 35.6V27.944H252.413V41H249.437V38.432L249.701 38.888C249.397 39.688 248.893 40.288 248.189 40.688C247.501 41.088 246.693 41.288 245.765 41.288ZM261.623 41.288C260.327 41.288 259.159 40.992 258.119 40.4C257.095 39.792 256.287 38.976 255.695 37.952C255.103 36.912 254.807 35.744 254.807 34.448C254.807 33.152 255.103 31.992 255.695 30.968C256.287 29.944 257.095 29.136 258.119 28.544C259.159 27.952 260.327 27.656 261.623 27.656C262.551 27.656 263.415 27.824 264.215 28.16C265.015 28.48 265.703 28.928 266.279 29.504C266.871 30.064 267.295 30.736 267.551 31.52L264.791 32.72C264.551 32.064 264.143 31.536 263.567 31.136C263.007 30.736 262.359 30.536 261.623 30.536C260.935 30.536 260.319 30.704 259.775 31.04C259.247 31.376 258.831 31.84 258.527 32.432C258.223 33.024 258.071 33.704 258.071 34.472C258.071 35.24 258.223 35.92 258.527 36.512C258.831 37.104 259.247 37.568 259.775 37.904C260.319 38.24 260.935 38.408 261.623 38.408C262.375 38.408 263.031 38.208 263.591 37.808C264.151 37.408 264.551 36.872 264.791 36.2L267.551 37.448C267.295 38.184 266.879 38.848 266.303 39.44C265.727 40.016 265.039 40.472 264.239 40.808C263.439 41.128 262.567 41.288 261.623 41.288ZM275.889 41.144C274.417 41.144 273.273 40.744 272.457 39.944C271.657 39.128 271.257 37.984 271.257 36.512V30.752H269.001V27.944H269.241C269.881 27.944 270.377 27.776 270.729 27.44C271.081 27.104 271.257 26.616 271.257 25.976V24.968H274.401V27.944H277.401V30.752H274.401V36.344C274.401 36.776 274.473 37.144 274.617 37.448C274.777 37.752 275.017 37.984 275.337 38.144C275.673 38.304 276.097 38.384 276.609 38.384C276.721 38.384 276.849 38.376 276.993 38.36C277.153 38.344 277.305 38.328 277.449 38.312V41C277.225 41.032 276.969 41.064 276.681 41.096C276.393 41.128 276.129 41.144 275.889 41.144ZM279.851 41V27.944H282.995V41H279.851ZM279.851 26.48V23.12H282.995V26.48H279.851ZM292.282 41.288C291.002 41.288 289.834 40.992 288.778 40.4C287.738 39.808 286.906 39 286.282 37.976C285.674 36.952 285.37 35.784 285.37 34.472C285.37 33.16 285.674 31.992 286.282 30.968C286.906 29.944 287.738 29.136 288.778 28.544C289.818 27.952 290.986 27.656 292.282 27.656C293.562 27.656 294.722 27.952 295.762 28.544C296.802 29.136 297.626 29.944 298.234 30.968C298.858 31.976 299.17 33.144 299.17 34.472C299.17 35.784 298.858 36.952 298.234 37.976C297.61 39 296.778 39.808 295.738 40.4C294.698 40.992 293.546 41.288 292.282 41.288ZM292.282 38.408C292.986 38.408 293.602 38.24 294.13 37.904C294.674 37.568 295.098 37.104 295.402 36.512C295.722 35.904 295.882 35.224 295.882 34.472C295.882 33.704 295.722 33.032 295.402 32.456C295.098 31.864 294.674 31.4 294.13 31.064C293.602 30.712 292.986 30.536 292.282 30.536C291.562 30.536 290.93 30.712 290.386 31.064C289.842 31.4 289.41 31.864 289.09 32.456C288.786 33.032 288.634 33.704 288.634 34.472C288.634 35.224 288.786 35.904 289.09 36.512C289.41 37.104 289.842 37.568 290.386 37.904C290.93 38.24 291.562 38.408 292.282 38.408ZM301.554 41V27.944H304.506V30.512L304.266 30.056C304.57 29.272 305.066 28.68 305.754 28.28C306.458 27.864 307.274 27.656 308.202 27.656C309.162 27.656 310.01 27.864 310.746 28.28C311.498 28.696 312.082 29.28 312.498 30.032C312.914 30.768 313.122 31.624 313.122 32.6V41H309.978V33.344C309.978 32.768 309.866 32.272 309.642 31.856C309.418 31.44 309.106 31.12 308.706 30.896C308.322 30.656 307.866 30.536 307.338 30.536C306.826 30.536 306.37 30.656 305.97 30.896C305.57 31.12 305.258 31.44 305.034 31.856C304.81 32.272 304.698 32.768 304.698 33.344V41H301.554ZM329.118 41.288C327.806 41.288 326.582 41.056 325.446 40.592C324.31 40.128 323.318 39.48 322.47 38.648C321.622 37.816 320.958 36.84 320.478 35.72C320.014 34.584 319.782 33.36 319.782 32.048C319.782 30.72 320.014 29.496 320.478 28.376C320.942 27.256 321.598 26.28 322.446 25.448C323.294 24.616 324.286 23.976 325.422 23.528C326.558 23.064 327.79 22.832 329.118 22.832C330.446 22.832 331.678 23.064 332.814 23.528C333.95 23.992 334.942 24.64 335.79 25.472C336.638 26.288 337.294 27.256 337.758 28.376C338.238 29.496 338.478 30.72 338.478 32.048C338.478 33.36 338.238 34.584 337.758 35.72C337.278 36.84 336.614 37.816 335.766 38.648C334.918 39.48 333.926 40.128 332.79 40.592C331.67 41.056 330.446 41.288 329.118 41.288ZM329.118 38.312C329.998 38.312 330.806 38.16 331.542 37.856C332.278 37.536 332.918 37.096 333.462 36.536C334.022 35.976 334.446 35.312 334.734 34.544C335.038 33.776 335.19 32.944 335.19 32.048C335.19 31.152 335.038 30.328 334.734 29.576C334.446 28.808 334.022 28.144 333.462 27.584C332.918 27.008 332.278 26.568 331.542 26.264C330.806 25.96 329.998 25.808 329.118 25.808C328.254 25.808 327.454 25.96 326.718 26.264C325.982 26.568 325.334 27.008 324.774 27.584C324.23 28.144 323.806 28.808 323.502 29.576C323.198 30.328 323.046 31.152 323.046 32.048C323.046 32.944 323.198 33.776 323.502 34.544C323.806 35.312 324.23 35.976 324.774 36.536C325.334 37.096 325.982 37.536 326.718 37.856C327.454 38.16 328.254 38.312 329.118 38.312ZM333.246 43.16L327.678 33.848H331.086L336.726 43.16H333.246ZM345.772 41.288C344.764 41.288 343.884 41.064 343.132 40.616C342.396 40.168 341.828 39.544 341.428 38.744C341.044 37.944 340.852 37.008 340.852 35.936V27.944H343.996V35.672C343.996 36.216 344.1 36.696 344.308 37.112C344.532 37.512 344.844 37.832 345.244 38.072C345.66 38.296 346.124 38.408 346.636 38.408C347.148 38.408 347.604 38.296 348.004 38.072C348.404 37.832 348.716 37.504 348.94 37.088C349.164 36.672 349.276 36.176 349.276 35.6V27.944H352.42V41H349.444V38.432L349.708 38.888C349.404 39.688 348.9 40.288 348.196 40.688C347.508 41.088 346.7 41.288 345.772 41.288ZM359.303 41.288C358.391 41.288 357.599 41.136 356.927 40.832C356.255 40.528 355.735 40.096 355.367 39.536C354.999 38.96 354.815 38.296 354.815 37.544C354.815 36.824 354.975 36.184 355.295 35.624C355.615 35.048 356.111 34.568 356.783 34.184C357.455 33.8 358.303 33.528 359.327 33.368L363.599 32.672V35.072L359.927 35.696C359.303 35.808 358.839 36.008 358.535 36.296C358.231 36.584 358.079 36.96 358.079 37.424C358.079 37.872 358.247 38.232 358.583 38.504C358.935 38.76 359.367 38.888 359.879 38.888C360.535 38.888 361.111 38.752 361.607 38.48C362.119 38.192 362.511 37.8 362.783 37.304C363.071 36.808 363.215 36.264 363.215 35.672V32.312C363.215 31.752 362.991 31.288 362.543 30.92C362.111 30.536 361.535 30.344 360.815 30.344C360.143 30.344 359.543 30.528 359.015 30.896C358.503 31.248 358.127 31.72 357.887 32.312L355.319 31.064C355.575 30.376 355.975 29.784 356.519 29.288C357.079 28.776 357.735 28.376 358.487 28.088C359.239 27.8 360.055 27.656 360.935 27.656C362.007 27.656 362.951 27.856 363.767 28.256C364.583 28.64 365.215 29.184 365.663 29.888C366.127 30.576 366.359 31.384 366.359 32.312V41H363.383V38.768L364.055 38.72C363.719 39.28 363.319 39.752 362.855 40.136C362.391 40.504 361.863 40.792 361.271 41C360.679 41.192 360.023 41.288 359.303 41.288ZM369.265 41V22.832H372.409V41H369.265ZM375.312 41V27.944H378.456V41H375.312ZM375.312 26.48V23.12H378.456V26.48H375.312ZM387.311 41.144C385.839 41.144 384.695 40.744 383.879 39.944C383.079 39.128 382.679 37.984 382.679 36.512V30.752H380.423V27.944H380.663C381.303 27.944 381.799 27.776 382.151 27.44C382.503 27.104 382.679 26.616 382.679 25.976V24.968H385.823V27.944H388.823V30.752H385.823V36.344C385.823 36.776 385.895 37.144 386.039 37.448C386.199 37.752 386.439 37.984 386.759 38.144C387.095 38.304 387.519 38.384 388.031 38.384C388.143 38.384 388.271 38.376 388.415 38.36C388.575 38.344 388.727 38.328 388.871 38.312V41C388.647 41.032 388.391 41.064 388.103 41.096C387.815 41.128 387.551 41.144 387.311 41.144ZM392.857 46.28C392.505 46.28 392.161 46.248 391.825 46.184C391.489 46.136 391.185 46.04 390.913 45.896V43.28C391.121 43.328 391.369 43.376 391.657 43.424C391.961 43.472 392.241 43.496 392.497 43.496C393.217 43.496 393.737 43.328 394.057 42.992C394.393 42.672 394.689 42.24 394.945 41.696L395.809 39.68L395.761 42.32L390.073 27.944H393.457L397.441 38.552H396.241L400.201 27.944H403.609L397.921 42.32C397.585 43.152 397.177 43.864 396.697 44.456C396.217 45.048 395.657 45.496 395.017 45.8C394.393 46.12 393.673 46.28 392.857 46.28Z" fill="white"/>
<path d="M1276 24V38M1276 38L1283 31M1276 38L1269 31" stroke="white" stroke-width="2" stroke-linecap="round" stroke-linejoin="round"/>
</svg>
