<svg width="1320" height="62" viewBox="0 0 1320 62" fill="none" xmlns="http://www.w3.org/2000/svg">
<rect width="1320" height="62" rx="8" fill="#1482FF"/>
<path d="M33.9428 41V23.12H39.7748C41.6628 23.12 43.3028 23.504 44.6948 24.272C46.1028 25.024 47.1908 26.072 47.9588 27.416C48.7268 28.744 49.1108 30.288 49.1108 32.048C49.1108 33.792 48.7268 35.344 47.9588 36.704C47.1908 38.048 46.1028 39.104 44.6948 39.872C43.3028 40.624 41.6628 41 39.7748 41H33.9428ZM37.2068 38.12H39.8468C41.0628 38.12 42.1108 37.872 42.9908 37.376C43.8868 36.864 44.5828 36.16 45.0788 35.264C45.5748 34.352 45.8228 33.28 45.8228 32.048C45.8228 30.8 45.5748 29.728 45.0788 28.832C44.5828 27.936 43.8868 27.24 42.9908 26.744C42.1108 26.248 41.0628 26 39.8468 26H37.2068V38.12ZM57.6365 41.288C56.2925 41.288 55.1165 40.984 54.1085 40.376C53.1005 39.768 52.3165 38.944 51.7565 37.904C51.1965 36.864 50.9165 35.712 50.9165 34.448C50.9165 33.136 51.1965 31.976 51.7565 30.968C52.3325 29.944 53.1085 29.136 54.0845 28.544C55.0765 27.952 56.1805 27.656 57.3965 27.656C58.4205 27.656 59.3165 27.824 60.0845 28.16C60.8685 28.496 61.5325 28.96 62.0765 29.552C62.6205 30.144 63.0365 30.824 63.3245 31.592C63.6125 32.344 63.7565 33.16 63.7565 34.04C63.7565 34.264 63.7405 34.496 63.7085 34.736C63.6925 34.976 63.6525 35.184 63.5885 35.36H53.5085V32.96H61.8125L60.3245 34.088C60.4685 33.352 60.4285 32.696 60.2045 32.12C59.9965 31.544 59.6445 31.088 59.1485 30.752C58.6685 30.416 58.0845 30.248 57.3965 30.248C56.7405 30.248 56.1565 30.416 55.6445 30.752C55.1325 31.072 54.7405 31.552 54.4685 32.192C54.2125 32.816 54.1165 33.576 54.1805 34.472C54.1165 35.272 54.2205 35.984 54.4925 36.608C54.7805 37.216 55.1965 37.688 55.7405 38.024C56.3005 38.36 56.9405 38.528 57.6605 38.528C58.3805 38.528 58.9885 38.376 59.4845 38.072C59.9965 37.768 60.3965 37.36 60.6845 36.848L63.2285 38.096C62.9725 38.72 62.5725 39.272 62.0285 39.752C61.4845 40.232 60.8365 40.608 60.0845 40.88C59.3485 41.152 58.5325 41.288 57.6365 41.288ZM71.1078 41.288C69.7158 41.288 68.4998 40.96 67.4598 40.304C66.4358 39.632 65.7318 38.728 65.3478 37.592L67.6998 36.464C68.0358 37.2 68.4998 37.776 69.0918 38.192C69.6998 38.608 70.3718 38.816 71.1078 38.816C71.6838 38.816 72.1398 38.688 72.4758 38.432C72.8118 38.176 72.9798 37.84 72.9798 37.424C72.9798 37.168 72.9078 36.96 72.7638 36.8C72.6358 36.624 72.4518 36.48 72.2118 36.368C71.9878 36.24 71.7398 36.136 71.4678 36.056L69.3318 35.456C68.2278 35.136 67.3878 34.648 66.8118 33.992C66.2518 33.336 65.9718 32.56 65.9718 31.664C65.9718 30.864 66.1718 30.168 66.5718 29.576C66.9878 28.968 67.5558 28.496 68.2758 28.16C69.0118 27.824 69.8518 27.656 70.7958 27.656C72.0278 27.656 73.1158 27.952 74.0598 28.544C75.0038 29.136 75.6758 29.968 76.0758 31.04L73.6758 32.168C73.4518 31.576 73.0758 31.104 72.5478 30.752C72.0198 30.4 71.4278 30.224 70.7718 30.224C70.2438 30.224 69.8278 30.344 69.5238 30.584C69.2198 30.824 69.0678 31.136 69.0678 31.52C69.0678 31.76 69.1318 31.968 69.2598 32.144C69.3878 32.32 69.5638 32.464 69.7878 32.576C70.0278 32.688 70.2998 32.792 70.6038 32.888L72.6918 33.512C73.7638 33.832 74.5878 34.312 75.1638 34.952C75.7558 35.592 76.0518 36.376 76.0518 37.304C76.0518 38.088 75.8438 38.784 75.4278 39.392C75.0118 39.984 74.4358 40.448 73.6998 40.784C72.9638 41.12 72.0998 41.288 71.1078 41.288ZM78.4679 41V27.944H81.6119V41H78.4679ZM78.4679 26.48V23.12H81.6119V26.48H78.4679ZM90.8508 46.28C89.8748 46.28 88.9708 46.12 88.1388 45.8C87.3068 45.48 86.5868 45.032 85.9788 44.456C85.3868 43.896 84.9548 43.232 84.6828 42.464L87.6108 41.36C87.8028 41.968 88.1788 42.456 88.7388 42.824C89.3148 43.208 90.0188 43.4 90.8508 43.4C91.4908 43.4 92.0508 43.28 92.5308 43.04C93.0268 42.8 93.4108 42.448 93.6828 41.984C93.9548 41.536 94.0908 40.992 94.0908 40.352V37.376L94.6908 38.096C94.2428 38.88 93.6428 39.472 92.8908 39.872C92.1388 40.272 91.2828 40.472 90.3228 40.472C89.1068 40.472 88.0188 40.192 87.0588 39.632C86.0988 39.072 85.3468 38.304 84.8028 37.328C84.2588 36.352 83.9868 35.256 83.9868 34.04C83.9868 32.808 84.2588 31.712 84.8028 30.752C85.3468 29.792 86.0908 29.04 87.0348 28.496C87.9788 27.936 89.0508 27.656 90.2508 27.656C91.2268 27.656 92.0828 27.864 92.8188 28.28C93.5708 28.68 94.1948 29.264 94.6908 30.032L94.2588 30.824V27.944H97.2348V40.352C97.2348 41.488 96.9548 42.504 96.3948 43.4C95.8508 44.296 95.0988 45 94.1388 45.512C93.1948 46.024 92.0988 46.28 90.8508 46.28ZM90.7068 37.568C91.3788 37.568 91.9628 37.424 92.4588 37.136C92.9708 36.832 93.3708 36.416 93.6588 35.888C93.9468 35.36 94.0908 34.752 94.0908 34.064C94.0908 33.392 93.9388 32.792 93.6348 32.264C93.3468 31.72 92.9468 31.296 92.4348 30.992C91.9388 30.688 91.3628 30.536 90.7068 30.536C90.0508 30.536 89.4588 30.688 88.9308 30.992C88.4028 31.296 87.9868 31.72 87.6828 32.264C87.3948 32.792 87.2508 33.392 87.2508 34.064C87.2508 34.736 87.3948 35.336 87.6828 35.864C87.9868 36.392 88.3948 36.808 88.9068 37.112C89.4348 37.416 90.0348 37.568 90.7068 37.568ZM100.171 41V27.944H103.123V30.512L102.883 30.056C103.187 29.272 103.683 28.68 104.371 28.28C105.075 27.864 105.891 27.656 106.819 27.656C107.779 27.656 108.627 27.864 109.363 28.28C110.115 28.696 110.699 29.28 111.115 30.032C111.531 30.768 111.739 31.624 111.739 32.6V41H108.595V33.344C108.595 32.768 108.483 32.272 108.259 31.856C108.035 31.44 107.723 31.12 107.323 30.896C106.939 30.656 106.483 30.536 105.955 30.536C105.443 30.536 104.987 30.656 104.587 30.896C104.187 31.12 103.875 31.44 103.651 31.856C103.427 32.272 103.315 32.768 103.315 33.344V41H100.171ZM118.927 41V23.12H130.855V26H122.191V30.944H129.775V33.824H122.191V41H118.927ZM137.147 41.288C136.139 41.288 135.259 41.064 134.507 40.616C133.771 40.168 133.203 39.544 132.803 38.744C132.419 37.944 132.227 37.008 132.227 35.936V27.944H135.371V35.672C135.371 36.216 135.475 36.696 135.683 37.112C135.907 37.512 136.219 37.832 136.619 38.072C137.035 38.296 137.499 38.408 138.011 38.408C138.523 38.408 138.979 38.296 139.379 38.072C139.779 37.832 140.091 37.504 140.315 37.088C140.539 36.672 140.651 36.176 140.651 35.6V27.944H143.795V41H140.819V38.432L141.083 38.888C140.779 39.688 140.275 40.288 139.571 40.688C138.883 41.088 138.075 41.288 137.147 41.288ZM146.718 41V27.944H149.67V30.512L149.43 30.056C149.734 29.272 150.23 28.68 150.918 28.28C151.622 27.864 152.438 27.656 153.366 27.656C154.326 27.656 155.174 27.864 155.91 28.28C156.662 28.696 157.246 29.28 157.662 30.032C158.078 30.768 158.286 31.624 158.286 32.6V41H155.142V33.344C155.142 32.768 155.03 32.272 154.806 31.856C154.582 31.44 154.27 31.12 153.87 30.896C153.486 30.656 153.03 30.536 152.502 30.536C151.99 30.536 151.534 30.656 151.134 30.896C150.734 31.12 150.422 31.44 150.198 31.856C149.974 32.272 149.862 32.768 149.862 33.344V41H146.718ZM167.016 41.288C165.752 41.288 164.624 40.992 163.632 40.4C162.64 39.792 161.856 38.968 161.28 37.928C160.704 36.888 160.416 35.736 160.416 34.472C160.416 33.192 160.704 32.04 161.28 31.016C161.856 29.992 162.64 29.176 163.632 28.568C164.64 27.96 165.76 27.656 166.992 27.656C167.984 27.656 168.864 27.856 169.632 28.256C170.416 28.64 171.032 29.184 171.48 29.888L171 30.536V22.832H174.144V41H171.168V38.48L171.504 39.104C171.056 39.808 170.432 40.352 169.632 40.736C168.832 41.104 167.96 41.288 167.016 41.288ZM167.352 38.408C168.072 38.408 168.704 38.24 169.248 37.904C169.792 37.568 170.216 37.104 170.52 36.512C170.84 35.92 171 35.24 171 34.472C171 33.72 170.84 33.048 170.52 32.456C170.216 31.848 169.792 31.376 169.248 31.04C168.704 30.704 168.072 30.536 167.352 30.536C166.648 30.536 166.016 30.712 165.456 31.064C164.896 31.4 164.456 31.864 164.136 32.456C163.832 33.032 163.68 33.704 163.68 34.472C163.68 35.24 163.832 35.92 164.136 36.512C164.456 37.104 164.896 37.568 165.456 37.904C166.016 38.24 166.648 38.408 167.352 38.408ZM181.029 41.288C180.117 41.288 179.325 41.136 178.653 40.832C177.981 40.528 177.461 40.096 177.093 39.536C176.725 38.96 176.541 38.296 176.541 37.544C176.541 36.824 176.701 36.184 177.021 35.624C177.341 35.048 177.837 34.568 178.509 34.184C179.181 33.8 180.029 33.528 181.053 33.368L185.325 32.672V35.072L181.653 35.696C181.029 35.808 180.565 36.008 180.261 36.296C179.957 36.584 179.805 36.96 179.805 37.424C179.805 37.872 179.973 38.232 180.309 38.504C180.661 38.76 181.093 38.888 181.605 38.888C182.261 38.888 182.837 38.752 183.333 38.48C183.845 38.192 184.237 37.8 184.509 37.304C184.797 36.808 184.941 36.264 184.941 35.672V32.312C184.941 31.752 184.717 31.288 184.269 30.92C183.837 30.536 183.261 30.344 182.541 30.344C181.869 30.344 181.269 30.528 180.741 30.896C180.229 31.248 179.853 31.72 179.613 32.312L177.045 31.064C177.301 30.376 177.701 29.784 178.245 29.288C178.805 28.776 179.461 28.376 180.213 28.088C180.965 27.8 181.781 27.656 182.661 27.656C183.733 27.656 184.677 27.856 185.493 28.256C186.309 28.64 186.941 29.184 187.389 29.888C187.853 30.576 188.085 31.384 188.085 32.312V41H185.109V38.768L185.781 38.72C185.445 39.28 185.045 39.752 184.581 40.136C184.117 40.504 183.589 40.792 182.997 41C182.405 41.192 181.749 41.288 181.029 41.288ZM190.991 41V27.944H193.943V30.968L193.607 30.464C193.847 29.52 194.327 28.816 195.047 28.352C195.767 27.888 196.615 27.656 197.591 27.656C198.663 27.656 199.607 27.936 200.423 28.496C201.239 29.056 201.767 29.792 202.007 30.704L201.119 30.776C201.519 29.736 202.119 28.96 202.919 28.448C203.719 27.92 204.639 27.656 205.679 27.656C206.607 27.656 207.431 27.864 208.151 28.28C208.887 28.696 209.463 29.28 209.879 30.032C210.295 30.768 210.503 31.624 210.503 32.6V41H207.359V33.344C207.359 32.768 207.255 32.272 207.047 31.856C206.839 31.44 206.551 31.12 206.183 30.896C205.815 30.656 205.367 30.536 204.839 30.536C204.343 30.536 203.903 30.656 203.519 30.896C203.135 31.12 202.839 31.44 202.631 31.856C202.423 32.272 202.319 32.768 202.319 33.344V41H199.175V33.344C199.175 32.768 199.071 32.272 198.863 31.856C198.655 31.44 198.359 31.12 197.975 30.896C197.607 30.656 197.167 30.536 196.655 30.536C196.159 30.536 195.719 30.656 195.335 30.896C194.951 31.12 194.655 31.44 194.447 31.856C194.239 32.272 194.135 32.768 194.135 33.344V41H190.991ZM219.355 41.288C218.011 41.288 216.835 40.984 215.827 40.376C214.819 39.768 214.035 38.944 213.475 37.904C212.915 36.864 212.635 35.712 212.635 34.448C212.635 33.136 212.915 31.976 213.475 30.968C214.051 29.944 214.827 29.136 215.803 28.544C216.795 27.952 217.899 27.656 219.115 27.656C220.139 27.656 221.035 27.824 221.803 28.16C222.587 28.496 223.251 28.96 223.795 29.552C224.339 30.144 224.755 30.824 225.043 31.592C225.331 32.344 225.475 33.16 225.475 34.04C225.475 34.264 225.459 34.496 225.427 34.736C225.411 34.976 225.371 35.184 225.307 35.36H215.227V32.96H223.531L222.043 34.088C222.187 33.352 222.147 32.696 221.923 32.12C221.715 31.544 221.363 31.088 220.867 30.752C220.387 30.416 219.803 30.248 219.115 30.248C218.459 30.248 217.875 30.416 217.363 30.752C216.851 31.072 216.459 31.552 216.187 32.192C215.931 32.816 215.835 33.576 215.899 34.472C215.835 35.272 215.939 35.984 216.211 36.608C216.499 37.216 216.915 37.688 217.459 38.024C218.019 38.36 218.659 38.528 219.379 38.528C220.099 38.528 220.707 38.376 221.203 38.072C221.715 37.768 222.115 37.36 222.403 36.848L224.947 38.096C224.691 38.72 224.291 39.272 223.747 39.752C223.203 40.232 222.555 40.608 221.803 40.88C221.067 41.152 220.251 41.288 219.355 41.288ZM227.859 41V27.944H230.811V30.512L230.571 30.056C230.875 29.272 231.371 28.68 232.059 28.28C232.763 27.864 233.579 27.656 234.507 27.656C235.467 27.656 236.315 27.864 237.051 28.28C237.803 28.696 238.387 29.28 238.803 30.032C239.219 30.768 239.427 31.624 239.427 32.6V41H236.283V33.344C236.283 32.768 236.171 32.272 235.947 31.856C235.723 31.44 235.411 31.12 235.011 30.896C234.627 30.656 234.171 30.536 233.643 30.536C233.131 30.536 232.675 30.656 232.275 30.896C231.875 31.12 231.563 31.44 231.339 31.856C231.115 32.272 231.003 32.768 231.003 33.344V41H227.859ZM248.037 41.144C246.565 41.144 245.421 40.744 244.605 39.944C243.805 39.128 243.405 37.984 243.405 36.512V30.752H241.149V27.944H241.389C242.029 27.944 242.525 27.776 242.877 27.44C243.229 27.104 243.405 26.616 243.405 25.976V24.968H246.549V27.944H249.549V30.752H246.549V36.344C246.549 36.776 246.621 37.144 246.765 37.448C246.925 37.752 247.165 37.984 247.485 38.144C247.821 38.304 248.245 38.384 248.757 38.384C248.869 38.384 248.997 38.376 249.141 38.36C249.301 38.344 249.453 38.328 249.597 38.312V41C249.373 41.032 249.117 41.064 248.829 41.096C248.541 41.128 248.277 41.144 248.037 41.144ZM255.912 41.288C255 41.288 254.208 41.136 253.536 40.832C252.864 40.528 252.344 40.096 251.976 39.536C251.608 38.96 251.424 38.296 251.424 37.544C251.424 36.824 251.584 36.184 251.904 35.624C252.224 35.048 252.72 34.568 253.392 34.184C254.064 33.8 254.912 33.528 255.936 33.368L260.208 32.672V35.072L256.536 35.696C255.912 35.808 255.448 36.008 255.144 36.296C254.84 36.584 254.688 36.96 254.688 37.424C254.688 37.872 254.856 38.232 255.192 38.504C255.544 38.76 255.976 38.888 256.488 38.888C257.144 38.888 257.72 38.752 258.216 38.48C258.728 38.192 259.12 37.8 259.392 37.304C259.68 36.808 259.824 36.264 259.824 35.672V32.312C259.824 31.752 259.6 31.288 259.152 30.92C258.72 30.536 258.144 30.344 257.424 30.344C256.752 30.344 256.152 30.528 255.624 30.896C255.112 31.248 254.736 31.72 254.496 32.312L251.928 31.064C252.184 30.376 252.584 29.784 253.128 29.288C253.688 28.776 254.344 28.376 255.096 28.088C255.848 27.8 256.664 27.656 257.544 27.656C258.616 27.656 259.56 27.856 260.376 28.256C261.192 28.64 261.824 29.184 262.272 29.888C262.736 30.576 262.968 31.384 262.968 32.312V41H259.992V38.768L260.664 38.72C260.328 39.28 259.928 39.752 259.464 40.136C259 40.504 258.472 40.792 257.88 41C257.288 41.192 256.632 41.288 255.912 41.288ZM265.874 41V22.832H269.018V41H265.874ZM276.889 41.288C275.497 41.288 274.281 40.96 273.241 40.304C272.217 39.632 271.513 38.728 271.129 37.592L273.481 36.464C273.817 37.2 274.281 37.776 274.873 38.192C275.481 38.608 276.153 38.816 276.889 38.816C277.465 38.816 277.921 38.688 278.257 38.432C278.593 38.176 278.761 37.84 278.761 37.424C278.761 37.168 278.689 36.96 278.545 36.8C278.417 36.624 278.233 36.48 277.993 36.368C277.769 36.24 277.521 36.136 277.249 36.056L275.113 35.456C274.009 35.136 273.169 34.648 272.593 33.992C272.033 33.336 271.753 32.56 271.753 31.664C271.753 30.864 271.953 30.168 272.353 29.576C272.769 28.968 273.337 28.496 274.057 28.16C274.793 27.824 275.633 27.656 276.577 27.656C277.809 27.656 278.897 27.952 279.841 28.544C280.785 29.136 281.457 29.968 281.857 31.04L279.457 32.168C279.233 31.576 278.857 31.104 278.329 30.752C277.801 30.4 277.209 30.224 276.553 30.224C276.025 30.224 275.609 30.344 275.305 30.584C275.001 30.824 274.849 31.136 274.849 31.52C274.849 31.76 274.913 31.968 275.041 32.144C275.169 32.32 275.345 32.464 275.569 32.576C275.809 32.688 276.081 32.792 276.385 32.888L278.473 33.512C279.545 33.832 280.369 34.312 280.945 34.952C281.537 35.592 281.833 36.376 281.833 37.304C281.833 38.088 281.625 38.784 281.209 39.392C280.793 39.984 280.217 40.448 279.481 40.784C278.745 41.12 277.881 41.288 276.889 41.288Z" fill="white"/>
<path d="M1276 24V38M1276 38L1283 31M1276 38L1269 31" stroke="white" stroke-width="2" stroke-linecap="round" stroke-linejoin="round"/>
</svg>
