<svg width="1320" height="62" viewBox="0 0 1320 62" fill="none" xmlns="http://www.w3.org/2000/svg">
<rect width="1320" height="62" rx="8" fill="#1482FF"/>
<path d="M34.1968 41V23.12H40.8688C42.0848 23.12 43.1568 23.344 44.0848 23.792C45.0288 24.224 45.7648 24.864 46.2928 25.712C46.8208 26.544 47.0848 27.56 47.0848 28.76C47.0848 29.944 46.8128 30.96 46.2688 31.808C45.7408 32.64 45.0128 33.28 44.0848 33.728C43.1568 34.176 42.0848 34.4 40.8688 34.4H37.4608V41H34.1968ZM37.4608 31.52H40.9168C41.5088 31.52 42.0208 31.408 42.4528 31.184C42.8848 30.944 43.2208 30.616 43.4608 30.2C43.7008 29.784 43.8208 29.304 43.8208 28.76C43.8208 28.2 43.7008 27.72 43.4608 27.32C43.2208 26.904 42.8848 26.584 42.4528 26.36C42.0208 26.12 41.5088 26 40.9168 26H37.4608V31.52ZM49.4953 41V22.832H52.6393V41H49.4953ZM60.1981 41.288C59.1901 41.288 58.3101 41.064 57.5581 40.616C56.8221 40.168 56.2541 39.544 55.8541 38.744C55.4701 37.944 55.2781 37.008 55.2781 35.936V27.944H58.4221V35.672C58.4221 36.216 58.5261 36.696 58.7341 37.112C58.9581 37.512 59.2701 37.832 59.6701 38.072C60.0861 38.296 60.5501 38.408 61.0621 38.408C61.5741 38.408 62.0301 38.296 62.4301 38.072C62.8301 37.832 63.1421 37.504 63.3661 37.088C63.5901 36.672 63.7021 36.176 63.7021 35.6V27.944H66.8461V41H63.8701V38.432L64.1341 38.888C63.8301 39.688 63.3261 40.288 62.6221 40.688C61.9341 41.088 61.1261 41.288 60.1981 41.288ZM69.7687 41V27.944H72.7207V30.968L72.3847 30.464C72.6247 29.52 73.1047 28.816 73.8247 28.352C74.5447 27.888 75.3927 27.656 76.3687 27.656C77.4407 27.656 78.3847 27.936 79.2007 28.496C80.0167 29.056 80.5447 29.792 80.7847 30.704L79.8967 30.776C80.2967 29.736 80.8967 28.96 81.6967 28.448C82.4967 27.92 83.4167 27.656 84.4567 27.656C85.3847 27.656 86.2087 27.864 86.9287 28.28C87.6647 28.696 88.2407 29.28 88.6567 30.032C89.0727 30.768 89.2807 31.624 89.2807 32.6V41H86.1367V33.344C86.1367 32.768 86.0327 32.272 85.8247 31.856C85.6167 31.44 85.3287 31.12 84.9607 30.896C84.5927 30.656 84.1447 30.536 83.6167 30.536C83.1207 30.536 82.6807 30.656 82.2967 30.896C81.9127 31.12 81.6167 31.44 81.4087 31.856C81.2007 32.272 81.0967 32.768 81.0967 33.344V41H77.9527V33.344C77.9527 32.768 77.8487 32.272 77.6407 31.856C77.4327 31.44 77.1367 31.12 76.7527 30.896C76.3847 30.656 75.9447 30.536 75.4327 30.536C74.9367 30.536 74.4967 30.656 74.1127 30.896C73.7287 31.12 73.4327 31.44 73.2247 31.856C73.0167 32.272 72.9127 32.768 72.9127 33.344V41H69.7687ZM99.0686 41.288C98.1246 41.288 97.2526 41.104 96.4526 40.736C95.6686 40.352 95.0446 39.808 94.5806 39.104L94.8926 38.48V41H91.9406V22.832H95.0846V30.536L94.6046 29.888C95.0526 29.184 95.6606 28.64 96.4286 28.256C97.1966 27.856 98.0846 27.656 99.0926 27.656C100.325 27.656 101.437 27.96 102.429 28.568C103.421 29.176 104.205 29.992 104.781 31.016C105.373 32.04 105.669 33.192 105.669 34.472C105.669 35.736 105.381 36.888 104.805 37.928C104.229 38.968 103.445 39.792 102.453 40.4C101.461 40.992 100.333 41.288 99.0686 41.288ZM98.7086 38.408C99.4286 38.408 100.069 38.24 100.629 37.904C101.189 37.568 101.621 37.104 101.925 36.512C102.245 35.92 102.405 35.24 102.405 34.472C102.405 33.704 102.245 33.032 101.925 32.456C101.621 31.864 101.189 31.4 100.629 31.064C100.069 30.712 99.4286 30.536 98.7086 30.536C98.0206 30.536 97.3966 30.704 96.8366 31.04C96.2926 31.376 95.8606 31.848 95.5406 32.456C95.2366 33.048 95.0846 33.72 95.0846 34.472C95.0846 35.24 95.2366 35.92 95.5406 36.512C95.8606 37.104 96.2926 37.568 96.8366 37.904C97.3966 38.24 98.0206 38.408 98.7086 38.408ZM108.066 41V27.944H111.21V41H108.066ZM108.066 26.48V23.12H111.21V26.48H108.066ZM114.112 41V27.944H117.064V30.512L116.824 30.056C117.128 29.272 117.624 28.68 118.312 28.28C119.016 27.864 119.832 27.656 120.76 27.656C121.72 27.656 122.568 27.864 123.304 28.28C124.056 28.696 124.64 29.28 125.056 30.032C125.472 30.768 125.68 31.624 125.68 32.6V41H122.536V33.344C122.536 32.768 122.424 32.272 122.2 31.856C121.976 31.44 121.664 31.12 121.264 30.896C120.88 30.656 120.424 30.536 119.896 30.536C119.384 30.536 118.928 30.656 118.528 30.896C118.128 31.12 117.816 31.44 117.592 31.856C117.368 32.272 117.256 32.768 117.256 33.344V41H114.112ZM134.675 46.28C133.699 46.28 132.795 46.12 131.963 45.8C131.131 45.48 130.411 45.032 129.803 44.456C129.211 43.896 128.779 43.232 128.507 42.464L131.435 41.36C131.627 41.968 132.003 42.456 132.563 42.824C133.139 43.208 133.843 43.4 134.675 43.4C135.315 43.4 135.875 43.28 136.355 43.04C136.851 42.8 137.235 42.448 137.507 41.984C137.779 41.536 137.915 40.992 137.915 40.352V37.376L138.515 38.096C138.067 38.88 137.467 39.472 136.715 39.872C135.963 40.272 135.107 40.472 134.147 40.472C132.931 40.472 131.843 40.192 130.883 39.632C129.923 39.072 129.171 38.304 128.627 37.328C128.083 36.352 127.811 35.256 127.811 34.04C127.811 32.808 128.083 31.712 128.627 30.752C129.171 29.792 129.915 29.04 130.859 28.496C131.803 27.936 132.875 27.656 134.075 27.656C135.051 27.656 135.907 27.864 136.643 28.28C137.395 28.68 138.019 29.264 138.515 30.032L138.083 30.824V27.944H141.059V40.352C141.059 41.488 140.779 42.504 140.219 43.4C139.675 44.296 138.923 45 137.963 45.512C137.019 46.024 135.923 46.28 134.675 46.28ZM134.531 37.568C135.203 37.568 135.787 37.424 136.283 37.136C136.795 36.832 137.195 36.416 137.483 35.888C137.771 35.36 137.915 34.752 137.915 34.064C137.915 33.392 137.763 32.792 137.459 32.264C137.171 31.72 136.771 31.296 136.259 30.992C135.763 30.688 135.187 30.536 134.531 30.536C133.875 30.536 133.283 30.688 132.755 30.992C132.227 31.296 131.811 31.72 131.507 32.264C131.219 32.792 131.075 33.392 131.075 34.064C131.075 34.736 131.219 35.336 131.507 35.864C131.811 36.392 132.219 36.808 132.731 37.112C133.259 37.416 133.859 37.568 134.531 37.568Z" fill="white"/>
<path d="M1276 24V38M1276 38L1283 31M1276 38L1269 31" stroke="white" stroke-width="2" stroke-linecap="round" stroke-linejoin="round"/>
</svg>
