<svg width="1320" height="62" viewBox="0 0 1320 62" fill="none" xmlns="http://www.w3.org/2000/svg">
<rect width="1320" height="62" rx="8" fill="#1482FF"/>
<path d="M42.503 41.288C41.223 41.288 40.039 41.056 38.951 40.592C37.879 40.128 36.935 39.48 36.119 38.648C35.319 37.816 34.695 36.84 34.247 35.72C33.799 34.6 33.575 33.376 33.575 32.048C33.575 30.72 33.791 29.496 34.223 28.376C34.671 27.24 35.295 26.264 36.095 25.448C36.911 24.616 37.863 23.976 38.951 23.528C40.039 23.064 41.223 22.832 42.503 22.832C43.783 22.832 44.927 23.048 45.935 23.48C46.959 23.912 47.823 24.488 48.527 25.208C49.231 25.912 49.735 26.688 50.039 27.536L47.111 28.904C46.775 28.008 46.207 27.272 45.407 26.696C44.607 26.104 43.639 25.808 42.503 25.808C41.383 25.808 40.391 26.072 39.527 26.6C38.679 27.128 38.015 27.856 37.535 28.784C37.071 29.712 36.839 30.8 36.839 32.048C36.839 33.296 37.071 34.392 37.535 35.336C38.015 36.264 38.679 36.992 39.527 37.52C40.391 38.048 41.383 38.312 42.503 38.312C43.639 38.312 44.607 38.024 45.407 37.448C46.207 36.856 46.775 36.112 47.111 35.216L50.039 36.584C49.735 37.432 49.231 38.216 48.527 38.936C47.823 39.64 46.959 40.208 45.935 40.64C44.927 41.072 43.783 41.288 42.503 41.288ZM56.1506 41.288C55.2386 41.288 54.4466 41.136 53.7746 40.832C53.1026 40.528 52.5826 40.096 52.2146 39.536C51.8466 38.96 51.6626 38.296 51.6626 37.544C51.6626 36.824 51.8226 36.184 52.1426 35.624C52.4626 35.048 52.9586 34.568 53.6306 34.184C54.3026 33.8 55.1506 33.528 56.1746 33.368L60.4466 32.672V35.072L56.7746 35.696C56.1506 35.808 55.6866 36.008 55.3826 36.296C55.0786 36.584 54.9266 36.96 54.9266 37.424C54.9266 37.872 55.0946 38.232 55.4306 38.504C55.7826 38.76 56.2146 38.888 56.7266 38.888C57.3826 38.888 57.9586 38.752 58.4546 38.48C58.9666 38.192 59.3586 37.8 59.6306 37.304C59.9186 36.808 60.0626 36.264 60.0626 35.672V32.312C60.0626 31.752 59.8386 31.288 59.3906 30.92C58.9586 30.536 58.3826 30.344 57.6626 30.344C56.9906 30.344 56.3906 30.528 55.8626 30.896C55.3506 31.248 54.9746 31.72 54.7346 32.312L52.1666 31.064C52.4226 30.376 52.8226 29.784 53.3666 29.288C53.9266 28.776 54.5826 28.376 55.3346 28.088C56.0866 27.8 56.9026 27.656 57.7826 27.656C58.8546 27.656 59.7986 27.856 60.6146 28.256C61.4306 28.64 62.0626 29.184 62.5106 29.888C62.9746 30.576 63.2066 31.384 63.2066 32.312V41H60.2306V38.768L60.9026 38.72C60.5666 39.28 60.1666 39.752 59.7026 40.136C59.2386 40.504 58.7106 40.792 58.1186 41C57.5266 41.192 56.8706 41.288 56.1506 41.288ZM66.1124 41V27.944H69.0644V30.848L68.8244 30.416C69.1284 29.44 69.6004 28.76 70.2404 28.376C70.8964 27.992 71.6804 27.8 72.5924 27.8H73.3604V30.584H72.2324C71.3364 30.584 70.6164 30.864 70.0724 31.424C69.5284 31.968 69.2564 32.736 69.2564 33.728V41H66.1124ZM75.089 45.8V27.944H78.041V30.536L77.753 29.888C78.201 29.184 78.809 28.64 79.577 28.256C80.345 27.856 81.233 27.656 82.241 27.656C83.473 27.656 84.585 27.96 85.577 28.568C86.569 29.176 87.353 29.992 87.929 31.016C88.521 32.04 88.817 33.192 88.817 34.472C88.817 35.736 88.529 36.888 87.953 37.928C87.377 38.968 86.593 39.792 85.601 40.4C84.609 40.992 83.481 41.288 82.217 41.288C81.273 41.288 80.401 41.104 79.601 40.736C78.817 40.352 78.193 39.808 77.729 39.104L78.233 38.48V45.8H75.089ZM81.857 38.408C82.577 38.408 83.217 38.24 83.777 37.904C84.337 37.568 84.769 37.104 85.073 36.512C85.393 35.92 85.553 35.24 85.553 34.472C85.553 33.704 85.393 33.032 85.073 32.456C84.769 31.864 84.337 31.4 83.777 31.064C83.217 30.712 82.577 30.536 81.857 30.536C81.169 30.536 80.545 30.704 79.985 31.04C79.441 31.376 79.009 31.848 78.689 32.456C78.385 33.048 78.233 33.72 78.233 34.472C78.233 35.24 78.385 35.92 78.689 36.512C79.009 37.104 79.441 37.568 79.985 37.904C80.545 38.24 81.169 38.408 81.857 38.408ZM97.406 41.288C96.062 41.288 94.886 40.984 93.878 40.376C92.87 39.768 92.086 38.944 91.526 37.904C90.966 36.864 90.686 35.712 90.686 34.448C90.686 33.136 90.966 31.976 91.526 30.968C92.102 29.944 92.878 29.136 93.854 28.544C94.846 27.952 95.95 27.656 97.166 27.656C98.19 27.656 99.086 27.824 99.854 28.16C100.638 28.496 101.302 28.96 101.846 29.552C102.39 30.144 102.806 30.824 103.094 31.592C103.382 32.344 103.526 33.16 103.526 34.04C103.526 34.264 103.51 34.496 103.478 34.736C103.462 34.976 103.422 35.184 103.358 35.36H93.278V32.96H101.582L100.094 34.088C100.238 33.352 100.198 32.696 99.974 32.12C99.766 31.544 99.414 31.088 98.918 30.752C98.438 30.416 97.854 30.248 97.166 30.248C96.51 30.248 95.926 30.416 95.414 30.752C94.902 31.072 94.51 31.552 94.238 32.192C93.982 32.816 93.886 33.576 93.95 34.472C93.886 35.272 93.99 35.984 94.262 36.608C94.55 37.216 94.966 37.688 95.51 38.024C96.07 38.36 96.71 38.528 97.43 38.528C98.15 38.528 98.758 38.376 99.254 38.072C99.766 37.768 100.166 37.36 100.454 36.848L102.998 38.096C102.742 38.72 102.342 39.272 101.798 39.752C101.254 40.232 100.606 40.608 99.854 40.88C99.118 41.152 98.302 41.288 97.406 41.288ZM105.909 41V27.944H108.861V30.512L108.621 30.056C108.925 29.272 109.421 28.68 110.109 28.28C110.813 27.864 111.629 27.656 112.557 27.656C113.517 27.656 114.365 27.864 115.101 28.28C115.853 28.696 116.437 29.28 116.853 30.032C117.269 30.768 117.477 31.624 117.477 32.6V41H114.333V33.344C114.333 32.768 114.221 32.272 113.997 31.856C113.773 31.44 113.461 31.12 113.061 30.896C112.677 30.656 112.221 30.536 111.693 30.536C111.181 30.536 110.725 30.656 110.325 30.896C109.925 31.12 109.613 31.44 109.389 31.856C109.165 32.272 109.053 32.768 109.053 33.344V41H105.909ZM126.088 41.144C124.616 41.144 123.472 40.744 122.656 39.944C121.856 39.128 121.456 37.984 121.456 36.512V30.752H119.2V27.944H119.44C120.08 27.944 120.576 27.776 120.928 27.44C121.28 27.104 121.456 26.616 121.456 25.976V24.968H124.6V27.944H127.6V30.752H124.6V36.344C124.6 36.776 124.672 37.144 124.816 37.448C124.976 37.752 125.216 37.984 125.536 38.144C125.872 38.304 126.296 38.384 126.808 38.384C126.92 38.384 127.048 38.376 127.192 38.36C127.352 38.344 127.504 38.328 127.648 38.312V41C127.424 41.032 127.168 41.064 126.88 41.096C126.592 41.128 126.328 41.144 126.088 41.144ZM130.05 41V27.944H133.002V30.848L132.762 30.416C133.066 29.44 133.538 28.76 134.178 28.376C134.834 27.992 135.618 27.8 136.53 27.8H137.298V30.584H136.17C135.274 30.584 134.554 30.864 134.01 31.424C133.466 31.968 133.194 32.736 133.194 33.728V41H130.05ZM140.611 46.28C140.259 46.28 139.915 46.248 139.579 46.184C139.243 46.136 138.939 46.04 138.667 45.896V43.28C138.875 43.328 139.123 43.376 139.411 43.424C139.715 43.472 139.995 43.496 140.251 43.496C140.971 43.496 141.491 43.328 141.811 42.992C142.147 42.672 142.443 42.24 142.699 41.696L143.562 39.68L143.515 42.32L137.827 27.944H141.211L145.195 38.552H143.995L147.955 27.944H151.363L145.675 42.32C145.339 43.152 144.931 43.864 144.451 44.456C143.97 45.048 143.411 45.496 142.771 45.8C142.147 46.12 141.427 46.28 140.611 46.28Z" fill="white"/>
<path d="M1276 24V38M1276 38L1283 31M1276 38L1269 31" stroke="white" stroke-width="2" stroke-linecap="round" stroke-linejoin="round"/>
</svg>
