<svg width="1320" height="62" viewBox="0 0 1320 62" fill="none" xmlns="http://www.w3.org/2000/svg">
<rect width="1320" height="62" rx="8" fill="#1482FF"/>
<path d="M34.1889 41V23.12H46.0689V26H37.4529V30.584H45.5889V33.464H37.4529V38.12H46.0689V41H34.1889ZM48.1984 41V22.832H51.3424V41H48.1984ZM60.4373 41.288C59.0933 41.288 57.9173 40.984 56.9093 40.376C55.9013 39.768 55.1173 38.944 54.5573 37.904C53.9973 36.864 53.7173 35.712 53.7173 34.448C53.7173 33.136 53.9973 31.976 54.5573 30.968C55.1333 29.944 55.9093 29.136 56.8853 28.544C57.8773 27.952 58.9813 27.656 60.1973 27.656C61.2213 27.656 62.1173 27.824 62.8853 28.16C63.6693 28.496 64.3333 28.96 64.8773 29.552C65.4213 30.144 65.8373 30.824 66.1253 31.592C66.4133 32.344 66.5573 33.16 66.5573 34.04C66.5573 34.264 66.5413 34.496 66.5093 34.736C66.4933 34.976 66.4533 35.184 66.3893 35.36H56.3092V32.96H64.6133L63.1253 34.088C63.2693 33.352 63.2293 32.696 63.0053 32.12C62.7973 31.544 62.4453 31.088 61.9493 30.752C61.4693 30.416 60.8853 30.248 60.1973 30.248C59.5413 30.248 58.9573 30.416 58.4453 30.752C57.9333 31.072 57.5413 31.552 57.2693 32.192C57.0133 32.816 56.9173 33.576 56.9813 34.472C56.9173 35.272 57.0213 35.984 57.2933 36.608C57.5813 37.216 57.9973 37.688 58.5413 38.024C59.1013 38.36 59.7413 38.528 60.4613 38.528C61.1813 38.528 61.7893 38.376 62.2853 38.072C62.7973 37.768 63.1973 37.36 63.4853 36.848L66.0293 38.096C65.7733 38.72 65.3733 39.272 64.8293 39.752C64.2853 40.232 63.6373 40.608 62.8853 40.88C62.1493 41.152 61.3333 41.288 60.4373 41.288ZM75.2286 41.288C73.9326 41.288 72.7646 40.992 71.7246 40.4C70.7006 39.792 69.8926 38.976 69.3006 37.952C68.7086 36.912 68.4126 35.744 68.4126 34.448C68.4126 33.152 68.7086 31.992 69.3006 30.968C69.8926 29.944 70.7006 29.136 71.7246 28.544C72.7646 27.952 73.9326 27.656 75.2286 27.656C76.1566 27.656 77.0206 27.824 77.8206 28.16C78.6206 28.48 79.3086 28.928 79.8846 29.504C80.4766 30.064 80.9006 30.736 81.1566 31.52L78.3966 32.72C78.1566 32.064 77.7486 31.536 77.1726 31.136C76.6126 30.736 75.9646 30.536 75.2286 30.536C74.5406 30.536 73.9246 30.704 73.3806 31.04C72.8526 31.376 72.4366 31.84 72.1326 32.432C71.8286 33.024 71.6766 33.704 71.6766 34.472C71.6766 35.24 71.8286 35.92 72.1326 36.512C72.4366 37.104 72.8526 37.568 73.3806 37.904C73.9246 38.24 74.5406 38.408 75.2286 38.408C75.9806 38.408 76.6366 38.208 77.1966 37.808C77.7566 37.408 78.1566 36.872 78.3966 36.2L81.1566 37.448C80.9006 38.184 80.4846 38.848 79.9086 39.44C79.3326 40.016 78.6446 40.472 77.8446 40.808C77.0446 41.128 76.1726 41.288 75.2286 41.288ZM89.4941 41.144C88.0221 41.144 86.8781 40.744 86.0621 39.944C85.2621 39.128 84.8621 37.984 84.8621 36.512V30.752H82.6061V27.944H82.8461C83.4861 27.944 83.9821 27.776 84.3341 27.44C84.6861 27.104 84.8621 26.616 84.8621 25.976V24.968H88.0061V27.944H91.0061V30.752H88.0061V36.344C88.0061 36.776 88.0781 37.144 88.2221 37.448C88.3821 37.752 88.6221 37.984 88.9421 38.144C89.2781 38.304 89.7021 38.384 90.2141 38.384C90.3261 38.384 90.4541 38.376 90.5981 38.36C90.7581 38.344 90.9101 38.328 91.0541 38.312V41C90.8301 41.032 90.5741 41.064 90.2861 41.096C89.9981 41.128 89.7341 41.144 89.4941 41.144ZM93.4562 41V27.944H96.4082V30.848L96.1682 30.416C96.4722 29.44 96.9442 28.76 97.5842 28.376C98.2402 27.992 99.0242 27.8 99.9362 27.8H100.704V30.584H99.5762C98.6802 30.584 97.9602 30.864 97.4162 31.424C96.8722 31.968 96.6002 32.736 96.6002 33.728V41H93.4562ZM102.433 41V27.944H105.577V41H102.433ZM102.433 26.48V23.12H105.577V26.48H102.433ZM114.768 41.288C113.472 41.288 112.304 40.992 111.264 40.4C110.24 39.792 109.432 38.976 108.84 37.952C108.248 36.912 107.952 35.744 107.952 34.448C107.952 33.152 108.248 31.992 108.84 30.968C109.432 29.944 110.24 29.136 111.264 28.544C112.304 27.952 113.472 27.656 114.768 27.656C115.696 27.656 116.56 27.824 117.36 28.16C118.16 28.48 118.848 28.928 119.424 29.504C120.016 30.064 120.44 30.736 120.696 31.52L117.936 32.72C117.696 32.064 117.288 31.536 116.712 31.136C116.152 30.736 115.504 30.536 114.768 30.536C114.08 30.536 113.464 30.704 112.92 31.04C112.392 31.376 111.976 31.84 111.672 32.432C111.368 33.024 111.216 33.704 111.216 34.472C111.216 35.24 111.368 35.92 111.672 36.512C111.976 37.104 112.392 37.568 112.92 37.904C113.464 38.24 114.08 38.408 114.768 38.408C115.52 38.408 116.176 38.208 116.736 37.808C117.296 37.408 117.696 36.872 117.936 36.2L120.696 37.448C120.44 38.184 120.024 38.848 119.448 39.44C118.872 40.016 118.184 40.472 117.384 40.808C116.584 41.128 115.712 41.288 114.768 41.288ZM126.994 41.288C126.082 41.288 125.29 41.136 124.618 40.832C123.946 40.528 123.426 40.096 123.058 39.536C122.69 38.96 122.506 38.296 122.506 37.544C122.506 36.824 122.666 36.184 122.986 35.624C123.306 35.048 123.802 34.568 124.474 34.184C125.146 33.8 125.994 33.528 127.018 33.368L131.29 32.672V35.072L127.618 35.696C126.994 35.808 126.53 36.008 126.226 36.296C125.922 36.584 125.77 36.96 125.77 37.424C125.77 37.872 125.938 38.232 126.274 38.504C126.626 38.76 127.058 38.888 127.57 38.888C128.226 38.888 128.802 38.752 129.298 38.48C129.81 38.192 130.202 37.8 130.474 37.304C130.762 36.808 130.906 36.264 130.906 35.672V32.312C130.906 31.752 130.682 31.288 130.234 30.92C129.802 30.536 129.226 30.344 128.506 30.344C127.834 30.344 127.234 30.528 126.706 30.896C126.194 31.248 125.818 31.72 125.578 32.312L123.01 31.064C123.266 30.376 123.666 29.784 124.21 29.288C124.77 28.776 125.426 28.376 126.178 28.088C126.93 27.8 127.746 27.656 128.626 27.656C129.698 27.656 130.642 27.856 131.458 28.256C132.274 28.64 132.906 29.184 133.354 29.888C133.818 30.576 134.05 31.384 134.05 32.312V41H131.074V38.768L131.746 38.72C131.41 39.28 131.01 39.752 130.546 40.136C130.082 40.504 129.554 40.792 128.962 41C128.37 41.192 127.714 41.288 126.994 41.288ZM136.956 41V22.832H140.1V41H136.956Z" fill="white"/>
<path d="M1276 24V38M1276 38L1283 31M1276 38L1269 31" stroke="white" stroke-width="2" stroke-linecap="round" stroke-linejoin="round"/>
</svg>
