<svg width="1320" height="62" viewBox="0 0 1320 62" fill="none" xmlns="http://www.w3.org/2000/svg">
<rect width="1320" height="62" rx="8" fill="#1482FF"/>
<path d="M37.2359 41L32.4359 23.12H35.9399L39.7079 38.36H38.7959L42.7319 23.12H46.1159L50.0279 38.36H49.1159L52.8839 23.12H56.3879L51.5879 41H47.8439L43.8839 26.168H44.9399L40.9799 41H37.2359ZM61.1037 41.288C60.1917 41.288 59.3997 41.136 58.7277 40.832C58.0557 40.528 57.5357 40.096 57.1677 39.536C56.7997 38.96 56.6157 38.296 56.6157 37.544C56.6157 36.824 56.7757 36.184 57.0957 35.624C57.4157 35.048 57.9117 34.568 58.5837 34.184C59.2557 33.8 60.1037 33.528 61.1277 33.368L65.3997 32.672V35.072L61.7277 35.696C61.1037 35.808 60.6397 36.008 60.3357 36.296C60.0317 36.584 59.8797 36.96 59.8797 37.424C59.8797 37.872 60.0477 38.232 60.3837 38.504C60.7357 38.76 61.1677 38.888 61.6797 38.888C62.3357 38.888 62.9117 38.752 63.4077 38.48C63.9197 38.192 64.3117 37.8 64.5837 37.304C64.8717 36.808 65.0157 36.264 65.0157 35.672V32.312C65.0157 31.752 64.7917 31.288 64.3437 30.92C63.9117 30.536 63.3357 30.344 62.6157 30.344C61.9437 30.344 61.3437 30.528 60.8157 30.896C60.3037 31.248 59.9277 31.72 59.6877 32.312L57.1197 31.064C57.3757 30.376 57.7757 29.784 58.3197 29.288C58.8797 28.776 59.5357 28.376 60.2877 28.088C61.0397 27.8 61.8557 27.656 62.7357 27.656C63.8077 27.656 64.7517 27.856 65.5677 28.256C66.3837 28.64 67.0157 29.184 67.4637 29.888C67.9277 30.576 68.1597 31.384 68.1597 32.312V41H65.1837V38.768L65.8557 38.72C65.5197 39.28 65.1197 39.752 64.6557 40.136C64.1917 40.504 63.6637 40.792 63.0717 41C62.4797 41.192 61.8237 41.288 61.1037 41.288ZM76.7832 41.144C75.3112 41.144 74.1672 40.744 73.3512 39.944C72.5512 39.128 72.1512 37.984 72.1512 36.512V30.752H69.8952V27.944H70.1352C70.7752 27.944 71.2712 27.776 71.6232 27.44C71.9752 27.104 72.1512 26.616 72.1512 25.976V24.968H75.2952V27.944H78.2952V30.752H75.2952V36.344C75.2952 36.776 75.3672 37.144 75.5112 37.448C75.6712 37.752 75.9112 37.984 76.2312 38.144C76.5672 38.304 76.9912 38.384 77.5032 38.384C77.6152 38.384 77.7432 38.376 77.8872 38.36C78.0472 38.344 78.1992 38.328 78.3432 38.312V41C78.1192 41.032 77.8632 41.064 77.5752 41.096C77.2872 41.128 77.0232 41.144 76.7832 41.144ZM86.8201 41.288C85.4761 41.288 84.3001 40.984 83.2921 40.376C82.2841 39.768 81.5001 38.944 80.9401 37.904C80.3801 36.864 80.1001 35.712 80.1001 34.448C80.1001 33.136 80.3801 31.976 80.9401 30.968C81.5161 29.944 82.2921 29.136 83.2681 28.544C84.2601 27.952 85.3641 27.656 86.5801 27.656C87.6041 27.656 88.5001 27.824 89.2681 28.16C90.0521 28.496 90.7161 28.96 91.2601 29.552C91.8041 30.144 92.2201 30.824 92.5081 31.592C92.7961 32.344 92.9401 33.16 92.9401 34.04C92.9401 34.264 92.9241 34.496 92.8921 34.736C92.8761 34.976 92.8361 35.184 92.7721 35.36H82.6921V32.96H90.9961L89.5081 34.088C89.6521 33.352 89.6121 32.696 89.3881 32.12C89.1801 31.544 88.8281 31.088 88.3321 30.752C87.8521 30.416 87.2681 30.248 86.5801 30.248C85.9241 30.248 85.3401 30.416 84.8281 30.752C84.3161 31.072 83.9241 31.552 83.6521 32.192C83.3961 32.816 83.3001 33.576 83.3641 34.472C83.3001 35.272 83.4041 35.984 83.6761 36.608C83.9641 37.216 84.3801 37.688 84.9241 38.024C85.4841 38.36 86.1241 38.528 86.8441 38.528C87.5641 38.528 88.1721 38.376 88.6681 38.072C89.1801 37.768 89.5801 37.36 89.8681 36.848L92.4121 38.096C92.1561 38.72 91.7561 39.272 91.2121 39.752C90.6681 40.232 90.0201 40.608 89.2681 40.88C88.5321 41.152 87.7161 41.288 86.8201 41.288ZM95.3234 41V27.944H98.2754V30.848L98.0354 30.416C98.3394 29.44 98.8114 28.76 99.4514 28.376C100.107 27.992 100.891 27.8 101.803 27.8H102.571V30.584H101.443C100.547 30.584 99.8274 30.864 99.2834 31.424C98.7394 31.968 98.4674 32.736 98.4674 33.728V41H95.3234ZM104.3 45.8V27.944H107.252V30.536L106.964 29.888C107.412 29.184 108.02 28.64 108.788 28.256C109.556 27.856 110.444 27.656 111.452 27.656C112.684 27.656 113.796 27.96 114.788 28.568C115.78 29.176 116.564 29.992 117.14 31.016C117.732 32.04 118.028 33.192 118.028 34.472C118.028 35.736 117.74 36.888 117.164 37.928C116.588 38.968 115.804 39.792 114.812 40.4C113.82 40.992 112.692 41.288 111.428 41.288C110.484 41.288 109.612 41.104 108.812 40.736C108.028 40.352 107.404 39.808 106.94 39.104L107.444 38.48V45.8H104.3ZM111.068 38.408C111.788 38.408 112.428 38.24 112.988 37.904C113.548 37.568 113.98 37.104 114.284 36.512C114.604 35.92 114.764 35.24 114.764 34.472C114.764 33.704 114.604 33.032 114.284 32.456C113.98 31.864 113.548 31.4 112.988 31.064C112.428 30.712 111.788 30.536 111.068 30.536C110.38 30.536 109.756 30.704 109.196 31.04C108.652 31.376 108.22 31.848 107.9 32.456C107.596 33.048 107.444 33.72 107.444 34.472C107.444 35.24 107.596 35.92 107.9 36.512C108.22 37.104 108.652 37.568 109.196 37.904C109.756 38.24 110.38 38.408 111.068 38.408ZM120.425 41V27.944H123.377V30.848L123.137 30.416C123.441 29.44 123.913 28.76 124.553 28.376C125.209 27.992 125.993 27.8 126.905 27.8H127.673V30.584H126.545C125.649 30.584 124.929 30.864 124.385 31.424C123.841 31.968 123.569 32.736 123.569 33.728V41H120.425ZM135.786 41.288C134.506 41.288 133.338 40.992 132.282 40.4C131.242 39.808 130.41 39 129.786 37.976C129.178 36.952 128.874 35.784 128.874 34.472C128.874 33.16 129.178 31.992 129.786 30.968C130.41 29.944 131.242 29.136 132.282 28.544C133.322 27.952 134.49 27.656 135.786 27.656C137.066 27.656 138.226 27.952 139.266 28.544C140.306 29.136 141.13 29.944 141.738 30.968C142.362 31.976 142.674 33.144 142.674 34.472C142.674 35.784 142.362 36.952 141.738 37.976C141.114 39 140.282 39.808 139.242 40.4C138.202 40.992 137.05 41.288 135.786 41.288ZM135.786 38.408C136.49 38.408 137.106 38.24 137.634 37.904C138.178 37.568 138.602 37.104 138.906 36.512C139.226 35.904 139.386 35.224 139.386 34.472C139.386 33.704 139.226 33.032 138.906 32.456C138.602 31.864 138.178 31.4 137.634 31.064C137.106 30.712 136.49 30.536 135.786 30.536C135.066 30.536 134.434 30.712 133.89 31.064C133.346 31.4 132.914 31.864 132.594 32.456C132.29 33.032 132.138 33.704 132.138 34.472C132.138 35.224 132.29 35.904 132.594 36.512C132.914 37.104 133.346 37.568 133.89 37.904C134.434 38.24 135.066 38.408 135.786 38.408ZM151.442 41.288C150.162 41.288 148.994 40.992 147.938 40.4C146.898 39.808 146.066 39 145.442 37.976C144.834 36.952 144.53 35.784 144.53 34.472C144.53 33.16 144.834 31.992 145.442 30.968C146.066 29.944 146.898 29.136 147.938 28.544C148.978 27.952 150.146 27.656 151.442 27.656C152.722 27.656 153.882 27.952 154.922 28.544C155.962 29.136 156.786 29.944 157.394 30.968C158.018 31.976 158.33 33.144 158.33 34.472C158.33 35.784 158.018 36.952 157.394 37.976C156.77 39 155.938 39.808 154.898 40.4C153.858 40.992 152.706 41.288 151.442 41.288ZM151.442 38.408C152.146 38.408 152.762 38.24 153.29 37.904C153.834 37.568 154.258 37.104 154.562 36.512C154.882 35.904 155.042 35.224 155.042 34.472C155.042 33.704 154.882 33.032 154.562 32.456C154.258 31.864 153.834 31.4 153.29 31.064C152.762 30.712 152.146 30.536 151.442 30.536C150.722 30.536 150.09 30.712 149.546 31.064C149.002 31.4 148.57 31.864 148.25 32.456C147.946 33.032 147.794 33.704 147.794 34.472C147.794 35.224 147.946 35.904 148.25 36.512C148.57 37.104 149.002 37.568 149.546 37.904C150.09 38.24 150.722 38.408 151.442 38.408ZM161.945 41V30.752H159.641V27.944H161.945V27.512C161.945 26.52 162.145 25.68 162.545 24.992C162.961 24.288 163.537 23.752 164.273 23.384C165.009 23.016 165.881 22.832 166.889 22.832C167.081 22.832 167.289 22.848 167.513 22.88C167.753 22.896 167.953 22.92 168.113 22.952V25.664C167.953 25.632 167.801 25.616 167.657 25.616C167.529 25.6 167.409 25.592 167.297 25.592C166.593 25.592 166.049 25.752 165.665 26.072C165.281 26.376 165.089 26.856 165.089 27.512V27.944H170.801V30.752H165.089V41H161.945ZM169.625 41V27.944H172.793V41H169.625ZM175.409 41V27.944H178.361V30.512L178.121 30.056C178.425 29.272 178.921 28.68 179.609 28.28C180.313 27.864 181.129 27.656 182.057 27.656C183.017 27.656 183.865 27.864 184.601 28.28C185.353 28.696 185.937 29.28 186.353 30.032C186.769 30.768 186.977 31.624 186.977 32.6V41H183.833V33.344C183.833 32.768 183.721 32.272 183.497 31.856C183.273 31.44 182.961 31.12 182.561 30.896C182.177 30.656 181.721 30.536 181.193 30.536C180.681 30.536 180.225 30.656 179.825 30.896C179.425 31.12 179.113 31.44 178.889 31.856C178.665 32.272 178.553 32.768 178.553 33.344V41H175.409ZM195.972 46.28C194.996 46.28 194.092 46.12 193.26 45.8C192.428 45.48 191.708 45.032 191.1 44.456C190.508 43.896 190.076 43.232 189.804 42.464L192.732 41.36C192.924 41.968 193.3 42.456 193.86 42.824C194.436 43.208 195.14 43.4 195.972 43.4C196.612 43.4 197.172 43.28 197.652 43.04C198.148 42.8 198.532 42.448 198.804 41.984C199.076 41.536 199.212 40.992 199.212 40.352V37.376L199.812 38.096C199.364 38.88 198.764 39.472 198.012 39.872C197.26 40.272 196.404 40.472 195.444 40.472C194.228 40.472 193.14 40.192 192.18 39.632C191.22 39.072 190.468 38.304 189.924 37.328C189.38 36.352 189.108 35.256 189.108 34.04C189.108 32.808 189.38 31.712 189.924 30.752C190.468 29.792 191.212 29.04 192.156 28.496C193.1 27.936 194.172 27.656 195.372 27.656C196.348 27.656 197.204 27.864 197.94 28.28C198.692 28.68 199.316 29.264 199.812 30.032L199.38 30.824V27.944H202.356V40.352C202.356 41.488 202.076 42.504 201.516 43.4C200.972 44.296 200.22 45 199.26 45.512C198.316 46.024 197.22 46.28 195.972 46.28ZM195.828 37.568C196.5 37.568 197.084 37.424 197.58 37.136C198.092 36.832 198.492 36.416 198.78 35.888C199.068 35.36 199.212 34.752 199.212 34.064C199.212 33.392 199.06 32.792 198.756 32.264C198.468 31.72 198.068 31.296 197.556 30.992C197.06 30.688 196.484 30.536 195.828 30.536C195.172 30.536 194.58 30.688 194.052 30.992C193.524 31.296 193.108 31.72 192.804 32.264C192.516 32.792 192.372 33.392 192.372 34.064C192.372 34.736 192.516 35.336 192.804 35.864C193.108 36.392 193.516 36.808 194.028 37.112C194.556 37.416 195.156 37.568 195.828 37.568Z" fill="white"/>
<path d="M1276 24V38M1276 38L1283 31M1276 38L1269 31" stroke="white" stroke-width="2" stroke-linecap="round" stroke-linejoin="round"/>
</svg>
