<svg width="71" height="75" viewBox="0 0 71 75" fill="none" xmlns="http://www.w3.org/2000/svg">
<path fill-rule="evenodd" clip-rule="evenodd" d="M41.2904 0.240761C46.6704 0.690758 52.0704 2.03073 56.7204 4.84074C61.2104 7.56073 64.8105 11.6208 67.2505 16.2408C68.4705 18.5508 69.3604 21.0407 69.9304 23.5807C70.5204 26.2007 70.7204 28.9007 70.6804 31.5807C70.5904 37.0207 69.4304 42.4707 67.0604 47.3807C64.7404 52.1907 61.3304 56.4307 57.5204 60.1407C56.2704 61.3607 54.9604 62.5207 53.6104 63.6407C52.8104 64.3007 52.0004 64.9607 51.1604 65.5707L47.4704 68.2408C46.4404 68.9908 45.3304 69.6607 44.2404 70.3107C42.7904 71.1607 41.2905 71.9307 39.7505 72.5807C38.2205 73.2207 36.6305 73.7007 35.0005 73.9807C33.4505 74.2407 31.8804 74.1907 30.3304 74.0007C29.4904 73.9007 28.8504 73.1607 28.8004 72.3507C28.3004 72.4707 27.7404 72.3607 27.2804 72.0407C26.3827 71.4188 25.4902 70.7918 24.5955 70.1634C24.2246 69.9028 23.8526 69.6415 23.4804 69.3807L23.3004 69.2607C23.3104 69.2657 23.3179 69.2707 23.3254 69.2757C23.3329 69.2807 23.3404 69.2858 23.3504 69.2908C22.9104 68.9957 22.4704 68.6982 22.0304 68.4007L22.0288 68.3996C21.5893 68.1025 21.1499 67.8054 20.7104 67.5107C20.7324 67.5254 20.7544 67.5414 20.7769 67.5578L20.7941 67.5703C20.3094 67.2507 19.8131 66.9465 19.3158 66.6417C19.0773 66.4955 18.8383 66.349 18.6004 66.2007C18.1512 65.92 17.6991 65.6421 17.2467 65.3642C16.2492 64.7512 15.2504 64.1374 14.2804 63.4908C12.1004 62.0308 10.0704 60.3907 8.30038 58.4407C6.54038 56.5107 5.09035 54.3207 3.89035 52.0007C2.67035 49.6307 1.76045 47.1107 1.12045 44.5207C0.480453 41.9207 0.170387 39.2308 0.0503845 36.5508C-0.0696182 33.8308 0.0303726 31.1007 0.290375 28.3907C0.560371 25.6607 1.05043 22.9407 1.85043 20.3107C2.60043 17.8507 3.73036 15.4907 5.15036 13.3507C6.56036 11.2307 8.28041 9.37074 10.2104 7.72074C14.2804 4.24074 19.4004 2.20074 24.5904 1.10075C28.2404 0.330742 31.9504 0.000709534 35.6604 0.000709534C37.5304 -0.0092926 39.4104 0.0807571 41.2904 0.240761ZM20.9004 67.6407C20.865 67.6172 20.8296 67.5937 20.7941 67.5703C20.8276 67.5946 20.8625 67.6191 20.9004 67.6407ZM62.6303 15.3907C61.9403 14.3907 61.2004 13.4307 60.4104 12.5107C59.7404 11.7707 59.0404 11.0707 58.3004 10.4007C57.4804 9.69073 56.6304 9.03075 55.7404 8.42075C54.9804 7.92075 54.2004 7.46075 53.4004 7.04075C52.2404 6.46075 51.0504 5.97073 49.8304 5.53074C48.5404 5.10074 47.2304 4.76075 45.9004 4.48075C43.8104 4.07075 41.7004 3.80074 39.5804 3.66074C37.1304 3.51074 34.6704 3.48071 32.2204 3.63071C29.9204 3.79071 27.6403 4.09075 25.3803 4.55076C23.8655 4.87963 22.3805 5.278 20.9154 5.76572C20.9204 5.76322 20.9254 5.76072 20.9304 5.76072C20.9239 5.76072 20.9184 5.76178 20.9137 5.76356C20.9092 5.76524 20.9054 5.76756 20.9019 5.77023C20.8979 5.7733 20.8938 5.77724 20.8903 5.78074C20.8804 5.78574 20.8704 5.78824 20.8604 5.79074C20.8504 5.79324 20.8404 5.79575 20.8304 5.80076H20.8204C20.7804 5.81075 20.7504 5.82073 20.7104 5.84074L20.7141 5.84063C19.5435 6.25587 18.3925 6.72956 17.2804 7.28074C16.3004 7.79073 15.3504 8.35073 14.4204 8.96073C13.5704 9.55073 12.7604 10.1807 11.9804 10.8507C11.2804 11.4907 10.6004 12.1508 9.97042 12.8608C9.30042 13.6308 8.68043 14.4408 8.10043 15.2907C7.55043 16.1208 7.06044 16.9708 6.61044 17.8608C6.62637 17.8329 6.64069 17.805 6.6547 17.7778C6.6759 17.7366 6.69635 17.6969 6.72042 17.6607C6.23042 18.6707 5.79039 19.7007 5.43039 20.7507C5.02039 22.0107 4.69037 23.3007 4.41037 24.5907C4.03037 26.5307 3.80037 28.4807 3.66037 30.4507C3.51037 32.8107 3.50035 35.1807 3.64035 37.5407C3.63535 37.5007 3.63287 37.4608 3.63039 37.4208C3.62792 37.3808 3.62545 37.3408 3.62045 37.3008C3.74046 39.1008 3.97041 40.9008 4.3204 42.6708C4.6104 44.0308 4.99039 45.3608 5.43039 46.6708C5.85039 47.8308 6.33044 48.9607 6.86044 50.0607C7.44044 51.2007 8.07036 52.2907 8.78036 53.3507C9.36377 54.1967 9.99452 55.0143 10.6633 55.7943C11.3856 56.5965 12.145 57.3616 12.9504 58.0807C13.9804 58.9607 15.0704 59.7507 16.1904 60.5107C17.2524 61.2187 18.345 61.8844 19.4374 62.55C20.5901 63.2523 21.7426 63.9545 22.8587 64.7062C22.8518 64.7029 22.845 64.7007 22.8404 64.7007C23.2653 64.9857 23.6877 65.2706 24.1101 65.5556C24.5327 65.8406 24.9553 66.1257 25.3803 66.4107C25.3589 66.3965 25.3375 66.3809 25.3156 66.365C26.3285 67.0477 27.3222 67.7498 28.318 68.4535L28.3192 68.4543C28.6856 68.7132 29.0523 68.9723 29.4204 69.2308C29.8504 69.5308 30.0804 70.0308 30.1004 70.5408C30.3204 70.4808 30.5504 70.4608 30.7804 70.4908C31.1204 70.5408 31.4504 70.5707 31.7904 70.6007L31.8025 70.6012C32.3183 70.6211 32.8244 70.6405 33.3304 70.6108C33.9004 70.5608 34.4704 70.4807 35.0304 70.3807C35.6704 70.2407 36.3004 70.0708 36.9204 69.8608C38.0646 69.4569 39.1719 68.9883 40.2599 68.4461C40.2334 68.458 40.2069 68.4694 40.1804 68.4808C41.9104 67.5908 43.5704 66.5807 45.2004 65.5107C45.4983 65.2954 45.7953 65.0801 46.092 64.8651L46.0938 64.8638C46.8022 64.3502 47.5091 63.8378 48.2204 63.3307C49.8004 62.1907 51.3204 60.9707 52.7904 59.6907C54.5066 58.1608 56.1651 56.554 57.6999 54.8325C58.9284 53.4237 60.1077 51.9659 61.1804 50.4307C62.1004 49.0507 62.9504 47.6407 63.7004 46.1607C64.2904 44.9507 64.8103 43.7107 65.2603 42.4307C65.2453 42.4657 65.2329 42.5007 65.2204 42.5357C65.2079 42.5707 65.1954 42.6057 65.1804 42.6407C65.6704 41.2307 66.0703 39.7907 66.3803 38.3207C66.7103 36.6107 66.9304 34.8907 67.0604 33.1607C67.1497 31.7013 67.1504 30.2418 67.0721 28.7823C67.0735 28.7898 67.076 28.7963 67.0804 28.8008C67.0804 28.7858 67.0779 28.7708 67.0754 28.7557C67.0729 28.7407 67.0704 28.7257 67.0704 28.7107C67.0704 28.6857 67.0679 28.6607 67.0654 28.6357C67.0629 28.6107 67.0604 28.5857 67.0604 28.5607V28.6507C66.9604 27.3307 66.7904 26.0207 66.5404 24.7107C66.3104 23.6407 66.0204 22.5908 65.6804 21.5508C65.2916 20.4443 64.8433 19.3578 64.3155 18.2911C63.8167 17.3044 63.2483 16.3277 62.6303 15.3907ZM67.0704 28.7507C67.0704 28.7618 67.0704 28.7729 67.0721 28.7823L67.0704 28.7507ZM25.3156 66.365L25.1904 66.2807C25.2347 66.3061 25.275 66.3354 25.3138 66.3636L25.3156 66.365ZM22.8803 64.7207C22.875 64.7154 22.8667 64.71 22.8587 64.7062L22.8803 64.7207ZM20.77 5.8209L20.7141 5.84063C20.7327 5.83952 20.7513 5.83022 20.77 5.8209ZM20.9019 5.77023C20.9064 5.76872 20.9109 5.76722 20.9154 5.76572C20.9107 5.76807 20.9066 5.76995 20.9019 5.77023ZM57.694 54.8392C57.6761 54.8591 57.6582 54.8793 57.6403 54.9007L57.694 54.8392ZM27.1204 17.8908C27.1304 17.8908 27.1503 17.8908 27.1603 17.9008C27.3855 17.9434 27.5965 18.022 27.7859 18.1303C27.9441 18.1062 28.1022 18.0907 28.2604 18.0907C28.505 18.0907 28.7268 18.1518 28.9523 18.2139C28.9849 18.2229 29.0176 18.2319 29.0505 18.2408C29.3805 18.3408 29.6705 18.5307 29.9605 18.7207C30.1308 18.8343 30.2971 18.9518 30.462 19.0682C30.5585 19.1364 30.6545 19.2043 30.7505 19.2707C30.9843 19.4208 31.2198 19.5685 31.4555 19.7162C32.1779 20.1691 32.9019 20.6229 33.5805 21.1507C33.8155 21.3307 34.0455 21.5182 34.2754 21.7057C34.5055 21.8932 34.7355 22.0807 34.9705 22.2607C35.3835 22.5705 35.7964 22.8739 36.2144 23.1811C36.3227 23.2607 36.4314 23.3405 36.5405 23.4208C37.8105 24.2408 39.1205 25.0107 40.4305 25.7507C41.8105 26.5307 43.1105 27.4007 44.4205 28.2907C45.3293 28.88 46.2581 29.4393 47.1869 29.9986L47.1905 30.0007C47.813 30.3699 48.4198 30.7653 49.0261 31.1603C49.2573 31.311 49.4885 31.4616 49.7205 31.6108C50.4043 32.0539 51.0954 32.4854 51.7866 32.9169C52.9047 33.6149 54.0229 34.313 55.1105 35.0607C55.7305 35.4007 56.1104 36.1508 56.0204 36.8608C55.9878 37.1069 55.9059 37.3309 55.7864 37.5269C55.7544 37.7418 55.6807 37.9486 55.5604 38.1307C55.4404 38.3107 55.3304 38.4508 55.1804 38.5908L55.2003 38.5657C55.231 38.527 55.2573 38.4939 55.2903 38.4608C55.3103 38.4408 55.3204 38.4208 55.3304 38.4008C55.2704 38.4808 55.2003 38.5607 55.1303 38.6307C55.1169 38.6441 55.1032 38.6578 55.0868 38.6712C55.088 38.6709 55.0892 38.6708 55.0904 38.6708C55.0787 38.6825 55.0669 38.6908 55.0572 38.6976C55.0504 38.7025 55.0445 38.7066 55.0403 38.7108C55.0403 38.7108 55.0303 38.7108 55.0303 38.7208C54.7403 38.9708 54.3704 39.1108 54.0004 39.1408C53.4208 39.471 52.8502 39.8331 52.2825 40.1933C52.0081 40.3675 51.7342 40.5413 51.4604 40.7108C50.9001 41.0556 50.336 41.3966 49.7704 41.7385L49.7693 41.7391C49.4167 41.9523 49.0635 42.1658 48.7104 42.3807C48.1837 42.7008 47.6481 42.9942 47.1124 43.2875C46.8447 43.4342 46.577 43.5808 46.3104 43.7308C45.5604 44.1508 44.8104 44.5608 44.0504 44.9708L44.0487 44.9717C42.3593 45.8714 40.6698 46.7711 39.0203 47.7608C38.1003 48.3108 37.1804 48.8707 36.2504 49.4407C35.4604 49.9307 34.6504 50.4208 33.8104 50.8208C33.0804 51.1708 32.3404 51.4908 31.5904 51.7808C31.2634 51.9131 30.9243 52.0212 30.5872 52.1287C30.4913 52.1593 30.3956 52.1898 30.3004 52.2208C30.1604 52.2608 30.0104 52.3008 29.8604 52.3408C29.3204 52.4908 28.8103 52.5208 28.2703 52.4508C27.4403 52.3408 26.6803 51.7007 26.2703 51.0007C25.8278 50.242 25.736 49.3283 25.6488 48.4586C25.6394 48.3654 25.6301 48.2727 25.6204 48.1807C25.43 46.4952 25.4208 44.7824 25.4117 43.0856L25.4103 42.8308C25.4082 42.0672 25.4092 41.3037 25.4103 40.5402C25.4141 37.7041 25.4179 34.8694 25.2603 32.0408V32.0508C25.2038 31.3202 25.1399 30.5897 25.076 29.8591C24.9587 28.5197 24.8415 27.1802 24.7703 25.8408C24.7203 24.8408 24.7004 23.8308 24.7504 22.8308C24.7605 22.6874 24.7699 22.544 24.7793 22.4007C24.8074 21.974 24.8354 21.5474 24.8803 21.1207C24.9403 20.4807 25.0104 19.8008 25.1804 19.1708C25.3704 18.4508 26.0904 17.8608 26.8504 17.8608C26.9404 17.8608 27.0304 17.8708 27.1204 17.8908ZM51.188 36.7216C51.1457 36.7483 51.1032 36.7747 51.0604 36.8008C50.6004 37.0808 50.1504 37.3608 49.6904 37.6508C49.055 38.0479 48.4145 38.4345 47.7724 38.822L47.7691 38.8241C47.523 38.9726 47.2766 39.1213 47.0303 39.2708C45.6834 40.0914 44.2966 40.8325 42.9127 41.5721C42.7452 41.6617 42.5777 41.7512 42.4103 41.8408C42.1661 41.9723 41.9214 42.1036 41.6766 42.235L41.6746 42.2361C40.226 43.0135 38.7713 43.7942 37.3604 44.6408C36.8988 44.9172 36.4394 45.1975 35.98 45.4777C34.7776 46.2114 33.5749 46.9451 32.3304 47.6108C31.5004 47.9908 30.6704 48.3508 29.8104 48.6608C29.6304 48.7208 29.4403 48.7808 29.2603 48.8308C29.1603 48.2008 29.1004 47.5608 29.0504 46.9208V46.8107C29.0404 46.7807 29.0403 46.7508 29.0403 46.7208C28.9404 44.821 28.9445 42.9074 28.9487 40.9972C28.9495 40.6151 28.9504 40.2325 28.9504 39.8508C28.9504 39.4978 28.951 39.1448 28.9516 38.792L28.9516 38.786C28.9535 37.7214 28.9554 36.6583 28.9404 35.6008C28.9204 34.0408 28.8504 32.4807 28.7304 30.9307C28.6771 30.2667 28.6167 29.6004 28.5562 28.9317C28.4918 28.221 28.4271 27.5068 28.3704 26.7908C28.2904 25.2908 28.2604 23.8008 28.3304 22.2908C28.3417 22.166 28.3538 22.0419 28.3665 21.9184C28.6722 22.1341 28.9786 22.3477 29.3005 22.5407C29.7505 22.8107 30.2004 23.0907 30.6404 23.3807C31.1424 23.7365 31.6202 24.1166 32.0993 24.4978C32.3743 24.7165 32.6497 24.9356 32.9305 25.1507C33.8205 25.8407 34.7405 26.4707 35.6905 27.0807C36.4645 27.5706 37.2865 28.0317 38.0907 28.4828L38.1404 28.5107C39.0104 29.0007 39.8705 29.5007 40.7105 30.0307C40.9675 30.2057 41.2238 30.3837 41.4806 30.5621C42.1628 31.0359 42.8484 31.512 43.5605 31.9407C43.9123 32.1546 44.2677 32.3637 44.6233 32.5729C45.2988 32.9704 45.9753 33.3684 46.6304 33.8008C48.0142 34.7095 49.4028 35.5898 50.7928 36.4711C50.9245 36.5546 51.0562 36.6381 51.188 36.7216Z" fill="#BFE002"/>
</svg>
