<svg width="144" height="153" viewBox="0 0 144 153" fill="none" xmlns="http://www.w3.org/2000/svg">
<path fill-rule="evenodd" clip-rule="evenodd" d="M66.1956 140.445C65.0265 141.35 64.1031 142.505 63.312 143.742C63.0946 144.074 63.0253 144.457 63.0862 144.832C63.16 145.377 63.4816 145.889 63.9632 146.167C64.8279 146.665 65.8614 146.323 66.3778 145.517C66.4108 145.462 66.445 145.417 66.478 145.362C66.758 144.971 67.0381 144.58 67.3406 144.206C67.5345 143.998 67.7382 143.789 67.9532 143.588C68.7546 142.901 69.5964 142.259 70.4364 141.619C70.8854 141.277 71.3338 140.936 71.7752 140.588C72.8589 139.733 73.8934 138.799 74.9188 137.873L75.0003 137.8C75.1176 137.694 75.2353 137.589 75.353 137.483C76.7064 136.268 78.0767 135.038 79.2746 133.669C79.9022 132.938 80.5086 132.2 81.0462 131.401L81.0706 131.364C81.4745 130.753 81.9139 130.089 82.1146 129.379C82.3035 128.687 82.2875 127.973 81.825 127.39C81.6289 127.134 81.3476 126.92 81.0415 126.82C80.8404 126.748 80.6333 126.709 80.4286 126.702C80.263 126.473 80.0845 126.254 79.8874 126.048C78.7868 124.85 77.5213 123.8 76.2641 122.757C75.9667 122.511 75.6698 122.264 75.3757 122.017L75.3869 122.025C74.0801 120.87 72.8017 119.701 71.5846 118.463C70.3337 117.2 69.1184 115.901 67.9216 114.59C67.4083 114.003 66.9035 113.406 66.4073 112.797L65.6043 111.785C65.177 111.238 64.5512 110.939 63.8477 111.034C62.8864 111.165 62.2123 112.073 62.3312 113.026C62.383 113.483 62.58 113.82 62.8503 114.177C62.9736 114.342 63.1239 114.483 63.2985 114.58C64.1002 115.582 64.9189 116.561 65.7832 117.503C66.8721 118.688 67.9668 119.841 69.0912 120.991C70.1692 122.096 71.3001 123.144 72.458 124.168C73.3676 124.971 74.2958 125.757 75.2216 126.542C75.4155 126.706 75.6094 126.87 75.8029 127.035C76.3187 127.49 76.8258 127.956 77.2973 128.457C77.3313 128.489 77.3607 128.528 77.3883 128.564C77.3983 128.577 77.4082 128.59 77.4179 128.602C77.4035 128.615 77.3916 128.624 77.3808 128.632C77.3712 128.639 77.3626 128.645 77.3539 128.651C77.2331 128.728 77.1124 128.805 76.9902 128.872C76.5162 129.098 76.0468 129.282 75.5561 129.46L75.3715 129.52C73.5181 130.123 71.6469 130.732 69.7424 131.165C68.4663 131.424 67.1871 131.551 65.8975 131.679C65.6785 131.701 65.4592 131.722 65.2395 131.745C64.9773 131.761 64.7157 131.777 64.4544 131.794C63.5185 131.853 62.586 131.912 61.6417 131.929C60.4027 131.946 59.1682 131.921 57.9225 131.888C57.7631 131.877 57.6037 131.866 57.4444 131.856C56.6161 131.8 55.789 131.744 54.9642 131.653L54.954 131.652C53.6856 131.501 52.4173 131.351 51.1562 131.18C50.1815 131.05 49.2042 130.901 48.2323 130.752C48.0054 130.717 47.7786 130.683 47.5524 130.648C46.871 130.55 46.1983 130.413 45.527 130.277C45.2045 130.212 44.8823 130.146 44.5597 130.085C44.6067 130.09 44.651 130.099 44.6938 130.108C44.7255 130.114 44.7564 130.12 44.7871 130.125L44.6233 130.087C42.9491 129.698 41.2859 129.312 39.6477 128.762C38.3966 128.316 37.1842 127.784 35.9962 127.208C34.9999 126.707 34.0367 126.151 33.1076 125.551C32.3294 125.02 31.5855 124.445 30.8659 123.826C30.0298 123.092 29.2491 122.319 28.4928 121.503C27.9556 120.89 27.4567 120.261 26.9835 119.599C26.554 118.961 26.1713 118.296 25.8157 117.607C25.4759 116.887 25.1658 116.162 24.894 115.421C24.5769 114.495 24.3193 113.562 24.1198 112.61C23.9347 111.616 23.8077 110.604 23.7303 109.585C23.7192 109.354 23.7095 109.133 23.6985 108.903C25.3504 110.445 27.156 111.856 29.1394 112.939C31.3523 114.153 33.9 115.231 36.4803 115.134C38.9403 115.043 41.2547 114.175 43.2912 112.819C45.207 111.54 46.9506 109.811 48.101 107.798C49.3744 105.577 49.9767 103.094 49.8426 100.539C49.7138 98.0233 48.7653 95.6391 47.1146 93.7334C45.4991 91.8632 43.1892 90.7532 40.7516 90.4879C38.1189 90.1985 35.3962 90.4361 32.8222 91.0268C30.3657 91.5915 27.8788 92.4531 25.8314 93.9514C23.8209 95.4245 22.2908 97.5389 21.4154 99.8675C21.3648 100.016 21.3128 100.154 21.2623 100.302C21.0653 99.9654 20.8769 99.6174 20.6998 99.2782C20.1603 98.2008 19.6876 97.0943 19.2815 95.9585C18.9698 95.0253 18.7044 94.0859 18.4829 93.1223C18.4773 93.0893 18.4705 93.0565 18.4606 93.024C18.4594 93.0169 18.4583 93.0097 18.4573 93.0024C18.231 91.8524 18.0739 90.6929 17.9863 89.5241L17.985 89.5142C17.98 89.4773 17.9783 89.4361 17.9755 89.3936C17.9042 87.9682 17.913 86.5607 17.9886 85.1442L18.0273 84.7242C18.1647 83.2311 18.3012 81.7487 18.5912 80.2793C18.7273 79.6453 18.8932 79.0073 19.0816 78.3864C19.2649 77.8772 19.4609 77.3864 19.6879 76.9016C19.9604 76.3803 20.2554 75.8762 20.5715 75.3793C20.9531 74.8432 21.3571 74.3243 21.7823 73.8126C22.5596 72.9202 23.3818 72.0621 24.2617 71.2568C24.5862 70.9706 24.9234 70.703 25.2731 70.4538C25.4579 70.3279 25.644 70.2118 25.8413 70.1044C25.9361 70.0579 26.032 70.0202 26.1279 69.9825C26.1757 69.9637 26.2235 69.9449 26.2712 69.9251C26.3194 69.9084 26.3788 69.9004 26.4271 69.8837C26.4964 69.8689 26.5661 69.8569 26.6375 69.8461C26.6975 69.837 26.7588 69.8287 26.8221 69.8202C27.7833 69.69 28.4687 68.7899 28.3386 67.8287C28.2084 66.8675 27.2984 66.1834 26.347 66.3122L26.2381 66.327C25.4182 66.4582 24.6231 66.697 23.9043 67.1273C23.045 67.6373 22.2513 68.2594 21.5364 68.9416C20.8215 69.6237 20.1429 70.3513 19.4645 71.0789C18.1846 72.4329 17.0797 74.0356 16.3219 75.7428C15.4793 77.6431 15.036 79.6608 14.768 81.7053C14.4133 84.377 14.2774 87.0999 14.4601 89.7897C14.5063 90.4293 14.571 91.0563 14.6641 91.6693C15.1566 95.3061 16.3428 98.849 18.1864 102.03C18.8051 103.097 19.5004 104.133 20.2498 105.121C20.1793 105.868 20.1485 106.608 20.1388 107.357C20.0893 112.58 21.3189 117.934 24.477 122.178C25.3047 123.297 26.2333 124.342 27.2417 125.306C28.1448 126.162 29.0862 127.004 30.0849 127.746C32.112 129.228 34.3434 130.429 36.6629 131.386C39.3785 132.512 42.2288 133.216 45.0998 133.776C47.0078 134.153 48.9247 134.449 50.8562 134.702C51.8536 134.839 52.8596 134.965 53.8643 135.082C54.838 135.192 55.8075 135.273 56.7857 135.342C58.7434 135.49 60.6993 135.478 62.6612 135.434C63.3552 135.416 64.0447 135.364 64.7342 135.313C64.9638 135.295 65.1934 135.278 65.4231 135.262C66.6045 135.193 67.7977 135.062 68.9643 134.883C70.8334 134.601 72.6545 134.082 74.4569 133.513C73.7846 134.147 73.0974 134.764 72.4113 135.381L72.2591 135.517L72.0133 135.732C70.8226 136.772 69.6284 137.815 68.3617 138.78C67.6293 139.333 66.9168 139.883 66.1956 140.445ZM18.461 93.0264C18.4682 93.0584 18.4755 93.0904 18.4829 93.1223C18.4871 93.1478 18.4906 93.1735 18.4941 93.1992C18.4894 93.1645 18.4826 93.1327 18.4757 93.1008C18.4705 93.0763 18.4652 93.052 18.461 93.0264ZM18.461 93.0264L18.46 93.0221L18.4606 93.024L18.461 93.0264ZM45.8668 98.4535C45.9718 98.7824 46.0571 99.1139 46.1437 99.4554C46.1805 99.6522 46.2073 99.8504 46.2454 100.057C46.2722 100.255 46.2977 100.444 46.3147 100.643C46.3341 101.085 46.3337 101.529 46.3134 101.975C46.2734 102.425 46.2036 102.878 46.1226 103.323C46.0367 103.658 45.9409 103.994 45.8352 104.331C45.6939 104.703 45.5413 105.067 45.3689 105.433C45.1939 105.78 45.0062 106.108 44.7987 106.439C44.5385 106.827 44.2643 107.187 43.9703 107.55C43.5497 108.021 43.1052 108.465 42.6382 108.891C42.2398 109.228 41.8287 109.546 41.4051 109.845C40.9702 110.136 40.5214 110.399 40.0685 110.632C39.6797 110.816 39.2783 110.981 38.8755 111.136C38.5083 111.257 38.1187 111.36 37.7375 111.452C37.4033 111.517 37.0763 111.562 36.7479 111.596C36.4664 111.604 36.1948 111.61 35.9107 111.598C35.5828 111.562 35.255 111.526 34.9245 111.47C34.467 111.37 34.0253 111.238 33.5822 111.096C32.9249 110.862 32.2933 110.595 31.6662 110.286C30.9279 109.902 30.2054 109.485 29.5087 109.034C28.6162 108.432 27.7743 107.785 26.955 107.088C26.0376 106.283 25.1547 105.443 24.3385 104.537C24.208 104.394 24.0762 104.24 23.9444 104.086C23.9842 103.859 24.0227 103.622 24.0626 103.394C24.1856 102.812 24.3397 102.236 24.5334 101.655C24.7095 101.167 24.9154 100.675 25.1437 100.2C25.3603 99.7874 25.598 99.3818 25.847 98.9848C26.077 98.6711 26.3083 98.3673 26.5509 98.0721C26.7975 97.8066 27.0553 97.5497 27.3244 97.3013C27.5336 97.1317 27.7341 96.9734 27.9446 96.8137C28.4263 96.4962 28.9121 96.2084 29.4204 95.9377C30.0647 95.6285 30.7144 95.3588 31.388 95.1162C32.2471 94.8284 33.1143 94.5999 33.9967 94.4098C35.0504 94.2167 36.1093 94.0632 37.1777 93.979C37.9488 93.9352 38.7127 93.9124 39.4945 93.9478C40.0457 93.9943 40.5897 94.0619 41.1278 94.1606C41.2758 94.1977 41.4207 94.2353 41.5644 94.2749C41.6742 94.3051 41.7834 94.3366 41.8928 94.3698C42.1805 94.4823 42.4682 94.5947 42.7486 94.7282C42.9458 94.8428 43.133 94.9587 43.3203 95.0746C43.5215 95.2189 43.7015 95.356 43.8842 95.5129C44.0669 95.6698 44.2411 95.838 44.4066 96.0174C44.6239 96.2806 44.8313 96.5452 45.0301 96.821C45.2091 97.0995 45.3782 97.3793 45.5288 97.6717C45.6542 97.9272 45.7598 98.1854 45.8668 98.4535Z" fill="#BFE002"/>
<path d="M9.86 3.22L9.84 3.46C10.56 3.64 10.92 4.28 10.86 5.04C10.96 5.12 11 5.22 11 5.32C11 5.74 10.32 6.3 9.56 6.46C9.14 5.92 9.8 5.9 9.6 5.68C7.58 5.68 6.56 6.08 4.82 7.32V7.62L5.66 8.22C6.52 8.82 7.36 9.1 7.96 9.76L8.18 9.62C8.76 10.24 9.1 11 9.06 11.52L8.94 13.12L8.6 13.04C8.02 13.84 6.86 14.56 5.68 15.08C5.06 14.82 4.72 14.92 4.74 15.46C3.78 15.82 2.92 16 2.56 16C2.28 16 1.8 15.68 1.32 15.22C0.52 15.06 0.34 14.58 0.44 14.22C0.18 13.86 -7.45058e-09 13.52 -7.45058e-09 13.3C-7.45058e-09 12.8 0.34 12.5 0.66 12.26C1 12.54 1.52 13.24 1.88 13.24C2.82 13.24 4.68 12.7 5.96 11.58V11.38C5.46 10.9 5.06 10.02 4.7 10.26C4.16 9.54 3.92 9.24 3.56 9.5C3.28 9.26 2.74 8.78 2.64 8.22C2.52 7.58 2.28 6.84 2.3 6.42C2.42 4.78 5.66 3.14 8.2 3.14C8.7 3.14 9.36 3.16 9.86 3.22ZM10.38 6.58L10.2 6.44L10.7 6.1C10.7 6.34 10.64 6.36 10.38 6.58ZM6.3 6.14V6.12C5.58 6.34 4.84 6.64 4.82 6.96L6.3 6.14ZM4.5 15.34V15.1L3.8 15.4L3.9 15.54L4.5 15.34ZM22.193 5.18C22.233 5.38 21.873 5.5 21.673 5.66C19.853 6.48 17.993 6.54 16.233 7.04C16.013 7.4 15.733 7.86 15.393 8.4C16.193 8.32 17.853 7.64 18.433 7.64C19.013 7.64 19.193 7.84 19.613 8.56C19.533 8.78 19.633 8.98 19.833 9.08L19.693 9.52C18.473 9.72 15.493 10.2 14.493 10.64C13.973 10.86 13.513 13.06 13.493 13.52C14.113 13.98 15.053 13.78 15.633 13.64L15.753 13.84C15.893 13.84 16.073 13.72 16.073 13.6C16.373 13.56 16.473 14.04 16.753 13.96C18.053 13.6 19.593 13.08 20.593 12.76C20.653 12.74 20.733 12.72 20.753 12.78C20.793 12.88 20.493 13.02 20.333 13.1L18.973 13.6C19.093 13.68 19.313 13.82 19.453 13.9C19.513 13.92 19.473 13.96 19.413 13.98C18.413 14.32 17.173 14.66 16.053 14.94C16.353 15.08 16.793 15.08 17.173 14.98C17.973 14.76 19.073 14.38 20.053 14.04C20.113 14.02 20.253 13.96 20.153 14.16C20.033 14.36 19.873 14.5 19.593 14.6C18.293 15.1 16.613 15.7 15.393 15.7C13.053 15.7 11.393 14.64 11.473 11.72C11.513 10.24 12.733 8.42 14.193 5.36C14.093 4.86 14.113 4.38 14.473 3.84C15.473 3.96 16.053 2.42 16.753 2.42C17.133 2.42 18.193 2.72 18.453 2.8C18.473 3.24 18.373 3.7 18.093 4.24C18.433 4.32 19.393 4.42 19.833 4.42L20.013 4.8C20.113 4.8 20.293 4.68 20.513 4.68C20.733 4.68 21.213 4.88 21.493 4.92C21.533 4.92 21.573 4.96 21.533 5C20.733 5.72 20.173 5.28 20.313 5.88C20.913 5.64 21.413 5.5 21.973 5.24C22.053 5.2 22.173 5.06 22.193 5.18ZM20.533 5.12C20.513 5.02 20.233 5 20.113 5.04L20.173 5.28L20.533 5.12ZM13.573 11.14V11.36H13.593C13.713 11.2 13.873 11.04 13.953 10.84C13.693 10.82 13.613 10.94 13.573 11.14ZM13.373 12.84L13.213 12.64C13.133 13 13.113 13.26 13.273 13.38L13.373 12.84ZM19.373 12.72C19.133 13 18.613 13.14 18.233 13.12C17.673 13.54 16.973 13.82 16.733 13.44C17.653 13.24 18.573 12.94 19.313 12.64C19.393 12.6 19.413 12.66 19.373 12.72ZM15.893 7.06L15.633 7.12L15.293 7.68L15.553 7.62L15.893 7.06ZM15.173 7.96C15.033 7.96 14.773 8.24 14.713 8.46L14.973 8.42L15.173 7.96ZM13.733 11.48L13.533 11.5L13.313 12.24L13.453 12.42L13.733 11.48ZM32.9352 5.18C32.9752 5.38 32.6152 5.5 32.4152 5.66C30.5952 6.48 28.7352 6.54 26.9752 7.04C26.7552 7.4 26.4752 7.86 26.1352 8.4C26.9352 8.32 28.5952 7.64 29.1752 7.64C29.7552 7.64 29.9352 7.84 30.3552 8.56C30.2752 8.78 30.3752 8.98 30.5752 9.08L30.4352 9.52C29.2152 9.72 26.2352 10.2 25.2352 10.64C24.7152 10.86 24.2552 13.06 24.2352 13.52C24.8552 13.98 25.7952 13.78 26.3752 13.64L26.4952 13.84C26.6352 13.84 26.8152 13.72 26.8152 13.6C27.1152 13.56 27.2152 14.04 27.4952 13.96C28.7952 13.6 30.3352 13.08 31.3352 12.76C31.3952 12.74 31.4752 12.72 31.4952 12.78C31.5352 12.88 31.2352 13.02 31.0752 13.1L29.7152 13.6C29.8352 13.68 30.0552 13.82 30.1952 13.9C30.2552 13.92 30.2152 13.96 30.1552 13.98C29.1552 14.32 27.9152 14.66 26.7952 14.94C27.0952 15.08 27.5352 15.08 27.9152 14.98C28.7152 14.76 29.8152 14.38 30.7952 14.04C30.8552 14.02 30.9952 13.96 30.8952 14.16C30.7752 14.36 30.6152 14.5 30.3352 14.6C29.0352 15.1 27.3552 15.7 26.1352 15.7C23.7952 15.7 22.1352 14.64 22.2152 11.72C22.2552 10.24 23.4752 8.42 24.9352 5.36C24.8352 4.86 24.8552 4.38 25.2152 3.84C26.2152 3.96 26.7952 2.42 27.4952 2.42C27.8752 2.42 28.9352 2.72 29.1952 2.8C29.2152 3.24 29.1152 3.7 28.8352 4.24C29.1752 4.32 30.1352 4.42 30.5752 4.42L30.7552 4.8C30.8552 4.8 31.0352 4.68 31.2552 4.68C31.4752 4.68 31.9552 4.88 32.2352 4.92C32.2752 4.92 32.3152 4.96 32.2752 5C31.4752 5.72 30.9152 5.28 31.0552 5.88C31.6552 5.64 32.1552 5.5 32.7152 5.24C32.7952 5.2 32.9152 5.06 32.9352 5.18ZM31.2752 5.12C31.2552 5.02 30.9752 5 30.8552 5.04L30.9152 5.28L31.2752 5.12ZM24.3152 11.14V11.36H24.3352C24.4552 11.2 24.6152 11.04 24.6952 10.84C24.4352 10.82 24.3552 10.94 24.3152 11.14ZM24.1152 12.84L23.9552 12.64C23.8752 13 23.8552 13.26 24.0152 13.38L24.1152 12.84ZM30.1152 12.72C29.8752 13 29.3552 13.14 28.9752 13.12C28.4152 13.54 27.7152 13.82 27.4752 13.44C28.3952 13.24 29.3152 12.94 30.0552 12.64C30.1352 12.6 30.1552 12.66 30.1152 12.72ZM26.6352 7.06L26.3752 7.12L26.0352 7.68L26.2952 7.62L26.6352 7.06ZM25.9152 7.96C25.7752 7.96 25.5152 8.24 25.4552 8.46L25.7152 8.42L25.9152 7.96ZM24.4752 11.48L24.2752 11.5L24.0552 12.24L24.1952 12.42L24.4752 11.48ZM45.9252 2.36L46.7852 4.08C48.1052 3.8 49.5852 3.48 50.5052 3.36C51.3652 3.58 52.0652 3.94 52.3252 4.66C51.9852 4.96 52.1652 5.48 52.3452 5.78C52.2452 5.84 52.1452 5.88 52.0252 5.92L51.9852 5.8C51.8652 5.74 51.7652 5.72 51.7052 5.72C51.6252 5.72 51.5652 5.78 51.5652 5.86C51.5652 5.92 51.5852 5.98 51.6052 6.02C50.4052 6.26 48.6452 6.1 46.9852 6.82H46.7052V6.6C46.5252 6.58 46.3852 6.68 46.2652 6.84C45.5852 6.92 45.3652 7.18 44.9452 8.44C44.8852 8.62 44.6452 8.86 44.5252 8.96L44.7052 9.06C44.6052 9.48 44.3052 10.28 44.1052 10.26C43.8852 10.24 44.0852 9.84 43.9652 9.86C43.7452 9.9 43.7252 10.34 43.6252 10.66C43.7252 10.92 43.7452 11.08 43.7452 11.24C43.6452 11.5 43.5452 11.94 43.4052 11.94C43.2052 11.94 43.3252 11.56 43.2452 11.4C43.0652 11.78 42.9252 12.14 42.7852 12.48L42.9452 12.58C43.0452 12.4 43.1452 12.34 43.3252 12.38C42.9452 13.42 42.6052 14.46 42.3852 15.36C41.9052 15.4 41.4252 15.34 41.0852 15.26L41.1652 15.04C40.6452 14.86 40.6852 14.18 40.6052 13.4C40.5252 13.3 40.4452 13.12 40.4452 12.98C40.4452 12.48 41.5852 9.52 42.5852 7.24H41.0252C40.1452 7.24 40.0852 7.52 39.4452 7.36C39.1452 6.9 38.7852 6.02 38.7852 5.42C38.7852 5.18 38.8652 4.96 39.0652 4.76C39.8452 4.84 41.7052 4.92 42.9252 4.68C44.9452 4.26 44.0652 2.36 45.9252 2.36ZM44.3452 9.42L44.2652 9.28L44.0652 9.64L44.1852 9.78L44.3452 9.42ZM61.8277 9C61.8277 9.66 61.4877 10.56 60.7677 11.14C60.8677 11.34 60.7277 11.56 60.5077 11.56L60.3677 11.3C60.2077 11.34 60.0877 11.42 60.2077 11.64C59.9877 11.64 59.6277 11.82 59.6277 12.04C59.6277 12.34 59.2877 12.24 59.0477 12.3C58.8277 12.52 58.6477 12.78 58.4077 13.1L58.1877 12.9C57.6677 13.22 57.9477 13.44 57.4077 13.7C57.0877 13.86 56.7077 13.84 56.3477 13.92C56.2877 13.98 56.5277 14.06 56.5077 14.14L56.1477 14.26L55.5877 13.92C55.2677 14.12 55.5077 14.58 55.1077 14.72C54.6277 14.88 54.2477 15.02 53.6877 15.2C53.3477 14.86 52.9477 14.98 52.6677 15.2C51.9677 14.76 51.1077 14.1 50.5877 13.66C50.1077 13.28 49.9477 12.3 49.9477 11.34C49.9477 6.48 56.0077 3.34 57.5077 3.34C58.0877 3.34 58.3677 3.7 58.9877 4.18C58.9877 5.1 59.9677 5.84 60.7877 6.4C61.5677 6.92 61.8277 7.92 61.8277 9ZM56.6477 13.64C56.6477 13.5 56.5477 13.44 56.3477 13.44C56.3477 13.5 56.2677 13.64 56.3077 13.68C56.3877 13.74 56.5477 13.68 56.6477 13.64ZM59.7277 8.34L58.6077 7.04C58.5477 6.86 58.5077 6.74 58.4277 6.82C58.3477 6.9 58.2677 6.94 58.2077 6.94C58.0677 6.94 57.9877 6.78 57.9677 6.78C56.9077 6.78 55.0677 8 54.2277 9.32C53.2677 9.78 52.6077 10.92 52.1677 12.3C52.6277 12.26 53.2277 12.22 53.5877 12.08L57.1877 10.58C57.5877 10.42 58.4477 10 58.8277 9.52L59.7277 8.34ZM57.5277 13.06L57.4277 12.86C57.0677 13.04 56.9277 13.14 56.9477 13.36L57.5277 13.06ZM53.1877 9.84L53.6477 9.28C53.3477 9.1 52.9877 9.38 52.9477 9.6C52.9477 9.72 53.0077 9.82 53.1877 9.84ZM53.1277 14.74L53.7277 14.84C53.6477 14.72 53.5077 14.62 53.3677 14.62C53.2877 14.64 53.2077 14.66 53.1277 14.74ZM58.1477 12.7C58.0877 12.64 58.0477 12.42 57.9877 12.38L57.6677 12.72L57.7477 12.94L58.1477 12.7ZM74.9136 9C74.9136 9.66 74.5736 10.56 73.8536 11.14C73.9536 11.34 73.8136 11.56 73.5936 11.56L73.4536 11.3C73.2936 11.34 73.1736 11.42 73.2936 11.64C73.0736 11.64 72.7136 11.82 72.7136 12.04C72.7136 12.34 72.3736 12.24 72.1336 12.3C71.9136 12.52 71.7336 12.78 71.4936 13.1L71.2736 12.9C70.7536 13.22 71.0336 13.44 70.4936 13.7C70.1736 13.86 69.7936 13.84 69.4336 13.92C69.3736 13.98 69.6136 14.06 69.5936 14.14L69.2336 14.26L68.6736 13.92C68.3536 14.12 68.5936 14.58 68.1936 14.72C67.7136 14.88 67.3336 15.02 66.7736 15.2C66.4336 14.86 66.0336 14.98 65.7536 15.2C65.0536 14.76 64.1936 14.1 63.6736 13.66C63.1936 13.28 63.0336 12.3 63.0336 11.34C63.0336 6.48 69.0936 3.34 70.5936 3.34C71.1736 3.34 71.4536 3.7 72.0736 4.18C72.0736 5.1 73.0536 5.84 73.8736 6.4C74.6536 6.92 74.9136 7.92 74.9136 9ZM69.7336 13.64C69.7336 13.5 69.6336 13.44 69.4336 13.44C69.4336 13.5 69.3536 13.64 69.3936 13.68C69.4736 13.74 69.6336 13.68 69.7336 13.64ZM72.8136 8.34L71.6936 7.04C71.6336 6.86 71.5936 6.74 71.5136 6.82C71.4336 6.9 71.3536 6.94 71.2936 6.94C71.1536 6.94 71.0736 6.78 71.0536 6.78C69.9936 6.78 68.1536 8 67.3136 9.32C66.3536 9.78 65.6936 10.92 65.2536 12.3C65.7136 12.26 66.3136 12.22 66.6736 12.08L70.2736 10.58C70.6736 10.42 71.5336 10 71.9136 9.52L72.8136 8.34ZM70.6136 13.06L70.5136 12.86C70.1536 13.04 70.0136 13.14 70.0336 13.36L70.6136 13.06ZM66.2736 9.84L66.7336 9.28C66.4336 9.1 66.0736 9.38 66.0336 9.6C66.0336 9.72 66.0936 9.82 66.2736 9.84ZM66.2136 14.74L66.8136 14.84C66.7336 14.72 66.5936 14.62 66.4536 14.62C66.3736 14.64 66.2936 14.66 66.2136 14.74ZM71.2336 12.7C71.1736 12.64 71.1336 12.42 71.0736 12.38L70.7536 12.72L70.8336 12.94L71.2336 12.7ZM88.9595 10.26C89.0195 10.54 87.7395 11.14 86.7195 11.4C86.2995 11.68 85.9795 11.76 85.7795 11.74C85.5395 11.74 85.4795 11.7 85.4395 11.64C85.0795 12 85.6595 12.3 87.0195 11.76C87.1195 11.74 87.2795 11.8 87.1995 11.84C86.8195 12.02 85.9795 12.46 85.6995 12.46C85.2395 12.46 84.8995 12.58 84.4795 12.72C83.2195 13.16 81.2195 13.92 79.7795 14.5C79.5195 14.6 79.0995 15 78.8595 15.02C78.6195 15.06 78.1195 15.1 77.8595 15.1C77.6995 15.1 77.5795 15 77.5195 14.88H77.0595C76.7595 14.58 76.4195 13.96 76.1595 13.96H75.9195C76.2595 10.44 79.8595 5.04 81.6795 2.7V2.38C82.7995 2.38 83.3795 3.28 83.3795 4.24C83.3795 4.48 82.3595 6.76 81.9995 7.42C81.7595 7.84 81.1195 8.44 80.7795 8.92C80.5995 9.18 80.4795 9.7 80.3195 9.98C80.0995 10.38 79.4195 10.72 79.6595 11.3C81.0195 10.88 81.2795 10.84 81.4395 10.8C81.6595 10.74 81.9195 10.68 82.1795 10.68C82.4995 10.68 82.7995 10.78 82.9595 11.06C83.0595 10.96 83.8595 10.64 83.9595 10.64C84.2395 10.64 84.2595 10.74 84.5395 10.74C84.7995 10.74 85.8395 10.4 86.5195 10.2C86.5395 10.24 86.6195 10.28 86.7595 10.3V10.32C86.1395 10.52 85.3195 10.72 84.7995 11.04L84.9995 11.16C85.6195 10.94 86.8795 10.38 87.5795 10.22C87.8195 10.3 88.0995 10.48 88.1195 10.52C88.4195 10.4 88.9395 10.12 88.9595 10.26ZM84.9995 12.28L84.6795 12.14C83.6195 12.34 81.3995 13.16 80.0195 13.84L80.0395 13.92L84.9995 12.28ZM88.7595 9.88C88.7595 10 88.4195 10.16 88.2795 10.26C88.1795 10.18 88.0795 10.12 87.9795 10.08C88.0595 10.02 88.7595 9.78 88.7595 9.88ZM87.3395 10.08L86.9995 10.2C86.9395 10.22 86.7795 10.12 86.8395 10.1L87.2395 9.98C87.4595 9.92 87.4395 10.04 87.3395 10.08ZM88.7195 11.14L87.5195 11.7C87.3795 11.76 87.2995 11.72 87.2395 11.64V11.62C88.4195 11.1 88.5595 11.02 88.7195 11.14ZM83.0395 11.22L83.1595 11.38L83.5995 11.14C83.4995 11.08 83.2795 11.06 83.0395 11.22ZM80.5995 8.86V8.5C80.3995 8.5 80.3195 8.74 80.3195 8.86H80.5995ZM79.6795 10.1L79.4395 10.04C79.2995 10.4 79.0595 10.74 79.3195 10.86L79.6795 10.1ZM97.1256 3.22L97.1056 3.46C97.8256 3.64 98.1856 4.28 98.1256 5.04C98.2256 5.12 98.2656 5.22 98.2656 5.32C98.2656 5.74 97.5856 6.3 96.8256 6.46C96.4056 5.92 97.0656 5.9 96.8656 5.68C94.8456 5.68 93.8256 6.08 92.0856 7.32V7.62L92.9256 8.22C93.7856 8.82 94.6256 9.1 95.2256 9.76L95.4456 9.62C96.0256 10.24 96.3656 11 96.3256 11.52L96.2056 13.12L95.8656 13.04C95.2856 13.84 94.1256 14.56 92.9456 15.08C92.3256 14.82 91.9856 14.92 92.0056 15.46C91.0456 15.82 90.1856 16 89.8256 16C89.5456 16 89.0656 15.68 88.5856 15.22C87.7856 15.06 87.6056 14.58 87.7056 14.22C87.4456 13.86 87.2656 13.52 87.2656 13.3C87.2656 12.8 87.6056 12.5 87.9256 12.26C88.2656 12.54 88.7856 13.24 89.1456 13.24C90.0856 13.24 91.9456 12.7 93.2256 11.58V11.38C92.7256 10.9 92.3256 10.02 91.9656 10.26C91.4256 9.54 91.1856 9.24 90.8256 9.5C90.5456 9.26 90.0056 8.78 89.9056 8.22C89.7856 7.58 89.5456 6.84 89.5656 6.42C89.6856 4.78 92.9256 3.14 95.4656 3.14C95.9656 3.14 96.6256 3.16 97.1256 3.22ZM97.6456 6.58L97.4656 6.44L97.9656 6.1C97.9656 6.34 97.9056 6.36 97.6456 6.58ZM93.5656 6.14V6.12C92.8456 6.34 92.1056 6.64 92.0856 6.96L93.5656 6.14ZM91.7656 15.34V15.1L91.0656 15.4L91.1656 15.54L91.7656 15.34ZM102.943 1.416L103.459 2.448C104.251 2.28 105.139 2.088 105.691 2.016C106.207 2.148 106.627 2.364 106.783 2.796C106.579 2.976 106.687 3.288 106.795 3.468C106.735 3.504 106.675 3.528 106.603 3.552L106.579 3.48C106.507 3.444 106.447 3.432 106.411 3.432C106.363 3.432 106.327 3.468 106.327 3.516C106.327 3.552 106.339 3.588 106.351 3.612C105.631 3.756 104.575 3.66 103.579 4.092H103.411V3.96C103.303 3.948 103.219 4.008 103.147 4.104C102.739 4.152 102.607 4.308 102.355 5.064C102.319 5.172 102.175 5.316 102.103 5.376L102.211 5.436C102.151 5.688 101.971 6.168 101.851 6.156C101.719 6.144 101.839 5.904 101.767 5.916C101.635 5.94 101.623 6.204 101.563 6.396C101.623 6.552 101.635 6.648 101.635 6.744C101.575 6.9 101.515 7.164 101.431 7.164C101.311 7.164 101.383 6.936 101.335 6.84C101.227 7.068 101.143 7.284 101.059 7.488L101.155 7.548C101.215 7.44 101.275 7.404 101.383 7.428C101.155 8.052 100.951 8.676 100.819 9.216C100.531 9.24 100.243 9.204 100.039 9.156L100.087 9.024C99.7746 8.916 99.7986 8.508 99.7506 8.04C99.7026 7.98 99.6546 7.872 99.6546 7.788C99.6546 7.488 100.339 5.712 100.939 4.344H100.003C99.4746 4.344 99.4386 4.512 99.0546 4.416C98.8746 4.14 98.6586 3.612 98.6586 3.252C98.6586 3.108 98.7066 2.976 98.8266 2.856C99.2946 2.904 100.411 2.952 101.143 2.808C102.355 2.556 101.827 1.416 102.943 1.416ZM101.995 5.652L101.947 5.568L101.827 5.784L101.899 5.868L101.995 5.652ZM115.676 4.056C115.676 4.404 115.532 4.86 115.316 4.788C115.052 4.704 114.932 5.268 114.872 5.4H114.68C114.68 5.544 114.848 5.568 114.956 5.604C114.896 5.736 114.764 5.772 114.62 5.76L114.284 6.816L114.428 6.744L114.68 5.976L114.752 6.168L114.584 6.768C114.524 6.984 114.416 7.152 114.296 7.152C114.128 7.152 114.164 7.368 114.116 7.524L114.032 7.416L113.96 7.488C114.02 7.608 114.14 7.764 114.14 7.908C114.14 8.184 113.84 8.7 113.636 9.168L113.432 8.988C113.408 9.012 113.372 9.024 113.336 9.036C113.3 9.048 113.264 9.048 113.216 9.048C112.76 9.048 112.232 8.28 112.232 7.848C112.232 7.356 113.216 5.592 113.648 4.644L113.612 4.548C113.264 4.764 112.412 5.04 112.376 5.412L110.252 7.224C110.048 6.948 109.904 7.152 109.652 7.152C109.34 7.152 109.16 6.564 109.04 6.168C109.22 5.58 109.52 4.848 109.808 4.176L109.688 3.936C109.208 4.332 108.764 4.944 108.428 5.472C107.924 6.288 107.24 7.548 106.724 8.484C106.604 8.436 106.7 8.232 106.784 8.064C106.652 8.028 106.556 8.232 106.472 8.46C106.388 8.7 106.412 8.964 106.484 9.132C106.424 9.18 106.364 9.204 106.292 9.204C105.8 9.204 105.116 8.328 105.116 8.064C105.116 7.776 106.124 6.18 106.676 5.316C107.3 4.32 107.912 3.396 108.728 2.784C108.956 2.436 109.448 1.74 109.88 1.74C110.552 1.74 110.792 2.58 111.068 3.252C111.008 3.564 111.044 4.02 111.164 4.296C111.548 4.032 112.028 3.624 112.412 3.408C112.496 3.36 112.604 3.432 112.664 3.528C112.76 3.456 112.832 3.324 112.772 3.192C113.408 2.796 114.212 2.388 114.476 2.388C114.704 2.388 114.992 2.592 115.244 2.784C115.448 3.264 115.676 3.66 115.676 4.056ZM114.836 4.968L114.764 4.872L114.632 5.244C114.764 5.148 114.872 5.028 114.836 4.968ZM114.2 6.672L114.572 5.544H114.56C114.392 5.784 114.164 6.096 114.164 6.468C114.164 6.54 114.176 6.6 114.188 6.672H114.2ZM114.788 4.788H114.92L115.064 4.416C114.896 4.416 114.884 4.572 114.788 4.788ZM114.032 6.672C113.996 6.708 113.984 6.792 113.972 6.876C113.972 6.936 113.984 6.996 113.984 7.02C114.08 6.948 114.14 6.72 114.032 6.672ZM106.976 7.704L106.904 7.656L106.772 7.884L106.844 7.956L106.976 7.704ZM115.196 5.16L115.1 5.4H114.968C115.016 5.304 115.136 5.184 115.196 5.16ZM107.072 7.356L106.964 7.524L107.036 7.584C107.096 7.464 107.156 7.416 107.072 7.356ZM8.2 28.06C8.2 28.6 8.12 29.32 8.02 29.92H7.8C7.26 30.68 6.94 32.08 6.02 32.58L6.1 32.82L5.32 33.26C4.54 34.38 4.2 35.76 3.76 36.9C3.7 37.06 3.44 37.38 3.7 37.46C3.76 37.48 3.9 37.06 3.92 37C4.38 35.96 4.72 34.4 5.44 33.58C5.72 33.48 5.52 33.72 5.48 33.78C4.78 34.96 4.44 36.32 3.86 37.72C3.46 38.66 3.32 39.52 3.42 39.92C3.06 39.8 2.74 39.66 2.42 39.48V38.84C2.28 38.96 2.22 39.1 2.2 39.32C1.74 38.98 1.36 38.52 1.1 37.82C1.1 34.22 4.82 29.3 6.26 26.66C6.38 26.5 6.64 26.38 6.86 26.38C7.06 26.38 7.26 26.46 7.48 26.52V27C7.88 27.16 8.2 27.62 8.2 28.06ZM3.56 37.8C3.28 37.52 3.36 37.84 3.34 37.9L3.12 38.44C3.1 38.5 3.16 38.7 3.28 38.5L3.56 37.8ZM18.147 31.7C18.727 30.8 20.067 28.9 21.247 27.76C21.467 27.62 21.867 27.52 22.287 27.5C23.007 27.48 23.567 27.58 23.907 27.82L23.507 28.1L23.547 28.18C23.687 28.18 24.067 28.06 24.187 27.98L24.747 28.58C23.707 29.06 21.847 30.44 20.827 31.84C20.707 32 20.627 31.76 20.507 31.84C20.467 32.56 20.047 32.94 19.567 33.7C19.467 33.88 19.507 34.14 19.387 34.42C19.387 34.54 19.087 34.66 19.027 34.84C18.527 36.38 17.847 37.98 17.207 39.62L16.307 39.2L16.187 39.48C14.907 39.14 14.787 38.64 14.607 37.3C14.547 36.78 14.707 35.88 14.567 35.44C14.087 34.04 14.547 33.44 14.427 32.42L14.327 31.64C13.707 31.84 13.007 32.44 12.487 33.38L12.547 33.7C11.547 35.58 10.647 38.18 9.74703 39.38H9.18703C8.60703 39.38 8.28703 38.04 8.04703 37.92L7.92703 37.04C7.82703 36.42 8.00703 36.2 8.14703 35.82C9.56703 32.38 11.847 30.3 13.427 28.68C14.027 28.9 15.667 29.92 15.947 30.66C16.187 31.26 16.427 32.52 16.627 33.34C17.987 30.98 19.987 28.04 20.427 27.88L20.847 27.82C19.607 29.04 18.727 30.48 18.247 31.18C18.067 31.48 17.987 31.6 18.027 31.62L18.147 31.7ZM21.007 31C21.047 30.94 20.907 30.82 20.867 30.88C20.707 31.12 20.387 31.54 20.587 31.64L21.007 31ZM20.607 28.66C20.627 28.7 20.687 28.78 20.767 28.76L21.107 28.32L20.947 28.24C20.847 28.32 20.727 28.46 20.607 28.66ZM23.287 28.24L22.907 28.52L22.947 28.7C23.147 28.56 23.327 28.54 23.287 28.24ZM19.387 34.84L19.287 35.52L19.107 35.4C19.127 35.12 19.147 34.74 19.387 34.84ZM21.527 30.28C21.567 30.24 21.487 30.06 21.387 30.18L20.987 30.7C21.107 30.68 21.147 30.72 21.167 30.8L21.527 30.28ZM13.487 29.28L13.327 29.16L12.887 29.62C13.127 29.82 13.347 29.42 13.487 29.28ZM38.8334 35.1C38.4734 35.14 38.0934 35.22 37.7534 35.26C37.5934 35.6 37.6534 36.48 37.2334 36.88C37.5134 37.04 37.3534 37.54 37.0934 37.78C37.2134 38.08 37.2934 38.3 36.8734 38.86C36.8534 38.94 37.0534 38.84 37.0934 38.8C37.0534 39.48 36.8934 40.02 36.6934 40.62C36.0734 40.62 35.5134 40.02 35.1934 40.14C35.2134 39.74 35.1534 39.58 34.8734 39.58L34.8934 39.3C34.9934 39.3 35.0734 39.24 35.0934 39.1C34.9934 39.1 34.9134 39.04 34.9134 38.9C34.9534 38.44 35.1934 37.86 35.3134 37.26C35.4534 37.26 35.4534 37.52 35.4334 37.82C35.5734 37.82 35.7934 37 35.8334 36.54L35.5934 36.44C35.5734 36.76 35.5734 37.2 35.3334 37.1C35.3934 36.82 35.4534 36.12 35.5134 35.88L35.8534 36.3C35.8334 36.06 35.9334 36 35.8934 35.7C34.7534 35.66 31.7334 37.28 30.8334 37.9L30.7334 38.16L30.8134 38.4C30.4734 39.1 30.1734 39.92 29.8534 40.34L28.5934 39.8C28.5334 39.18 27.6734 38.92 27.8934 38.4H27.5734C28.0134 35.38 31.3534 32.14 33.2334 29.62C34.1734 28.38 35.1134 27.54 35.8934 26.92C36.0334 26.8 36.5934 27 36.6334 26.62C36.8934 26.7 37.4534 26.94 37.7534 27.18L37.3934 27.3C37.3734 27.64 37.8734 27.26 37.9734 27.34C38.7134 27.98 38.2934 29.06 38.6734 29.64C38.6934 29.74 38.6534 31.46 38.3534 31.64C38.3934 31.68 38.4134 31.68 38.4734 31.72C38.3534 32.16 38.1934 32.74 38.1534 33.3C38.1334 33.54 38.8934 34.22 38.8334 35.1ZM37.2134 29.38L37.1534 29.18C36.7734 29.2 35.8534 30.32 34.9934 31.46L34.8934 31.36C34.9534 31.2 35.0134 31.08 34.9334 31C34.6134 31.36 34.4734 31.54 34.6534 31.92C34.3534 32.32 34.0734 32.68 33.8134 33C33.4534 33.46 32.9134 34.32 32.4534 34.98C32.8534 34.74 33.1534 34.32 33.9534 33.98C34.6534 33.68 35.0734 33.6 35.7934 33.4C35.8534 32.88 36.0534 32.5 36.1334 32.22L36.4734 32.52C36.7134 31.9 36.9934 30.28 37.2134 29.38ZM36.2534 33.14H36.0334C35.9534 33.38 36.0934 33.38 36.2334 33.36L36.2534 33.14ZM36.2334 33.02L36.2134 32.82L36.1334 32.8L36.0534 33.02H36.2334ZM35.5334 37.9L35.4134 37.96L35.3334 38.22H35.4534L35.5334 37.9ZM32.7134 36.42C32.4534 36.22 31.7934 36.66 31.4134 36.86C31.3134 37 31.2734 37.08 31.1934 37.22L32.7134 36.42ZM32.9534 36.3C33.1334 36.2 33.4334 36.08 33.6534 35.94V35.92C33.2134 35.94 33.0334 35.98 32.9534 36.3ZM36.9534 29.74L36.7934 30.36H36.6134L36.7734 29.82L36.9534 29.74ZM31.6134 36.5C31.6934 36.46 32.1534 36.3 32.2734 36.02C32.1134 36.08 31.9934 36.1 31.8534 36.16L31.6134 36.5ZM50.1202 29.46C49.3002 29.66 48.3202 30.06 47.6202 30.56C47.0402 30.98 46.6002 31.46 46.3602 31.68L46.2402 31.48C46.0202 31.84 45.2602 32.44 44.7002 32.94C44.6802 33.04 44.6202 33.26 44.5602 33.36C44.2002 33.74 42.2202 36.02 42.2202 37C42.2202 37.24 42.3202 37.38 42.5402 37.38C43.2602 37.38 44.9202 36.9 46.1202 36.72C46.4002 36.68 46.6202 36.8 46.7202 36.92C45.7602 37.12 44.4002 37.36 44.1802 37.76C44.5602 38 45.2202 37.84 45.5202 37.54C46.5802 37.34 47.9202 37.06 48.9402 36.92L49.2602 37L49.7402 36.94L49.9602 37.08L48.9202 37.24C48.6602 37.28 48.3802 37.36 48.5602 37.62L48.7002 37.82C48.5202 37.9 46.3002 38.56 44.9802 38.98C44.7602 39.06 44.6202 39.26 44.7402 39.4C44.3202 39.5 43.6802 39.68 43.2202 39.68C43.0002 39.68 42.8202 39.36 42.6202 39.36C42.1402 39.36 42.0202 38.86 41.3802 38.94C41.0202 38.6 40.2602 37.32 40.1002 37.02C40.0002 36.86 39.9602 36.56 39.9602 36.34V35.8C40.2802 35.52 40.3002 35.1 40.3002 34.68L40.5002 34.8C40.6402 34.58 40.4802 34.3 40.5802 34.08C41.0002 33.24 41.8002 31.9 42.0602 31.9C42.3202 31.9 41.9402 32.2 42.2202 32.2C42.4402 32.2 42.8602 31.16 43.0802 31.16H43.3202C43.2602 31.02 43.2402 30.78 43.2202 30.6H43.3602C43.8802 29.34 47.7002 27.08 48.4002 27.08C48.6402 27.08 49.1202 27.3 49.4202 27.46C49.7002 28.12 50.2602 28.64 50.1202 29.46ZM47.4002 38.56V38.58C47.0202 38.8 46.6402 39.02 46.3002 39.02C46.2002 39.02 46.1002 39 46.0202 38.96C46.4002 38.8 46.9402 38.7 47.4002 38.56ZM45.5202 39.34C45.4002 39.34 45.2602 39.32 45.1402 39.26L45.8002 39.04C46.0402 39.22 45.8202 39.34 45.5202 39.34ZM42.2002 32.38C42.0402 32.32 41.9402 32.36 41.8402 32.54L42.0402 32.66L42.2002 32.38ZM43.1402 34.64L42.9602 34.54L42.7202 34.92C42.6402 35.06 42.4202 35.38 42.5202 35.56L43.1402 34.64ZM42.3402 35.84H42.1402L42.0002 36.12L42.1202 36.28L42.3402 35.84ZM49.5602 37.52L48.9602 37.72L48.7602 37.48L49.3002 37.4L49.5602 37.52ZM47.6402 36.76C47.2802 36.76 46.9402 36.72 46.7802 36.64C47.5802 36.5 48.4202 36.34 49.0202 36.3C48.9202 36.64 48.2402 36.76 47.6402 36.76ZM43.9002 33.28L44.0802 33.4C44.5002 32.98 44.5002 32.9 44.5002 32.82C44.3002 32.82 44.1202 33.02 43.9002 33.28ZM43.9802 33.52L43.8002 33.4L43.6802 33.6L43.8202 33.72L43.9802 33.52ZM41.9202 32.86L41.7602 32.68L41.4802 33.14L41.6602 33.28L41.9202 32.86ZM58.0931 26.36L58.9531 28.08C60.2731 27.8 61.7531 27.48 62.6731 27.36C63.5331 27.58 64.2331 27.94 64.4931 28.66C64.1531 28.96 64.3331 29.48 64.5131 29.78C64.4131 29.84 64.3131 29.88 64.1931 29.92L64.1531 29.8C64.0331 29.74 63.9331 29.72 63.8731 29.72C63.7931 29.72 63.7331 29.78 63.7331 29.86C63.7331 29.92 63.7531 29.98 63.7731 30.02C62.5731 30.26 60.8131 30.1 59.1531 30.82H58.8731V30.6C58.6931 30.58 58.5531 30.68 58.4331 30.84C57.7531 30.92 57.5331 31.18 57.1131 32.44C57.0531 32.62 56.8131 32.86 56.6931 32.96L56.8731 33.06C56.7731 33.48 56.4731 34.28 56.2731 34.26C56.0531 34.24 56.2531 33.84 56.1331 33.86C55.9131 33.9 55.8931 34.34 55.7931 34.66C55.8931 34.92 55.9131 35.08 55.9131 35.24C55.8131 35.5 55.7131 35.94 55.5731 35.94C55.3731 35.94 55.4931 35.56 55.4131 35.4C55.2331 35.78 55.0931 36.14 54.9531 36.48L55.1131 36.58C55.2131 36.4 55.3131 36.34 55.4931 36.38C55.1131 37.42 54.7731 38.46 54.5531 39.36C54.0731 39.4 53.5931 39.34 53.2531 39.26L53.3331 39.04C52.8131 38.86 52.8531 38.18 52.7731 37.4C52.6931 37.3 52.6131 37.12 52.6131 36.98C52.6131 36.48 53.7531 33.52 54.7531 31.24H53.1931C52.3131 31.24 52.2531 31.52 51.6131 31.36C51.3131 30.9 50.9531 30.02 50.9531 29.42C50.9531 29.18 51.0331 28.96 51.2331 28.76C52.0131 28.84 53.8731 28.92 55.0931 28.68C57.1131 28.26 56.2331 26.36 58.0931 26.36ZM56.5131 33.42L56.4331 33.28L56.2331 33.64L56.3531 33.78L56.5131 33.42ZM69.2156 28.06C69.2156 28.6 69.1356 29.32 69.0356 29.92H68.8156C68.2756 30.68 67.9556 32.08 67.0356 32.58L67.1156 32.82L66.3356 33.26C65.5556 34.38 65.2156 35.76 64.7756 36.9C64.7156 37.06 64.4556 37.38 64.7156 37.46C64.7756 37.48 64.9156 37.06 64.9356 37C65.3956 35.96 65.7356 34.4 66.4556 33.58C66.7356 33.48 66.5356 33.72 66.4956 33.78C65.7956 34.96 65.4556 36.32 64.8756 37.72C64.4756 38.66 64.3356 39.52 64.4356 39.92C64.0756 39.8 63.7556 39.66 63.4356 39.48V38.84C63.2956 38.96 63.2356 39.1 63.2156 39.32C62.7556 38.98 62.3756 38.52 62.1156 37.82C62.1156 34.22 65.8356 29.3 67.2756 26.66C67.3956 26.5 67.6556 26.38 67.8756 26.38C68.0756 26.38 68.2756 26.46 68.4956 26.52V27C68.8956 27.16 69.2156 27.62 69.2156 28.06ZM64.5756 37.8C64.2956 37.52 64.3756 37.84 64.3556 37.9L64.1356 38.44C64.1156 38.5 64.1756 38.7 64.2956 38.5L64.5756 37.8ZM81.2027 33C81.2027 33.66 80.8627 34.56 80.1427 35.14C80.2427 35.34 80.1027 35.56 79.8827 35.56L79.7427 35.3C79.5827 35.34 79.4627 35.42 79.5827 35.64C79.3627 35.64 79.0027 35.82 79.0027 36.04C79.0027 36.34 78.6627 36.24 78.4227 36.3C78.2027 36.52 78.0227 36.78 77.7827 37.1L77.5627 36.9C77.0427 37.22 77.3227 37.44 76.7827 37.7C76.4627 37.86 76.0827 37.84 75.7227 37.92C75.6627 37.98 75.9027 38.06 75.8827 38.14L75.5227 38.26L74.9627 37.92C74.6427 38.12 74.8827 38.58 74.4827 38.72C74.0027 38.88 73.6227 39.02 73.0627 39.2C72.7227 38.86 72.3227 38.98 72.0427 39.2C71.3427 38.76 70.4827 38.1 69.9627 37.66C69.4827 37.28 69.3227 36.3 69.3227 35.34C69.3227 30.48 75.3827 27.34 76.8827 27.34C77.4627 27.34 77.7427 27.7 78.3627 28.18C78.3627 29.1 79.3427 29.84 80.1627 30.4C80.9427 30.92 81.2027 31.92 81.2027 33ZM76.0227 37.64C76.0227 37.5 75.9227 37.44 75.7227 37.44C75.7227 37.5 75.6427 37.64 75.6827 37.68C75.7627 37.74 75.9227 37.68 76.0227 37.64ZM79.1027 32.34L77.9827 31.04C77.9227 30.86 77.8827 30.74 77.8027 30.82C77.7227 30.9 77.6427 30.94 77.5827 30.94C77.4427 30.94 77.3627 30.78 77.3427 30.78C76.2827 30.78 74.4427 32 73.6027 33.32C72.6427 33.78 71.9827 34.92 71.5427 36.3C72.0027 36.26 72.6027 36.22 72.9627 36.08L76.5627 34.58C76.9627 34.42 77.8227 34 78.2027 33.52L79.1027 32.34ZM76.9027 37.06L76.8027 36.86C76.4427 37.04 76.3027 37.14 76.3227 37.36L76.9027 37.06ZM72.5627 33.84L73.0227 33.28C72.7227 33.1 72.3627 33.38 72.3227 33.6C72.3227 33.72 72.3827 33.82 72.5627 33.84ZM72.5027 38.74L73.1027 38.84C73.0227 38.72 72.8827 38.62 72.7427 38.62C72.6627 38.64 72.5827 38.66 72.5027 38.74ZM77.5227 36.7C77.4627 36.64 77.4227 36.42 77.3627 36.38L77.0427 36.72L77.1227 36.94L77.5227 36.7ZM92.2486 31.7C92.8286 30.8 94.1686 28.9 95.3486 27.76C95.5686 27.62 95.9686 27.52 96.3886 27.5C97.1086 27.48 97.6686 27.58 98.0086 27.82L97.6086 28.1L97.6486 28.18C97.7886 28.18 98.1686 28.06 98.2886 27.98L98.8486 28.58C97.8086 29.06 95.9486 30.44 94.9286 31.84C94.8086 32 94.7286 31.76 94.6086 31.84C94.5686 32.56 94.1486 32.94 93.6686 33.7C93.5686 33.88 93.6086 34.14 93.4886 34.42C93.4886 34.54 93.1886 34.66 93.1286 34.84C92.6286 36.38 91.9486 37.98 91.3086 39.62L90.4086 39.2L90.2886 39.48C89.0086 39.14 88.8886 38.64 88.7086 37.3C88.6486 36.78 88.8086 35.88 88.6686 35.44C88.1886 34.04 88.6486 33.44 88.5286 32.42L88.4286 31.64C87.8086 31.84 87.1086 32.44 86.5886 33.38L86.6486 33.7C85.6486 35.58 84.7486 38.18 83.8486 39.38H83.2886C82.7086 39.38 82.3886 38.04 82.1486 37.92L82.0286 37.04C81.9286 36.42 82.1086 36.2 82.2486 35.82C83.6686 32.38 85.9486 30.3 87.5286 28.68C88.1286 28.9 89.7686 29.92 90.0486 30.66C90.2886 31.26 90.5286 32.52 90.7286 33.34C92.0886 30.98 94.0886 28.04 94.5286 27.88L94.9486 27.82C93.7086 29.04 92.8286 30.48 92.3486 31.18C92.1686 31.48 92.0886 31.6 92.1286 31.62L92.2486 31.7ZM95.1086 31C95.1486 30.94 95.0086 30.82 94.9686 30.88C94.8086 31.12 94.4886 31.54 94.6886 31.64L95.1086 31ZM94.7086 28.66C94.7286 28.7 94.7886 28.78 94.8686 28.76L95.2086 28.32L95.0486 28.24C94.9486 28.32 94.8286 28.46 94.7086 28.66ZM97.3886 28.24L97.0086 28.52L97.0486 28.7C97.2486 28.56 97.4286 28.54 97.3886 28.24ZM93.4886 34.84L93.3886 35.52L93.2086 35.4C93.2286 35.12 93.2486 34.74 93.4886 34.84ZM95.6286 30.28C95.6686 30.24 95.5886 30.06 95.4886 30.18L95.0886 30.7C95.2086 30.68 95.2486 30.72 95.2686 30.8L95.6286 30.28ZM87.5886 29.28L87.4286 29.16L86.9886 29.62C87.2286 29.82 87.4486 29.42 87.5886 29.28Z" fill="#1482FF"/>
</svg>
