<svg width="1320" height="107" viewBox="0 0 1320 107" fill="none" xmlns="http://www.w3.org/2000/svg">
<rect width="1320" height="1" fill="#1482FF"/>
<rect y="51" width="142" height="56" rx="8" fill="#BFE002"/>
<path d="M53 86V72M35 79H49M35 79L41 73M35 79L41 85" stroke="black" stroke-width="2" stroke-linecap="round" stroke-linejoin="round"/>
<g filter="url(#filter0_d_2516_9833)">
<path d="M67.7628 85V73.3636H72.0241C72.8499 73.3636 73.5336 73.5 74.0753 73.7727C74.617 74.0417 75.0223 74.4072 75.2912 74.8693C75.5601 75.3277 75.6946 75.8447 75.6946 76.4205C75.6946 76.9053 75.6056 77.3144 75.4276 77.6477C75.2495 77.9773 75.0109 78.2424 74.7116 78.4432C74.4162 78.6402 74.0904 78.7841 73.7344 78.875V78.9886C74.1207 79.0076 74.4976 79.1326 74.8651 79.3636C75.2363 79.5909 75.5431 79.9148 75.7855 80.3352C76.0279 80.7557 76.1491 81.267 76.1491 81.8693C76.1491 82.464 76.009 82.9981 75.7287 83.4716C75.4522 83.9413 75.0241 84.3144 74.4446 84.5909C73.8651 84.8636 73.1245 85 72.223 85H67.7628ZM69.5185 83.4943H72.0526C72.8935 83.4943 73.4957 83.3314 73.8594 83.0057C74.223 82.6799 74.4048 82.2727 74.4048 81.7841C74.4048 81.4167 74.312 81.0795 74.1264 80.7727C73.9408 80.4659 73.6757 80.2216 73.331 80.0398C72.9901 79.858 72.5848 79.767 72.1151 79.767H69.5185V83.4943ZM69.5185 78.3977H71.8707C72.2647 78.3977 72.6188 78.322 72.9332 78.1705C73.2514 78.0189 73.5033 77.8068 73.6889 77.5341C73.8783 77.2576 73.973 76.9318 73.973 76.5568C73.973 76.0758 73.8045 75.6723 73.4673 75.3466C73.1302 75.0208 72.6132 74.858 71.9162 74.858H69.5185V78.3977ZM79.2145 85H77.3509L81.5384 73.3636H83.5668L87.7543 85H85.8906L82.6009 75.4773H82.5099L79.2145 85ZM79.527 80.4432H85.5724V81.9205H79.527V80.4432ZM98.5526 77.1477H96.7798C96.7116 76.7689 96.5848 76.4356 96.3991 76.1477C96.2135 75.8598 95.9863 75.6155 95.7173 75.4148C95.4484 75.214 95.1473 75.0625 94.8139 74.9602C94.4844 74.858 94.134 74.8068 93.7628 74.8068C93.0923 74.8068 92.492 74.9754 91.9616 75.3125C91.4351 75.6496 91.0185 76.1439 90.7116 76.7955C90.4086 77.447 90.2571 78.2424 90.2571 79.1818C90.2571 80.1288 90.4086 80.928 90.7116 81.5795C91.0185 82.2311 91.437 82.7235 91.9673 83.0568C92.4976 83.3902 93.0942 83.5568 93.7571 83.5568C94.1245 83.5568 94.473 83.5076 94.8026 83.4091C95.1359 83.3068 95.437 83.1572 95.706 82.9602C95.9749 82.7633 96.2022 82.5227 96.3878 82.2386C96.5772 81.9508 96.7079 81.6212 96.7798 81.25L98.5526 81.2557C98.4579 81.8277 98.2741 82.3542 98.0014 82.8352C97.7325 83.3125 97.3859 83.7254 96.9616 84.0739C96.5412 84.4186 96.0601 84.6856 95.5185 84.875C94.9768 85.0644 94.3859 85.1591 93.7457 85.1591C92.7382 85.1591 91.8404 84.9205 91.0526 84.4432C90.2647 83.9621 89.6435 83.2746 89.1889 82.3807C88.7382 81.4867 88.5128 80.4205 88.5128 79.1818C88.5128 77.9394 88.7401 76.8731 89.1946 75.983C89.6491 75.089 90.2704 74.4034 91.0582 73.9261C91.8461 73.4451 92.742 73.2045 93.7457 73.2045C94.3632 73.2045 94.9389 73.2936 95.473 73.4716C96.0109 73.6458 96.4938 73.9034 96.9219 74.2443C97.3499 74.5814 97.7041 74.9943 97.9844 75.483C98.2647 75.9678 98.4541 76.5227 98.5526 77.1477ZM100.653 85V73.3636H102.409V78.9205H102.551L107.432 73.3636H109.642L104.949 78.6023L109.659 85H107.545L103.784 79.8011L102.409 81.3807V85H100.653Z" fill="#252D36"/>
</g>
<rect x="1138" y="51" width="182" height="56" rx="8" fill="#BFE002"/>
<g filter="url(#filter1_d_2516_9833)">
<path d="M1172.06 73.3636H1174.19L1177.89 82.4091H1178.03L1181.74 73.3636H1183.87V85H1182.2V76.5795H1182.09L1178.66 84.983H1177.27L1173.84 76.5739H1173.73V85H1172.06V73.3636ZM1196.53 79.1818C1196.53 80.4242 1196.3 81.4924 1195.85 82.3864C1195.39 83.2765 1194.77 83.9621 1193.98 84.4432C1193.19 84.9205 1192.29 85.1591 1191.29 85.1591C1190.28 85.1591 1189.38 84.9205 1188.59 84.4432C1187.8 83.9621 1187.18 83.2746 1186.73 82.3807C1186.27 81.4867 1186.04 80.4205 1186.04 79.1818C1186.04 77.9394 1186.27 76.8731 1186.73 75.983C1187.18 75.089 1187.8 74.4034 1188.59 73.9261C1189.38 73.4451 1190.28 73.2045 1191.29 73.2045C1192.29 73.2045 1193.19 73.4451 1193.98 73.9261C1194.77 74.4034 1195.39 75.089 1195.85 75.983C1196.3 76.8731 1196.53 77.9394 1196.53 79.1818ZM1194.79 79.1818C1194.79 78.2348 1194.63 77.4375 1194.33 76.7898C1194.03 76.1383 1193.61 75.6458 1193.08 75.3125C1192.55 74.9754 1191.96 74.8068 1191.29 74.8068C1190.62 74.8068 1190.02 74.9754 1189.49 75.3125C1188.97 75.6458 1188.55 76.1383 1188.24 76.7898C1187.94 77.4375 1187.79 78.2348 1187.79 79.1818C1187.79 80.1288 1187.94 80.928 1188.24 81.5795C1188.55 82.2273 1188.97 82.7197 1189.49 83.0568C1190.02 83.3902 1190.62 83.5568 1191.29 83.5568C1191.96 83.5568 1192.55 83.3902 1193.08 83.0568C1193.61 82.7197 1194.03 82.2273 1194.33 81.5795C1194.63 80.928 1194.79 80.1288 1194.79 79.1818ZM1202.48 85H1198.72V73.3636H1202.6C1203.74 73.3636 1204.72 73.5966 1205.54 74.0625C1206.36 74.5246 1206.98 75.1894 1207.42 76.0568C1207.86 76.9205 1208.08 77.9564 1208.08 79.1648C1208.08 80.3769 1207.86 81.4186 1207.41 82.2898C1206.98 83.161 1206.34 83.8314 1205.51 84.3011C1204.67 84.767 1203.66 85 1202.48 85ZM1200.47 83.4659H1202.39C1203.27 83.4659 1204.01 83.2992 1204.6 82.9659C1205.18 82.6288 1205.62 82.142 1205.91 81.5057C1206.21 80.8655 1206.35 80.0852 1206.35 79.1648C1206.35 78.2519 1206.21 77.4773 1205.91 76.8409C1205.63 76.2045 1205.2 75.7216 1204.62 75.392C1204.05 75.0625 1203.34 74.8977 1202.49 74.8977H1200.47V83.4659ZM1217.75 73.3636H1219.51V81.017C1219.51 81.8314 1219.32 82.553 1218.93 83.1818C1218.55 83.8068 1218.01 84.2992 1217.32 84.6591C1216.63 85.0152 1215.81 85.1932 1214.88 85.1932C1213.95 85.1932 1213.14 85.0152 1212.45 84.6591C1211.76 84.2992 1211.22 83.8068 1210.84 83.1818C1210.45 82.553 1210.26 81.8314 1210.26 81.017V73.3636H1212.02V80.875C1212.02 81.4015 1212.13 81.8693 1212.37 82.2784C1212.6 82.6875 1212.93 83.0095 1213.36 83.2443C1213.79 83.4754 1214.29 83.5909 1214.88 83.5909C1215.47 83.5909 1215.98 83.4754 1216.41 83.2443C1216.84 83.0095 1217.17 82.6875 1217.4 82.2784C1217.63 81.8693 1217.75 81.4015 1217.75 80.875V73.3636ZM1222.06 85V73.3636H1223.82V83.4886H1229.09V85H1222.06ZM1231.09 85V73.3636H1238.39V74.875H1232.85V78.4205H1238.01V79.9261H1232.85V83.4886H1238.45V85H1231.09ZM1248.86 85.1591C1248.08 85.1591 1247.38 85.0246 1246.77 84.7557C1246.16 84.4867 1245.67 84.1136 1245.32 83.6364C1244.97 83.1553 1244.78 82.5985 1244.75 81.9659H1246.53C1246.56 82.3106 1246.67 82.6098 1246.88 82.8636C1247.09 83.1136 1247.37 83.3068 1247.71 83.4432C1248.05 83.5795 1248.43 83.6477 1248.85 83.6477C1249.3 83.6477 1249.71 83.5682 1250.06 83.4091C1250.42 83.25 1250.7 83.0284 1250.9 82.7443C1251.1 82.4564 1251.2 82.125 1251.2 81.75C1251.2 81.3598 1251.1 81.017 1250.9 80.7216C1250.7 80.4223 1250.41 80.1875 1250.03 80.017C1249.65 79.8466 1249.19 79.7614 1248.65 79.7614H1247.67V78.3295H1248.65C1249.09 78.3295 1249.46 78.2519 1249.79 78.0966C1250.12 77.9413 1250.38 77.7254 1250.56 77.4489C1250.75 77.1686 1250.84 76.8409 1250.84 76.4659C1250.84 76.1061 1250.76 75.7936 1250.6 75.5284C1250.44 75.2595 1250.21 75.0492 1249.91 74.8977C1249.62 74.7462 1249.28 74.6705 1248.88 74.6705C1248.5 74.6705 1248.15 74.7405 1247.82 74.8807C1247.49 75.017 1247.23 75.214 1247.02 75.4716C1246.82 75.7254 1246.71 76.0303 1246.69 76.3864H1244.99C1245.01 75.7576 1245.2 75.2045 1245.55 74.7273C1245.91 74.25 1246.38 73.8769 1246.96 73.608C1247.54 73.339 1248.19 73.2045 1248.9 73.2045C1249.65 73.2045 1250.29 73.3504 1250.84 73.642C1251.38 73.9299 1251.8 74.3144 1252.1 74.7955C1252.4 75.2765 1252.54 75.803 1252.54 76.375C1252.54 77.0265 1252.36 77.5795 1251.99 78.0341C1251.63 78.4886 1251.15 78.7936 1250.54 78.9489V79.0398C1251.31 79.1572 1251.91 79.464 1252.34 79.9602C1252.76 80.4564 1252.98 81.072 1252.97 81.8068C1252.98 82.447 1252.8 83.0208 1252.44 83.5284C1252.08 84.036 1251.59 84.4356 1250.98 84.7273C1250.36 85.0152 1249.65 85.1591 1248.86 85.1591Z" fill="#252D36"/>
</g>
<path d="M1267 72V86M1285 79H1271M1285 79L1279 85M1285 79L1279 73" stroke="black" stroke-width="2" stroke-linecap="round" stroke-linejoin="round"/>
<defs>
<filter id="filter0_d_2516_9833" x="67.7627" y="73.2045" width="43.8965" height="13.9546" filterUnits="userSpaceOnUse" color-interpolation-filters="sRGB">
<feFlood flood-opacity="0" result="BackgroundImageFix"/>
<feColorMatrix in="SourceAlpha" type="matrix" values="0 0 0 0 0 0 0 0 0 0 0 0 0 0 0 0 0 0 127 0" result="hardAlpha"/>
<feOffset dx="1" dy="1"/>
<feGaussianBlur stdDeviation="0.5"/>
<feComposite in2="hardAlpha" operator="out"/>
<feColorMatrix type="matrix" values="0 0 0 0 0 0 0 0 0 0 0 0 0 0 0 0 0 0 0.01 0"/>
<feBlend mode="normal" in2="BackgroundImageFix" result="effect1_dropShadow_2516_9833"/>
<feBlend mode="normal" in="SourceGraphic" in2="effect1_dropShadow_2516_9833" result="shape"/>
</filter>
<filter id="filter1_d_2516_9833" x="1172.06" y="73.2045" width="82.9175" height="13.9886" filterUnits="userSpaceOnUse" color-interpolation-filters="sRGB">
<feFlood flood-opacity="0" result="BackgroundImageFix"/>
<feColorMatrix in="SourceAlpha" type="matrix" values="0 0 0 0 0 0 0 0 0 0 0 0 0 0 0 0 0 0 127 0" result="hardAlpha"/>
<feOffset dx="1" dy="1"/>
<feGaussianBlur stdDeviation="0.5"/>
<feComposite in2="hardAlpha" operator="out"/>
<feColorMatrix type="matrix" values="0 0 0 0 0 0 0 0 0 0 0 0 0 0 0 0 0 0 0.01 0"/>
<feBlend mode="normal" in2="BackgroundImageFix" result="effect1_dropShadow_2516_9833"/>
<feBlend mode="normal" in="SourceGraphic" in2="effect1_dropShadow_2516_9833" result="shape"/>
</filter>
</defs>
</svg>
