<svg width="166" height="48" viewBox="0 0 166 48" fill="none" xmlns="http://www.w3.org/2000/svg">
<rect width="166" height="48" rx="8" fill="#7E0EB3"/>
<path d="M42.125 17.25C42.125 16.1454 41.2296 15.25 40.125 15.25H26C24.8954 15.25 24 16.1454 24 17.25V30.75C24 31.8546 24.8954 32.75 26 32.75H40.125C41.2296 32.75 42.125 31.8546 42.125 30.75V17.25Z" fill="white"/>
<path d="M51.709 15.25C51.3745 15.25 51.053 15.3799 50.8123 15.6122L46.3608 19.9103C45.9705 20.2871 45.75 20.8065 45.75 21.3491V26.6509C45.75 27.1935 45.9705 27.7129 46.3608 28.0897L50.8123 32.3878C51.053 32.6201 51.3745 32.75 51.709 32.75C52.422 32.75 53 32.172 53 31.459V16.541C53 15.828 52.422 15.25 51.709 15.25Z" fill="white"/>
<g filter="url(#filter0_d_2516_9729)">
<path d="M71.4219 21.4205C71.3613 20.8826 71.1113 20.4659 70.6719 20.1705C70.2325 19.8712 69.6795 19.7216 69.0128 19.7216C68.5355 19.7216 68.1226 19.7973 67.7741 19.9489C67.4257 20.0966 67.1548 20.3011 66.9616 20.5625C66.7723 20.8201 66.6776 21.1136 66.6776 21.4432C66.6776 21.7197 66.742 21.9583 66.8707 22.1591C67.0033 22.3598 67.1757 22.5284 67.3878 22.6648C67.6037 22.7973 67.8348 22.9091 68.081 23C68.3272 23.0871 68.5639 23.1591 68.7912 23.2159L69.9276 23.5114C70.2988 23.6023 70.6795 23.7254 71.0696 23.8807C71.4598 24.036 71.8215 24.2405 72.1548 24.4943C72.4882 24.7481 72.7571 25.0625 72.9616 25.4375C73.17 25.8125 73.2741 26.2614 73.2741 26.7841C73.2741 27.4432 73.1037 28.0284 72.7628 28.5398C72.4257 29.0511 71.9351 29.4545 71.2912 29.75C70.651 30.0455 69.8764 30.1932 68.9673 30.1932C68.0961 30.1932 67.3423 30.0549 66.706 29.7784C66.0696 29.5019 65.5715 29.1098 65.2116 28.6023C64.8518 28.0909 64.6529 27.4848 64.6151 26.7841H66.3764C66.4105 27.2045 66.5469 27.5549 66.7855 27.8352C67.0279 28.1117 67.3366 28.3182 67.7116 28.4545C68.0904 28.5871 68.5052 28.6534 68.956 28.6534C69.4522 28.6534 69.8935 28.5758 70.2798 28.4205C70.67 28.2614 70.9768 28.0417 71.2003 27.7614C71.4238 27.4773 71.5355 27.1458 71.5355 26.767C71.5355 26.4223 71.437 26.1402 71.2401 25.9205C71.0469 25.7008 70.7836 25.5189 70.4503 25.375C70.1207 25.2311 69.7476 25.1042 69.331 24.9943L67.956 24.6193C67.0241 24.3655 66.2855 23.9924 65.7401 23.5C65.1984 23.0076 64.9276 22.3561 64.9276 21.5455C64.9276 20.875 65.1094 20.2898 65.473 19.7898C65.8366 19.2898 66.3291 18.9015 66.9503 18.625C67.5715 18.3447 68.2723 18.2045 69.0526 18.2045C69.8404 18.2045 70.5355 18.3428 71.1378 18.6193C71.7438 18.8958 72.2211 19.2765 72.5696 19.7614C72.9181 20.2424 73.0999 20.7955 73.1151 21.4205H71.4219ZM75.3722 30V18.3636H77.1278V23.4205H82.929V18.3636H84.6903V30H82.929V24.9261H77.1278V30H75.3722ZM97.3551 24.1818C97.3551 25.4242 97.1278 26.4924 96.6733 27.3864C96.2188 28.2765 95.5956 28.9621 94.804 29.4432C94.0161 29.9205 93.1203 30.1591 92.1165 30.1591C91.1089 30.1591 90.2093 29.9205 89.4176 29.4432C88.6297 28.9621 88.0085 28.2746 87.554 27.3807C87.0994 26.4867 86.8722 25.4205 86.8722 24.1818C86.8722 22.9394 87.0994 21.8731 87.554 20.983C88.0085 20.089 88.6297 19.4034 89.4176 18.9261C90.2093 18.4451 91.1089 18.2045 92.1165 18.2045C93.1203 18.2045 94.0161 18.4451 94.804 18.9261C95.5956 19.4034 96.2188 20.089 96.6733 20.983C97.1278 21.8731 97.3551 22.9394 97.3551 24.1818ZM95.6165 24.1818C95.6165 23.2348 95.4631 22.4375 95.1562 21.7898C94.8532 21.1383 94.4366 20.6458 93.9062 20.3125C93.3797 19.9754 92.7831 19.8068 92.1165 19.8068C91.446 19.8068 90.8475 19.9754 90.321 20.3125C89.7945 20.6458 89.3778 21.1383 89.071 21.7898C88.768 22.4375 88.6165 23.2348 88.6165 24.1818C88.6165 25.1288 88.768 25.928 89.071 26.5795C89.3778 27.2273 89.7945 27.7197 90.321 28.0568C90.8475 28.3902 91.446 28.5568 92.1165 28.5568C92.7831 28.5568 93.3797 28.3902 93.9062 28.0568C94.4366 27.7197 94.8532 27.2273 95.1562 26.5795C95.4631 25.928 95.6165 25.1288 95.6165 24.1818ZM101.682 30L98.4545 18.3636H100.301L102.568 27.375H102.676L105.034 18.3636H106.864L109.222 27.3807H109.33L111.591 18.3636H113.443L110.21 30H108.443L105.994 21.2841H105.903L103.455 30H101.682ZM119.278 18.3636H121.409L125.114 27.4091H125.25L128.955 18.3636H131.085V30H129.415V21.5795H129.307L125.875 29.983H124.489L121.057 21.5739H120.949V30H119.278V18.3636ZM133.638 30V18.3636H140.933V19.875H135.393V23.4205H140.553V24.9261H135.393V28.4886H141.001V30H133.638Z" fill="white"/>
</g>
<defs>
<filter id="filter0_d_2516_9729" x="64.6152" y="18.2046" width="78.3862" height="13.9886" filterUnits="userSpaceOnUse" color-interpolation-filters="sRGB">
<feFlood flood-opacity="0" result="BackgroundImageFix"/>
<feColorMatrix in="SourceAlpha" type="matrix" values="0 0 0 0 0 0 0 0 0 0 0 0 0 0 0 0 0 0 127 0" result="hardAlpha"/>
<feOffset dx="1" dy="1"/>
<feGaussianBlur stdDeviation="0.5"/>
<feComposite in2="hardAlpha" operator="out"/>
<feColorMatrix type="matrix" values="0 0 0 0 0 0 0 0 0 0 0 0 0 0 0 0 0 0 0.01 0"/>
<feBlend mode="normal" in2="BackgroundImageFix" result="effect1_dropShadow_2516_9729"/>
<feBlend mode="normal" in="SourceGraphic" in2="effect1_dropShadow_2516_9729" result="shape"/>
</filter>
</defs>
</svg>
